<svg width="466" height="350" viewBox="0 0 466 350" fill="none" xmlns="http://www.w3.org/2000/svg">
<g filter="url(#filter0_dd_223_9295)">
<rect x="3" y="2" width="460" height="344" rx="24" fill="white"/>
<rect x="3.5" y="2.5" width="459" height="343" rx="23.5" stroke="black" stroke-opacity="0.06"/>
<g clip-path="url(#clip0_223_9295)">
<rect x="15" y="14" width="436" height="320" rx="16" fill="url(#paint0_linear_223_9295)"/>
<g clip-path="url(#clip1_223_9295)">
<rect width="474" height="291" transform="translate(-4.39062 42.6445)" fill="url(#paint1_linear_223_9295)"/>
<circle cx="346.649" cy="163.077" r="1.13974" transform="rotate(90 346.649 163.077)" fill="#D0D5DD"/>
<circle cx="174.548" cy="163.077" r="1.13974" transform="rotate(90 174.548 163.077)" fill="#D0D5DD"/>
<circle cx="309.032" cy="163.077" r="1.13974" transform="rotate(90 309.032 163.077)" fill="#D0D5DD"/>
<circle cx="136.938" cy="163.077" r="1.13974" transform="rotate(90 136.938 163.077)" fill="#D0D5DD"/>
<circle cx="299.915" cy="179.034" r="1.13974" transform="rotate(90 299.915 179.034)" fill="#D0D5DD"/>
<circle cx="127.821" cy="179.034" r="1.13974" transform="rotate(90 127.821 179.034)" fill="#D0D5DD"/>
<circle cx="299.915" cy="300.987" r="1.13974" transform="rotate(90 299.915 300.987)" fill="#D0D5DD"/>
<circle cx="127.821" cy="314.663" r="1.13974" transform="rotate(90 127.821 314.663)" fill="#D0D5DD"/>
<circle opacity="0.6" cx="337.532" cy="310.105" r="1.13974" transform="rotate(90 337.532 310.105)" fill="#D0D5DD"/>
<circle cx="165.431" cy="314.663" r="1.13974" transform="rotate(90 165.431 314.663)" fill="#D0D5DD"/>
<circle cx="327.274" cy="246.28" r="1.13974" transform="rotate(90 327.274 246.28)" fill="#D0D5DD"/>
<circle cx="384.259" cy="246.28" r="1.13974" transform="rotate(90 384.259 246.28)" fill="#D0D5DD"/>
<circle cx="384.259" cy="148.261" r="1.13974" transform="rotate(90 384.259 148.261)" fill="#D0D5DD"/>
<circle cx="384.259" cy="87.8546" r="1.13974" transform="rotate(90 384.259 87.8546)" fill="#D0D5DD"/>
<circle opacity="0.5" cx="322.712" cy="87.8546" r="1.13974" transform="rotate(90 322.712 87.8546)" fill="#D0D5DD"/>
<circle cx="322.712" cy="130.026" r="1.13974" transform="rotate(90 322.712 130.026)" fill="#D0D5DD"/>
<circle opacity="0.5" cx="250.907" cy="75.3194" r="1.13974" transform="rotate(90 250.907 75.3194)" fill="#D0D5DD"/>
<circle cx="421.868" cy="67.339" r="1.13974" transform="rotate(90 421.868 67.339)" fill="#D0D5DD"/>
<circle cx="183.665" cy="108.37" r="1.13974" transform="rotate(90 183.665 108.37)" fill="#D0D5DD"/>
<circle cx="87.9228" cy="130.026" r="1.13974" transform="rotate(90 87.9228 130.026)" fill="#D0D5DD"/>
<circle cx="87.9228" cy="49.1046" r="1.13974" transform="rotate(90 87.9228 49.1046)" fill="#D0D5DD"/>
<circle cx="221.274" cy="232.605" r="1.13974" transform="rotate(90 221.274 232.605)" fill="#D0D5DD"/>
<circle cx="399.071" cy="221.206" r="1.13974" transform="rotate(90 399.071 221.206)" fill="#D0D5DD"/>
<circle cx="221.274" cy="169.917" r="1.13974" transform="rotate(90 221.274 169.917)" fill="#D0D5DD"/>
<circle cx="399.071" cy="158.519" r="1.13974" transform="rotate(90 399.071 158.519)" fill="#D0D5DD"/>
<circle cx="58.29" cy="267.933" r="1.13974" transform="rotate(90 58.29 267.933)" fill="#D0D5DD"/>
<circle cx="253.188" cy="169.917" r="1.13974" transform="rotate(90 253.188 169.917)" fill="#D0D5DD"/>
<circle cx="430.985" cy="158.519" r="1.13974" transform="rotate(90 430.985 158.519)" fill="#D0D5DD"/>
<circle cx="20.6806" cy="169.917" r="1.13974" transform="rotate(90 20.6806 169.917)" fill="#D0D5DD"/>
<circle cx="90.204" cy="267.933" r="1.13974" transform="rotate(90 90.204 267.933)" fill="#D0D5DD"/>
<circle cx="253.188" cy="139.144" r="1.13974" transform="rotate(90 253.188 139.144)" fill="#D0D5DD"/>
<circle cx="430.985" cy="127.745" r="1.13974" transform="rotate(90 430.985 127.745)" fill="#D0D5DD"/>
<circle opacity="0.4" cx="18.3993" cy="164.218" r="1.13974" transform="rotate(90 18.3993 164.218)" fill="#D0D5DD"/>
<circle opacity="0.9" cx="20.6806" cy="90.1358" r="1.13974" transform="rotate(90 20.6806 90.1358)" fill="#D0D5DD"/>
<circle opacity="0.4" cx="32.079" cy="87.8546" r="1.13974" transform="rotate(90 32.079 87.8546)" fill="#D0D5DD"/>
<circle opacity="0.8" cx="32.079" cy="69.6202" r="1.13974" transform="rotate(90 32.079 69.6202)" fill="#D0D5DD"/>
<circle cx="90.204" cy="250.839" r="1.13974" transform="rotate(90 90.204 250.839)" fill="#D0D5DD"/>
<circle opacity="0.4" cx="71.9696" cy="303.265" r="1.13974" transform="rotate(90 71.9696 303.265)" fill="#D0D5DD"/>
<circle opacity="0.8" cx="67.4149" cy="307.823" r="1.13974" transform="rotate(90 67.4149 307.823)" fill="#D0D5DD"/>
<rect x="73.5368" y="93.9821" width="318.272" height="165.547" rx="9.89581" fill="#FFF2F7" stroke="#FFCCDF" stroke-width="0.854803"/>
<g filter="url(#filter1_di_223_9295)">
<rect x="53.7344" y="76.457" width="356.738" height="167.541" rx="12.904" fill="white"/>
<rect x="54.1618" y="76.8844" width="355.883" height="166.687" rx="12.4766" stroke="#E3E5E7" stroke-width="0.854803"/>
</g>
<rect x="193.209" y="123.994" width="68.381" height="22.4247" rx="11.2123" fill="white"/>
<rect x="193.209" y="123.994" width="68.381" height="22.4247" rx="11.2123" stroke="#D0D5DD" stroke-width="0.854803"/>
<path d="M209.903 132.869C209.796 132.542 209.655 132.249 209.48 131.99C209.308 131.727 209.103 131.504 208.863 131.319C208.627 131.135 208.358 130.994 208.057 130.897C207.756 130.8 207.426 130.751 207.066 130.751C206.477 130.751 205.941 130.903 205.458 131.208C204.976 131.512 204.592 131.96 204.307 132.553C204.022 133.145 203.88 133.872 203.88 134.734C203.88 135.595 204.024 136.322 204.312 136.914C204.6 137.507 204.991 137.955 205.483 138.26C205.975 138.564 206.529 138.716 207.144 138.716C207.714 138.716 208.216 138.595 208.649 138.352C209.087 138.106 209.427 137.759 209.669 137.313C209.915 136.863 210.038 136.333 210.038 135.724L210.408 135.802H207.416V134.734H211.204V135.802C211.204 136.621 211.029 137.334 210.68 137.939C210.333 138.545 209.854 139.014 209.242 139.348C208.633 139.678 207.934 139.843 207.144 139.843C206.263 139.843 205.489 139.636 204.822 139.221C204.158 138.807 203.64 138.218 203.268 137.453C202.899 136.689 202.714 135.783 202.714 134.734C202.714 133.947 202.82 133.239 203.03 132.611C203.244 131.98 203.545 131.442 203.933 130.999C204.322 130.555 204.782 130.215 205.313 129.979C205.844 129.742 206.428 129.624 207.066 129.624C207.591 129.624 208.08 129.704 208.533 129.862C208.989 130.018 209.396 130.239 209.752 130.528C210.111 130.813 210.411 131.154 210.65 131.552C210.89 131.947 211.055 132.386 211.146 132.869H209.903ZM216.239 139.862C215.521 139.862 214.901 139.704 214.379 139.386C213.861 139.066 213.461 138.619 213.18 138.046C212.901 137.47 212.762 136.799 212.762 136.035C212.762 135.271 212.901 134.598 213.18 134.015C213.461 133.429 213.853 132.972 214.355 132.645C214.86 132.315 215.449 132.15 216.123 132.15C216.511 132.15 216.895 132.215 217.274 132.344C217.653 132.474 217.998 132.684 218.308 132.975C218.619 133.264 218.867 133.646 219.052 134.122C219.236 134.598 219.328 135.184 219.328 135.88V136.366H213.578V135.375H218.163C218.163 134.954 218.079 134.578 217.91 134.248C217.745 133.918 217.509 133.657 217.201 133.466C216.897 133.275 216.537 133.179 216.123 133.179C215.666 133.179 215.271 133.293 214.938 133.519C214.608 133.743 214.353 134.034 214.175 134.394C213.997 134.753 213.908 135.138 213.908 135.55V136.21C213.908 136.774 214.005 137.251 214.2 137.643C214.397 138.031 214.671 138.328 215.02 138.532C215.37 138.732 215.776 138.833 216.239 138.833C216.541 138.833 216.813 138.791 217.055 138.707C217.301 138.619 217.514 138.49 217.692 138.318C217.87 138.143 218.007 137.926 218.104 137.667L219.212 137.978C219.095 138.354 218.899 138.684 218.624 138.969C218.349 139.25 218.009 139.471 217.604 139.629C217.2 139.785 216.745 139.862 216.239 139.862ZM222.218 135.219V139.707H221.072V132.247H222.179V133.413H222.277C222.451 133.034 222.717 132.729 223.073 132.499C223.429 132.266 223.889 132.15 224.452 132.15C224.957 132.15 225.399 132.253 225.778 132.461C226.157 132.665 226.452 132.975 226.662 133.393C226.873 133.808 226.978 134.332 226.978 134.967V139.707H225.832V135.044C225.832 134.458 225.68 134.002 225.375 133.675C225.071 133.345 224.653 133.179 224.122 133.179C223.756 133.179 223.429 133.259 223.141 133.417C222.856 133.576 222.631 133.808 222.466 134.112C222.301 134.416 222.218 134.785 222.218 135.219ZM232.2 139.862C231.481 139.862 230.861 139.704 230.34 139.386C229.822 139.066 229.422 138.619 229.14 138.046C228.862 137.47 228.723 136.799 228.723 136.035C228.723 135.271 228.862 134.598 229.14 134.015C229.422 133.429 229.814 132.972 230.316 132.645C230.821 132.315 231.41 132.15 232.084 132.15C232.472 132.15 232.856 132.215 233.235 132.344C233.614 132.474 233.958 132.684 234.269 132.975C234.58 133.264 234.828 133.646 235.012 134.122C235.197 134.598 235.289 135.184 235.289 135.88V136.366H229.539V135.375H234.124C234.124 134.954 234.039 134.578 233.871 134.248C233.706 133.918 233.47 133.657 233.162 133.466C232.858 133.275 232.498 133.179 232.084 133.179C231.627 133.179 231.232 133.293 230.899 133.519C230.568 133.743 230.314 134.034 230.136 134.394C229.958 134.753 229.869 135.138 229.869 135.55V136.21C229.869 136.774 229.966 137.251 230.16 137.643C230.358 138.031 230.631 138.328 230.981 138.532C231.331 138.732 231.737 138.833 232.2 138.833C232.501 138.833 232.773 138.791 233.016 138.707C233.262 138.619 233.474 138.49 233.652 138.318C233.831 138.143 233.968 137.926 234.065 137.667L235.173 137.978C235.056 138.354 234.86 138.684 234.585 138.969C234.31 139.25 233.97 139.471 233.565 139.629C233.16 139.785 232.705 139.862 232.2 139.862ZM237.033 139.707V132.247H238.14V133.374H238.218C238.354 133.005 238.6 132.705 238.956 132.475C239.312 132.245 239.714 132.13 240.161 132.13C240.245 132.13 240.35 132.132 240.476 132.135C240.603 132.138 240.698 132.143 240.763 132.15V133.315C240.724 133.306 240.635 133.291 240.496 133.272C240.36 133.249 240.216 133.238 240.063 133.238C239.701 133.238 239.377 133.314 239.092 133.466C238.81 133.615 238.587 133.822 238.422 134.088C238.26 134.35 238.179 134.649 238.179 134.986V139.707H237.033ZM244.317 139.882C243.844 139.882 243.415 139.793 243.03 139.615C242.644 139.433 242.338 139.173 242.112 138.833C241.885 138.49 241.772 138.075 241.772 137.589C241.772 137.162 241.856 136.816 242.024 136.55C242.193 136.281 242.418 136.071 242.7 135.919C242.981 135.767 243.292 135.653 243.632 135.579C243.975 135.501 244.32 135.439 244.667 135.394C245.12 135.336 245.487 135.292 245.769 135.263C246.054 135.231 246.261 135.177 246.391 135.103C246.523 135.028 246.59 134.899 246.59 134.714V134.675C246.59 134.196 246.459 133.824 246.196 133.558C245.937 133.293 245.544 133.16 245.016 133.16C244.469 133.16 244.04 133.28 243.729 133.519C243.418 133.759 243.2 134.015 243.073 134.287L241.986 133.898C242.18 133.445 242.439 133.092 242.763 132.839C243.09 132.584 243.446 132.406 243.831 132.305C244.22 132.202 244.602 132.15 244.977 132.15C245.217 132.15 245.492 132.179 245.803 132.237C246.117 132.292 246.42 132.407 246.711 132.582C247.006 132.757 247.25 133.021 247.445 133.374C247.639 133.727 247.736 134.199 247.736 134.792V139.707H246.59V138.697H246.532C246.454 138.859 246.324 139.032 246.143 139.216C245.962 139.401 245.72 139.558 245.419 139.688C245.118 139.817 244.751 139.882 244.317 139.882ZM244.492 138.852C244.945 138.852 245.327 138.763 245.638 138.585C245.952 138.407 246.188 138.177 246.347 137.895C246.509 137.614 246.59 137.317 246.59 137.007V135.958C246.541 136.016 246.434 136.069 246.269 136.118C246.107 136.163 245.92 136.204 245.706 136.239C245.495 136.272 245.29 136.301 245.089 136.327C244.892 136.349 244.731 136.369 244.608 136.385C244.31 136.424 244.032 136.487 243.773 136.574C243.517 136.659 243.31 136.786 243.151 136.958C242.996 137.126 242.918 137.356 242.918 137.648C242.918 138.046 243.065 138.347 243.36 138.551C243.658 138.752 244.035 138.852 244.492 138.852ZM250.974 129.76V139.707H249.828V129.76H250.974Z" fill="black"/>
<g filter="url(#filter2_d_223_9295)">
<rect x="25.2422" y="91.6523" width="413.725" height="39.2358" rx="9.1179" fill="white" shape-rendering="crispEdges"/>
<rect x="25.6696" y="92.0797" width="412.87" height="38.381" rx="8.6905" stroke="#E3E5E7" stroke-width="0.854803" shape-rendering="crispEdges"/>
<path opacity="0.08" d="M71.9063 112.25C71.9063 109.631 69.7832 107.508 67.1641 107.508C64.545 107.508 62.4219 109.631 62.4219 112.25C62.4219 114.869 64.545 116.992 67.1641 116.992C69.7832 116.992 71.9063 114.869 71.9063 112.25Z" fill="#FF005D"/>
<path fill-rule="evenodd" clip-rule="evenodd" d="M59.6419 105.218C59.7234 105.163 59.8466 105.115 60.1135 105.088L61.2929 105.059H71.0784C71.6188 105.059 71.9815 105.059 72.2579 105.088C72.5247 105.115 72.6479 105.163 72.7294 105.218C72.8321 105.287 72.9204 105.375 72.9893 105.479C73.0442 105.561 73.0924 105.686 73.1196 105.955C73.1478 106.233 73.1485 106.597 73.1485 107.14C73.1485 107.634 73.148 107.981 73.1261 108.253C73.1045 108.522 73.0649 108.661 73.0181 108.752C72.8753 109.029 72.9841 109.37 73.2612 109.512C73.5384 109.655 73.8789 109.546 74.0217 109.269C74.168 108.986 74.225 108.674 74.2516 108.344C74.2776 108.021 74.2776 107.628 74.2776 107.162V107.111C74.2776 106.605 74.2776 106.183 74.243 105.841C74.2068 105.484 74.1281 105.152 73.9293 104.853C73.8256 104.666 73.5055 104.393 73.3584 104.28C73.0602 104.08 72.7293 104.001 72.3726 103.964C72.032 103.93 71.6113 103.93 71.1074 103.93H71.1074H61.2639H61.2639C60.76 103.93 60.3393 103.93 59.9987 103.964C59.642 104.001 59.311 104.08 59.0128 104.28C58.7868 104.432 58.5928 104.627 58.442 104.853C58.2432 105.152 58.1645 105.484 58.1283 105.841C58.0937 106.183 58.0937 106.605 58.0938 107.111V107.111C58.0937 107.618 58.0937 108.097 58.1283 108.439C58.1645 108.796 58.2432 109.128 58.442 109.427C58.5928 109.653 58.7868 109.848 59.0128 110C59.3438 110.222 59.7166 110.296 60.1211 110.326C60.432 110.35 60.7031 110.117 60.7267 109.806C60.7503 109.495 60.5174 109.224 60.2065 109.2C59.8744 109.175 59.7331 109.123 59.642 109.062C59.5392 108.993 59.4509 108.905 59.382 108.801C59.3271 108.718 59.2789 108.594 59.2517 108.325C59.2235 108.047 59.2229 107.683 59.2229 107.14C59.2229 106.597 59.2235 106.233 59.2517 105.955C59.2789 105.686 59.3271 105.561 59.382 105.479C59.4509 105.375 59.5392 105.287 59.6419 105.218ZM67.1642 106.941C64.2333 106.941 61.8574 109.317 61.8574 112.247C61.8574 115.178 64.2333 117.554 67.1642 117.554C68.4263 117.554 69.5854 117.114 70.4963 116.378L72.5611 118.443C72.7815 118.663 73.139 118.663 73.3595 118.443C73.5799 118.222 73.5799 117.865 73.3595 117.644L71.2947 115.58C72.0304 114.669 72.471 113.509 72.471 112.247C72.471 109.317 70.0951 106.941 67.1642 106.941ZM62.9865 112.247C62.9865 109.94 64.8569 108.07 67.1642 108.07C69.4715 108.07 71.3419 109.94 71.3419 112.247C71.3419 114.555 69.4715 116.425 67.1642 116.425C64.8569 116.425 62.9865 114.555 62.9865 112.247Z" fill="#FF005D"/>
<path d="M87.8217 115.77V105.823H93.7859V106.891H89.0262V110.252H93.3391V111.321H89.0262V115.77H87.8217ZM95.6934 115.77V108.309H96.8396V115.77H95.6934ZM96.2762 107.066C96.0528 107.066 95.8602 106.99 95.6983 106.838C95.5396 106.686 95.4603 106.503 95.4603 106.289C95.4603 106.075 95.5396 105.892 95.6983 105.74C95.8602 105.588 96.0528 105.512 96.2762 105.512C96.4996 105.512 96.6907 105.588 96.8493 105.74C97.0112 105.892 97.0922 106.075 97.0922 106.289C97.0922 106.503 97.0112 106.686 96.8493 106.838C96.6907 106.99 96.4996 107.066 96.2762 107.066ZM100.085 111.282V115.77H98.939V108.309H100.046V109.475H100.143C100.318 109.096 100.584 108.792 100.94 108.562C101.296 108.329 101.756 108.212 102.319 108.212C102.824 108.212 103.266 108.316 103.645 108.523C104.024 108.727 104.319 109.038 104.529 109.456C104.74 109.87 104.845 110.395 104.845 111.029V115.77H103.699V111.107C103.699 110.521 103.547 110.064 103.242 109.737C102.938 109.407 102.52 109.242 101.989 109.242C101.623 109.242 101.296 109.321 101.008 109.48C100.723 109.639 100.498 109.87 100.333 110.174C100.168 110.479 100.085 110.848 100.085 111.282ZM109.756 115.925C109.135 115.925 108.586 115.768 108.11 115.454C107.634 115.137 107.262 114.69 106.993 114.113C106.724 113.534 106.59 112.849 106.59 112.059C106.59 111.275 106.724 110.595 106.993 110.019C107.262 109.443 107.636 108.997 108.115 108.683C108.594 108.369 109.148 108.212 109.776 108.212C110.261 108.212 110.645 108.293 110.927 108.455C111.212 108.614 111.429 108.795 111.578 108.999C111.73 109.2 111.848 109.365 111.932 109.494H112.029V105.823H113.176V115.77H112.068V114.623H111.932C111.848 114.759 111.728 114.931 111.573 115.138C111.417 115.342 111.196 115.525 110.907 115.687C110.619 115.846 110.236 115.925 109.756 115.925ZM109.912 114.895C110.372 114.895 110.76 114.775 111.077 114.536C111.395 114.293 111.636 113.958 111.801 113.531C111.966 113.1 112.049 112.603 112.049 112.039C112.049 111.483 111.968 110.995 111.806 110.578C111.644 110.157 111.404 109.83 111.087 109.596C110.77 109.36 110.378 109.242 109.912 109.242C109.426 109.242 109.021 109.367 108.698 109.616C108.377 109.862 108.136 110.197 107.974 110.621C107.815 111.042 107.736 111.515 107.736 112.039C107.736 112.57 107.817 113.053 107.979 113.487C108.144 113.917 108.387 114.261 108.707 114.516C109.031 114.769 109.433 114.895 109.912 114.895ZM119.281 115.77V108.309H120.388V109.475H120.485C120.641 109.077 120.891 108.768 121.238 108.547C121.584 108.324 122 108.212 122.486 108.212C122.978 108.212 123.388 108.324 123.715 108.547C124.045 108.768 124.303 109.077 124.487 109.475H124.565C124.756 109.09 125.042 108.784 125.425 108.557C125.807 108.327 126.265 108.212 126.799 108.212C127.466 108.212 128.012 108.421 128.436 108.839C128.86 109.253 129.072 109.899 129.072 110.777V115.77H127.926V110.777C127.926 110.226 127.775 109.833 127.474 109.596C127.173 109.36 126.818 109.242 126.41 109.242C125.886 109.242 125.48 109.401 125.191 109.718C124.903 110.032 124.759 110.43 124.759 110.913V115.77H123.594V110.66C123.594 110.236 123.456 109.894 123.181 109.635C122.905 109.373 122.551 109.242 122.117 109.242C121.819 109.242 121.541 109.321 121.282 109.48C121.026 109.639 120.819 109.859 120.66 110.14C120.505 110.419 120.427 110.741 120.427 111.107V115.77H119.281ZM134.296 115.925C133.577 115.925 132.957 115.766 132.435 115.449C131.917 115.128 131.517 114.682 131.236 114.108C130.957 113.532 130.818 112.862 130.818 112.098C130.818 111.334 130.957 110.66 131.236 110.077C131.517 109.491 131.909 109.035 132.411 108.708C132.916 108.377 133.506 108.212 134.179 108.212C134.568 108.212 134.951 108.277 135.33 108.407C135.709 108.536 136.054 108.747 136.365 109.038C136.675 109.326 136.923 109.708 137.108 110.184C137.292 110.66 137.384 111.246 137.384 111.942V112.428H131.634V111.437H136.219C136.219 111.016 136.135 110.641 135.966 110.31C135.801 109.98 135.565 109.72 135.257 109.528C134.953 109.337 134.593 109.242 134.179 109.242C133.722 109.242 133.327 109.355 132.994 109.582C132.664 109.805 132.409 110.097 132.231 110.456C132.053 110.816 131.964 111.201 131.964 111.612V112.273C131.964 112.836 132.061 113.314 132.256 113.705C132.453 114.094 132.727 114.39 133.076 114.594C133.426 114.795 133.833 114.895 134.296 114.895C134.597 114.895 134.869 114.853 135.111 114.769C135.358 114.682 135.57 114.552 135.748 114.38C135.926 114.206 136.063 113.989 136.161 113.73L137.268 114.04C137.151 114.416 136.955 114.746 136.68 115.031C136.405 115.313 136.065 115.533 135.66 115.692C135.256 115.847 134.801 115.925 134.296 115.925ZM222.162 105.823V115.77H221.016V105.823H222.162ZM226.456 115.944C225.984 115.944 225.555 115.855 225.169 115.677C224.784 115.496 224.478 115.235 224.251 114.895C224.025 114.552 223.911 114.138 223.911 113.652C223.911 113.225 223.996 112.878 224.164 112.613C224.332 112.344 224.557 112.133 224.839 111.981C225.121 111.829 225.432 111.716 225.772 111.641C226.115 111.564 226.46 111.502 226.806 111.457C227.259 111.398 227.627 111.355 227.909 111.326C228.194 111.293 228.401 111.24 228.53 111.165C228.663 111.091 228.729 110.961 228.729 110.777V110.738C228.729 110.259 228.598 109.886 228.336 109.621C228.077 109.355 227.684 109.223 227.156 109.223C226.609 109.223 226.18 109.342 225.869 109.582C225.558 109.822 225.339 110.077 225.213 110.349L224.125 109.961C224.319 109.507 224.579 109.155 224.902 108.902C225.229 108.646 225.585 108.468 225.971 108.368C226.359 108.264 226.741 108.212 227.117 108.212C227.357 108.212 227.632 108.241 227.943 108.3C228.257 108.355 228.559 108.47 228.851 108.645C229.146 108.819 229.39 109.083 229.584 109.436C229.779 109.789 229.876 110.262 229.876 110.854V115.77H228.729V114.759H228.671C228.593 114.921 228.464 115.094 228.283 115.279C228.101 115.464 227.86 115.621 227.559 115.75C227.258 115.88 226.89 115.944 226.456 115.944ZM226.631 114.915C227.085 114.915 227.467 114.826 227.778 114.648C228.092 114.47 228.328 114.24 228.487 113.958C228.649 113.676 228.729 113.38 228.729 113.069V112.02C228.681 112.078 228.574 112.132 228.409 112.18C228.247 112.226 228.059 112.266 227.846 112.302C227.635 112.334 227.429 112.363 227.229 112.389C227.031 112.412 226.871 112.431 226.748 112.447C226.45 112.486 226.172 112.549 225.913 112.637C225.657 112.721 225.449 112.849 225.291 113.021C225.135 113.189 225.058 113.419 225.058 113.71C225.058 114.108 225.205 114.41 225.5 114.614C225.798 114.814 226.175 114.915 226.631 114.915ZM235.212 108.309V109.281H231.346V108.309H235.212ZM232.473 106.522H233.619V113.633C233.619 113.956 233.666 114.199 233.76 114.361C233.857 114.52 233.98 114.627 234.129 114.682C234.281 114.733 234.442 114.759 234.61 114.759C234.736 114.759 234.84 114.753 234.921 114.74C235.002 114.724 235.066 114.711 235.115 114.701L235.348 115.731C235.27 115.76 235.162 115.789 235.023 115.818C234.883 115.85 234.707 115.867 234.493 115.867C234.17 115.867 233.852 115.797 233.541 115.658C233.234 115.519 232.978 115.307 232.774 115.022C232.573 114.737 232.473 114.377 232.473 113.943V106.522ZM239.984 115.925C239.265 115.925 238.645 115.766 238.124 115.449C237.606 115.128 237.206 114.682 236.924 114.108C236.646 113.532 236.506 112.862 236.506 112.098C236.506 111.334 236.646 110.66 236.924 110.077C237.206 109.491 237.598 109.035 238.1 108.708C238.605 108.377 239.194 108.212 239.867 108.212C240.256 108.212 240.64 108.277 241.018 108.407C241.397 108.536 241.742 108.747 242.053 109.038C242.364 109.326 242.612 109.708 242.796 110.184C242.981 110.66 243.073 111.246 243.073 111.942V112.428H237.322V111.437H241.907C241.907 111.016 241.823 110.641 241.655 110.31C241.49 109.98 241.253 109.72 240.946 109.528C240.641 109.337 240.282 109.242 239.867 109.242C239.411 109.242 239.016 109.355 238.682 109.582C238.352 109.805 238.098 110.097 237.92 110.456C237.742 110.816 237.653 111.201 237.653 111.612V112.273C237.653 112.836 237.75 113.314 237.944 113.705C238.142 114.094 238.415 114.39 238.765 114.594C239.115 114.795 239.521 114.895 239.984 114.895C240.285 114.895 240.557 114.853 240.8 114.769C241.046 114.682 241.258 114.552 241.436 114.38C241.614 114.206 241.752 113.989 241.849 113.73L242.956 114.04C242.84 114.416 242.644 114.746 242.369 115.031C242.093 115.313 241.753 115.533 241.349 115.692C240.944 115.847 240.489 115.925 239.984 115.925ZM250.101 109.98L249.071 110.272C249.006 110.1 248.911 109.933 248.785 109.771C248.662 109.606 248.493 109.47 248.279 109.363C248.066 109.257 247.792 109.203 247.459 109.203C247.002 109.203 246.622 109.308 246.317 109.519C246.016 109.726 245.866 109.99 245.866 110.31C245.866 110.595 245.969 110.82 246.176 110.986C246.384 111.151 246.707 111.288 247.148 111.398L248.255 111.67C248.922 111.832 249.419 112.08 249.746 112.413C250.073 112.744 250.237 113.17 250.237 113.691C250.237 114.118 250.114 114.5 249.868 114.837C249.625 115.174 249.285 115.439 248.848 115.634C248.411 115.828 247.902 115.925 247.323 115.925C246.562 115.925 245.932 115.76 245.433 115.43C244.935 115.099 244.619 114.617 244.486 113.982L245.574 113.71C245.678 114.112 245.874 114.413 246.162 114.614C246.453 114.814 246.834 114.915 247.303 114.915C247.837 114.915 248.262 114.801 248.576 114.575C248.893 114.345 249.052 114.07 249.052 113.749C249.052 113.49 248.961 113.273 248.78 113.098C248.598 112.92 248.32 112.787 247.944 112.7L246.701 112.409C246.018 112.247 245.516 111.996 245.195 111.656C244.878 111.313 244.719 110.884 244.719 110.369C244.719 109.948 244.838 109.575 245.074 109.252C245.314 108.928 245.639 108.674 246.05 108.489C246.465 108.305 246.934 108.212 247.459 108.212C248.197 108.212 248.776 108.374 249.197 108.698C249.622 109.022 249.923 109.449 250.101 109.98ZM255.207 108.309V109.281H251.34V108.309H255.207ZM252.467 106.522H253.613V113.633C253.613 113.956 253.66 114.199 253.754 114.361C253.851 114.52 253.975 114.627 254.123 114.682C254.276 114.733 254.436 114.759 254.604 114.759C254.731 114.759 254.834 114.753 254.915 114.74C254.996 114.724 255.061 114.711 255.109 114.701L255.343 115.731C255.265 115.76 255.156 115.789 255.017 115.818C254.878 115.85 254.701 115.867 254.488 115.867C254.164 115.867 253.847 115.797 253.536 115.658C253.228 115.519 252.972 115.307 252.768 115.022C252.568 114.737 252.467 114.377 252.467 113.943V106.522ZM265.479 112.719V108.309H266.625V115.77H265.479V114.507H265.401C265.226 114.886 264.954 115.208 264.585 115.473C264.216 115.736 263.75 115.867 263.186 115.867C262.72 115.867 262.306 115.765 261.943 115.561C261.58 115.353 261.295 115.043 261.088 114.628C260.881 114.21 260.777 113.684 260.777 113.05V108.309H261.924V112.972C261.924 113.516 262.076 113.95 262.38 114.274C262.688 114.597 263.079 114.759 263.555 114.759C263.84 114.759 264.13 114.686 264.425 114.541C264.723 114.395 264.972 114.172 265.173 113.871C265.377 113.569 265.479 113.186 265.479 112.719ZM268.724 118.567V108.309H269.832V109.494H269.968C270.052 109.365 270.168 109.2 270.317 108.999C270.47 108.795 270.686 108.614 270.968 108.455C271.253 108.293 271.638 108.212 272.124 108.212C272.752 108.212 273.306 108.369 273.785 108.683C274.264 108.997 274.638 109.443 274.907 110.019C275.176 110.595 275.31 111.275 275.31 112.059C275.31 112.849 275.176 113.534 274.907 114.113C274.638 114.69 274.266 115.137 273.79 115.454C273.314 115.768 272.765 115.925 272.144 115.925C271.664 115.925 271.281 115.846 270.992 115.687C270.704 115.525 270.482 115.342 270.327 115.138C270.172 114.931 270.052 114.759 269.968 114.623H269.871V118.567H268.724ZM269.851 112.039C269.851 112.603 269.934 113.1 270.099 113.531C270.264 113.958 270.505 114.293 270.822 114.536C271.14 114.775 271.528 114.895 271.988 114.895C272.467 114.895 272.867 114.769 273.188 114.516C273.512 114.261 273.754 113.917 273.916 113.487C274.081 113.053 274.164 112.57 274.164 112.039C274.164 111.515 274.083 111.042 273.921 110.621C273.762 110.197 273.521 109.862 273.197 109.616C272.877 109.367 272.474 109.242 271.988 109.242C271.522 109.242 271.13 109.36 270.813 109.596C270.495 109.83 270.256 110.157 270.094 110.578C269.932 110.995 269.851 111.483 269.851 112.039ZM279.876 115.925C279.254 115.925 278.705 115.768 278.229 115.454C277.753 115.137 277.381 114.69 277.112 114.113C276.843 113.534 276.709 112.849 276.709 112.059C276.709 111.275 276.843 110.595 277.112 110.019C277.381 109.443 277.755 108.997 278.234 108.683C278.713 108.369 279.267 108.212 279.895 108.212C280.381 108.212 280.764 108.293 281.046 108.455C281.331 108.614 281.548 108.795 281.697 108.999C281.849 109.2 281.967 109.365 282.051 109.494H282.149V105.823H283.295V115.77H282.187V114.623H282.051C281.967 114.759 281.848 114.931 281.692 115.138C281.537 115.342 281.315 115.525 281.027 115.687C280.739 115.846 280.355 115.925 279.876 115.925ZM280.031 114.895C280.491 114.895 280.879 114.775 281.197 114.536C281.514 114.293 281.755 113.958 281.92 113.531C282.085 113.1 282.168 112.603 282.168 112.039C282.168 111.483 282.087 110.995 281.925 110.578C281.763 110.157 281.524 109.83 281.206 109.596C280.889 109.36 280.497 109.242 280.031 109.242C279.545 109.242 279.141 109.367 278.817 109.616C278.496 109.862 278.255 110.197 278.093 110.621C277.935 111.042 277.855 111.515 277.855 112.039C277.855 112.57 277.936 113.053 278.098 113.487C278.263 113.917 278.506 114.261 278.827 114.516C279.15 114.769 279.552 114.895 280.031 114.895ZM287.749 115.944C287.276 115.944 286.847 115.855 286.461 115.677C286.076 115.496 285.77 115.235 285.544 114.895C285.317 114.552 285.204 114.138 285.204 113.652C285.204 113.225 285.288 112.878 285.456 112.613C285.624 112.344 285.85 112.133 286.131 111.981C286.413 111.829 286.724 111.716 287.064 111.641C287.407 111.564 287.752 111.502 288.098 111.457C288.552 111.398 288.919 111.355 289.201 111.326C289.486 111.293 289.693 111.24 289.822 111.165C289.955 111.091 290.022 110.961 290.022 110.777V110.738C290.022 110.259 289.89 109.886 289.628 109.621C289.369 109.355 288.976 109.223 288.448 109.223C287.901 109.223 287.472 109.342 287.161 109.582C286.85 109.822 286.631 110.077 286.505 110.349L285.417 109.961C285.612 109.507 285.871 109.155 286.194 108.902C286.521 108.646 286.878 108.468 287.263 108.368C287.651 108.264 288.033 108.212 288.409 108.212C288.649 108.212 288.924 108.241 289.235 108.3C289.549 108.355 289.852 108.47 290.143 108.645C290.438 108.819 290.682 109.083 290.876 109.436C291.071 109.789 291.168 110.262 291.168 110.854V115.77H290.022V114.759H289.963C289.886 114.921 289.756 115.094 289.575 115.279C289.393 115.464 289.152 115.621 288.851 115.75C288.55 115.88 288.182 115.944 287.749 115.944ZM287.923 114.915C288.377 114.915 288.759 114.826 289.07 114.648C289.384 114.47 289.62 114.24 289.779 113.958C289.941 113.676 290.022 113.38 290.022 113.069V112.02C289.973 112.078 289.866 112.132 289.701 112.18C289.539 112.226 289.351 112.266 289.138 112.302C288.927 112.334 288.722 112.363 288.521 112.389C288.323 112.412 288.163 112.431 288.04 112.447C287.742 112.486 287.464 112.549 287.205 112.637C286.949 112.721 286.742 112.849 286.583 113.021C286.427 113.189 286.35 113.419 286.35 113.71C286.35 114.108 286.497 114.41 286.792 114.614C287.09 114.814 287.467 114.915 287.923 114.915ZM296.504 108.309V109.281H292.638V108.309H296.504ZM293.765 106.522H294.911V113.633C294.911 113.956 294.958 114.199 295.052 114.361C295.149 114.52 295.272 114.627 295.421 114.682C295.573 114.733 295.734 114.759 295.902 114.759C296.028 114.759 296.132 114.753 296.213 114.74C296.294 114.724 296.359 114.711 296.407 114.701L296.64 115.731C296.562 115.76 296.454 115.789 296.315 115.818C296.176 115.85 295.999 115.867 295.785 115.867C295.462 115.867 295.144 115.797 294.833 115.658C294.526 115.519 294.27 115.307 294.066 115.022C293.865 114.737 293.765 114.377 293.765 113.943V106.522ZM301.276 115.925C300.557 115.925 299.937 115.766 299.416 115.449C298.898 115.128 298.498 114.682 298.216 114.108C297.938 113.532 297.799 112.862 297.799 112.098C297.799 111.334 297.938 110.66 298.216 110.077C298.498 109.491 298.89 109.035 299.392 108.708C299.897 108.377 300.486 108.212 301.159 108.212C301.548 108.212 301.932 108.277 302.311 108.407C302.689 108.536 303.034 108.747 303.345 109.038C303.656 109.326 303.904 109.708 304.088 110.184C304.273 110.66 304.365 111.246 304.365 111.942V112.428H298.615V111.437H303.199C303.199 111.016 303.115 110.641 302.947 110.31C302.782 109.98 302.545 109.72 302.238 109.528C301.933 109.337 301.574 109.242 301.159 109.242C300.703 109.242 300.308 109.355 299.974 109.582C299.644 109.805 299.39 110.097 299.212 110.456C299.034 110.816 298.945 111.201 298.945 111.612V112.273C298.945 112.836 299.042 113.314 299.236 113.705C299.434 114.094 299.707 114.39 300.057 114.594C300.407 114.795 300.813 114.895 301.276 114.895C301.577 114.895 301.849 114.853 302.092 114.769C302.338 114.682 302.55 114.552 302.728 114.38C302.906 114.206 303.044 113.989 303.141 113.73L304.248 114.04C304.132 114.416 303.936 114.746 303.661 115.031C303.386 115.313 303.046 115.533 302.641 115.692C302.236 115.847 301.781 115.925 301.276 115.925ZM311.393 109.98L310.363 110.272C310.298 110.1 310.203 109.933 310.077 109.771C309.954 109.606 309.785 109.47 309.572 109.363C309.358 109.257 309.084 109.203 308.751 109.203C308.294 109.203 307.914 109.308 307.609 109.519C307.308 109.726 307.158 109.99 307.158 110.31C307.158 110.595 307.261 110.82 307.469 110.986C307.676 111.151 308 111.288 308.44 111.398L309.547 111.67C310.214 111.832 310.711 112.08 311.038 112.413C311.365 112.744 311.529 113.17 311.529 113.691C311.529 114.118 311.406 114.5 311.16 114.837C310.917 115.174 310.577 115.439 310.14 115.634C309.703 115.828 309.194 115.925 308.615 115.925C307.854 115.925 307.224 115.76 306.725 115.43C306.227 115.099 305.911 114.617 305.778 113.982L306.866 113.71C306.97 114.112 307.166 114.413 307.454 114.614C307.745 114.814 308.126 114.915 308.595 114.915C309.13 114.915 309.554 114.801 309.868 114.575C310.185 114.345 310.344 114.07 310.344 113.749C310.344 113.49 310.253 113.273 310.072 113.098C309.89 112.92 309.612 112.787 309.236 112.7L307.993 112.409C307.31 112.247 306.808 111.996 306.487 111.656C306.17 111.313 306.011 110.884 306.011 110.369C306.011 109.948 306.13 109.575 306.366 109.252C306.606 108.928 306.931 108.674 307.342 108.489C307.757 108.305 308.226 108.212 308.751 108.212C309.489 108.212 310.069 108.374 310.489 108.698C310.914 109.022 311.215 109.449 311.393 109.98ZM319.296 115.944C318.823 115.944 318.394 115.855 318.009 115.677C317.624 115.496 317.318 115.235 317.091 114.895C316.864 114.552 316.751 114.138 316.751 113.652C316.751 113.225 316.835 112.878 317.004 112.613C317.172 112.344 317.397 112.133 317.679 111.981C317.961 111.829 318.271 111.716 318.611 111.641C318.955 111.564 319.299 111.502 319.646 111.457C320.099 111.398 320.467 111.355 320.748 111.326C321.033 111.293 321.24 111.24 321.37 111.165C321.503 111.091 321.569 110.961 321.569 110.777V110.738C321.569 110.259 321.438 109.886 321.176 109.621C320.917 109.355 320.523 109.223 319.996 109.223C319.448 109.223 319.019 109.342 318.708 109.582C318.398 109.822 318.179 110.077 318.053 110.349L316.965 109.961C317.159 109.507 317.418 109.155 317.742 108.902C318.069 108.646 318.425 108.468 318.81 108.368C319.199 108.264 319.581 108.212 319.957 108.212C320.196 108.212 320.471 108.241 320.782 108.3C321.096 108.355 321.399 108.47 321.691 108.645C321.985 108.819 322.23 109.083 322.424 109.436C322.618 109.789 322.715 110.262 322.715 110.854V115.77H321.569V114.759H321.511C321.433 114.921 321.304 115.094 321.122 115.279C320.941 115.464 320.7 115.621 320.399 115.75C320.098 115.88 319.73 115.944 319.296 115.944ZM319.471 114.915C319.924 114.915 320.306 114.826 320.617 114.648C320.931 114.47 321.168 114.24 321.326 113.958C321.488 113.676 321.569 113.38 321.569 113.069V112.02C321.521 112.078 321.414 112.132 321.249 112.18C321.087 112.226 320.899 112.266 320.685 112.302C320.475 112.334 320.269 112.363 320.068 112.389C319.871 112.412 319.711 112.431 319.588 112.447C319.29 112.486 319.011 112.549 318.752 112.637C318.496 112.721 318.289 112.849 318.13 113.021C317.975 113.189 317.897 113.419 317.897 113.71C317.897 114.108 318.045 114.41 318.339 114.614C318.637 114.814 319.014 114.915 319.471 114.915ZM325.954 111.282V115.77H324.807V108.309H325.915V109.475H326.012C326.187 109.096 326.452 108.792 326.808 108.562C327.165 108.329 327.624 108.212 328.188 108.212C328.693 108.212 329.135 108.316 329.514 108.523C329.893 108.727 330.187 109.038 330.398 109.456C330.608 109.87 330.713 110.395 330.713 111.029V115.77H329.567V111.107C329.567 110.521 329.415 110.064 329.111 109.737C328.806 109.407 328.389 109.242 327.858 109.242C327.492 109.242 327.165 109.321 326.876 109.48C326.592 109.639 326.366 109.87 326.201 110.174C326.036 110.479 325.954 110.848 325.954 111.282ZM335.625 115.925C335.003 115.925 334.454 115.768 333.978 115.454C333.502 115.137 333.13 114.69 332.861 114.113C332.593 113.534 332.458 112.849 332.458 112.059C332.458 111.275 332.593 110.595 332.861 110.019C333.13 109.443 333.504 108.997 333.983 108.683C334.462 108.369 335.016 108.212 335.644 108.212C336.13 108.212 336.514 108.293 336.795 108.455C337.08 108.614 337.297 108.795 337.446 108.999C337.598 109.2 337.717 109.365 337.801 109.494H337.898V105.823H339.044V115.77H337.937V114.623H337.801C337.717 114.759 337.597 114.931 337.441 115.138C337.286 115.342 337.064 115.525 336.776 115.687C336.488 115.846 336.104 115.925 335.625 115.925ZM335.78 114.895C336.24 114.895 336.629 114.775 336.946 114.536C337.263 114.293 337.504 113.958 337.67 113.531C337.835 113.1 337.917 112.603 337.917 112.039C337.917 111.483 337.836 110.995 337.674 110.578C337.513 110.157 337.273 109.83 336.956 109.596C336.638 109.36 336.247 109.242 335.78 109.242C335.295 109.242 334.89 109.367 334.566 109.616C334.245 109.862 334.004 110.197 333.842 110.621C333.684 111.042 333.604 111.515 333.604 112.039C333.604 112.57 333.685 113.053 333.847 113.487C334.012 113.917 334.255 114.261 334.576 114.516C334.9 114.769 335.301 114.895 335.78 114.895ZM345.149 115.77V108.309H346.295V115.77H345.149ZM345.732 107.066C345.508 107.066 345.316 106.99 345.154 106.838C344.995 106.686 344.916 106.503 344.916 106.289C344.916 106.075 344.995 105.892 345.154 105.74C345.316 105.588 345.508 105.512 345.732 105.512C345.955 105.512 346.146 105.588 346.305 105.74C346.467 105.892 346.548 106.075 346.548 106.289C346.548 106.503 346.467 106.686 346.305 106.838C346.146 106.99 345.955 107.066 345.732 107.066ZM349.541 111.282V115.77H348.395V108.309H349.502V109.475H349.599C349.774 109.096 350.04 108.792 350.396 108.562C350.752 108.329 351.212 108.212 351.775 108.212C352.28 108.212 352.722 108.316 353.101 108.523C353.48 108.727 353.774 109.038 353.985 109.456C354.195 109.87 354.301 110.395 354.301 111.029V115.77H353.154V111.107C353.154 110.521 353.002 110.064 352.698 109.737C352.393 109.407 351.976 109.242 351.445 109.242C351.079 109.242 350.752 109.321 350.464 109.48C350.179 109.639 349.954 109.87 349.789 110.174C349.623 110.479 349.541 110.848 349.541 111.282ZM361.679 109.98L360.65 110.272C360.585 110.1 360.489 109.933 360.363 109.771C360.24 109.606 360.072 109.47 359.858 109.363C359.644 109.257 359.371 109.203 359.037 109.203C358.581 109.203 358.2 109.308 357.896 109.519C357.595 109.726 357.444 109.99 357.444 110.31C357.444 110.595 357.548 110.82 357.755 110.986C357.962 111.151 358.286 111.288 358.726 111.398L359.834 111.67C360.501 111.832 360.998 112.08 361.325 112.413C361.652 112.744 361.815 113.17 361.815 113.691C361.815 114.118 361.692 114.5 361.446 114.837C361.203 115.174 360.863 115.439 360.426 115.634C359.989 115.828 359.481 115.925 358.901 115.925C358.14 115.925 357.511 115.76 357.012 115.43C356.513 115.099 356.198 114.617 356.065 113.982L357.153 113.71C357.256 114.112 357.452 114.413 357.74 114.614C358.032 114.814 358.412 114.915 358.882 114.915C359.416 114.915 359.84 114.801 360.154 114.575C360.472 114.345 360.63 114.07 360.63 113.749C360.63 113.49 360.54 113.273 360.358 113.098C360.177 112.92 359.898 112.787 359.523 112.7L358.28 112.409C357.596 112.247 357.094 111.996 356.774 111.656C356.457 111.313 356.298 110.884 356.298 110.369C356.298 109.948 356.416 109.575 356.652 109.252C356.892 108.928 357.218 108.674 357.629 108.489C358.043 108.305 358.513 108.212 359.037 108.212C359.775 108.212 360.355 108.374 360.776 108.698C361.2 109.022 361.501 109.449 361.679 109.98ZM363.541 115.77V108.309H364.687V115.77H363.541ZM364.124 107.066C363.9 107.066 363.707 106.99 363.546 106.838C363.387 106.686 363.308 106.503 363.308 106.289C363.308 106.075 363.387 105.892 363.546 105.74C363.707 105.588 363.9 105.512 364.124 105.512C364.347 105.512 364.538 105.588 364.697 105.74C364.859 105.892 364.939 106.075 364.939 106.289C364.939 106.503 364.859 106.686 364.697 106.838C364.538 106.99 364.347 107.066 364.124 107.066ZM369.798 118.722C369.244 118.722 368.768 118.651 368.37 118.509C367.971 118.37 367.639 118.185 367.374 117.955C367.112 117.728 366.903 117.486 366.747 117.227L367.661 116.585C367.764 116.721 367.895 116.877 368.054 117.052C368.213 117.23 368.43 117.384 368.705 117.513C368.983 117.646 369.347 117.712 369.798 117.712C370.4 117.712 370.897 117.567 371.289 117.275C371.68 116.984 371.876 116.527 371.876 115.906V114.39H371.779C371.695 114.526 371.575 114.695 371.42 114.895C371.268 115.093 371.047 115.269 370.759 115.425C370.474 115.577 370.089 115.653 369.603 115.653C369.001 115.653 368.46 115.51 367.981 115.226C367.505 114.941 367.128 114.526 366.849 113.982C366.574 113.438 366.437 112.778 366.437 112.001C366.437 111.236 366.571 110.571 366.84 110.004C367.108 109.435 367.482 108.994 367.962 108.683C368.441 108.369 368.995 108.212 369.623 108.212C370.108 108.212 370.494 108.293 370.779 108.455C371.067 108.614 371.287 108.795 371.439 108.999C371.595 109.2 371.714 109.365 371.799 109.494H371.915V108.309H373.022V115.983C373.022 116.624 372.877 117.146 372.585 117.547C372.297 117.952 371.909 118.248 371.42 118.436C370.934 118.627 370.393 118.722 369.798 118.722ZM369.759 114.623C370.218 114.623 370.607 114.518 370.924 114.308C371.242 114.097 371.483 113.794 371.648 113.399C371.813 113.004 371.896 112.532 371.896 111.981C371.896 111.444 371.815 110.969 371.653 110.558C371.491 110.147 371.251 109.825 370.934 109.592C370.617 109.359 370.225 109.242 369.759 109.242C369.273 109.242 368.868 109.365 368.544 109.611C368.224 109.857 367.983 110.187 367.821 110.602C367.662 111.016 367.583 111.476 367.583 111.981C367.583 112.499 367.664 112.957 367.826 113.356C367.991 113.751 368.234 114.062 368.554 114.288C368.878 114.512 369.279 114.623 369.759 114.623ZM376.267 111.282V115.77H375.121V105.823H376.267V109.475H376.364C376.539 109.09 376.801 108.784 377.151 108.557C377.504 108.327 377.973 108.212 378.559 108.212C379.068 108.212 379.513 108.314 379.895 108.518C380.277 108.719 380.573 109.028 380.784 109.446C380.997 109.86 381.104 110.388 381.104 111.029V115.77H379.958V111.107C379.958 110.514 379.804 110.056 379.497 109.732C379.192 109.405 378.77 109.242 378.229 109.242C377.853 109.242 377.517 109.321 377.219 109.48C376.924 109.639 376.691 109.87 376.519 110.174C376.351 110.479 376.267 110.848 376.267 111.282ZM386.446 108.309V109.281H382.58V108.309H386.446ZM383.706 106.522H384.853V113.633C384.853 113.956 384.899 114.199 384.993 114.361C385.091 114.52 385.214 114.627 385.363 114.682C385.515 114.733 385.675 114.759 385.843 114.759C385.97 114.759 386.073 114.753 386.154 114.74C386.235 114.724 386.3 114.711 386.348 114.701L386.582 115.731C386.504 115.76 386.395 115.789 386.256 115.818C386.117 115.85 385.94 115.867 385.727 115.867C385.403 115.867 385.086 115.797 384.775 115.658C384.467 115.519 384.211 115.307 384.007 115.022C383.807 114.737 383.706 114.377 383.706 113.943V106.522ZM393.32 109.98L392.291 110.272C392.226 110.1 392.13 109.933 392.004 109.771C391.881 109.606 391.713 109.47 391.499 109.363C391.285 109.257 391.012 109.203 390.678 109.203C390.222 109.203 389.841 109.308 389.537 109.519C389.236 109.726 389.085 109.99 389.085 110.31C389.085 110.595 389.189 110.82 389.396 110.986C389.603 111.151 389.927 111.288 390.367 111.398L391.475 111.67C392.142 111.832 392.639 112.08 392.966 112.413C393.293 112.744 393.456 113.17 393.456 113.691C393.456 114.118 393.333 114.5 393.087 114.837C392.844 115.174 392.504 115.439 392.067 115.634C391.63 115.828 391.122 115.925 390.542 115.925C389.781 115.925 389.152 115.76 388.653 115.43C388.154 115.099 387.839 114.617 387.706 113.982L388.794 113.71C388.897 114.112 389.093 114.413 389.382 114.614C389.673 114.814 390.053 114.915 390.523 114.915C391.057 114.915 391.481 114.801 391.795 114.575C392.113 114.345 392.271 114.07 392.271 113.749C392.271 113.49 392.181 113.273 391.999 113.098C391.818 112.92 391.54 112.787 391.164 112.7L389.921 112.409C389.237 112.247 388.736 111.996 388.415 111.656C388.098 111.313 387.939 110.884 387.939 110.369C387.939 109.948 388.057 109.575 388.294 109.252C388.533 108.928 388.859 108.674 389.27 108.489C389.684 108.305 390.154 108.212 390.678 108.212C391.417 108.212 391.996 108.374 392.417 108.698C392.841 109.022 393.142 109.449 393.32 109.98ZM396.017 115.847C395.778 115.847 395.572 115.761 395.4 115.59C395.229 115.418 395.143 115.213 395.143 114.973C395.143 114.733 395.229 114.528 395.4 114.356C395.572 114.185 395.778 114.099 396.017 114.099C396.257 114.099 396.462 114.185 396.634 114.356C396.806 114.528 396.891 114.733 396.891 114.973C396.891 115.132 396.851 115.277 396.77 115.41C396.692 115.543 396.587 115.65 396.454 115.731C396.325 115.808 396.179 115.847 396.017 115.847Z" fill="#1D2939"/>
<path d="M148.706 116.935C147.715 116.935 146.839 116.799 146.078 116.527C145.317 116.258 144.678 115.862 144.16 115.337C143.642 114.813 143.25 114.17 142.984 113.409C142.719 112.648 142.586 111.777 142.586 110.796C142.586 109.847 142.721 108.999 142.989 108.251C143.261 107.503 143.655 106.869 144.17 106.347C144.688 105.823 145.316 105.423 146.054 105.148C146.795 104.872 147.634 104.735 148.57 104.735C149.48 104.735 150.276 104.884 150.959 105.182C151.646 105.476 152.219 105.876 152.679 106.381C153.142 106.883 153.488 107.448 153.718 108.076C153.951 108.704 154.068 109.352 154.068 110.019C154.068 110.489 154.045 110.964 154 111.447C153.954 111.929 153.859 112.373 153.713 112.778C153.567 113.179 153.342 113.503 153.038 113.749C152.737 113.995 152.329 114.118 151.814 114.118C151.588 114.118 151.338 114.083 151.066 114.011C150.794 113.94 150.553 113.822 150.343 113.657C150.132 113.492 150.007 113.27 149.969 112.991H149.91C149.833 113.179 149.713 113.357 149.551 113.526C149.392 113.694 149.183 113.828 148.924 113.929C148.669 114.029 148.356 114.073 147.987 114.06C147.566 114.044 147.195 113.95 146.875 113.778C146.554 113.603 146.285 113.367 146.069 113.069C145.855 112.768 145.693 112.42 145.583 112.025C145.476 111.627 145.423 111.198 145.423 110.738C145.423 110.301 145.487 109.901 145.617 109.538C145.746 109.176 145.926 108.858 146.156 108.586C146.389 108.314 146.661 108.097 146.972 107.935C147.286 107.77 147.624 107.668 147.987 107.629C148.311 107.597 148.605 107.612 148.871 107.673C149.136 107.731 149.355 107.821 149.527 107.94C149.698 108.057 149.807 108.186 149.852 108.329H149.91V107.785H150.94V112.175C150.94 112.447 151.016 112.687 151.168 112.894C151.32 113.102 151.542 113.205 151.834 113.205C152.164 113.205 152.416 113.092 152.591 112.865C152.769 112.638 152.891 112.289 152.956 111.816C153.024 111.343 153.058 110.738 153.058 110C153.058 109.566 152.998 109.138 152.878 108.717C152.761 108.293 152.583 107.897 152.344 107.527C152.107 107.158 151.808 106.833 151.445 106.551C151.082 106.27 150.657 106.049 150.168 105.891C149.682 105.729 149.13 105.648 148.512 105.648C147.751 105.648 147.069 105.766 146.467 106.002C145.868 106.236 145.358 106.577 144.937 107.027C144.519 107.474 144.2 108.018 143.98 108.659C143.763 109.297 143.655 110.022 143.655 110.835C143.655 111.661 143.763 112.394 143.98 113.035C144.2 113.676 144.524 114.217 144.951 114.657C145.382 115.098 145.915 115.433 146.549 115.663C147.184 115.889 147.916 116.003 148.745 116.003C149.101 116.003 149.452 115.969 149.799 115.901C150.145 115.833 150.451 115.758 150.717 115.677C150.982 115.596 151.173 115.536 151.29 115.498L151.562 116.391C151.361 116.475 151.099 116.56 150.775 116.644C150.454 116.728 150.111 116.798 149.745 116.853C149.383 116.908 149.036 116.935 148.706 116.935ZM148.142 113.069C148.576 113.069 148.928 112.982 149.196 112.807C149.465 112.632 149.661 112.368 149.784 112.015C149.907 111.662 149.969 111.217 149.969 110.68C149.969 110.136 149.901 109.711 149.765 109.407C149.629 109.103 149.428 108.889 149.162 108.766C148.897 108.643 148.57 108.581 148.181 108.581C147.812 108.581 147.496 108.679 147.234 108.873C146.975 109.064 146.776 109.32 146.637 109.64C146.501 109.958 146.433 110.304 146.433 110.68C146.433 111.094 146.488 111.484 146.598 111.85C146.708 112.213 146.888 112.507 147.137 112.734C147.386 112.957 147.721 113.069 148.142 113.069ZM163.943 108.931H162.738C162.667 108.585 162.543 108.28 162.364 108.018C162.19 107.756 161.976 107.536 161.723 107.357C161.474 107.176 161.197 107.04 160.893 106.95C160.588 106.859 160.271 106.814 159.941 106.814C159.339 106.814 158.793 106.966 158.304 107.27C157.818 107.574 157.432 108.023 157.143 108.615C156.858 109.208 156.716 109.935 156.716 110.796C156.716 111.657 156.858 112.384 157.143 112.977C157.432 113.569 157.818 114.018 158.304 114.322C158.793 114.627 159.339 114.779 159.941 114.779C160.271 114.779 160.588 114.733 160.893 114.643C161.197 114.552 161.474 114.418 161.723 114.24C161.976 114.058 162.19 113.837 162.364 113.574C162.543 113.309 162.667 113.004 162.738 112.661H163.943C163.852 113.17 163.687 113.624 163.448 114.026C163.208 114.427 162.91 114.769 162.554 115.051C162.198 115.329 161.798 115.541 161.354 115.687C160.914 115.833 160.443 115.906 159.941 115.906C159.093 115.906 158.338 115.698 157.678 115.284C157.017 114.869 156.497 114.28 156.119 113.516C155.74 112.752 155.55 111.845 155.55 110.796C155.55 109.747 155.74 108.84 156.119 108.076C156.497 107.312 157.017 106.723 157.678 106.308C158.338 105.894 159.093 105.687 159.941 105.687C160.443 105.687 160.914 105.76 161.354 105.905C161.798 106.051 162.198 106.265 162.554 106.546C162.91 106.825 163.208 107.165 163.448 107.566C163.687 107.965 163.852 108.42 163.943 108.931ZM168.765 115.925C168.091 115.925 167.5 115.765 166.992 115.444C166.487 115.124 166.092 114.675 165.807 114.099C165.525 113.522 165.384 112.849 165.384 112.078C165.384 111.301 165.525 110.623 165.807 110.043C166.092 109.464 166.487 109.014 166.992 108.693C167.5 108.373 168.091 108.212 168.765 108.212C169.438 108.212 170.027 108.373 170.532 108.693C171.041 109.014 171.436 109.464 171.717 110.043C172.002 110.623 172.145 111.301 172.145 112.078C172.145 112.849 172.002 113.522 171.717 114.099C171.436 114.675 171.041 115.124 170.532 115.444C170.027 115.765 169.438 115.925 168.765 115.925ZM168.765 114.895C169.276 114.895 169.697 114.764 170.027 114.502C170.358 114.24 170.602 113.895 170.761 113.467C170.919 113.04 170.999 112.577 170.999 112.078C170.999 111.58 170.919 111.115 170.761 110.684C170.602 110.254 170.358 109.906 170.027 109.64C169.697 109.375 169.276 109.242 168.765 109.242C168.253 109.242 167.832 109.375 167.502 109.64C167.171 109.906 166.927 110.254 166.768 110.684C166.61 111.115 166.53 111.58 166.53 112.078C166.53 112.577 166.61 113.04 166.768 113.467C166.927 113.895 167.171 114.24 167.502 114.502C167.832 114.764 168.253 114.895 168.765 114.895ZM173.895 115.77V108.309H175.002V109.475H175.099C175.254 109.077 175.505 108.768 175.852 108.547C176.198 108.324 176.614 108.212 177.1 108.212C177.592 108.212 178.002 108.324 178.329 108.547C178.659 108.768 178.917 109.077 179.101 109.475H179.179C179.37 109.09 179.656 108.784 180.038 108.557C180.421 108.327 180.879 108.212 181.413 108.212C182.08 108.212 182.626 108.421 183.05 108.839C183.474 109.253 183.686 109.899 183.686 110.777V115.77H182.54V110.777C182.54 110.226 182.389 109.833 182.088 109.596C181.787 109.36 181.432 109.242 181.024 109.242C180.5 109.242 180.094 109.401 179.805 109.718C179.517 110.032 179.373 110.43 179.373 110.913V115.77H178.207V110.66C178.207 110.236 178.07 109.894 177.795 109.635C177.519 109.373 177.165 109.242 176.731 109.242C176.433 109.242 176.155 109.321 175.896 109.48C175.64 109.639 175.433 109.859 175.274 110.14C175.118 110.419 175.041 110.741 175.041 111.107V115.77H173.895ZM185.782 118.567V108.309H186.889V109.494H187.025C187.109 109.365 187.226 109.2 187.375 108.999C187.527 108.795 187.744 108.614 188.026 108.455C188.31 108.293 188.696 108.212 189.181 108.212C189.81 108.212 190.363 108.369 190.842 108.683C191.322 108.997 191.696 109.443 191.964 110.019C192.233 110.595 192.368 111.275 192.368 112.059C192.368 112.849 192.233 113.534 191.964 114.113C191.696 114.69 191.323 115.137 190.847 115.454C190.371 115.768 189.823 115.925 189.201 115.925C188.722 115.925 188.338 115.846 188.05 115.687C187.762 115.525 187.54 115.342 187.384 115.138C187.229 114.931 187.109 114.759 187.025 114.623H186.928V118.567H185.782ZM186.908 112.039C186.908 112.603 186.991 113.1 187.156 113.531C187.321 113.958 187.563 114.293 187.88 114.536C188.197 114.775 188.586 114.895 189.045 114.895C189.525 114.895 189.925 114.769 190.245 114.516C190.569 114.261 190.812 113.917 190.974 113.487C191.139 113.053 191.221 112.57 191.221 112.039C191.221 111.515 191.14 111.042 190.978 110.621C190.82 110.197 190.579 109.862 190.255 109.616C189.934 109.367 189.531 109.242 189.045 109.242C188.579 109.242 188.187 109.36 187.87 109.596C187.553 109.83 187.313 110.157 187.151 110.578C186.989 110.995 186.908 111.483 186.908 112.039ZM196.311 115.944C195.839 115.944 195.41 115.855 195.024 115.677C194.639 115.496 194.333 115.235 194.106 114.895C193.88 114.552 193.766 114.138 193.766 113.652C193.766 113.225 193.851 112.878 194.019 112.613C194.187 112.344 194.412 112.133 194.694 111.981C194.976 111.829 195.287 111.716 195.626 111.641C195.97 111.564 196.315 111.502 196.661 111.457C197.114 111.398 197.482 111.355 197.763 111.326C198.048 111.293 198.256 111.24 198.385 111.165C198.518 111.091 198.584 110.961 198.584 110.777V110.738C198.584 110.259 198.453 109.886 198.191 109.621C197.932 109.355 197.538 109.223 197.011 109.223C196.463 109.223 196.034 109.342 195.724 109.582C195.413 109.822 195.194 110.077 195.068 110.349L193.98 109.961C194.174 109.507 194.433 109.155 194.757 108.902C195.084 108.646 195.44 108.468 195.826 108.368C196.214 108.264 196.596 108.212 196.972 108.212C197.211 108.212 197.487 108.241 197.797 108.3C198.112 108.355 198.414 108.47 198.706 108.645C199 108.819 199.245 109.083 199.439 109.436C199.633 109.789 199.731 110.262 199.731 110.854V115.77H198.584V114.759H198.526C198.448 114.921 198.319 115.094 198.137 115.279C197.956 115.464 197.715 115.621 197.414 115.75C197.113 115.88 196.745 115.944 196.311 115.944ZM196.486 114.915C196.939 114.915 197.322 114.826 197.632 114.648C197.946 114.47 198.183 114.24 198.341 113.958C198.503 113.676 198.584 113.38 198.584 113.069V112.02C198.536 112.078 198.429 112.132 198.264 112.18C198.102 112.226 197.914 112.266 197.7 112.302C197.49 112.334 197.284 112.363 197.084 112.389C196.886 112.412 196.726 112.431 196.603 112.447C196.305 112.486 196.026 112.549 195.767 112.637C195.512 112.721 195.304 112.849 195.146 113.021C194.99 113.189 194.913 113.419 194.913 113.71C194.913 114.108 195.06 114.41 195.355 114.614C195.652 114.814 196.03 114.915 196.486 114.915ZM202.969 111.282V115.77H201.823V108.309H202.93V109.475H203.027C203.202 109.096 203.467 108.792 203.824 108.562C204.18 108.329 204.64 108.212 205.203 108.212C205.708 108.212 206.15 108.316 206.529 108.523C206.908 108.727 207.202 109.038 207.413 109.456C207.623 109.87 207.729 110.395 207.729 111.029V115.77H206.582V111.107C206.582 110.521 206.43 110.064 206.126 109.737C205.821 109.407 205.404 109.242 204.873 109.242C204.507 109.242 204.18 109.321 203.892 109.48C203.607 109.639 203.382 109.87 203.217 110.174C203.051 110.479 202.969 110.848 202.969 111.282ZM210.294 118.567C210.1 118.567 209.927 118.551 209.774 118.519C209.622 118.489 209.517 118.46 209.459 118.431L209.75 117.421C210.029 117.492 210.275 117.518 210.488 117.499C210.702 117.479 210.892 117.384 211.057 117.212C211.225 117.044 211.379 116.77 211.518 116.391L211.732 115.808L208.973 108.309H210.216L212.276 114.254H212.353L214.413 108.309H215.656L212.489 116.857C212.347 117.243 212.17 117.562 211.96 117.814C211.75 118.07 211.505 118.259 211.227 118.383C210.951 118.506 210.641 118.567 210.294 118.567Z" fill="#667085"/>
</g>
<path d="M314.648 243.147C314.648 221.383 305.947 200.511 290.459 185.121C274.972 169.732 253.965 161.086 232.062 161.086C210.159 161.086 189.153 169.732 173.665 185.121C158.178 200.511 149.477 221.383 149.477 243.147L314.648 243.147Z" fill="#FFF9FB"/>
<path d="M232.062 161.408C253.54 161.408 274.151 169.754 289.505 184.637L290.232 185.35C305.583 200.603 314.238 221.263 314.323 242.824H149.801C149.885 221.601 158.273 201.252 173.175 186.072L173.893 185.35C189.32 170.02 210.244 161.408 232.062 161.408Z" stroke="url(#paint2_linear_223_9295)" stroke-opacity="0.7" stroke-width="0.645201"/>
<path d="M232.996 195.158C245.714 195.158 257.919 200.132 267.011 209.001L267.441 209.426C276.501 218.485 281.622 230.746 281.707 243.549H184.285C184.368 230.947 189.332 218.872 198.126 209.856L198.551 209.426C207.686 200.29 220.077 195.158 232.996 195.158Z" stroke="url(#paint3_linear_223_9295)" stroke-opacity="0.7" stroke-width="0.645201"/>
<path d="M233 180.318C249.592 180.318 265.515 186.807 277.377 198.378L277.938 198.933C289.781 210.775 296.466 226.81 296.551 243.549H169.449C169.533 227.073 176.01 211.279 187.507 199.494L188.062 198.933C199.794 187.201 215.64 180.529 232.21 180.323L233 180.318Z" stroke="url(#paint4_linear_223_9295)" stroke-opacity="0.7" stroke-width="0.645201"/>
<g filter="url(#filter3_i_223_9295)">
<rect x="200.742" y="208.383" width="64.5202" height="64.5202" rx="32.2601" fill="white"/>
<rect x="201.065" y="208.705" width="63.875" height="63.875" rx="31.9375" stroke="url(#paint5_linear_223_9295)" stroke-opacity="0.7" stroke-width="0.645201"/>
<path fill-rule="evenodd" clip-rule="evenodd" d="M216.227 240.642C226.889 240.642 233.002 234.53 233.002 223.867C233.002 234.53 239.114 240.642 249.777 240.642C239.114 240.642 233.002 246.755 233.002 257.418C233.002 246.755 226.889 240.642 216.227 240.642Z" fill="#FF005D"/>
</g>
<circle opacity="0.3" cx="43.7624" cy="132.398" r="0.854804" transform="rotate(90 43.7624 132.398)" fill="#FF005D"/>
<circle opacity="0.3" cx="430.985" cy="121.284" r="1.13974" transform="rotate(90 430.985 121.284)" fill="#FF005D"/>
<circle opacity="0.3" cx="415.317" cy="135.816" r="0.854804" transform="rotate(90 415.317 135.816)" fill="#FF005D"/>
<circle opacity="0.3" cx="68.8327" cy="128.98" r="0.854804" transform="rotate(90 68.8327 128.98)" fill="#FF005D"/>
<circle opacity="0.2" cx="187.079" cy="133.823" r="1.13974" transform="rotate(90 187.079 133.823)" fill="#FF005D"/>
<circle opacity="0.3" cx="192.782" cy="82.5343" r="1.13974" transform="rotate(90 192.782 82.5343)" fill="#FF005D"/>
<circle opacity="0.2" cx="111.86" cy="128.124" r="1.13974" transform="rotate(90 111.86 128.124)" fill="#FF005D"/>
<circle cx="94.7665" cy="134.964" r="1.13974" transform="rotate(90 94.7665 134.964)" fill="#FF005D"/>
<circle opacity="0.4" cx="418.446" cy="96.2101" r="1.13974" transform="rotate(90 418.446 96.2101)" fill="#FF005D"/>
<circle opacity="0.3" cx="32.079" cy="103.808" r="1.13974" transform="rotate(90 32.079 103.808)" fill="#FF005D"/>
<circle opacity="0.3" cx="370.579" cy="97.3507" r="1.13974" transform="rotate(90 370.579 97.3507)" fill="#FF005D"/>
<circle opacity="0.3" cx="384.259" cy="126.605" r="1.13974" transform="rotate(90 384.259 126.605)" fill="#FF005D"/>
<circle opacity="0.3" cx="348.923" cy="77.9757" r="1.13974" transform="rotate(90 348.923 77.9757)" fill="#FF005D"/>
<circle opacity="0.4" cx="393.376" cy="82.5343" r="1.13974" transform="rotate(90 393.376 82.5343)" fill="#FF005D"/>
<circle opacity="0.4" cx="438.106" cy="94.7845" r="0.854804" transform="rotate(90 438.106 94.7845)" fill="#FF005D"/>
<circle opacity="0.4" cx="40.0556" cy="117.487" r="1.13974" transform="rotate(90 40.0556 117.487)" fill="#FF005D"/>
<circle opacity="0.3" cx="69.9733" cy="84.5306" r="0.854804" transform="rotate(90 69.9733 84.5306)" fill="#FF005D"/>
<circle opacity="0.3" cx="42.3368" cy="90.5108" r="1.13974" transform="rotate(90 42.3368 90.5108)" fill="#FF005D"/>
<circle opacity="0.3" cx="99.3212" cy="79.8741" r="1.13974" transform="rotate(90 99.3212 79.8741)" fill="#FF005D"/>
<circle opacity="0.3" cx="302.481" cy="84.5306" r="0.854804" transform="rotate(90 302.481 84.5306)" fill="#FF005D"/>
<circle opacity="0.2" cx="155.458" cy="91.3665" r="0.854804" transform="rotate(90 155.458 91.3665)" fill="#FF005D"/>
<rect x="89.4977" y="185.541" width="60.8221" height="19.7041" rx="9.85207" fill="white"/>
<rect x="89.4977" y="185.541" width="60.8221" height="19.7041" rx="9.85207" stroke="#D0D5DD" stroke-width="0.854803"/>
<path d="M103.904 195.25C103.904 196.124 103.746 196.88 103.43 197.517C103.115 198.153 102.682 198.644 102.131 198.99C101.581 199.335 100.952 199.508 100.245 199.508C99.5381 199.508 98.9094 199.335 98.359 198.99C97.8085 198.644 97.3754 198.153 97.0597 197.517C96.7441 196.88 96.5862 196.124 96.5862 195.25C96.5862 194.376 96.7441 193.62 97.0597 192.984C97.3754 192.347 97.8085 191.856 98.359 191.51C98.9094 191.165 99.5381 190.992 100.245 190.992C100.952 190.992 101.581 191.165 102.131 191.51C102.682 191.856 103.115 192.347 103.43 192.984C103.746 193.62 103.904 194.376 103.904 195.25ZM102.932 195.25C102.932 194.532 102.812 193.927 102.572 193.433C102.335 192.939 102.012 192.565 101.605 192.312C101.2 192.058 100.747 191.931 100.245 191.931C99.7432 191.931 99.2885 192.058 98.8811 192.312C98.4763 192.565 98.1539 192.939 97.9137 193.433C97.6763 193.927 97.5576 194.532 97.5576 195.25C97.5576 195.968 97.6763 196.574 97.9137 197.067C98.1539 197.561 98.4763 197.935 98.8811 198.188C99.2885 198.442 99.7432 198.569 100.245 198.569C100.747 198.569 101.2 198.442 101.605 198.188C102.012 197.935 102.335 197.561 102.572 197.067C102.812 196.574 102.932 195.968 102.932 195.25ZM106.417 195.655V199.395H105.462V193.178H106.385V194.149H106.466C106.612 193.833 106.833 193.58 107.13 193.388C107.426 193.194 107.81 193.097 108.279 193.097C108.7 193.097 109.068 193.183 109.384 193.356C109.7 193.526 109.945 193.785 110.121 194.133C110.296 194.478 110.384 194.915 110.384 195.444V199.395H109.428V195.509C109.428 195.021 109.302 194.64 109.048 194.368C108.794 194.092 108.446 193.955 108.004 193.955C107.699 193.955 107.426 194.021 107.186 194.153C106.949 194.285 106.761 194.478 106.624 194.732C106.486 194.986 106.417 195.293 106.417 195.655ZM113.084 191.106V199.395H112.129V191.106H113.084ZM114.834 199.395V193.178H115.789V199.395H114.834ZM115.319 192.142C115.133 192.142 114.973 192.078 114.838 191.951C114.706 191.825 114.639 191.672 114.639 191.494C114.639 191.316 114.706 191.164 114.838 191.037C114.973 190.91 115.133 190.846 115.319 190.846C115.506 190.846 115.665 190.91 115.797 191.037C115.932 191.164 115.999 191.316 115.999 191.494C115.999 191.672 115.932 191.825 115.797 191.951C115.665 192.078 115.506 192.142 115.319 192.142ZM118.494 195.655V199.395H117.538V193.178H118.461V194.149H118.542C118.688 193.833 118.909 193.58 119.206 193.388C119.503 193.194 119.886 193.097 120.355 193.097C120.776 193.097 121.145 193.183 121.46 193.356C121.776 193.526 122.022 193.785 122.197 194.133C122.372 194.478 122.46 194.915 122.46 195.444V199.395H121.505V195.509C121.505 195.021 121.378 194.64 121.124 194.368C120.871 194.092 120.523 193.955 120.08 193.955C119.775 193.955 119.503 194.021 119.263 194.153C119.025 194.285 118.838 194.478 118.7 194.732C118.562 194.986 118.494 195.293 118.494 195.655ZM126.812 199.524C126.213 199.524 125.696 199.392 125.262 199.127C124.83 198.86 124.497 198.488 124.262 198.01C124.03 197.53 123.914 196.972 123.914 196.335C123.914 195.698 124.03 195.137 124.262 194.651C124.497 194.163 124.823 193.782 125.242 193.51C125.662 193.234 126.154 193.097 126.715 193.097C127.039 193.097 127.358 193.151 127.674 193.259C127.99 193.367 128.277 193.542 128.536 193.785C128.795 194.025 129.002 194.343 129.155 194.74C129.309 195.137 129.386 195.625 129.386 196.205V196.61H124.594V195.784H128.415C128.415 195.434 128.345 195.121 128.204 194.845C128.067 194.57 127.87 194.353 127.613 194.194C127.36 194.034 127.06 193.955 126.715 193.955C126.334 193.955 126.005 194.049 125.727 194.238C125.452 194.424 125.24 194.667 125.092 194.967C124.943 195.266 124.869 195.587 124.869 195.93V196.48C124.869 196.95 124.95 197.348 125.112 197.674C125.277 197.998 125.505 198.245 125.796 198.415C126.087 198.582 126.426 198.666 126.812 198.666C127.063 198.666 127.29 198.631 127.492 198.561C127.697 198.488 127.874 198.38 128.022 198.237C128.17 198.091 128.285 197.91 128.366 197.695L129.289 197.954C129.192 198.267 129.029 198.542 128.799 198.779C128.57 199.014 128.287 199.198 127.949 199.33C127.612 199.459 127.233 199.524 126.812 199.524ZM134.514 199.395H133.462L136.505 191.106H137.541L140.585 199.395H139.533L137.056 192.417H136.991L134.514 199.395ZM134.903 196.157H139.144V197.047H134.903V196.157ZM142.88 191.106V199.395H141.876V191.106H142.88Z" fill="black"/>
<rect x="316.302" y="188.959" width="75.8221" height="19.7041" rx="9.85207" fill="white"/>
<rect x="316.302" y="188.959" width="75.8221" height="19.7041" rx="9.85207" stroke="#D0D5DD" stroke-width="0.854803"/>
<path d="M324.055 194.523L326.515 201.501H326.613L329.073 194.523H330.126L327.082 202.812H326.046L323.002 194.523H324.055ZM333.315 202.942C332.716 202.942 332.199 202.81 331.765 202.545C331.333 202.278 331 201.906 330.765 201.428C330.533 200.948 330.417 200.389 330.417 199.753C330.417 199.116 330.533 198.555 330.765 198.069C331 197.581 331.326 197.2 331.745 196.928C332.166 196.652 332.657 196.515 333.218 196.515C333.542 196.515 333.861 196.569 334.177 196.677C334.493 196.785 334.78 196.96 335.039 197.203C335.298 197.443 335.505 197.761 335.658 198.158C335.812 198.555 335.889 199.043 335.889 199.623V200.028H331.097V199.202H334.918C334.918 198.851 334.848 198.538 334.707 198.263C334.57 197.988 334.373 197.771 334.116 197.612C333.863 197.452 333.563 197.373 333.218 197.373C332.837 197.373 332.508 197.467 332.23 197.656C331.955 197.842 331.743 198.085 331.595 198.385C331.447 198.684 331.372 199.005 331.372 199.348V199.898C331.372 200.368 331.453 200.766 331.615 201.092C331.78 201.416 332.008 201.663 332.299 201.833C332.591 202 332.929 202.084 333.315 202.084C333.566 202.084 333.793 202.049 333.995 201.979C334.2 201.906 334.377 201.798 334.525 201.655C334.674 201.509 334.788 201.328 334.869 201.113L335.792 201.372C335.695 201.685 335.532 201.96 335.302 202.197C335.073 202.432 334.79 202.616 334.452 202.748C334.115 202.877 333.736 202.942 333.315 202.942ZM337.342 202.812V196.596H338.265V197.535H338.33C338.443 197.227 338.648 196.978 338.945 196.786C339.242 196.594 339.576 196.499 339.949 196.499C340.019 196.499 340.107 196.5 340.212 196.503C340.317 196.505 340.397 196.509 340.451 196.515V197.486C340.418 197.478 340.344 197.466 340.228 197.45C340.115 197.431 339.995 197.421 339.868 197.421C339.566 197.421 339.296 197.485 339.058 197.612C338.823 197.736 338.637 197.908 338.5 198.13C338.365 198.348 338.297 198.598 338.297 198.878V202.812H337.342ZM341.583 202.812V196.596H342.538V202.812H341.583ZM342.068 195.56C341.882 195.56 341.722 195.496 341.587 195.369C341.455 195.243 341.389 195.09 341.389 194.912C341.389 194.734 341.455 194.582 341.587 194.455C341.722 194.328 341.882 194.264 342.068 194.264C342.255 194.264 342.414 194.328 342.546 194.455C342.681 194.582 342.748 194.734 342.748 194.912C342.748 195.09 342.681 195.243 342.546 195.369C342.414 195.496 342.255 195.56 342.068 195.56ZM347.056 196.596V197.405H343.705V196.596H347.056ZM344.708 202.812V195.738C344.708 195.382 344.792 195.085 344.959 194.847C345.127 194.61 345.344 194.432 345.611 194.313C345.878 194.194 346.16 194.135 346.457 194.135C346.692 194.135 346.883 194.154 347.032 194.192C347.18 194.229 347.291 194.264 347.363 194.297L347.088 195.123C347.04 195.106 346.972 195.086 346.886 195.062C346.802 195.038 346.692 195.025 346.554 195.025C346.238 195.025 346.01 195.105 345.87 195.264C345.732 195.423 345.664 195.657 345.664 195.964V202.812H344.708ZM349.01 205.144C348.848 205.144 348.703 205.13 348.577 205.103C348.45 205.079 348.362 205.055 348.314 205.03L348.556 204.189C348.788 204.248 348.994 204.27 349.172 204.253C349.35 204.237 349.508 204.158 349.645 204.015C349.785 203.874 349.914 203.646 350.03 203.331L350.208 202.845L347.909 196.596H348.945L350.661 201.55H350.726L352.442 196.596H353.478L350.839 203.719C350.72 204.04 350.573 204.306 350.398 204.516C350.223 204.73 350.019 204.887 349.787 204.99C349.557 205.093 349.298 205.144 349.01 205.144ZM358.074 202.812V194.523H363.076V195.414H359.078V198.215H362.817V199.105H359.078V201.922H363.141V202.812H358.074ZM364.756 202.812V196.596H365.679V197.567H365.76C365.889 197.235 366.098 196.978 366.387 196.794C366.676 196.608 367.022 196.515 367.427 196.515C367.837 196.515 368.179 196.608 368.451 196.794C368.726 196.978 368.941 197.235 369.095 197.567H369.16C369.319 197.246 369.557 196.991 369.876 196.802C370.194 196.611 370.576 196.515 371.021 196.515C371.577 196.515 372.032 196.689 372.385 197.037C372.739 197.382 372.915 197.921 372.915 198.652V202.812H371.96V198.652C371.96 198.193 371.835 197.865 371.584 197.668C371.333 197.471 371.037 197.373 370.698 197.373C370.26 197.373 369.922 197.505 369.682 197.769C369.441 198.031 369.321 198.363 369.321 198.765V202.812H368.35V198.555C368.35 198.201 368.235 197.917 368.006 197.701C367.777 197.482 367.481 197.373 367.12 197.373C366.871 197.373 366.639 197.439 366.423 197.571C366.21 197.703 366.038 197.887 365.905 198.122C365.776 198.354 365.711 198.622 365.711 198.927V202.812H364.756ZM376.491 202.958C376.097 202.958 375.74 202.884 375.419 202.736C375.098 202.584 374.843 202.367 374.654 202.084C374.465 201.798 374.37 201.453 374.37 201.048C374.37 200.692 374.441 200.403 374.581 200.182C374.721 199.958 374.909 199.782 375.144 199.656C375.378 199.529 375.637 199.434 375.921 199.372C376.207 199.307 376.494 199.256 376.783 199.218C377.16 199.17 377.467 199.133 377.701 199.109C377.939 199.082 378.112 199.038 378.22 198.976C378.33 198.914 378.385 198.806 378.385 198.652V198.619C378.385 198.22 378.276 197.91 378.058 197.689C377.842 197.467 377.514 197.357 377.074 197.357C376.618 197.357 376.261 197.456 376.002 197.656C375.743 197.856 375.56 198.069 375.455 198.296L374.549 197.972C374.71 197.594 374.926 197.3 375.196 197.09C375.469 196.876 375.765 196.728 376.087 196.644C376.41 196.558 376.729 196.515 377.042 196.515C377.241 196.515 377.471 196.539 377.73 196.588C377.992 196.634 378.244 196.729 378.487 196.875C378.732 197.021 378.936 197.241 379.098 197.535C379.26 197.829 379.341 198.223 379.341 198.717V202.812H378.385V201.971H378.337C378.272 202.106 378.164 202.25 378.013 202.404C377.862 202.558 377.661 202.688 377.41 202.796C377.159 202.904 376.853 202.958 376.491 202.958ZM376.637 202.1C377.015 202.1 377.333 202.026 377.592 201.878C377.854 201.729 378.051 201.538 378.183 201.303C378.318 201.068 378.385 200.821 378.385 200.562V199.688C378.345 199.737 378.256 199.781 378.118 199.821C377.983 199.859 377.827 199.893 377.649 199.923C377.473 199.95 377.302 199.974 377.135 199.996C376.97 200.014 376.837 200.031 376.734 200.044C376.486 200.076 376.254 200.129 376.038 200.202C375.825 200.272 375.652 200.379 375.52 200.522C375.39 200.662 375.326 200.854 375.326 201.096C375.326 201.428 375.448 201.679 375.694 201.849C375.942 202.017 376.257 202.1 376.637 202.1ZM381.084 202.812V196.596H382.039V202.812H381.084ZM381.57 195.56C381.384 195.56 381.223 195.496 381.088 195.369C380.956 195.243 380.89 195.09 380.89 194.912C380.89 194.734 380.956 194.582 381.088 194.455C381.223 194.328 381.384 194.264 381.57 194.264C381.756 194.264 381.915 194.328 382.047 194.455C382.182 194.582 382.25 194.734 382.25 194.912C382.25 195.09 382.182 195.243 382.047 195.369C381.915 195.496 381.756 195.56 381.57 195.56ZM384.744 194.523V202.812H383.789V194.523H384.744Z" fill="black"/>
<rect x="115.709" y="147.927" width="64.8221" height="19.7041" rx="9.85207" fill="white"/>
<rect x="115.709" y="147.927" width="64.8221" height="19.7041" rx="9.85207" stroke="#D0D5DD" stroke-width="0.854803"/>
<path d="M123.121 161.781V153.492H124.125V157.183H128.544V153.492H129.548V161.781H128.544V158.074H124.125V161.781H123.121ZM131.104 154.383V153.492H137.321V154.383H134.715V161.781H133.711V154.383H131.104ZM138.417 154.383V153.492H144.634V154.383H142.027V161.781H141.023V154.383H138.417ZM146.183 161.781V153.492H148.984C149.634 153.492 150.165 153.61 150.578 153.844C150.994 154.076 151.301 154.391 151.501 154.787C151.701 155.184 151.801 155.627 151.801 156.115C151.801 156.603 151.701 157.047 151.501 157.447C151.304 157.846 150.999 158.164 150.586 158.402C150.174 158.636 149.645 158.754 149 158.754H146.992V157.863H148.967C149.413 157.863 149.77 157.787 150.04 157.633C150.31 157.479 150.505 157.271 150.627 157.009C150.751 156.745 150.813 156.447 150.813 156.115C150.813 155.783 150.751 155.486 150.627 155.225C150.505 154.963 150.308 154.758 150.036 154.609C149.763 154.458 149.402 154.383 148.951 154.383H147.187V161.781H146.183ZM156.963 161.781H155.911L158.954 153.492H159.99L163.034 161.781H161.982L159.505 154.804H159.44L156.963 161.781ZM157.352 158.543H161.593V159.434H157.352V158.543ZM164.325 161.781V153.492H167.126C167.776 153.492 168.308 153.61 168.721 153.844C169.136 154.076 169.444 154.391 169.643 154.787C169.843 155.184 169.943 155.627 169.943 156.115C169.943 156.603 169.843 157.047 169.643 157.447C169.446 157.846 169.141 158.164 168.729 158.402C168.316 158.636 167.787 158.754 167.142 158.754H165.135V157.863H167.11C167.555 157.863 167.912 157.787 168.182 157.633C168.452 157.479 168.648 157.271 168.769 157.009C168.893 156.745 168.955 156.447 168.955 156.115C168.955 155.783 168.893 155.486 168.769 155.225C168.648 154.963 168.451 154.758 168.178 154.609C167.906 154.458 167.544 154.383 167.094 154.383H165.329V161.781H164.325ZM172.564 153.492V161.781H171.56V153.492H172.564Z" fill="black"/>
<rect x="286.67" y="147.927" width="103.822" height="19.7041" rx="9.85207" fill="white"/>
<rect x="286.67" y="147.927" width="103.822" height="19.7041" rx="9.85207" stroke="#D0D5DD" stroke-width="0.854803"/>
<path d="M294.082 161.781V153.492H295.086V160.891H298.939V161.781H294.082ZM300.363 161.781V155.564H301.319V161.781H300.363ZM300.849 154.528C300.663 154.528 300.502 154.465 300.367 154.338C300.235 154.211 300.169 154.059 300.169 153.881C300.169 153.703 300.235 153.55 300.367 153.423C300.502 153.297 300.663 153.233 300.849 153.233C301.035 153.233 301.194 153.297 301.327 153.423C301.462 153.55 301.529 153.703 301.529 153.881C301.529 154.059 301.462 154.211 301.327 154.338C301.194 154.465 301.035 154.528 300.849 154.528ZM304.023 158.041V161.781H303.068V155.564H303.991V156.536H304.072C304.217 156.22 304.439 155.967 304.736 155.775C305.032 155.581 305.416 155.484 305.885 155.484C306.306 155.484 306.674 155.57 306.99 155.743C307.306 155.913 307.551 156.172 307.727 156.52C307.902 156.865 307.99 157.302 307.99 157.831V161.781H307.034V157.896C307.034 157.407 306.908 157.027 306.654 156.754C306.4 156.479 306.052 156.342 305.61 156.342C305.305 156.342 305.032 156.408 304.792 156.54C304.555 156.672 304.367 156.865 304.23 157.119C304.092 157.372 304.023 157.68 304.023 158.041ZM310.625 159.515L310.609 158.333H310.804L313.523 155.564H314.705L311.807 158.495H311.726L310.625 159.515ZM309.735 161.781V153.492H310.69V161.781H309.735ZM313.685 161.781L311.257 158.705L311.937 158.041L314.899 161.781H313.685ZM318.285 161.911C317.686 161.911 317.169 161.779 316.735 161.514C316.303 161.247 315.97 160.875 315.735 160.397C315.503 159.917 315.387 159.358 315.387 158.721C315.387 158.085 315.503 157.523 315.735 157.038C315.97 156.549 316.297 156.169 316.715 155.896C317.136 155.621 317.627 155.484 318.188 155.484C318.512 155.484 318.832 155.538 319.147 155.645C319.463 155.753 319.75 155.929 320.009 156.172C320.268 156.412 320.475 156.73 320.629 157.127C320.782 157.523 320.859 158.012 320.859 158.592V158.997H316.067V158.171H319.888C319.888 157.82 319.818 157.507 319.677 157.232C319.54 156.957 319.343 156.74 319.086 156.58C318.833 156.421 318.533 156.342 318.188 156.342C317.808 156.342 317.478 156.436 317.2 156.625C316.925 156.811 316.713 157.054 316.565 157.353C316.417 157.653 316.342 157.974 316.342 158.317V158.867C316.342 159.337 316.423 159.735 316.585 160.061C316.75 160.385 316.978 160.632 317.269 160.802C317.561 160.969 317.899 161.053 318.285 161.053C318.536 161.053 318.763 161.018 318.965 160.947C319.17 160.875 319.347 160.767 319.495 160.624C319.644 160.478 319.758 160.297 319.839 160.081L320.762 160.34C320.665 160.653 320.502 160.929 320.272 161.166C320.043 161.401 319.76 161.584 319.422 161.716C319.085 161.846 318.706 161.911 318.285 161.911ZM324.66 161.911C324.142 161.911 323.684 161.78 323.288 161.518C322.891 161.254 322.581 160.881 322.357 160.401C322.133 159.918 322.021 159.347 322.021 158.689C322.021 158.036 322.133 157.469 322.357 156.989C322.581 156.509 322.892 156.138 323.292 155.876C323.691 155.614 324.152 155.484 324.676 155.484C325.081 155.484 325.4 155.551 325.635 155.686C325.873 155.818 326.053 155.969 326.177 156.139C326.304 156.307 326.403 156.444 326.473 156.552H326.554V153.492H327.509V161.781H326.586V160.826H326.473C326.403 160.939 326.303 161.082 326.173 161.255C326.044 161.425 325.859 161.578 325.619 161.712C325.379 161.845 325.059 161.911 324.66 161.911ZM324.789 161.053C325.172 161.053 325.496 160.953 325.761 160.753C326.025 160.551 326.226 160.272 326.364 159.915C326.501 159.557 326.57 159.142 326.57 158.673C326.57 158.209 326.503 157.803 326.368 157.455C326.233 157.104 326.033 156.831 325.769 156.637C325.504 156.44 325.178 156.342 324.789 156.342C324.384 156.342 324.047 156.445 323.777 156.653C323.51 156.858 323.309 157.138 323.174 157.491C323.042 157.842 322.976 158.236 322.976 158.673C322.976 159.115 323.043 159.517 323.178 159.879C323.316 160.238 323.518 160.524 323.785 160.737C324.055 160.947 324.39 161.053 324.789 161.053ZM329.391 161.781V155.564H330.346V161.781H329.391ZM329.877 154.528C329.691 154.528 329.53 154.465 329.395 154.338C329.263 154.211 329.197 154.059 329.197 153.881C329.197 153.703 329.263 153.55 329.395 153.423C329.53 153.297 329.691 153.233 329.877 153.233C330.063 153.233 330.222 153.297 330.354 153.423C330.489 153.55 330.557 153.703 330.557 153.881C330.557 154.059 330.489 154.211 330.354 154.338C330.222 154.465 330.063 154.528 329.877 154.528ZM333.051 158.041V161.781H332.096V155.564H333.019V156.536H333.099C333.245 156.22 333.466 155.967 333.763 155.775C334.06 155.581 334.443 155.484 334.913 155.484C335.334 155.484 335.702 155.57 336.018 155.743C336.333 155.913 336.579 156.172 336.754 156.52C336.93 156.865 337.017 157.302 337.017 157.831V161.781H336.062V157.896C336.062 157.407 335.935 157.027 335.682 156.754C335.428 156.479 335.08 156.342 334.637 156.342C334.333 156.342 334.06 156.408 333.82 156.54C333.582 156.672 333.395 156.865 333.257 157.119C333.12 157.372 333.051 157.68 333.051 158.041ZM346.631 155.564C346.582 155.154 346.385 154.836 346.04 154.609C345.695 154.383 345.271 154.269 344.769 154.269C344.402 154.269 344.081 154.329 343.806 154.447C343.533 154.566 343.32 154.729 343.166 154.937C343.015 155.145 342.94 155.381 342.94 155.645C342.94 155.867 342.992 156.057 343.097 156.216C343.205 156.373 343.343 156.503 343.51 156.609C343.678 156.711 343.853 156.796 344.036 156.864C344.22 156.928 344.389 156.981 344.542 157.022L345.384 157.248C345.6 157.305 345.84 157.383 346.105 157.483C346.372 157.583 346.627 157.719 346.87 157.892C347.115 158.062 347.318 158.28 347.477 158.547C347.636 158.815 347.716 159.142 347.716 159.531C347.716 159.979 347.598 160.384 347.363 160.745C347.131 161.107 346.791 161.394 346.343 161.607C345.898 161.82 345.357 161.927 344.72 161.927C344.127 161.927 343.613 161.831 343.178 161.64C342.747 161.448 342.407 161.181 342.158 160.838C341.913 160.496 341.774 160.098 341.742 159.644H342.778C342.805 159.957 342.91 160.216 343.093 160.421C343.28 160.624 343.514 160.775 343.798 160.875C344.084 160.972 344.391 161.02 344.72 161.02C345.104 161.02 345.448 160.958 345.753 160.834C346.057 160.707 346.299 160.532 346.477 160.308C346.655 160.081 346.744 159.817 346.744 159.515C346.744 159.24 346.667 159.016 346.513 158.843C346.36 158.67 346.157 158.53 345.906 158.422C345.655 158.314 345.384 158.22 345.093 158.139L344.073 157.847C343.425 157.661 342.913 157.395 342.535 157.05C342.157 156.705 341.968 156.253 341.968 155.694C341.968 155.23 342.094 154.825 342.345 154.48C342.598 154.132 342.938 153.862 343.365 153.67C343.794 153.476 344.273 153.379 344.801 153.379C345.336 153.379 345.811 153.475 346.226 153.666C346.642 153.855 346.971 154.114 347.214 154.443C347.459 154.773 347.589 155.146 347.602 155.564H346.631ZM351.762 161.911C351.179 161.911 350.677 161.773 350.256 161.498C349.835 161.223 349.512 160.844 349.285 160.361C349.058 159.878 348.945 159.326 348.945 158.705C348.945 158.074 349.061 157.517 349.293 157.034C349.528 156.548 349.854 156.169 350.272 155.896C350.693 155.621 351.184 155.484 351.746 155.484C352.183 155.484 352.577 155.564 352.928 155.726C353.278 155.888 353.566 156.115 353.79 156.406C354.014 156.698 354.153 157.038 354.206 157.426H353.251C353.178 157.143 353.017 156.892 352.766 156.673C352.517 156.452 352.183 156.342 351.762 156.342C351.39 156.342 351.063 156.439 350.782 156.633C350.505 156.825 350.287 157.096 350.131 157.447C349.977 157.795 349.9 158.203 349.9 158.673C349.9 159.153 349.976 159.571 350.127 159.928C350.281 160.284 350.496 160.56 350.774 160.757C351.055 160.954 351.384 161.053 351.762 161.053C352.01 161.053 352.235 161.01 352.438 160.923C352.64 160.837 352.811 160.713 352.952 160.551C353.092 160.389 353.192 160.195 353.251 159.968H354.206C354.153 160.335 354.019 160.666 353.806 160.96C353.595 161.251 353.316 161.483 352.968 161.656C352.623 161.826 352.221 161.911 351.762 161.911ZM355.603 161.781V155.564H356.526V156.503H356.59C356.704 156.196 356.909 155.946 357.206 155.755C357.502 155.563 357.837 155.467 358.209 155.467C358.279 155.467 358.367 155.469 358.472 155.471C358.578 155.474 358.657 155.478 358.711 155.484V156.455C358.679 156.447 358.605 156.435 358.489 156.418C358.375 156.4 358.255 156.39 358.128 156.39C357.826 156.39 357.556 156.454 357.319 156.58C357.084 156.705 356.898 156.877 356.76 157.098C356.625 157.317 356.558 157.567 356.558 157.847V161.781H355.603ZM361.673 161.927C361.279 161.927 360.921 161.853 360.6 161.704C360.279 161.553 360.024 161.336 359.835 161.053C359.646 160.767 359.552 160.421 359.552 160.017C359.552 159.66 359.622 159.372 359.763 159.15C359.903 158.927 360.09 158.751 360.325 158.624C360.56 158.497 360.819 158.403 361.102 158.341C361.388 158.276 361.676 158.225 361.964 158.187C362.342 158.139 362.648 158.102 362.883 158.078C363.12 158.051 363.293 158.006 363.401 157.944C363.512 157.882 363.567 157.774 363.567 157.621V157.588C363.567 157.189 363.458 156.879 363.239 156.657C363.023 156.436 362.696 156.325 362.256 156.325C361.8 156.325 361.442 156.425 361.183 156.625C360.924 156.825 360.742 157.038 360.637 157.264L359.73 156.941C359.892 156.563 360.108 156.269 360.378 156.058C360.65 155.845 360.947 155.697 361.268 155.613C361.592 155.527 361.91 155.484 362.223 155.484C362.423 155.484 362.652 155.508 362.911 155.556C363.173 155.602 363.425 155.698 363.668 155.844C363.914 155.989 364.117 156.209 364.279 156.503C364.441 156.798 364.522 157.192 364.522 157.685V161.781H363.567V160.939H363.518C363.454 161.074 363.346 161.219 363.195 161.372C363.044 161.526 362.843 161.657 362.592 161.765C362.341 161.873 362.034 161.927 361.673 161.927ZM361.819 161.069C362.196 161.069 362.515 160.995 362.774 160.846C363.035 160.698 363.232 160.506 363.365 160.272C363.5 160.037 363.567 159.79 363.567 159.531V158.657C363.527 158.705 363.438 158.75 363.3 158.79C363.165 158.828 363.009 158.862 362.83 158.891C362.655 158.918 362.484 158.943 362.316 158.964C362.152 158.983 362.018 158.999 361.916 159.013C361.667 159.045 361.435 159.098 361.22 159.171C361.006 159.241 360.834 159.347 360.702 159.49C360.572 159.631 360.507 159.822 360.507 160.065C360.507 160.397 360.63 160.648 360.876 160.818C361.124 160.985 361.438 161.069 361.819 161.069ZM366.266 164.113V155.564H367.188V156.552H367.302C367.372 156.444 367.469 156.307 367.593 156.139C367.72 155.969 367.901 155.818 368.135 155.686C368.373 155.551 368.694 155.484 369.099 155.484C369.622 155.484 370.084 155.614 370.483 155.876C370.882 156.138 371.194 156.509 371.418 156.989C371.642 157.469 371.754 158.036 371.754 158.689C371.754 159.347 371.642 159.918 371.418 160.401C371.194 160.881 370.884 161.254 370.487 161.518C370.09 161.78 369.633 161.911 369.115 161.911C368.716 161.911 368.396 161.845 368.156 161.712C367.916 161.578 367.731 161.425 367.601 161.255C367.472 161.082 367.372 160.939 367.302 160.826H367.221V164.113H366.266ZM367.205 158.673C367.205 159.142 367.273 159.557 367.411 159.915C367.549 160.272 367.75 160.551 368.014 160.753C368.279 160.953 368.602 161.053 368.985 161.053C369.385 161.053 369.718 160.947 369.985 160.737C370.255 160.524 370.457 160.238 370.592 159.879C370.73 159.517 370.799 159.115 370.799 158.673C370.799 158.236 370.731 157.842 370.596 157.491C370.464 157.138 370.263 156.858 369.993 156.653C369.726 156.445 369.39 156.342 368.985 156.342C368.597 156.342 368.27 156.44 368.006 156.637C367.742 156.831 367.542 157.104 367.407 157.455C367.272 157.803 367.205 158.209 367.205 158.673ZM375.817 161.911C375.218 161.911 374.702 161.779 374.267 161.514C373.836 161.247 373.502 160.875 373.268 160.397C373.036 159.917 372.919 159.358 372.919 158.721C372.919 158.085 373.036 157.523 373.268 157.038C373.502 156.549 373.829 156.169 374.247 155.896C374.668 155.621 375.159 155.484 375.72 155.484C376.044 155.484 376.364 155.538 376.679 155.645C376.995 155.753 377.283 155.929 377.542 156.172C377.801 156.412 378.007 156.73 378.161 157.127C378.315 157.523 378.392 158.012 378.392 158.592V158.997H373.599V158.171H377.42C377.42 157.82 377.35 157.507 377.21 157.232C377.072 156.957 376.875 156.74 376.619 156.58C376.365 156.421 376.066 156.342 375.72 156.342C375.34 156.342 375.011 156.436 374.733 156.625C374.457 156.811 374.246 157.054 374.097 157.353C373.949 157.653 373.875 157.974 373.875 158.317V158.867C373.875 159.337 373.956 159.735 374.118 160.061C374.282 160.385 374.51 160.632 374.802 160.802C375.093 160.969 375.432 161.053 375.817 161.053C376.068 161.053 376.295 161.018 376.497 160.947C376.702 160.875 376.879 160.767 377.028 160.624C377.176 160.478 377.291 160.297 377.372 160.081L378.294 160.34C378.197 160.653 378.034 160.929 377.805 161.166C377.575 161.401 377.292 161.584 376.955 161.716C376.617 161.846 376.238 161.911 375.817 161.911ZM379.845 161.781V155.564H380.767V156.503H380.832C380.945 156.196 381.15 155.946 381.447 155.755C381.744 155.563 382.079 155.467 382.451 155.467C382.521 155.467 382.609 155.469 382.714 155.471C382.819 155.474 382.899 155.478 382.953 155.484V156.455C382.921 156.447 382.846 156.435 382.73 156.418C382.617 156.4 382.497 156.39 382.37 156.39C382.068 156.39 381.798 156.454 381.561 156.58C381.326 156.705 381.14 156.877 381.002 157.098C380.867 157.317 380.8 157.567 380.8 157.847V161.781H379.845Z" fill="black"/>
<circle opacity="0.3" cx="291.938" cy="144.843" r="1.13974" transform="rotate(90 291.938 144.843)" fill="#FF005D"/>
</g>
</g>
<rect x="15.5" y="14.5" width="435" height="319" rx="15.5" stroke="black" stroke-opacity="0.06"/>
</g>
<defs>
<filter id="filter0_dd_223_9295" x="0" y="0" width="466" height="350" filterUnits="userSpaceOnUse" color-interpolation-filters="sRGB">
<feFlood flood-opacity="0" result="BackgroundImageFix"/>
<feColorMatrix in="SourceAlpha" type="matrix" values="0 0 0 0 0 0 0 0 0 0 0 0 0 0 0 0 0 0 127 0" result="hardAlpha"/>
<feOffset dy="1"/>
<feGaussianBlur stdDeviation="1"/>
<feColorMatrix type="matrix" values="0 0 0 0 0.0627451 0 0 0 0 0.0941176 0 0 0 0 0.156863 0 0 0 0.06 0"/>
<feBlend mode="normal" in2="BackgroundImageFix" result="effect1_dropShadow_223_9295"/>
<feColorMatrix in="SourceAlpha" type="matrix" values="0 0 0 0 0 0 0 0 0 0 0 0 0 0 0 0 0 0 127 0" result="hardAlpha"/>
<feOffset dy="1"/>
<feGaussianBlur stdDeviation="1.5"/>
<feColorMatrix type="matrix" values="0 0 0 0 0.0627451 0 0 0 0 0.0941176 0 0 0 0 0.156863 0 0 0 0.1 0"/>
<feBlend mode="normal" in2="effect1_dropShadow_223_9295" result="effect2_dropShadow_223_9295"/>
<feBlend mode="normal" in="SourceGraphic" in2="effect2_dropShadow_223_9295" result="shape"/>
</filter>
<filter id="filter1_di_223_9295" x="49.7344" y="73.457" width="364.734" height="175.543" filterUnits="userSpaceOnUse" color-interpolation-filters="sRGB">
<feFlood flood-opacity="0" result="BackgroundImageFix"/>
<feColorMatrix in="SourceAlpha" type="matrix" values="0 0 0 0 0 0 0 0 0 0 0 0 0 0 0 0 0 0 127 0" result="hardAlpha"/>
<feOffset dy="1"/>
<feGaussianBlur stdDeviation="2"/>
<feComposite in2="hardAlpha" operator="out"/>
<feColorMatrix type="matrix" values="0 0 0 0 0.0470588 0 0 0 0 0.0470588 0 0 0 0 0.0509804 0 0 0 0.05 0"/>
<feBlend mode="normal" in2="BackgroundImageFix" result="effect1_dropShadow_223_9295"/>
<feBlend mode="normal" in="SourceGraphic" in2="effect1_dropShadow_223_9295" result="shape"/>
<feColorMatrix in="SourceAlpha" type="matrix" values="0 0 0 0 0 0 0 0 0 0 0 0 0 0 0 0 0 0 127 0" result="hardAlpha"/>
<feMorphology radius="4" operator="dilate" in="SourceAlpha" result="effect2_innerShadow_223_9295"/>
<feOffset dy="-2.5808"/>
<feGaussianBlur stdDeviation="3.8712"/>
<feComposite in2="hardAlpha" operator="arithmetic" k2="-1" k3="1"/>
<feColorMatrix type="matrix" values="0 0 0 0 0.0470588 0 0 0 0 0.0470588 0 0 0 0 0.0509804 0 0 0 0.1 0"/>
<feBlend mode="normal" in2="shape" result="effect2_innerShadow_223_9295"/>
</filter>
<filter id="filter2_d_223_9295" x="13.8448" y="87.0934" width="436.521" height="62.0291" filterUnits="userSpaceOnUse" color-interpolation-filters="sRGB">
<feFlood flood-opacity="0" result="BackgroundImageFix"/>
<feColorMatrix in="SourceAlpha" type="matrix" values="0 0 0 0 0 0 0 0 0 0 0 0 0 0 0 0 0 0 127 0" result="hardAlpha"/>
<feOffset dy="6.83843"/>
<feGaussianBlur stdDeviation="5.69869"/>
<feComposite in2="hardAlpha" operator="out"/>
<feColorMatrix type="matrix" values="0 0 0 0 0.0470588 0 0 0 0 0.0470588 0 0 0 0 0.0509804 0 0 0 0.06 0"/>
<feBlend mode="normal" in2="BackgroundImageFix" result="effect1_dropShadow_223_9295"/>
<feBlend mode="normal" in="SourceGraphic" in2="effect1_dropShadow_223_9295" result="shape"/>
</filter>
<filter id="filter3_i_223_9295" x="200.742" y="205.802" width="67.1042" height="67.1003" filterUnits="userSpaceOnUse" color-interpolation-filters="sRGB">
<feFlood flood-opacity="0" result="BackgroundImageFix"/>
<feBlend mode="normal" in="SourceGraphic" in2="BackgroundImageFix" result="shape"/>
<feColorMatrix in="SourceAlpha" type="matrix" values="0 0 0 0 0 0 0 0 0 0 0 0 0 0 0 0 0 0 127 0" result="hardAlpha"/>
<feMorphology radius="2.5808" operator="erode" in="SourceAlpha" result="effect1_innerShadow_223_9295"/>
<feOffset dx="2.5808" dy="-2.5808"/>
<feGaussianBlur stdDeviation="1.9356"/>
<feComposite in2="hardAlpha" operator="arithmetic" k2="-1" k3="1"/>
<feColorMatrix type="matrix" values="0 0 0 0 1 0 0 0 0 0 0 0 0 0 0.364706 0 0 0 0.09 0"/>
<feBlend mode="normal" in2="shape" result="effect1_innerShadow_223_9295"/>
</filter>
<linearGradient id="paint0_linear_223_9295" x1="233" y1="13.5465" x2="233" y2="403.5" gradientUnits="userSpaceOnUse">
<stop offset="0.301435" stop-color="#FFF2F7"/>
<stop offset="1" stop-color="white"/>
</linearGradient>
<linearGradient id="paint1_linear_223_9295" x1="237" y1="-0.412363" x2="237" y2="354.202" gradientUnits="userSpaceOnUse">
<stop offset="0.301435" stop-color="#FFF2F7"/>
<stop offset="1" stop-color="white"/>
</linearGradient>
<linearGradient id="paint2_linear_223_9295" x1="232.062" y1="161.086" x2="232.062" y2="243.147" gradientUnits="userSpaceOnUse">
<stop stop-color="#FF005D"/>
<stop offset="1" stop-color="#FF005D" stop-opacity="0"/>
</linearGradient>
<linearGradient id="paint3_linear_223_9295" x1="232.996" y1="194.836" x2="232.996" y2="243.871" gradientUnits="userSpaceOnUse">
<stop stop-color="#FF005D"/>
<stop offset="1" stop-color="#FF005D" stop-opacity="0"/>
</linearGradient>
<linearGradient id="paint4_linear_223_9295" x1="233" y1="179.996" x2="233" y2="243.871" gradientUnits="userSpaceOnUse">
<stop stop-color="#FF005D"/>
<stop offset="1" stop-color="#FF005D" stop-opacity="0"/>
</linearGradient>
<linearGradient id="paint5_linear_223_9295" x1="233.002" y1="208.383" x2="233.002" y2="272.903" gradientUnits="userSpaceOnUse">
<stop stop-color="#FF005D"/>
<stop offset="1" stop-color="#FF005D" stop-opacity="0.08"/>
</linearGradient>
<clipPath id="clip0_223_9295">
<rect x="15" y="14" width="436" height="320" rx="16" fill="white"/>
</clipPath>
<clipPath id="clip1_223_9295">
<rect width="474" height="291" fill="white" transform="translate(-4.39062 42.6445)"/>
</clipPath>
</defs>
</svg>
