<svg width="54" height="54" viewBox="0 0 54 54" fill="none" xmlns="http://www.w3.org/2000/svg">
<g filter="url(#filter0_dd_2001_4737)">
<g clip-path="url(#clip0_2001_4737)">
<rect x="3" y="2" width="48" height="48" rx="8" fill="white"/>
<path d="M3 6C3 3.79086 4.79086 2 7 2H51L3 50V6Z" fill="white" stroke="#B30041" stroke-width="1.5"/>
<path d="M51 46C51 48.2091 49.2091 50 47 50L3 50L51 2L51 46Z" fill="#F9FAFB" stroke="#EAECF0" stroke-width="1.5"/>
<rect x="27" y="26" width="18" height="18" rx="4" fill="white"/>
<g clip-path="url(#clip1_2001_4737)">
<mask id="mask0_2001_4737" style="mask-type:luminance" maskUnits="userSpaceOnUse" x="29" y="27" width="14" height="16">
<path d="M42.3753 27H29.6328V43H42.3753V27Z" fill="white"/>
</mask>
<g mask="url(#mask0_2001_4737)">
<path fill-rule="evenodd" clip-rule="evenodd" d="M42.1378 42.9891C42.2701 42.9891 42.3773 42.8819 42.3773 42.7496V27.2395C42.3773 27.1072 42.2701 27 42.1378 27L37.4576 27C35.9249 27 34.0563 27.4877 32.4753 28.8257C30.7165 30.3143 29.7266 32.5128 29.7266 34.9946C29.7266 37.4764 30.7165 39.6748 32.4753 41.1634C34.0563 42.5015 35.9249 42.9891 37.4576 42.9891H42.1378Z" fill="#40BAFF"/>
<path fill-rule="evenodd" clip-rule="evenodd" d="M42.3745 40.265V29.7227H37.4548C36.4425 29.7227 35.2007 30.0462 34.1642 30.9138C33.0388 31.8558 32.3594 33.2723 32.3594 34.9938C32.3594 36.7153 33.0388 38.1318 34.1642 39.0738C35.2007 39.9414 36.4425 40.265 37.4548 40.265H42.3745Z" fill="#D0207F"/>
<path d="M42.3796 32.3594H37.4599C36.4759 32.3594 35 33.0182 35 34.995C35 36.9716 36.4759 37.6305 37.4599 37.6305H42.3796V32.3594Z" fill="#FFCB46"/>
</g>
</g>
<g filter="url(#filter1_d_2001_4737)">
<path fill-rule="evenodd" clip-rule="evenodd" d="M9 17C14.7206 17 18 13.7206 18 8C18 13.7206 21.2794 17 27 17C21.2794 17 18 20.2794 18 26C18 20.2794 14.7206 17 9 17Z" fill="#FF005D"/>
</g>
</g>
<rect x="3.5" y="2.5" width="47" height="47" rx="7.5" stroke="white"/>
</g>
<defs>
<filter id="filter0_dd_2001_4737" x="0" y="0" width="54" height="54" filterUnits="userSpaceOnUse" color-interpolation-filters="sRGB">
<feFlood flood-opacity="0" result="BackgroundImageFix"/>
<feColorMatrix in="SourceAlpha" type="matrix" values="0 0 0 0 0 0 0 0 0 0 0 0 0 0 0 0 0 0 127 0" result="hardAlpha"/>
<feOffset dy="1"/>
<feGaussianBlur stdDeviation="1"/>
<feColorMatrix type="matrix" values="0 0 0 0 0.0627451 0 0 0 0 0.0941176 0 0 0 0 0.156863 0 0 0 0.06 0"/>
<feBlend mode="normal" in2="BackgroundImageFix" result="effect1_dropShadow_2001_4737"/>
<feColorMatrix in="SourceAlpha" type="matrix" values="0 0 0 0 0 0 0 0 0 0 0 0 0 0 0 0 0 0 127 0" result="hardAlpha"/>
<feOffset dy="1"/>
<feGaussianBlur stdDeviation="1.5"/>
<feColorMatrix type="matrix" values="0 0 0 0 0.0627451 0 0 0 0 0.0941176 0 0 0 0 0.156863 0 0 0 0.1 0"/>
<feBlend mode="normal" in2="effect1_dropShadow_2001_4737" result="effect2_dropShadow_2001_4737"/>
<feBlend mode="normal" in="SourceGraphic" in2="effect2_dropShadow_2001_4737" result="shape"/>
</filter>
<filter id="filter1_d_2001_4737" x="6.97059" y="6.98529" width="22.0588" height="22.0588" filterUnits="userSpaceOnUse" color-interpolation-filters="sRGB">
<feFlood flood-opacity="0" result="BackgroundImageFix"/>
<feColorMatrix in="SourceAlpha" type="matrix" values="0 0 0 0 0 0 0 0 0 0 0 0 0 0 0 0 0 0 127 0" result="hardAlpha"/>
<feOffset dy="1.01471"/>
<feGaussianBlur stdDeviation="1.01471"/>
<feComposite in2="hardAlpha" operator="out"/>
<feColorMatrix type="matrix" values="0 0 0 0 0.68291 0 0 0 0 0 0 0 0 0 0.249061 0 0 0 0.44 0"/>
<feBlend mode="normal" in2="BackgroundImageFix" result="effect1_dropShadow_2001_4737"/>
<feBlend mode="normal" in="SourceGraphic" in2="effect1_dropShadow_2001_4737" result="shape"/>
</filter>
<clipPath id="clip0_2001_4737">
<rect x="3" y="2" width="48" height="48" rx="8" fill="white"/>
</clipPath>
<clipPath id="clip1_2001_4737">
<rect width="12.7425" height="16" fill="white" transform="translate(29.6328 27)"/>
</clipPath>
</defs>
</svg>
