<svg width="56" height="56" viewBox="0 0 56 56" fill="none" xmlns="http://www.w3.org/2000/svg">
<rect x="0.7" y="0.7" width="54.6" height="54.6" rx="27.3" fill="white"/>
<rect x="0.7" y="0.7" width="54.6" height="54.6" rx="27.3" stroke="#EAECF0" stroke-width="1.4"/>
<path opacity="0.2" d="M38.5 24.5V38.5L34.1709 35H23.625C23.3929 35 23.1704 34.9078 23.0063 34.7437C22.8422 34.5796 22.75 34.3571 22.75 34.125V29.75H32.375C32.6071 29.75 32.8296 29.6578 32.9937 29.4937C33.1578 29.3296 33.25 29.1071 33.25 28.875V23.625H37.625C37.8571 23.625 38.0796 23.7172 38.2437 23.8813C38.4078 24.0454 38.5 24.2679 38.5 24.5Z" fill="#1D2939"/>
<path d="M37.625 22.75H34.125V19.25C34.125 18.7859 33.9406 18.3408 33.6124 18.0126C33.2842 17.6844 32.8391 17.5 32.375 17.5H18.375C17.9109 17.5 17.4658 17.6844 17.1376 18.0126C16.8094 18.3408 16.625 18.7859 16.625 19.25V33.25C16.6255 33.4146 16.6725 33.5758 16.7604 33.7149C16.8484 33.854 16.9738 33.9655 17.1223 34.0366C17.2708 34.1076 17.4364 34.1353 17.5999 34.1165C17.7634 34.0977 17.9184 34.0332 18.0469 33.9303L21.875 30.8438V34.125C21.875 34.5891 22.0594 35.0342 22.3876 35.3624C22.7158 35.6906 23.1609 35.875 23.625 35.875H33.8614L37.9531 39.1803C38.108 39.3055 38.3009 39.3742 38.5 39.375C38.7321 39.375 38.9546 39.2828 39.1187 39.1187C39.2828 38.9546 39.375 38.7321 39.375 38.5V24.5C39.375 24.0359 39.1906 23.5908 38.8624 23.2626C38.5342 22.9344 38.0891 22.75 37.625 22.75ZM21.2789 29.0697L18.375 31.418V19.25H32.375V28.875H21.8291C21.6288 28.875 21.4346 28.9437 21.2789 29.0697ZM37.625 36.668L34.7211 34.3197C34.5663 34.1945 34.3734 34.1258 34.1742 34.125H23.625V30.625H32.375C32.8391 30.625 33.2842 30.4406 33.6124 30.1124C33.9406 29.7842 34.125 29.3391 34.125 28.875V24.5H37.625V36.668Z" fill="#1D2939"/>
</svg>
