<svg width="53" height="52" viewBox="0 0 53 52" fill="none" xmlns="http://www.w3.org/2000/svg">
<g filter="url(#filter0_d_223_8874)">
<rect x="2.33594" y="1" width="48" height="48" rx="8" fill="white"/>
<rect x="2.83594" y="1.5" width="47" height="47" rx="7.5" stroke="#D0D5DD"/>
<path d="M23.3359 16H19.3359C18.2314 16 17.3359 16.8954 17.3359 18V22C17.3359 23.1046 18.2314 24 19.3359 24H23.3359C24.4405 24 25.3359 23.1046 25.3359 22V18C25.3359 16.8954 24.4405 16 23.3359 16Z" stroke="#101828" stroke-width="2" stroke-linecap="round" stroke-linejoin="round"/>
<path d="M21.3359 24V28C21.3359 28.5304 21.5467 29.0391 21.9217 29.4142C22.2968 29.7893 22.8055 30 23.3359 30H27.3359" stroke="#101828" stroke-width="2" stroke-linecap="round" stroke-linejoin="round"/>
<path d="M33.3359 26H29.3359C28.2314 26 27.3359 26.8954 27.3359 28V32C27.3359 33.1046 28.2314 34 29.3359 34H33.3359C34.4405 34 35.3359 33.1046 35.3359 32V28C35.3359 26.8954 34.4405 26 33.3359 26Z" stroke="#101828" stroke-width="2" stroke-linecap="round" stroke-linejoin="round"/>
</g>
<defs>
<filter id="filter0_d_223_8874" x="0.335938" y="0" width="52" height="52" filterUnits="userSpaceOnUse" color-interpolation-filters="sRGB">
<feFlood flood-opacity="0" result="BackgroundImageFix"/>
<feColorMatrix in="SourceAlpha" type="matrix" values="0 0 0 0 0 0 0 0 0 0 0 0 0 0 0 0 0 0 127 0" result="hardAlpha"/>
<feOffset dy="1"/>
<feGaussianBlur stdDeviation="1"/>
<feColorMatrix type="matrix" values="0 0 0 0 0.0627451 0 0 0 0 0.0941176 0 0 0 0 0.156863 0 0 0 0.05 0"/>
<feBlend mode="normal" in2="BackgroundImageFix" result="effect1_dropShadow_223_8874"/>
<feBlend mode="normal" in="SourceGraphic" in2="effect1_dropShadow_223_8874" result="shape"/>
</filter>
</defs>
</svg>
