<svg width="52" height="52" viewBox="0 0 52 52" fill="none" xmlns="http://www.w3.org/2000/svg">
<g filter="url(#filter0_d_223_8855)">
<rect x="2" y="1" width="48" height="48" rx="8" fill="white"/>
<rect x="2.5" y="1.5" width="47" height="47" rx="7.5" stroke="#D0D5DD"/>
<path fill-rule="evenodd" clip-rule="evenodd" d="M29.7317 14.8352C29.6546 14.493 29.3507 14.25 29 14.25C28.6493 14.25 28.3454 14.493 28.2683 14.8352L27.7296 17.2268C27.3363 18.9728 25.9728 20.3363 24.2268 20.7296L21.8352 21.2683C21.493 21.3454 21.25 21.6493 21.25 22C21.25 22.3507 21.493 22.6546 21.8352 22.7317L24.2268 23.2704C25.9728 23.6637 27.3363 25.0272 27.7296 26.7732L28.2683 29.1648C28.3454 29.507 28.6493 29.75 29 29.75C29.3507 29.75 29.6546 29.507 29.7317 29.1648L30.2704 26.7732C30.6637 25.0272 32.0272 23.6637 33.7732 23.2704L36.1648 22.7317C36.507 22.6546 36.75 22.3507 36.75 22C36.75 21.6493 36.507 21.3454 36.1648 21.2683L33.7732 20.7296C32.0272 20.3363 30.6637 18.9728 30.2704 17.2268L29.7317 14.8352ZM25.2309 22C26.9949 21.3844 28.3844 19.9949 29 18.2309C29.6156 19.9949 31.0051 21.3844 32.7691 22C31.0051 22.6156 29.6156 24.0051 29 25.7691C28.3844 24.0051 26.9949 22.6156 25.2309 22ZM21.7317 24.8352C21.6546 24.493 21.3507 24.25 21 24.25C20.6493 24.25 20.3454 24.493 20.2683 24.8352L19.8835 26.5435C19.6208 27.7099 18.7099 28.6208 17.5435 28.8835L15.8352 29.2683C15.493 29.3454 15.25 29.6493 15.25 30C15.25 30.3507 15.493 30.6546 15.8352 30.7317L17.5435 31.1165C18.7099 31.3792 19.6208 32.2901 19.8835 33.4565L20.2683 35.1648C20.3454 35.507 20.6493 35.75 21 35.75C21.3507 35.75 21.6546 35.507 21.7317 35.1648L22.1165 33.4565C22.3792 32.2901 23.2901 31.3792 24.4565 31.1165L26.1648 30.7317C26.507 30.6546 26.75 30.3507 26.75 30C26.75 29.6493 26.507 29.3454 26.1648 29.2683L24.4565 28.8835C23.2901 28.6208 22.3792 27.7099 22.1165 26.5435L21.7317 24.8352ZM18.866 30C19.7966 29.5495 20.5495 28.7966 21 27.866C21.4505 28.7966 22.2034 29.5495 23.134 30C22.2034 30.4505 21.4505 31.2034 21 32.134C20.5495 31.2034 19.7966 30.4505 18.866 30Z" fill="#101828"/>
</g>
<defs>
<filter id="filter0_d_223_8855" x="0" y="0" width="52" height="52" filterUnits="userSpaceOnUse" color-interpolation-filters="sRGB">
<feFlood flood-opacity="0" result="BackgroundImageFix"/>
<feColorMatrix in="SourceAlpha" type="matrix" values="0 0 0 0 0 0 0 0 0 0 0 0 0 0 0 0 0 0 127 0" result="hardAlpha"/>
<feOffset dy="1"/>
<feGaussianBlur stdDeviation="1"/>
<feColorMatrix type="matrix" values="0 0 0 0 0.0627451 0 0 0 0 0.0941176 0 0 0 0 0.156863 0 0 0 0.05 0"/>
<feBlend mode="normal" in2="BackgroundImageFix" result="effect1_dropShadow_223_8855"/>
<feBlend mode="normal" in="SourceGraphic" in2="effect1_dropShadow_223_8855" result="shape"/>
</filter>
</defs>
</svg>
