<svg width="53" height="52" viewBox="0 0 53 52" fill="none" xmlns="http://www.w3.org/2000/svg">
<g filter="url(#filter0_d_223_9079)">
<rect x="2.66406" y="1" width="48" height="48" rx="8" fill="white"/>
<rect x="3.16406" y="1.5" width="47" height="47" rx="7.5" stroke="#D0D5DD"/>
<path d="M35.6641 28C35.6641 28.5304 35.4533 29.0391 35.0783 29.4142C34.7032 29.7893 34.1945 30 33.6641 30H21.6641L17.6641 34V18C17.6641 17.4696 17.8748 16.9609 18.2498 16.5858C18.6249 16.2107 19.1336 16 19.6641 16H33.6641C34.1945 16 34.7032 16.2107 35.0783 16.5858C35.4533 16.9609 35.6641 17.4696 35.6641 18V28Z" stroke="#101828" stroke-width="2" stroke-linecap="round" stroke-linejoin="round"/>
<path d="M22.6641 23H22.6741" stroke="#101828" stroke-width="2" stroke-linecap="round" stroke-linejoin="round"/>
<path d="M26.6641 23H26.6741" stroke="#101828" stroke-width="2" stroke-linecap="round" stroke-linejoin="round"/>
<path d="M30.6641 23H30.6741" stroke="#101828" stroke-width="2" stroke-linecap="round" stroke-linejoin="round"/>
</g>
<defs>
<filter id="filter0_d_223_9079" x="0.664062" y="0" width="52" height="52" filterUnits="userSpaceOnUse" color-interpolation-filters="sRGB">
<feFlood flood-opacity="0" result="BackgroundImageFix"/>
<feColorMatrix in="SourceAlpha" type="matrix" values="0 0 0 0 0 0 0 0 0 0 0 0 0 0 0 0 0 0 127 0" result="hardAlpha"/>
<feOffset dy="1"/>
<feGaussianBlur stdDeviation="1"/>
<feColorMatrix type="matrix" values="0 0 0 0 0.0627451 0 0 0 0 0.0941176 0 0 0 0 0.156863 0 0 0 0.05 0"/>
<feBlend mode="normal" in2="BackgroundImageFix" result="effect1_dropShadow_223_9079"/>
<feBlend mode="normal" in="SourceGraphic" in2="effect1_dropShadow_223_9079" result="shape"/>
</filter>
</defs>
</svg>
