<svg width="120" height="19" viewBox="0 0 120 19" fill="none" xmlns="http://www.w3.org/2000/svg">
<g clip-path="url(#clip0_223_8730)">
<path d="M17.4095 13.6248V10.3829L17.0622 10.1638L8.72648 14.7638L0.824891 10.3829V8.49905L8.72648 12.8362L17.453 8.06095V4.86286L17.1056 4.64381L8.72648 9.28762L1.1288 5.0819L8.72648 0.87619L14.848 4.24952L15.3256 3.98667V3.63619L8.72648 0L0 4.77524V5.25714L8.72648 10.0762L16.6281 5.69524V7.62286L8.72648 12.0038L0.347323 7.36L0 7.57905V10.821L8.72648 15.5962L16.6281 11.259V13.1429L8.72648 17.5238L0.347323 12.9238L0 13.1429V13.6248L8.72648 18.4L17.4095 13.6248Z" fill="#667085"/>
<path fill-rule="evenodd" clip-rule="evenodd" d="M33.998 0.964844V15.7287H31.6536V14.6334C31.6536 14.5458 31.6102 14.4582 31.5234 14.4582C31.4365 14.4144 31.3497 14.4582 31.3063 14.502C30.4814 15.422 29.2658 15.9915 27.9199 15.9915C26.5306 15.9915 25.2281 15.422 24.273 14.4582C23.3179 13.4506 22.7969 12.0925 22.7969 10.6029C22.7969 7.58008 25.0545 5.21437 27.9199 5.21437C29.2658 5.21437 30.5248 5.74008 31.3063 6.61627C31.3497 6.66008 31.4365 6.70389 31.5234 6.66008C31.6102 6.61627 31.6536 6.57246 31.6536 6.48484V0.964844H33.998ZM25.1413 10.6029C25.1413 12.4867 26.574 13.9325 28.4409 13.9325C30.3077 13.9325 31.7404 12.4867 31.7404 10.6029C31.7404 8.71913 30.3077 7.27342 28.4409 7.27342C26.6174 7.27342 25.1413 8.71913 25.1413 10.6029Z" fill="#667085"/>
<path fill-rule="evenodd" clip-rule="evenodd" d="M46.4077 5.43389V15.7291H44.1067V14.6339C44.1067 14.5463 44.0633 14.4587 43.9765 14.4587C43.8897 14.4148 43.8028 14.4587 43.7594 14.5025C42.9345 15.4663 41.7189 15.992 40.373 15.992C37.5076 15.992 35.25 13.6263 35.25 10.6034C35.25 7.58056 37.5076 5.21484 40.373 5.21484C41.7623 5.21484 42.9779 5.69675 43.7594 6.61675C43.8028 6.66056 43.8897 6.70437 43.9765 6.66056C44.0633 6.61675 44.1067 6.57294 44.1067 6.48532V5.43389H46.4077ZM37.5944 10.6034C37.5944 12.4872 39.0271 13.9329 40.894 13.9329C42.7609 13.9329 44.1936 12.4872 44.1936 10.6034C44.1936 8.71961 42.7609 7.27389 40.894 7.27389C39.0705 7.27389 37.5944 8.71961 37.5944 10.6034Z" fill="#667085"/>
<path fill-rule="evenodd" clip-rule="evenodd" d="M66.1656 5.43389V15.7291H63.8645V14.6339C63.8645 14.5463 63.8211 14.4587 63.7343 14.4587C63.6475 14.4148 63.5606 14.4587 63.5172 14.5025C62.6923 15.4663 61.4767 15.992 60.1308 15.992C57.2654 15.992 55.0078 13.6263 55.0078 10.6034C55.0078 7.58056 57.2654 5.21484 60.1308 5.21484C61.5201 5.21484 62.7357 5.69675 63.5172 6.61675C63.5606 6.66056 63.6475 6.70437 63.7343 6.66056C63.8211 6.61675 63.8645 6.57294 63.8645 6.48532V5.43389H66.1656ZM57.3522 10.6034C57.3522 12.4872 58.7849 13.9329 60.6518 13.9329C62.5187 13.9329 63.9514 12.4872 63.9514 10.6034C63.9514 8.71961 62.5187 7.27389 60.6518 7.27389C58.7849 7.27389 57.3522 8.71961 57.3522 10.6034Z" fill="#667085"/>
<path fill-rule="evenodd" clip-rule="evenodd" d="M70.5068 14.502C70.4634 14.502 70.4634 14.502 70.42 14.502C70.3332 14.5458 70.2897 14.5896 70.2897 14.6772V15.7287H67.9453V0.964844H70.2897V6.52865C70.2897 6.61627 70.3332 6.70389 70.42 6.70389C70.5068 6.7477 70.5936 6.70389 70.6371 6.66008C71.462 5.74008 72.6776 5.17056 74.0235 5.17056C75.4128 5.17056 76.7152 5.74008 77.6703 6.70389C78.6255 7.71151 79.1465 9.0696 79.1465 10.5591C79.1465 13.582 76.8889 15.9477 74.0235 15.9477C72.6776 15.9477 71.4185 15.422 70.6371 14.5458C70.5936 14.5458 70.5502 14.502 70.5068 14.502ZM73.5025 7.27342C71.6356 7.27342 70.2029 8.71913 70.2029 10.6029C70.2029 12.4867 71.6356 13.9325 73.5025 13.9325C75.3693 13.9325 76.802 12.4867 76.802 10.6029C76.802 8.71913 75.3259 7.27342 73.5025 7.27342Z" fill="#667085"/>
<path d="M85.8757 7.53675C86.0928 7.53675 86.3098 7.53675 86.4401 7.58056V5.25865C86.3533 5.25865 86.223 5.21484 86.0494 5.21484C84.8337 5.21484 83.7049 5.82818 83.1405 6.79199C83.0971 6.87961 83.0103 6.92342 82.9234 6.87961C82.8366 6.8358 82.7932 6.79199 82.7932 6.70437V5.43389H80.4922V15.7291H82.8366V11.2167C82.7498 8.93865 83.9654 7.53675 85.8757 7.53675Z" fill="#667085"/>
<path d="M90.2194 5.43359H87.875V15.7288H90.2194V5.43359Z" fill="#667085"/>
<path d="M89.0421 0.964844C88.2606 0.964844 87.6094 1.57818 87.6094 2.36675C87.6094 3.15532 88.2606 3.76865 89.0421 3.76865C89.8236 3.76865 90.4748 3.15532 90.4748 2.36675C90.4748 1.62199 89.8236 0.964844 89.0421 0.964844Z" fill="#667085"/>
<path d="M97.1665 5.21484C93.9538 5.21484 91.6094 7.49294 91.6094 10.6034C91.6094 12.1367 92.1738 13.4948 93.1723 14.4587C94.1709 15.4225 95.6036 15.992 97.1665 15.992C98.469 15.992 99.511 15.7291 101.421 14.371L100.119 13.0129C99.1636 13.6263 98.2953 13.9329 97.427 13.9329C95.4733 13.9329 93.9972 12.4872 93.9972 10.6034C93.9972 8.71961 95.4733 7.27389 97.427 7.27389C98.3388 7.27389 99.2071 7.58056 100.075 8.19389L101.551 6.8358C99.7715 5.34627 98.2085 5.21484 97.1665 5.21484Z" fill="#667085"/>
<path d="M105.459 11.2163C105.503 11.1725 105.546 11.1725 105.589 11.1725C105.633 11.1725 105.676 11.2163 105.72 11.2601L109.453 15.7725H112.319L107.5 10.0772C107.413 9.9896 107.456 9.90199 107.5 9.81437L111.928 5.47722H109.106L105.285 9.20103C105.242 9.24484 105.155 9.28865 105.068 9.24484C104.982 9.20103 104.938 9.15722 104.938 9.0696V0.964844H102.594V15.7287H104.938V11.742C104.938 11.6982 104.982 11.6544 104.982 11.6106L105.459 11.2163Z" fill="#667085"/>
<path d="M116.178 15.992C118.089 15.992 120.042 14.8529 120.042 12.7063C120.042 11.3044 119.131 10.3406 117.264 9.72722L116.005 9.33294C115.136 9.07008 114.746 8.6758 114.746 8.10627C114.746 7.49294 115.31 7.05484 116.135 7.05484C116.916 7.05484 117.611 7.53675 118.045 8.41294L119.912 7.44913C119.217 6.04722 117.785 5.21484 116.135 5.21484C114.051 5.21484 112.531 6.52913 112.531 8.32532C112.531 9.77103 113.4 10.7348 115.18 11.2606L116.482 11.6548C117.394 11.9177 117.785 12.2682 117.785 12.8815C117.785 13.7577 116.96 14.0644 116.265 14.0644C115.31 14.0644 114.485 13.451 114.051 12.4872L112.141 13.451C112.748 15.0282 114.311 15.992 116.178 15.992Z" fill="#667085"/>
<path d="M52.8774 15.9021C53.6154 15.9021 54.2667 15.8583 54.6574 15.7707V13.7992C54.3535 13.8431 53.8325 13.8869 53.4852 13.8869C52.53 13.8869 51.8354 13.7116 51.8354 11.7402V7.53449C51.8354 7.44687 51.9222 7.35925 52.0525 7.35925H54.3101V5.51925H52.0525C51.9222 5.51925 51.8354 5.43163 51.8354 5.34401V2.27734H49.5344V5.25639C49.5344 5.34401 49.4475 5.43163 49.3173 5.43163H47.7109V7.27163H49.3173C49.4475 7.27163 49.5344 7.35925 49.5344 7.44687V12.2221C49.491 15.9021 51.9656 15.9021 52.8774 15.9021Z" fill="#667085"/>
</g>
<defs>
<clipPath id="clip0_223_8730">
<rect width="120" height="18.4" fill="white"/>
</clipPath>
</defs>
</svg>
