<svg width="170" height="44" viewBox="0 0 170 44" fill="none" xmlns="http://www.w3.org/2000/svg">
<rect width="170" height="44" rx="8" fill="#000000" />
<path fill-rule="evenodd" clip-rule="evenodd" d="M4 22C17.9836 22 26 13.9836 26 0C26 13.9836 34.0164 22 48 22C34.0164 22 26 30.0164 26 44C26 30.0164 17.9836 22 4 22Z" fill="#FF005D"/>
<path d="M67.232 12.456V15.62H62.024V32H58.104V15.62H52.896V12.456H67.232ZM83.3362 16.488V32H79.3882V30.04C78.8842 30.712 78.2215 31.244 77.4002 31.636C76.5975 32.0093 75.7202 32.196 74.7682 32.196C73.5548 32.196 72.4815 31.944 71.5482 31.44C70.6148 30.9173 69.8775 30.1613 69.3362 29.172C68.8135 28.164 68.5522 26.9693 68.5522 25.588V16.488H72.4722V25.028C72.4722 26.26 72.7802 27.212 73.3962 27.884C74.0122 28.5373 74.8522 28.864 75.9162 28.864C76.9988 28.864 77.8482 28.5373 78.4642 27.884C79.0802 27.212 79.3882 26.26 79.3882 25.028V16.488H83.3362ZM100.224 23.908C100.224 24.468 100.187 24.972 100.112 25.42H88.7719C88.8652 26.54 89.2572 27.4173 89.9479 28.052C90.6385 28.6867 91.4879 29.004 92.4959 29.004C93.9519 29.004 94.9879 28.3787 95.6039 27.128H99.8319C99.3839 28.6213 98.5252 29.8533 97.2559 30.824C95.9865 31.776 94.4279 32.252 92.5799 32.252C91.0865 32.252 89.7425 31.9253 88.5479 31.272C87.3719 30.6 86.4479 29.6573 85.7759 28.444C85.1225 27.2307 84.7959 25.8307 84.7959 24.244C84.7959 22.6387 85.1225 21.2293 85.7759 20.016C86.4292 18.8027 87.3439 17.8693 88.5199 17.216C89.6959 16.5627 91.0492 16.236 92.5799 16.236C94.0545 16.236 95.3705 16.5533 96.5279 17.188C97.7039 17.8227 98.6092 18.728 99.2439 19.904C99.8972 21.0613 100.224 22.396 100.224 23.908ZM96.1639 22.788C96.1452 21.78 95.7812 20.9773 95.0719 20.38C94.3625 19.764 93.4945 19.456 92.4679 19.456C91.4972 19.456 90.6759 19.7547 90.0039 20.352C89.3505 20.9307 88.9492 21.7427 88.7999 22.788H96.1639ZM107.621 32.252C106.352 32.252 105.213 32.028 104.205 31.58C103.197 31.1133 102.394 30.488 101.797 29.704C101.218 28.92 100.901 28.052 100.845 27.1H104.793C104.868 27.6973 105.157 28.192 105.661 28.584C106.184 28.976 106.828 29.172 107.593 29.172C108.34 29.172 108.918 29.0227 109.329 28.724C109.758 28.4253 109.973 28.0427 109.973 27.576C109.973 27.072 109.712 26.6987 109.189 26.456C108.685 26.1947 107.873 25.9147 106.753 25.616C105.596 25.336 104.644 25.0467 103.897 24.748C103.169 24.4493 102.534 23.992 101.993 23.376C101.47 22.76 101.209 21.9293 101.209 20.884C101.209 20.0253 101.452 19.2413 101.937 18.532C102.441 17.8227 103.15 17.2627 104.065 16.852C104.998 16.4413 106.09 16.236 107.341 16.236C109.189 16.236 110.664 16.7027 111.765 17.636C112.866 18.5507 113.473 19.792 113.585 21.36H109.833C109.777 20.744 109.516 20.2587 109.049 19.904C108.601 19.5307 107.994 19.344 107.229 19.344C106.52 19.344 105.969 19.4747 105.577 19.736C105.204 19.9973 105.017 20.3613 105.017 20.828C105.017 21.3507 105.278 21.752 105.801 22.032C106.324 22.2933 107.136 22.564 108.237 22.844C109.357 23.124 110.281 23.4133 111.009 23.712C111.737 24.0107 112.362 24.4773 112.885 25.112C113.426 25.728 113.706 26.5493 113.725 27.576C113.725 28.472 113.473 29.2747 112.969 29.984C112.484 30.6933 111.774 31.2533 110.841 31.664C109.926 32.056 108.853 32.252 107.621 32.252ZM114.535 24.188C114.535 22.62 114.843 21.2293 115.459 20.016C116.094 18.8027 116.952 17.8693 118.035 17.216C119.118 16.5627 120.322 16.236 121.647 16.236C122.655 16.236 123.616 16.46 124.531 16.908C125.446 17.3373 126.174 17.916 126.715 18.644V11.28H130.691V32H126.715V29.704C126.23 30.4693 125.548 31.0853 124.671 31.552C123.794 32.0187 122.776 32.252 121.619 32.252C120.312 32.252 119.118 31.916 118.035 31.244C116.952 30.572 116.094 29.6293 115.459 28.416C114.843 27.184 114.535 25.7747 114.535 24.188ZM126.743 24.244C126.743 23.292 126.556 22.48 126.183 21.808C125.81 21.1173 125.306 20.5947 124.671 20.24C124.036 19.8667 123.355 19.68 122.627 19.68C121.899 19.68 121.227 19.8573 120.611 20.212C119.995 20.5667 119.491 21.0893 119.099 21.78C118.726 22.452 118.539 23.2547 118.539 24.188C118.539 25.1213 118.726 25.9427 119.099 26.652C119.491 27.3427 119.995 27.8747 120.611 28.248C121.246 28.6213 121.918 28.808 122.627 28.808C123.355 28.808 124.036 28.6307 124.671 28.276C125.306 27.9027 125.81 27.38 126.183 26.708C126.556 26.0173 126.743 25.196 126.743 24.244ZM132.111 24.188C132.111 22.62 132.419 21.2293 133.035 20.016C133.67 18.8027 134.52 17.8693 135.584 17.216C136.666 16.5627 137.87 16.236 139.196 16.236C140.353 16.236 141.361 16.4693 142.22 16.936C143.097 17.4027 143.797 17.9907 144.32 18.7V16.488H148.268V32H144.32V29.732C143.816 30.46 143.116 31.0667 142.22 31.552C141.342 32.0187 140.325 32.252 139.168 32.252C137.861 32.252 136.666 31.916 135.584 31.244C134.52 30.572 133.67 29.6293 133.035 28.416C132.419 27.184 132.111 25.7747 132.111 24.188ZM144.32 24.244C144.32 23.292 144.133 22.48 143.76 21.808C143.386 21.1173 142.882 20.5947 142.248 20.24C141.613 19.8667 140.932 19.68 140.204 19.68C139.476 19.68 138.804 19.8573 138.188 20.212C137.572 20.5667 137.068 21.0893 136.676 21.78C136.302 22.452 136.116 23.2547 136.116 24.188C136.116 25.1213 136.302 25.9427 136.676 26.652C137.068 27.3427 137.572 27.8747 138.188 28.248C138.822 28.6213 139.494 28.808 140.204 28.808C140.932 28.808 141.613 28.6307 142.248 28.276C142.882 27.9027 143.386 27.38 143.76 26.708C144.133 26.0173 144.32 25.196 144.32 24.244ZM165.536 16.488L155.932 39.336H151.76L155.12 31.608L148.904 16.488H153.3L157.304 27.324L161.364 16.488H165.536Z" fill="white"/>
</svg>
