<svg width="118" height="73" viewBox="0 0 118 73" fill="none" xmlns="http://www.w3.org/2000/svg">
<path d="M6.83812 27.0361C6.80189 27.1039 6.72216 27.1675 6.59896 27.227C6.48536 27.2725 6.3549 27.2601 6.20759 27.1898C6.10006 27.1366 5.97483 27.0866 5.8319 27.0399C5.68678 26.9814 5.53096 26.931 5.36443 26.8887C5.19791 26.8464 5.03357 26.8159 4.87143 26.7972C4.70929 26.7785 4.55743 26.7823 4.41585 26.8086C4.23888 26.8415 4.05777 26.9178 3.87254 27.0377C3.69911 27.1553 3.55585 27.304 3.44276 27.4837C3.22618 27.829 3.17958 28.1367 3.30296 28.4067C3.43595 28.6627 3.68953 28.878 4.06371 29.0526C4.30456 29.1666 4.56421 29.2831 4.84265 29.4023C5.1189 29.5096 5.38925 29.6181 5.6537 29.7277C5.92995 29.835 6.18741 29.9398 6.42607 30.0419C6.67653 30.1418 6.89421 30.2296 7.07911 30.3051C7.31777 30.4072 7.54683 30.5233 7.76628 30.6534C7.98573 30.7836 8.18596 30.9417 8.36698 31.1277C8.54581 31.302 8.70063 31.5113 8.83142 31.7555C8.96222 31.9997 9.05829 32.287 9.11965 32.6173C9.15758 33.2816 8.99444 33.8489 8.63022 34.3193C8.2756 34.7758 7.825 35.1096 7.2784 35.321C6.80041 35.5074 6.30749 35.5807 5.79966 35.5407C5.30363 35.4986 4.85647 35.3253 4.45819 35.021C4.35807 34.9419 4.26318 34.8253 4.17351 34.6711C4.08384 34.5168 4.05603 34.4 4.09007 34.3204C4.14114 34.2011 4.25188 34.1073 4.42228 34.039C4.59048 33.9589 4.72726 33.9396 4.8326 33.9811C5.14998 34.1785 5.5025 34.3022 5.89015 34.3522C6.27562 34.3905 6.66016 34.3252 7.04377 34.1563C7.33737 34.0285 7.56103 33.8527 7.71474 33.6289C7.86626 33.3933 7.94261 33.1472 7.94379 32.8906C7.95457 32.6201 7.86987 32.3612 7.68969 32.114C7.51912 31.8527 7.25374 31.6396 6.89355 31.4746C6.3419 31.1987 5.75923 30.953 5.14555 30.7374C4.54366 30.5197 3.92122 30.2569 3.27821 29.9492C2.96302 29.7636 2.71424 29.5413 2.53187 29.2822C2.3613 29.021 2.25081 28.7547 2.20041 28.4833C2.14782 28.2002 2.15751 27.9237 2.22948 27.6541C2.29925 27.3726 2.4217 27.1119 2.59681 26.8718C2.76974 26.62 2.98573 26.4029 3.24478 26.2206C3.50383 26.0382 3.80224 25.9034 4.14001 25.8163C4.60756 25.705 5.08041 25.721 5.55858 25.8641C6.03456 25.9953 6.43781 26.1951 6.76834 26.4632C6.84047 26.5231 6.88051 26.6072 6.88843 26.7155C6.90815 26.8217 6.89138 26.9286 6.83812 27.0361ZM14.1805 29.1692C13.7708 29.526 13.3147 29.8304 12.8123 30.0824C12.3077 30.3226 11.7486 30.4997 11.1351 30.6136C11.2354 31.0222 11.4147 31.3306 11.6731 31.5389C11.9293 31.7354 12.2211 31.8277 12.5484 31.8157C12.7415 31.8043 12.9292 31.7633 13.1114 31.6929C13.3054 31.6202 13.4784 31.5332 13.6304 31.4317C13.7921 31.3162 13.9349 31.1982 14.059 31.0775C14.183 30.9568 14.2894 30.8394 14.378 30.7253C14.4667 30.6112 14.5678 30.5314 14.6814 30.4859C14.7928 30.4286 14.8802 30.4062 14.9436 30.4189C15.1197 30.4472 15.2116 30.6132 15.2192 30.9169C15.1005 31.3295 14.8894 31.7044 14.5859 32.0415C14.2801 32.3668 13.9156 32.6054 13.4922 32.7572C13.1278 32.8981 12.7351 32.9528 12.3143 32.9211C11.8934 32.8894 11.4952 32.7498 11.1197 32.5022C10.7979 32.2812 10.5323 32.001 10.3228 31.6616C10.1133 31.3221 9.95469 30.961 9.84698 30.5782C9.74366 30.2191 9.70851 29.8655 9.74154 29.5177C9.78637 29.1676 9.89196 28.8489 10.0583 28.5617C10.2225 28.2627 10.4485 28.0011 10.7364 27.7767C11.0242 27.5524 11.3783 27.389 11.7987 27.2865C12.2995 27.1569 12.7771 27.1658 13.2317 27.3133C13.6863 27.4607 14.0334 27.7197 14.2731 28.0902C14.4091 28.2968 14.4688 28.4871 14.4523 28.661C14.4476 28.8328 14.357 29.0022 14.1805 29.1692ZM11.9218 28.3438C11.8082 28.3893 11.6861 28.4547 11.5555 28.54C11.4367 28.6231 11.327 28.7228 11.2266 28.8391C11.1357 28.9414 11.0541 29.0603 10.9816 29.1958C10.9187 29.3173 10.8946 29.45 10.9091 29.5937C11.1096 29.5565 11.3246 29.4982 11.554 29.419C11.7952 29.3376 12.0235 29.2525 12.2389 29.1637C12.4639 29.0609 12.6642 28.9565 12.8398 28.8507C13.0273 28.7426 13.1782 28.6353 13.2926 28.5286C13.1566 28.3219 12.9544 28.2191 12.6861 28.2201C12.4274 28.2072 12.1726 28.2484 11.9218 28.3438ZM20.385 28.0169C19.9753 28.3737 19.5192 28.6781 19.0167 28.9301C18.5121 29.1702 17.953 29.3473 17.3395 29.4613C17.4398 29.8698 17.6192 30.1783 17.8776 30.3866C18.1337 30.5831 18.4255 30.6754 18.7528 30.6634C18.946 30.6519 19.1337 30.611 19.3158 30.5405C19.5098 30.4679 19.6829 30.3808 19.8349 30.2794C19.9965 30.1639 20.1394 30.0458 20.2634 29.9251C20.3875 29.8045 20.4938 29.6871 20.5825 29.573C20.6711 29.4589 20.7722 29.379 20.8858 29.3335C20.9973 29.2762 21.0846 29.2539 21.148 29.2665C21.3241 29.2948 21.416 29.4609 21.4236 29.7646C21.3049 30.1772 21.0938 30.552 20.7903 30.8891C20.4846 31.2144 20.12 31.453 19.6966 31.6049C19.3322 31.7458 18.9396 31.8004 18.5187 31.7687C18.0979 31.7371 17.6997 31.5974 17.3241 31.3498C17.0024 31.1289 16.7368 30.8487 16.5272 30.5092C16.3177 30.1698 16.1591 29.8087 16.0514 29.4259C15.9481 29.0667 15.9129 28.7132 15.946 28.3653C15.9908 28.0152 16.0964 27.6966 16.2627 27.4094C16.4269 27.1104 16.6529 26.8487 16.9408 26.6244C17.2287 26.4 17.5828 26.2366 18.0031 26.1341C18.5039 26.0045 18.9816 26.0134 19.4361 26.1609C19.8907 26.3084 20.2378 26.5674 20.4775 26.9378C20.6135 27.1445 20.6733 27.3347 20.6568 27.5087C20.652 27.6804 20.5615 27.8498 20.385 28.0169ZM18.1263 27.1914C18.0127 27.2369 17.8906 27.3023 17.7599 27.3876C17.6411 27.4707 17.5315 27.5704 17.431 27.6867C17.3402 27.789 17.2585 27.9079 17.1861 28.0434C17.1232 28.165 17.099 28.2976 17.1135 28.4414C17.3141 28.4041 17.5291 28.3459 17.7584 28.2667C17.9996 28.1853 18.2279 28.1002 18.4433 28.0113C18.6683 27.9085 18.8687 27.8042 19.0443 27.6983C19.2317 27.5903 19.3826 27.4829 19.4971 27.3762C19.3611 27.1696 19.1589 27.0668 18.8906 27.0678C18.6318 27.0548 18.3771 27.096 18.1263 27.1914ZM32.8543 22.7168C33.197 23.6417 33.4983 24.5744 33.7584 25.5147C34.0163 26.4432 34.2565 27.375 34.479 28.3101C34.5105 28.4141 34.5162 28.5107 34.4962 28.5999C34.4739 28.6772 34.4388 28.7509 34.3908 28.8208C34.3545 28.8886 34.3102 28.9456 34.2578 28.992C34.2172 29.0362 34.1792 29.0615 34.1438 29.0681C34.014 29.0922 33.8732 29.0573 33.7215 28.9634C33.5795 28.8556 33.478 28.7035 33.4171 28.5073C33.2985 28.0656 33.1798 27.6238 33.0612 27.1821C32.9425 26.7403 32.8179 26.2996 32.6875 25.8601C31.5122 26.4323 30.2585 26.9764 28.9263 27.4923C29.0217 27.7431 29.1171 27.9939 29.2125 28.2447C29.3079 28.4955 29.4092 28.7452 29.5164 28.9938C29.537 29.0388 29.5571 29.1144 29.5768 29.2206C29.6083 29.3246 29.6233 29.4378 29.6216 29.5601C29.6317 29.6803 29.6171 29.799 29.5778 29.9161C29.5482 30.0193 29.4846 30.1043 29.3872 30.1712C29.295 30.2005 29.1893 30.1897 29.0699 30.1386C28.9506 30.0875 28.8667 30.0299 28.8181 29.9657C28.6086 29.6262 28.3919 29.2149 28.1678 28.7317C27.9556 28.2463 27.7508 27.7351 27.5535 27.1981C27.3657 26.6471 27.2004 26.0858 27.0577 25.5143C26.9149 24.9428 26.806 24.3893 26.731 23.854C26.7217 23.6727 26.7636 23.5368 26.8566 23.4462C26.9593 23.3417 27.0578 23.2807 27.1522 23.2632C27.2584 23.2435 27.3534 23.2624 27.4374 23.3201C27.5331 23.3755 27.6144 23.452 27.6813 23.5494C27.7483 23.6468 27.8034 23.7464 27.8467 23.8482C27.89 23.95 27.9182 24.0363 27.9314 24.1071C28.0133 24.4824 28.1 24.8508 28.1916 25.2122C28.2831 25.5735 28.3923 25.9316 28.5192 26.2864C29.1056 26.0921 29.7396 25.8584 30.4212 25.5853C31.1006 25.3004 31.7354 25.0056 32.3257 24.7007C32.2517 24.4337 32.1718 24.1678 32.086 23.903C31.998 23.6264 31.9111 23.3557 31.8253 23.091C31.7881 22.8904 31.8142 22.7025 31.9037 22.5272C32.005 22.3497 32.1205 22.2489 32.2503 22.2248C32.3447 22.2073 32.4478 22.2369 32.5597 22.3138C32.6835 22.3884 32.7816 22.5228 32.8543 22.7168ZM38.9643 22.479C39.3423 22.5431 39.6734 22.683 39.9576 22.8987C40.2536 23.1123 40.4971 23.3722 40.6883 23.6784C40.8772 23.9728 41.0094 24.2901 41.0847 24.63C41.1719 24.9678 41.1956 25.2929 41.156 25.6054C41.0876 25.9598 40.9827 26.315 40.8413 26.6708C40.6999 27.0266 40.5224 27.3525 40.3089 27.6484C40.0953 27.9444 39.8376 28.1998 39.5357 28.4145C39.2339 28.6292 38.8824 28.7738 38.4812 28.8483C37.9975 28.9382 37.5696 28.9017 37.1977 28.7389C36.8257 28.5761 36.5124 28.3352 36.2579 28.0163C36.0034 27.6975 35.805 27.3193 35.6628 26.882C35.5323 26.4424 35.4608 25.9919 35.4484 25.5304C35.4342 25.1913 35.4517 24.8585 35.5009 24.532C35.5597 24.1915 35.6557 23.8869 35.7889 23.618C35.9198 23.3374 36.0832 23.0996 36.2788 22.9046C36.4863 22.7074 36.7375 22.5814 37.0325 22.5266C37.1977 22.4959 37.4107 22.493 37.6716 22.5177C37.9303 22.5307 38.1768 22.5765 38.4111 22.655C38.5382 22.485 38.7226 22.4263 38.9643 22.479ZM38.5317 23.8959C38.3866 23.8374 38.2135 23.7597 38.0124 23.6628C37.821 23.5519 37.6603 23.5085 37.5306 23.5326C37.389 23.5589 37.2594 23.65 37.142 23.8061C37.0363 23.96 36.9468 24.1353 36.8735 24.332C36.8098 24.5147 36.759 24.7011 36.721 24.8912C36.6831 25.0814 36.6622 25.2317 36.6583 25.3423C36.6558 25.5258 36.6717 25.7426 36.7059 25.9925C36.7401 26.2425 36.8038 26.4869 36.897 26.7259C36.988 26.9531 37.1171 27.155 37.2841 27.3314C37.4607 27.4939 37.6924 27.5913 37.9791 27.6234C38.1531 27.64 38.3477 27.6038 38.5631 27.515C38.7763 27.4143 38.976 27.2735 39.1621 27.0925C39.3599 26.9093 39.5313 26.6822 39.6763 26.4111C39.833 26.1379 39.936 25.8381 39.9852 25.5116C40.0396 25.1475 39.9739 24.7936 39.788 24.4498C39.6117 24.0919 39.3371 23.8622 38.9643 23.7606C38.8927 23.8349 38.8156 23.8798 38.733 23.8951C38.6504 23.9104 38.5833 23.9107 38.5317 23.8959ZM49.4207 26.5053C49.3504 26.6527 49.2606 26.7609 49.1514 26.83C49.04 26.8873 48.9371 26.9247 48.8427 26.9422C48.6754 26.9611 48.5121 26.9365 48.353 26.8684C48.1917 26.7885 48.0835 26.6988 48.0284 26.5992C47.9203 26.4117 47.802 26.2018 47.6734 25.9694C47.5448 25.737 47.4162 25.5045 47.2876 25.2721C47.1686 25.0257 47.0459 24.7922 46.9195 24.5716C46.7909 24.3391 46.6726 24.1292 46.5645 23.9418C46.4052 24.3986 46.2589 24.859 46.1254 25.3232C45.9897 25.7756 45.8337 26.25 45.6574 26.7466C45.5723 26.9455 45.4597 27.0946 45.3194 27.1938C45.177 27.2813 45.0516 27.329 44.9432 27.3369C44.7877 27.3536 44.6351 27.3209 44.4856 27.2388C44.3479 27.1546 44.2349 27.0718 44.1466 26.9906C43.9774 26.8023 43.7972 26.5551 43.6061 26.2488C43.4127 25.9308 43.2231 25.5998 43.0372 25.256C42.8609 24.8982 42.6916 24.5452 42.5293 24.1969C42.3648 23.8369 42.2256 23.5149 42.1118 23.2309C42.0392 23.0369 42.0041 22.8482 42.0067 22.6646C42.021 22.4789 42.1085 22.3589 42.2693 22.3046C42.4677 22.2555 42.6637 22.2924 42.8574 22.4151C43.0489 22.526 43.1695 22.65 43.2194 22.7872C43.3105 23.0144 43.4118 23.2641 43.5233 23.5363C43.6445 23.7945 43.7668 24.0586 43.8902 24.3286C44.0254 24.5965 44.1536 24.8595 44.2747 25.1177C44.4077 25.3737 44.5352 25.6002 44.6573 25.7973C44.7817 25.4812 44.9161 25.1206 45.0605 24.7154C45.2145 24.2963 45.3601 23.897 45.4971 23.5176C45.6319 23.1264 45.7578 22.7857 45.8748 22.4954C45.9918 22.2052 46.092 22.0218 46.1754 21.9453C46.2374 21.8849 46.3388 21.8722 46.4795 21.9071C46.6181 21.9302 46.7256 21.9834 46.8021 22.0669C47.1581 22.5378 47.4768 23.0706 47.7581 23.6652C48.049 24.2458 48.3263 24.7863 48.5901 25.2865C48.7159 25.0435 48.8413 24.7333 48.9666 24.3561C49.0896 23.9671 49.2034 23.5615 49.3081 23.1393C49.4128 22.7171 49.5056 22.2971 49.5867 21.8792C49.6678 21.4614 49.727 21.0904 49.7644 20.7661C49.7996 20.43 49.9009 20.2525 50.0683 20.2336C50.285 20.2178 50.4811 20.2546 50.6564 20.3441C50.8316 20.4336 50.9136 20.5465 50.9024 20.6829C50.8356 21.7693 50.6769 22.7874 50.4261 23.7372C50.1731 24.6752 49.838 25.5979 49.4207 26.5053ZM59.9704 23.4109C59.9909 23.4559 60.01 23.5256 60.0275 23.6199C60.0428 23.7025 60.0416 23.7943 60.0237 23.8953C60.0037 23.9844 59.9648 24.071 59.9072 24.1549C59.8591 24.2249 59.7761 24.2708 59.6581 24.2927C59.3679 24.1757 59.1091 23.998 58.8817 23.7595C58.7216 23.4231 58.5575 23.0325 58.3895 22.5877C58.2332 22.1407 58.0855 21.6739 57.9463 21.1871C57.8048 20.6885 57.6741 20.1819 57.5541 19.6671C57.4459 19.1502 57.3528 18.6488 57.2747 18.1629C57.2594 18.0803 57.2456 17.973 57.2333 17.841C57.2327 17.7069 57.2451 17.5764 57.2704 17.4497C57.2935 17.3111 57.3328 17.194 57.3882 17.0982C57.4415 16.9907 57.533 16.9249 57.6628 16.9008C57.8162 16.8723 57.9488 16.8965 58.0607 16.9733C58.1726 17.0502 58.2483 17.1948 58.2878 17.4072C58.3636 17.8813 58.4578 18.3886 58.5704 18.9291C58.6926 19.4557 58.8277 19.9859 58.9757 20.5199C59.1237 21.0538 59.2813 21.5738 59.4485 22.0798C59.6253 22.5718 59.7993 23.0155 59.9704 23.4109ZM65.0667 19.114C65.2887 19.0606 65.5227 19.072 65.7688 19.1484C66.0149 19.2247 66.1609 19.3868 66.2069 19.6345C66.2206 19.8395 66.1326 19.9901 65.943 20.0863C65.763 20.1686 65.614 20.2207 65.496 20.2426C65.2601 20.2864 65.0075 20.3394 64.7383 20.4016C64.4692 20.4638 64.1952 20.533 63.9164 20.6092C63.9651 21.0029 64.0095 21.373 64.0494 21.7196C64.1012 22.0639 64.1463 22.3729 64.1849 22.6464C64.2213 22.9082 64.2549 23.1216 64.2856 23.2868C64.3162 23.452 64.3386 23.5394 64.3526 23.549C64.6034 23.4536 64.8664 23.3254 65.1416 23.1644C65.4264 22.9895 65.7043 22.8097 65.9751 22.6251C66.2556 22.4266 66.5243 22.2302 66.7811 22.0361C67.0476 21.8279 67.2986 21.6348 67.534 21.4568C67.641 21.3759 67.7439 21.3385 67.8427 21.3446C67.9533 21.3485 68.028 21.3895 68.067 21.4677C68.1147 21.5931 68.1265 21.7557 68.1026 21.9554C68.0787 22.1551 68.0043 22.3459 67.8794 22.5278C67.7287 22.7022 67.5234 22.9112 67.2635 23.1548C67.0132 23.3843 66.7383 23.6124 66.4386 23.8389C66.1389 24.0655 65.8301 24.2754 65.512 24.4687C65.2036 24.6481 64.9218 24.7736 64.6666 24.8454C64.2838 24.9531 63.9691 24.9017 63.7225 24.6912C63.476 24.4807 63.3058 24.1889 63.2121 23.8157C63.1184 23.4426 63.0314 23.0071 62.9512 22.5094C62.8827 22.0095 62.8088 21.4801 62.7294 20.9212C62.5096 20.9864 62.2957 21.0506 62.0878 21.1136C61.8894 21.1626 61.698 21.2165 61.5136 21.2752C61.3602 21.3036 61.1826 21.3 60.9807 21.2643C60.7905 21.2264 60.6769 21.1071 60.6396 20.9066C60.6265 20.8358 60.6384 20.7359 60.6755 20.607C60.7126 20.478 60.8259 20.3654 61.0155 20.2692C61.4839 20.0968 62.0076 19.9263 62.5866 19.7577C62.519 19.1966 62.4606 18.6521 62.4113 18.1242C62.3621 17.5964 62.3158 17.1168 62.2723 16.6854C62.2578 16.5417 62.276 16.4101 62.3271 16.2908C62.3782 16.1715 62.445 16.1041 62.5276 16.0888C62.726 16.0397 62.9246 16.0578 63.1235 16.1429C63.332 16.214 63.4494 16.3204 63.4757 16.4619C63.503 16.8718 63.5402 17.3348 63.5872 17.8509C63.646 18.3648 63.707 18.8905 63.7703 19.428C64.0018 19.3606 64.2238 19.3072 64.4362 19.2677C64.6582 19.2143 64.8683 19.163 65.0667 19.114ZM80.3392 20.7629C80.2689 20.9102 80.1791 21.0184 80.0699 21.0875C79.9585 21.1448 79.8556 21.1822 79.7612 21.1998C79.5939 21.2186 79.4306 21.194 79.2715 21.1259C79.1102 21.046 79.002 20.9563 78.9469 20.8567C78.8389 20.6693 78.7205 20.4593 78.5919 20.2269C78.4633 19.9945 78.3347 19.7621 78.2061 19.5296C78.0871 19.2832 77.9644 19.0497 77.838 18.8291C77.7094 18.5967 77.5911 18.3867 77.483 18.1993C77.3238 18.6561 77.1774 19.1166 77.0439 19.5807C76.9082 20.0331 76.7522 20.5076 76.576 21.0041C76.4908 21.203 76.3782 21.3521 76.2379 21.4514C76.0955 21.5388 75.9701 21.5865 75.8617 21.5945C75.7062 21.6111 75.5536 21.5785 75.4041 21.4964C75.2664 21.4121 75.1534 21.3293 75.0651 21.2481C74.8959 21.0598 74.7157 20.8126 74.5246 20.5063C74.3312 20.1883 74.1416 19.8574 73.9557 19.5135C73.7794 19.1557 73.6101 18.8027 73.4478 18.4545C73.2833 18.0945 73.1441 17.7725 73.0304 17.4885C72.9577 17.2945 72.9226 17.1057 72.9252 16.9221C72.9395 16.7364 73.0271 16.6164 73.1878 16.5621C73.3862 16.5131 73.5822 16.5499 73.7759 16.6726C73.9674 16.7835 74.0881 16.9075 74.138 17.0447C74.229 17.2719 74.3303 17.5216 74.4419 17.7938C74.563 18.052 74.6853 18.3162 74.8087 18.5862C74.9439 18.854 75.0721 19.117 75.1933 19.3752C75.3262 19.6312 75.4538 19.8578 75.5758 20.0548C75.7002 19.7388 75.8346 19.3782 75.979 18.973C76.1331 18.5538 76.2786 18.1545 76.4156 17.7751C76.5505 17.3839 76.6764 17.0432 76.7933 16.7529C76.9103 16.4627 77.0105 16.2793 77.0939 16.2028C77.1559 16.1425 77.2573 16.1297 77.3981 16.1646C77.5366 16.1877 77.6441 16.241 77.7207 16.3244C78.0766 16.7953 78.3953 17.3281 78.6766 17.9227C78.9675 18.5034 79.2449 19.0438 79.5086 19.544C79.6344 19.301 79.7599 18.9909 79.8851 18.6137C80.0081 18.2246 80.122 17.819 80.2266 17.3968C80.3313 16.9746 80.4241 16.5546 80.5052 16.1368C80.5863 15.7189 80.6455 15.3479 80.6829 15.0236C80.7181 14.6875 80.8194 14.51 80.9868 14.4912C81.2036 14.4753 81.3996 14.5121 81.5749 14.6016C81.7502 14.6911 81.8322 14.8041 81.8209 14.9404C81.7541 16.0269 81.5954 17.045 81.3446 17.9947C81.0916 18.9327 80.7565 19.8554 80.3392 20.7629ZM87.0962 13.5395C87.4743 13.6036 87.8054 13.7435 88.0896 13.9592C88.3855 14.1727 88.6291 14.4326 88.8202 14.7389C89.0092 15.0333 89.1413 15.3505 89.2167 15.6905C89.3038 16.0283 89.3276 16.3534 89.288 16.6659C89.2195 17.0203 89.1146 17.3755 88.9732 17.7313C88.8318 18.0871 88.6543 18.413 88.4408 18.7089C88.2273 19.0049 87.9696 19.2602 87.6677 19.475C87.3658 19.6897 87.0143 19.8343 86.6132 19.9088C86.1295 19.9987 85.7016 19.9622 85.3296 19.7994C84.9576 19.6366 84.6444 19.3957 84.3899 19.0768C84.1354 18.758 83.937 18.3798 83.7947 17.9424C83.6643 17.5029 83.5928 17.0524 83.5803 16.5909C83.5661 16.2518 83.5837 15.919 83.6329 15.5925C83.6917 15.252 83.7877 14.9474 83.9208 14.6785C84.0518 14.3979 84.2151 14.1601 84.4108 13.9651C84.6183 13.7679 84.8695 13.6419 85.1644 13.5871C85.3296 13.5564 85.5427 13.5535 85.8036 13.5782C86.0623 13.5912 86.3088 13.637 86.5431 13.7155C86.6701 13.5454 86.8545 13.4868 87.0962 13.5395ZM86.6637 14.9563C86.5186 14.8979 86.3455 14.8202 86.1444 14.7233C85.9529 14.6124 85.7923 14.569 85.6625 14.5931C85.5209 14.6194 85.3914 14.7105 85.2739 14.8666C85.1682 15.0205 85.0787 15.1958 85.0054 15.3925C84.9417 15.5752 84.8909 15.7616 84.853 15.9517C84.8151 16.1418 84.7942 16.2922 84.7903 16.4028C84.7878 16.5863 84.8036 16.8031 84.8378 17.053C84.8721 17.303 84.9358 17.5474 85.029 17.7864C85.12 18.0136 85.249 18.2155 85.4161 18.3919C85.5927 18.5544 85.8244 18.6517 86.1111 18.6839C86.285 18.7004 86.4797 18.6643 86.6951 18.5755C86.9083 18.4748 87.1079 18.334 87.294 18.153C87.4919 17.9698 87.6633 17.7427 87.8082 17.4716C87.965 17.1984 88.0679 16.8986 88.1172 16.5721C88.1716 16.208 88.1059 15.8541 87.9199 15.5103C87.7436 15.1524 87.4691 14.9227 87.0962 14.8211C87.0246 14.8954 86.9475 14.9402 86.8649 14.9556C86.7823 14.9709 86.7153 14.9712 86.6637 14.9563ZM95.4855 12.0546C95.295 12.2121 95.0939 12.3776 94.882 12.5512C94.6819 12.7226 94.4804 12.9187 94.2773 13.1395C94.0838 13.3463 93.9028 13.5874 93.7342 13.8628C93.5753 14.1243 93.4428 14.4296 93.3368 14.7788C93.1841 15.271 93.1103 15.7607 93.1154 16.2479C93.1182 16.7234 93.1495 17.1875 93.2092 17.6402C93.2486 17.8526 93.2361 18.0807 93.1715 18.3246C93.1166 18.5545 93.0006 18.6859 92.8236 18.7188C92.5995 18.7604 92.3958 18.6823 92.2126 18.4844C92.039 18.2725 91.9088 18.0648 91.8222 17.8612C91.466 17.0608 91.1475 16.2656 90.8665 15.4756C90.5833 14.6738 90.319 13.8747 90.0734 13.0781C90.0427 12.913 90.0702 12.798 90.1558 12.7333C90.2532 12.6664 90.3679 12.6268 90.4999 12.6145C90.6436 12.6 90.7859 12.6102 90.9266 12.645C91.0674 12.6799 91.1616 12.7601 91.2093 12.8855C91.3376 13.3132 91.482 13.7624 91.6426 14.233C91.8011 14.6918 91.9475 15.0857 92.0818 15.4147C92.0545 15.0048 92.112 14.5913 92.2542 14.1743C92.3965 13.7573 92.5925 13.367 92.8423 13.0033C93.1038 12.6373 93.4096 12.312 93.7595 12.0274C94.1212 11.7405 94.5019 11.5233 94.9017 11.3758C95.0743 11.3194 95.2218 11.292 95.3441 11.2937C95.4665 11.2953 95.5568 11.3213 95.6149 11.3715C95.6731 11.4217 95.6965 11.515 95.6852 11.6514C95.6857 11.7856 95.6191 11.92 95.4855 12.0546ZM101.48 11.2708C101.525 11.2503 101.595 11.2312 101.689 11.2137C101.781 11.1844 101.871 11.1738 101.958 11.1821C102.054 11.1764 102.136 11.1916 102.204 11.2279C102.282 11.2501 102.332 11.2896 102.354 11.3464C102.404 11.4836 102.405 11.6178 102.356 11.7489C102.317 11.8661 102.222 11.9813 102.072 12.0945C101.663 12.3902 101.242 12.7186 100.809 13.0798C100.373 13.4292 100.004 13.7418 99.7016 14.0178C99.9403 14.1199 100.212 14.2342 100.516 14.3608C100.832 14.4852 101.156 14.6203 101.488 14.7661C101.818 14.9001 102.152 15.0518 102.488 15.2211C102.823 15.3787 103.139 15.5396 103.438 15.7038C103.712 15.8605 103.787 16.0357 103.664 16.2294C103.609 16.3251 103.502 16.406 103.343 16.4721C103.196 16.536 103.045 16.5457 102.891 16.5012C102.607 16.4196 102.295 16.3188 101.956 16.1988C101.614 16.067 101.266 15.9363 100.913 15.8067C100.557 15.6653 100.208 15.5287 99.8662 15.3969C99.534 15.2511 99.2287 15.1186 98.9502 14.9995C99.0741 15.4036 99.1921 15.8089 99.3042 16.2153C99.4281 16.6194 99.5461 17.0247 99.6582 17.4311C99.7706 17.6421 99.7986 17.8261 99.7424 17.983C99.6861 18.1399 99.5624 18.23 99.3715 18.2533C99.1643 18.2551 99.0026 18.2058 98.8863 18.1054C98.7678 17.9931 98.6664 17.8411 98.5819 17.6493C98.4213 17.1787 98.2324 16.6218 98.0153 15.9787C97.81 15.3333 97.5944 14.6654 97.3686 13.9751C97.1427 13.2847 96.9201 12.612 96.7008 11.9571C96.4934 11.2999 96.306 10.7183 96.1388 10.2124C96.0845 10.0516 96.034 9.87788 95.9871 9.6913C95.9498 9.49073 95.9906 9.3489 96.1095 9.2658C96.2733 9.16215 96.4638 9.16947 96.6811 9.28779C96.8962 9.39431 97.0783 9.58628 97.2274 9.86371C97.4226 10.3889 97.6266 10.9613 97.8393 11.5809C98.052 12.2004 98.2713 12.8554 98.4972 13.5458C98.7068 13.3604 98.9497 13.1566 99.2258 12.9344C99.5115 12.6983 99.7934 12.475 100.072 12.2647C100.36 12.0404 100.627 11.8381 100.874 11.6579C101.122 11.4777 101.323 11.3487 101.48 11.2708ZM107.204 10.7203C107.156 10.5949 107.11 10.4754 107.064 10.3618C107.019 10.2482 106.946 10.1825 106.845 10.1646C106.633 10.1429 106.42 10.1764 106.204 10.2652C105.989 10.3541 105.797 10.4691 105.628 10.6104C105.456 10.7398 105.318 10.8815 105.212 11.0353C105.104 11.1774 105.053 11.2968 105.059 11.3933C105.056 11.5769 105.135 11.7392 105.296 11.8803C105.456 12.0213 105.676 12.1515 105.954 12.2706C106.413 12.4417 106.891 12.6154 107.387 12.7917C107.884 12.968 108.311 13.1633 108.668 13.3777C109.025 13.5921 109.287 13.8546 109.455 14.1652C109.632 14.4618 109.676 14.832 109.588 15.2756C109.517 15.6182 109.324 15.9227 109.007 16.189C108.69 16.4553 108.331 16.6869 107.928 16.8838C107.523 17.0689 107.112 17.2244 106.696 17.3505C106.278 17.4648 105.922 17.5493 105.627 17.6041C105.556 17.6173 105.463 17.6101 105.348 17.5826C105.243 17.5412 105.136 17.4938 105.029 17.4405C104.933 17.3851 104.843 17.3285 104.759 17.2709C104.685 17.1993 104.642 17.134 104.631 17.075C104.592 16.8626 104.659 16.6976 104.832 16.5799C105.006 16.4623 105.193 16.3849 105.393 16.3476C105.676 16.295 105.975 16.2273 106.289 16.1446C106.613 16.0478 106.917 15.9426 107.201 15.8288C107.483 15.7032 107.732 15.5654 107.948 15.4154C108.164 15.2654 108.304 15.099 108.368 14.9163C108.424 14.7594 108.34 14.6041 108.117 14.4504C107.902 14.2827 107.622 14.1212 107.276 13.9658C106.942 13.8082 106.579 13.662 106.188 13.5271C105.808 13.3901 105.479 13.262 105.201 13.1429C104.922 13.0237 104.674 12.8685 104.455 12.6772C104.234 12.4741 104.069 12.2058 103.958 11.8725C103.889 11.5679 103.899 11.2609 103.988 10.9514C104.077 10.642 104.214 10.3602 104.399 10.1062C104.593 9.83826 104.826 9.61198 105.097 9.42742C105.367 9.24285 105.65 9.12318 105.945 9.0684C106.457 8.99777 106.902 9.06156 107.281 9.25976C107.657 9.44617 107.921 9.78166 108.072 10.2662C108.102 10.4314 108.098 10.5726 108.059 10.6897C108.031 10.8047 107.955 10.886 107.83 10.9337C107.669 10.988 107.53 10.9955 107.413 10.9562C107.305 10.9029 107.236 10.8243 107.204 10.7203Z" fill="#101828"/>
<path d="M85.8205 38.5309C86.9157 39.0482 87.9942 39.6071 89.0411 40.2256C90.0904 40.8439 91.1018 41.5246 92.0696 42.264C93.1003 43.0518 94.0723 43.9135 94.9779 44.8425C96.1992 46.0823 97.2434 47.485 98.0807 49.0107C98.4998 49.7809 98.85 50.5866 99.127 51.4184C99.2738 51.847 99.3838 52.2872 99.4558 52.7345C99.534 53.2112 99.5329 53.6975 99.4526 54.1739C99.4069 54.4356 99.3223 54.6889 99.2015 54.9254C99.0673 55.1908 98.8719 55.4205 98.6313 55.5954C98.3797 55.7748 98.0845 55.8834 97.7766 55.9096C97.4925 55.9334 97.2066 55.8996 96.9359 55.8101C96.6853 55.7288 96.4476 55.6123 96.2298 55.4642C96.028 55.325 95.8396 55.1674 95.667 54.9933C95.3447 54.674 95.0493 54.3285 94.7839 53.9605C94.2588 53.2335 93.8341 52.4391 93.5211 51.5987C93.2067 50.755 93.0156 49.8704 92.9539 48.9722C92.8737 47.8539 93.0233 46.7311 93.3934 45.6729C93.446 45.5296 93.5076 45.3897 93.5777 45.2541C93.6501 45.1139 93.7341 44.98 93.8287 44.8537C94.0163 44.5927 94.248 44.3664 94.5133 44.1848C94.7835 44.0017 95.0857 43.8713 95.4042 43.8003C95.7081 43.7333 96.0201 43.7115 96.3303 43.7357C96.9065 43.7872 97.4701 43.9342 97.998 44.1707C98.2533 44.2794 98.5027 44.4014 98.7452 44.5363C98.8656 44.6032 98.9848 44.6718 99.1015 44.744C99.2192 44.8155 99.3267 44.8879 99.4397 44.9599C100.333 45.5355 101.188 46.1691 101.999 46.8567C105.235 49.6234 107.729 53.1542 109.256 57.1289C109.316 57.2766 109.368 57.4275 109.421 57.578C109.474 57.7288 109.53 57.8784 109.579 58.0307C109.675 58.3355 109.776 58.6389 109.859 58.9473C110.037 59.5602 110.177 60.1812 110.303 60.7965C110.401 61.2879 110.469 61.7848 110.506 62.2845C110.518 62.4872 110.526 62.6673 110.528 62.8274C110.526 62.9879 110.519 63.1279 110.51 63.2496C110.481 63.6037 110.411 63.6075 110.315 63.3192C110.291 63.247 110.265 63.1566 110.239 63.0488C110.213 62.9409 110.183 62.8161 110.15 62.6743C110.116 62.5329 110.082 62.3751 110.046 62.201C110.007 62.0277 109.963 61.839 109.92 61.635C109.685 60.5611 109.391 59.5009 109.039 58.4592C108.236 56.0788 107.064 53.8396 105.565 51.8236C104.08 49.8106 102.279 48.051 100.231 46.6131C100.09 46.516 99.9477 46.4186 99.8049 46.3207C99.6594 46.2271 99.5135 46.1332 99.3673 46.0391C99.2226 45.9429 99.0708 45.8574 98.9227 45.7662C98.7734 45.676 98.6251 45.5843 98.48 45.505C97.9218 45.1836 97.3199 44.9453 96.693 44.7974C96.2246 44.6956 95.7573 44.7007 95.3706 44.8584C95.1766 44.9396 95.0003 45.058 94.8518 45.2068C94.7744 45.2847 94.7037 45.3689 94.6406 45.4588C94.5747 45.5477 94.5175 45.6427 94.4695 45.7425C94.4185 45.8469 94.3743 45.9545 94.337 46.0645L94.2253 46.4274C94.1942 46.5508 94.1617 46.6739 94.1323 46.7979C94.1087 46.9232 94.0804 47.0476 94.0602 47.1737C93.9786 47.68 93.9497 48.1935 93.9738 48.7058C94.0244 49.7376 94.2651 50.7512 94.6838 51.6956C94.8937 52.1686 95.142 52.6235 95.4263 53.0559C95.7051 53.4843 96.0261 53.8836 96.3844 54.248L96.4849 54.3457L96.5353 54.3944L96.5828 54.4367C96.6451 54.4924 96.7105 54.5446 96.7786 54.593C96.909 54.6863 97.0511 54.7623 97.2012 54.8188C97.3363 54.8704 97.4798 54.8966 97.6244 54.8962C97.6885 54.8961 97.7523 54.8877 97.8142 54.8713C97.8729 54.8572 97.9292 54.8346 97.9813 54.8042C98.0348 54.7749 98.0838 54.7381 98.1267 54.6948C98.1741 54.6488 98.216 54.5975 98.2515 54.5419C98.3313 54.4126 98.3903 54.2716 98.4264 54.124C98.4674 53.958 98.4913 53.7882 98.4979 53.6174C98.5056 53.4382 98.5 53.2588 98.4813 53.0805C98.4384 52.7065 98.3613 52.3372 98.2509 51.9773C98.1963 51.7921 98.1357 51.6067 98.0706 51.4203C98.0055 51.2357 97.9369 51.0523 97.8648 50.8702C97.5703 50.1406 97.22 49.4347 96.8171 48.7589C96.092 47.5467 95.2289 46.4227 94.245 45.4092C93.2549 44.3896 92.1758 43.4605 91.0204 42.6329C90.4427 42.2164 89.85 41.8204 89.2424 41.4449C88.9383 41.2583 88.6326 41.0744 88.3204 40.9004L87.8533 40.6374L87.3806 40.3839C87.0669 40.2122 86.7443 40.0563 86.426 39.8924C86.1028 39.7379 85.783 39.5766 85.4561 39.4289C84.8073 39.1239 84.147 38.8414 83.4846 38.5634C81.3658 37.6862 79.3419 36.9007 77.5887 36.0527C76.7823 35.6635 76.9182 35.4456 77.9182 35.7127C79.3283 36.1077 80.7982 36.5611 82.2451 37.0756C83.4354 37.4966 84.6317 38.0085 85.8028 38.5421C85.8085 38.5381 85.8139 38.5346 85.8205 38.5309Z" fill="#101828"/>
<path d="M82.8958 41.5043C82.4464 40.8992 81.9508 40.3298 81.4134 39.8013C81.2668 39.6647 81.1211 39.5262 80.9718 39.3912C80.8176 39.2611 80.6618 39.1329 80.5028 39.0096C79.8051 38.4881 79.0611 38.0164 78.3039 37.5534L77.1602 36.8634C76.7781 36.6334 76.3915 36.4059 76.0139 36.1655L76.0083 36.1619C75.8784 36.0792 75.7867 35.9482 75.7533 35.7979C75.7199 35.6475 75.7477 35.4901 75.8304 35.3602C75.883 35.2785 75.9552 35.2112 76.0403 35.1642C76.1254 35.1173 76.2208 35.0923 76.318 35.0914L77.5788 35.0864C78.9377 35.0735 80.298 35.0613 81.661 35.058C83.024 35.0552 84.3895 35.0609 85.7605 35.1028C86.1753 35.121 86.5888 35.1619 86.9991 35.2251C87.3895 35.2788 87.6366 35.4168 87.7822 35.5783C87.9937 35.815 87.7478 36.0353 87.2022 36.0672C86.8422 36.0855 86.4815 36.0824 86.1219 36.0579C84.4715 35.975 82.8176 35.9983 81.1702 36.1278C80.7142 36.1617 80.2396 36.214 79.7948 36.1883C78.6418 36.1221 77.4832 36.1721 76.326 36.1921L76.5978 35.2323C76.8268 35.3722 77.0533 35.5155 77.275 35.666C78.1519 36.2564 79.0681 36.8039 79.946 37.4249C80.7391 37.9773 81.4882 38.5901 82.1867 39.2581C82.8786 39.9334 83.5103 40.6678 84.0745 41.4529C84.1856 41.6089 84.2915 41.7654 84.3904 41.9222C84.4843 42.0822 84.5706 42.2427 84.6493 42.4038C84.8034 42.7147 84.9188 43.0433 84.9928 43.3823C85.0251 43.5337 84.9909 43.6345 84.9153 43.6693C84.8415 43.7029 84.7195 43.6752 84.596 43.557C84.4323 43.3825 84.2771 43.196 84.1179 43.0117C83.9575 42.8284 83.802 42.6396 83.6504 42.4496C83.5208 42.298 83.3997 42.1375 83.2808 41.9741L83.1917 41.8513L83.0988 41.7324C83.0363 41.6535 82.9739 41.5746 82.9116 41.4959L82.8958 41.5043Z" fill="#101828"/>
</svg>
