<svg width="466" height="350" viewBox="0 0 466 350" fill="none" xmlns="http://www.w3.org/2000/svg">
<g filter="url(#filter0_dd_223_9593)">
<rect x="3" y="2" width="460" height="344" rx="24" fill="white"/>
<rect x="3.5" y="2.5" width="459" height="343" rx="23.5" stroke="black" stroke-opacity="0.06"/>
<rect x="15" y="14" width="436" height="320" rx="16" fill="url(#paint0_linear_223_9593)"/>
<rect x="15.5" y="14.5" width="435" height="319" rx="15.5" stroke="black" stroke-opacity="0.1"/>
<circle opacity="0.3" cx="180.253" cy="217.302" r="0.630208" transform="rotate(90 180.253 217.302)" fill="#FF005D"/>
<circle opacity="0.3" cx="290.121" cy="158.696" r="0.840278" transform="rotate(90 290.121 158.696)" fill="#FF005D"/>
<circle opacity="0.1" cx="175.839" cy="161.215" r="0.840278" transform="rotate(90 175.839 161.215)" fill="#FF005D"/>
<circle opacity="0.3" cx="278.565" cy="163.525" r="0.630208" transform="rotate(90 278.565 163.525)" fill="#FF005D"/>
<circle opacity="0.3" cx="199.581" cy="214.783" r="0.630208" transform="rotate(90 199.581 214.783)" fill="#FF005D"/>
<circle opacity="0.2" cx="252.722" cy="116.68" r="0.840278" transform="rotate(90 252.722 116.68)" fill="#FF005D"/>
<circle opacity="0.3" cx="271.214" cy="130.965" r="0.840278" transform="rotate(90 271.214 130.965)" fill="#FF005D"/>
<circle opacity="0.2" cx="231.3" cy="214.153" r="0.840278" transform="rotate(90 231.3 214.153)" fill="#FF005D"/>
<circle cx="218.691" cy="219.196" r="0.840278" transform="rotate(90 218.691 219.196)" fill="#FF005D"/>
<circle opacity="0.2" cx="190.964" cy="140.207" r="0.840278" transform="rotate(90 190.964 140.207)" fill="#FF005D"/>
<circle opacity="0.3" cx="176.683" cy="193.707" r="0.840278" transform="rotate(90 176.683 193.707)" fill="#FF005D"/>
<circle opacity="0.1" cx="216.175" cy="122.563" r="0.840278" transform="rotate(90 216.175 122.563)" fill="#FF005D"/>
<circle opacity="0.3" cx="276.675" cy="200.707" r="0.840278" transform="rotate(90 276.675 200.707)" fill="#FF005D"/>
<circle opacity="0.3" cx="259.027" cy="219.196" r="0.840278" transform="rotate(90 259.027 219.196)" fill="#FF005D"/>
<circle opacity="0.3" cx="288.441" cy="187.825" r="0.840278" transform="rotate(90 288.441 187.825)" fill="#FF005D"/>
<circle opacity="0.3" cx="244.746" cy="126.762" r="0.840278" transform="rotate(90 244.746 126.762)" fill="#FF005D"/>
<circle opacity="0.1" cx="197.691" cy="115.84" r="0.840278" transform="rotate(90 197.691 115.84)" fill="#FF005D"/>
<circle opacity="0.1" cx="262.386" cy="124.243" r="0.840278" transform="rotate(90 262.386 124.243)" fill="#FF005D"/>
<circle opacity="0.1" cx="233.816" cy="119.2" r="0.840278" transform="rotate(90 233.816 119.2)" fill="#FF005D"/>
<circle opacity="0.4" cx="295.37" cy="133.275" r="0.630208" transform="rotate(90 295.37 133.275)" fill="#FF005D"/>
<circle opacity="0.4" cx="188.651" cy="155.962" r="0.630208" transform="rotate(90 188.651 155.962)" fill="#FF005D"/>
<circle opacity="0.4" cx="185.082" cy="203.789" r="0.840278" transform="rotate(90 185.082 203.789)" fill="#FF005D"/>
<circle opacity="0.1" cx="180.674" cy="132.435" r="0.630208" transform="rotate(90 180.674 132.435)" fill="#FF005D"/>
<circle opacity="0.3" cx="182.566" cy="183.063" r="0.840278" transform="rotate(90 182.566 183.063)" fill="#FF005D"/>
<circle opacity="0.3" cx="202.308" cy="129.004" r="0.840278" transform="rotate(90 202.308 129.004)" fill="#FF005D"/>
<circle opacity="0.3" cx="268.901" cy="214.783" r="0.630208" transform="rotate(90 268.901 214.783)" fill="#FF005D"/>
<circle opacity="0.3" cx="247.057" cy="215.622" r="0.630208" transform="rotate(90 247.057 215.622)" fill="#FF005D"/>
<circle opacity="0.1" cx="243.69" cy="137.478" r="0.630208" transform="rotate(90 243.69 137.478)" fill="#FF005D"/>
<circle opacity="0.3" cx="0.75" cy="0.75" r="0.75" transform="matrix(4.37114e-08 1 1 -4.37114e-08 167 157)" fill="#FF005D"/>
<circle opacity="0.1" cx="1" cy="1" r="1" transform="matrix(4.37114e-08 1 1 -4.37114e-08 152 89)" fill="#FF005D"/>
<circle opacity="0.3" cx="0.75" cy="0.75" r="0.75" transform="matrix(4.37114e-08 1 1 -4.37114e-08 46 159)" fill="#FF005D"/>
<circle opacity="0.3" cx="0.75" cy="0.75" r="0.75" transform="matrix(4.37114e-08 1 1 -4.37114e-08 114 159)" fill="#FF005D"/>
<circle opacity="0.3" cx="0.75" cy="0.75" r="0.75" transform="matrix(4.37114e-08 1 1 -4.37114e-08 144 154)" fill="#FF005D"/>
<circle opacity="0.2" cx="1" cy="1" r="1" transform="matrix(4.37114e-08 1 1 -4.37114e-08 60.5 25)" fill="#FF005D"/>
<circle opacity="0.3" cx="1" cy="1" r="1" transform="matrix(4.37114e-08 1 1 -4.37114e-08 54.5 100)" fill="#FF005D"/>
<circle opacity="0.3" cx="1" cy="1" r="1" transform="matrix(4.37114e-08 1 1 -4.37114e-08 122.5 90)" fill="#FF005D"/>
<circle opacity="0.2" cx="1" cy="1" r="1" transform="matrix(4.37114e-08 1 1 -4.37114e-08 112 219)" fill="#FF005D"/>
<circle opacity="0.2" cx="1" cy="1" r="1" transform="matrix(4.37114e-08 1 1 -4.37114e-08 154 53)" fill="#FF005D"/>
<circle opacity="0.3" cx="1" cy="1" r="1" transform="matrix(4.37114e-08 1 1 -4.37114e-08 171 128.664)" fill="#FF005D"/>
<circle opacity="0.1" cx="1" cy="1" r="1" transform="matrix(4.37114e-08 1 1 -4.37114e-08 104 32)" fill="#FF005D"/>
<circle opacity="0.3" cx="1" cy="1" r="1" transform="matrix(4.37114e-08 1 1 -4.37114e-08 89 285)" fill="#FF005D"/>
<circle opacity="0.3" cx="1" cy="1" r="1" transform="matrix(4.37114e-08 1 1 -4.37114e-08 34 187.664)" fill="#FF005D"/>
<circle opacity="0.3" cx="1" cy="1" r="1" transform="matrix(4.37114e-08 1 1 -4.37114e-08 30 52)" fill="#FF005D"/>
<circle opacity="0.1" cx="1" cy="1" r="1" transform="matrix(4.37114e-08 1 1 -4.37114e-08 126 24)" fill="#FF005D"/>
<circle opacity="0.1" cx="1" cy="1" r="1" transform="matrix(4.37114e-08 1 1 -4.37114e-08 49 34)" fill="#FF005D"/>
<circle opacity="0.1" cx="1" cy="1" r="1" transform="matrix(4.37114e-08 1 1 -4.37114e-08 83 28)" fill="#FF005D"/>
<circle opacity="0.4" cx="0.75" cy="0.75" r="0.75" transform="matrix(4.37114e-08 1 1 -4.37114e-08 26 123)" fill="#FF005D"/>
<circle opacity="0.4" cx="0.75" cy="0.75" r="0.75" transform="matrix(4.37114e-08 1 1 -4.37114e-08 94 113)" fill="#FF005D"/>
<circle opacity="0.1" cx="0.75" cy="0.75" r="0.75" transform="matrix(4.37114e-08 1 1 -4.37114e-08 146.5 44)" fill="#FF005D"/>
<circle opacity="0.3" cx="1" cy="1" r="1" transform="matrix(4.37114e-08 1 1 -4.37114e-08 164 116)" fill="#FF005D"/>
<circle opacity="0.3" cx="1" cy="1" r="1" transform="matrix(4.37114e-08 1 1 -4.37114e-08 120.5 39.6641)" fill="#FF005D"/>
<circle opacity="0.3" cx="0.75" cy="0.75" r="0.75" transform="matrix(4.37114e-08 1 1 -4.37114e-08 47.5 230)" fill="#FF005D"/>
<circle opacity="0.3" cx="0.75" cy="0.75" r="0.75" transform="matrix(4.37114e-08 1 1 -4.37114e-08 98 273)" fill="#FF005D"/>
<circle opacity="0.3" cx="0.75" cy="0.75" r="0.75" transform="matrix(4.37114e-08 1 1 -4.37114e-08 93.5 221)" fill="#FF005D"/>
<circle opacity="0.1" cx="0.75" cy="0.75" r="0.75" transform="matrix(4.37114e-08 1 1 -4.37114e-08 87.5 128)" fill="#FF005D"/>
<circle opacity="0.3" cx="0.75" cy="0.75" r="0.75" transform="matrix(4.37114e-08 1 1 -4.37114e-08 168 278)" fill="#FF005D"/>
<circle opacity="0.3" cx="0.75" cy="0.75" r="0.75" transform="matrix(4.37114e-08 1 1 -4.37114e-08 378 269)" fill="#FF005D"/>
<circle opacity="0.3" cx="0.75" cy="0.75" r="0.75" transform="matrix(4.37114e-08 1 1 -4.37114e-08 378 139)" fill="#FF005D"/>
<circle opacity="0.3" cx="0.75" cy="0.75" r="0.75" transform="matrix(4.37114e-08 1 1 -4.37114e-08 145 279)" fill="#FF005D"/>
<circle opacity="0.3" cx="0.75" cy="0.75" r="0.75" transform="matrix(4.37114e-08 1 1 -4.37114e-08 359 261)" fill="#FF005D"/>
<circle opacity="0.2" cx="1" cy="1" r="1" transform="matrix(4.37114e-08 1 1 -4.37114e-08 365 177)" fill="#FF005D"/>
<circle opacity="0.2" cx="1" cy="1" r="1" transform="matrix(4.37114e-08 1 1 -4.37114e-08 365 47)" fill="#FF005D"/>
<circle opacity="0.4" cx="0.75" cy="0.75" r="0.75" transform="matrix(4.37114e-08 1 1 -4.37114e-08 368 196)" fill="#FF005D"/>
<circle opacity="0.4" cx="0.75" cy="0.75" r="0.75" transform="matrix(4.37114e-08 1 1 -4.37114e-08 368 66)" fill="#FF005D"/>
<circle opacity="0.4" cx="1" cy="1" r="1" transform="matrix(4.37114e-08 1 1 -4.37114e-08 372 122.664)" fill="#FF005D"/>
<circle opacity="0.1" cx="0.75" cy="0.75" r="0.75" transform="matrix(4.37114e-08 1 1 -4.37114e-08 167.5 177)" fill="#FF005D"/>
<circle opacity="0.1" cx="0.75" cy="0.75" r="0.75" transform="matrix(4.37114e-08 1 1 -4.37114e-08 377.5 168)" fill="#FF005D"/>
<circle opacity="0.1" cx="0.75" cy="0.75" r="0.75" transform="matrix(4.37114e-08 1 1 -4.37114e-08 377.5 38)" fill="#FF005D"/>
<circle opacity="0.3" cx="1" cy="1" r="1" transform="matrix(4.37114e-08 1 1 -4.37114e-08 165 237)" fill="#FF005D"/>
<circle opacity="0.3" cx="1" cy="1" r="1" transform="matrix(4.37114e-08 1 1 -4.37114e-08 375 228)" fill="#FF005D"/>
<circle opacity="0.3" cx="1" cy="1" r="1" transform="matrix(4.37114e-08 1 1 -4.37114e-08 375 98)" fill="#FF005D"/>
<rect x="195.559" y="136.559" width="74.8824" height="74.8824" rx="15.4412" stroke="#FF005D" stroke-width="1.11765"/>
<g filter="url(#filter1_di_223_9593)">
<g clip-path="url(#clip0_223_9593)">
<rect x="201.703" y="142.707" width="62.5882" height="62.5882" rx="12" fill="#FF005D"/>
<g filter="url(#filter2_d_223_9593)">
<path fill-rule="evenodd" clip-rule="evenodd" d="M215.117 174.003C226.484 174.003 233 167.487 233 156.121C233 167.487 239.516 174.003 250.882 174.003C239.516 174.003 233 180.519 233 191.886C233 180.519 226.484 174.003 215.117 174.003Z" fill="url(#paint1_linear_223_9593)" shape-rendering="crispEdges"/>
</g>
<g opacity="0.6" filter="url(#filter3_f_223_9593)">
<circle cx="262.916" cy="144.944" r="9.86159" fill="white"/>
</g>
</g>
<rect x="202.262" y="143.266" width="61.4706" height="61.4706" rx="11.4412" stroke="url(#paint2_linear_223_9593)" stroke-width="1.11765"/>
</g>
<rect x="43.2708" y="90.2708" width="39.4583" height="39.4583" rx="8.0625" stroke="#D0D5DD" stroke-width="0.541667"/>
<g filter="url(#filter4_di_223_9593)">
<g clip-path="url(#clip1_223_9593)">
<rect x="47.1641" y="94.168" width="31.6667" height="31.6667" rx="7.5" fill="white"/>
<path opacity="0.2" d="M69.2409 113C69.1397 113.756 68.7675 114.449 68.1934 114.951C67.6193 115.453 66.8824 115.729 66.1198 115.729C63.7715 115.729 61.5194 114.796 59.859 113.136C58.1985 111.475 57.2656 109.223 57.2656 106.875C57.265 106.112 57.5415 105.375 58.0435 104.801C58.5455 104.227 59.2389 103.855 59.9948 103.754C60.1065 103.74 60.2196 103.764 60.317 103.82C60.4144 103.876 60.4909 103.963 60.5352 104.066L61.9108 107.139C61.9446 107.218 61.9584 107.304 61.9509 107.39C61.9434 107.475 61.9149 107.557 61.8678 107.629L60.4766 109.284C60.4272 109.358 60.398 109.444 60.3919 109.533C60.3857 109.622 60.4028 109.711 60.4414 109.792C60.9798 110.894 62.1191 112.02 63.2246 112.553C63.3056 112.592 63.3952 112.608 63.4846 112.602C63.574 112.595 63.6601 112.565 63.7344 112.515L65.362 111.128C65.4341 111.08 65.5171 111.051 65.6034 111.043C65.6896 111.035 65.7765 111.049 65.8561 111.083L68.9264 112.459C69.0304 112.503 69.1173 112.579 69.174 112.677C69.2307 112.774 69.2542 112.888 69.2409 113Z" fill="#475467"/>
<path d="M69.1439 111.984L66.0768 110.61L66.0684 110.606C65.9091 110.538 65.7354 110.511 65.563 110.526C65.3906 110.542 65.2248 110.601 65.0807 110.697C65.0638 110.708 65.0475 110.721 65.0319 110.734L63.4473 112.085C62.4434 111.597 61.4069 110.568 60.9193 109.577L62.2721 107.969C62.2852 107.952 62.2975 107.936 62.3093 107.918C62.4033 107.775 62.4603 107.61 62.4753 107.439C62.4903 107.268 62.4628 107.096 62.3952 106.938V106.93L61.0169 103.858C60.9276 103.652 60.7739 103.48 60.5789 103.368C60.3839 103.257 60.158 103.211 59.9349 103.238C59.0527 103.354 58.243 103.787 57.6569 104.457C57.0708 105.126 56.7484 105.986 56.75 106.876C56.75 112.045 60.9557 116.251 66.125 116.251C67.0148 116.253 67.8747 115.93 68.5442 115.344C69.2137 114.758 69.6469 113.948 69.763 113.066C69.7903 112.843 69.7448 112.617 69.6332 112.422C69.5216 112.227 69.35 112.074 69.1439 111.984ZM66.125 115.21C63.9156 115.207 61.7974 114.328 60.2351 112.766C58.6728 111.204 57.7941 109.086 57.7917 106.876C57.7892 106.24 58.0183 105.626 58.436 105.146C58.8538 104.667 59.4317 104.356 60.0619 104.272C60.0616 104.275 60.0616 104.277 60.0619 104.28L61.429 107.34L60.0833 108.95C60.0697 108.966 60.0573 108.983 60.0462 109.001C59.9483 109.151 59.8908 109.324 59.8794 109.503C59.868 109.682 59.903 109.861 59.9811 110.023C60.571 111.229 61.7865 112.435 63.0059 113.025C63.1686 113.102 63.3486 113.136 63.5284 113.123C63.7081 113.11 63.8814 113.05 64.0313 112.95C64.048 112.939 64.0641 112.927 64.0794 112.914L65.6621 111.564L68.722 112.934C68.722 112.934 68.7272 112.934 68.7292 112.934C68.6459 113.565 68.3356 114.144 67.8563 114.563C67.377 114.982 66.7615 115.212 66.125 115.21Z" fill="#475467"/>
<g opacity="0.6" filter="url(#filter5_f_223_9593)">
<circle cx="76.5797" cy="93.3336" r="5.39216" fill="#C4CBDA"/>
</g>
</g>
<rect x="47.4349" y="94.4388" width="31.125" height="31.125" rx="7.22917" stroke="url(#paint3_linear_223_9593)" stroke-width="0.541667"/>
</g>
<rect x="315.271" y="122.271" width="39.4583" height="39.4583" rx="8.0625" stroke="#D0D5DD" stroke-width="0.541667"/>
<g filter="url(#filter6_di_223_9593)">
<g clip-path="url(#clip2_223_9593)">
<rect x="319.164" y="126.168" width="31.6667" height="31.6667" rx="7.5" fill="white"/>
<g clip-path="url(#clip3_223_9593)">
<mask id="mask0_223_9593" style="mask-type:luminance" maskUnits="userSpaceOnUse" x="326" y="136" width="18" height="12">
<path d="M326.672 136.203H343.284V147.829H326.672V136.203Z" fill="white"/>
</mask>
<g mask="url(#mask0_223_9593)">
<path fill-rule="evenodd" clip-rule="evenodd" d="M333.586 137.472C334.122 136.913 334.868 136.567 335.693 136.567C336.79 136.567 337.747 137.179 338.257 138.087C338.712 137.883 339.206 137.778 339.705 137.779C341.684 137.779 343.288 139.396 343.288 141.392C343.288 143.388 341.684 145.006 339.705 145.006C339.464 145.006 339.228 144.981 339 144.935C338.551 145.736 337.696 146.276 336.714 146.276C336.317 146.277 335.926 146.187 335.569 146.013C335.114 147.083 334.054 147.833 332.819 147.833C331.532 147.833 330.436 147.019 330.015 145.878C329.828 145.917 329.637 145.937 329.445 145.937C327.913 145.937 326.672 144.682 326.672 143.135C326.672 142.098 327.23 141.192 328.059 140.708C327.883 140.303 327.793 139.867 327.793 139.426C327.793 137.646 329.238 136.203 331.02 136.203C332.067 136.203 332.997 136.701 333.586 137.472Z" fill="#00A1E0"/>
</g>
<path fill-rule="evenodd" clip-rule="evenodd" d="M329.074 142.235C329.064 142.262 329.078 142.268 329.081 142.273C329.112 142.296 329.144 142.312 329.176 142.33C329.345 142.42 329.506 142.446 329.673 142.446C330.014 142.446 330.225 142.265 330.225 141.973V141.967C330.225 141.698 329.986 141.6 329.762 141.529L329.733 141.519C329.564 141.465 329.418 141.417 329.418 141.306V141.3C329.418 141.205 329.504 141.135 329.636 141.135C329.783 141.135 329.957 141.184 330.069 141.246C330.069 141.246 330.102 141.267 330.114 141.235C330.12 141.218 330.177 141.065 330.183 141.048C330.19 141.031 330.178 141.017 330.167 141.01C330.038 140.932 329.862 140.879 329.678 140.879L329.644 140.879C329.332 140.879 329.115 141.068 329.115 141.338V141.343C329.115 141.628 329.355 141.72 329.58 141.785L329.616 141.796C329.78 141.846 329.922 141.89 329.922 142.005V142.011C329.922 142.116 329.83 142.195 329.681 142.195C329.624 142.195 329.441 142.194 329.242 142.069C329.218 142.055 329.205 142.044 329.186 142.033C329.176 142.027 329.152 142.017 329.141 142.049L329.074 142.235ZM334.064 142.235C334.053 142.262 334.067 142.268 334.071 142.273C334.102 142.296 334.134 142.312 334.166 142.33C334.335 142.42 334.495 142.446 334.662 142.446C335.003 142.446 335.215 142.265 335.215 141.973V141.967C335.215 141.698 334.976 141.6 334.752 141.529L334.723 141.519C334.554 141.465 334.408 141.417 334.408 141.306V141.3C334.408 141.205 334.493 141.135 334.625 141.135C334.772 141.135 334.946 141.184 335.058 141.246C335.058 141.246 335.091 141.267 335.104 141.235C335.11 141.218 335.167 141.065 335.173 141.048C335.179 141.031 335.168 141.017 335.156 141.01C335.028 140.932 334.851 140.879 334.668 140.879L334.634 140.879C334.322 140.879 334.104 141.068 334.104 141.338V141.343C334.104 141.628 334.344 141.72 334.57 141.785L334.606 141.796C334.77 141.846 334.911 141.89 334.911 142.005V142.011C334.911 142.116 334.819 142.195 334.671 142.195C334.614 142.195 334.43 142.194 334.232 142.069C334.208 142.055 334.194 142.045 334.176 142.033C334.17 142.029 334.141 142.018 334.131 142.049L334.064 142.235ZM337.47 141.664C337.47 141.828 337.439 141.959 337.379 142.05C337.319 142.141 337.228 142.185 337.102 142.185C336.975 142.185 336.885 142.141 336.826 142.05C336.766 141.959 336.736 141.828 336.736 141.664C336.736 141.499 336.766 141.369 336.826 141.278C336.885 141.188 336.975 141.144 337.102 141.144C337.228 141.144 337.319 141.188 337.379 141.278C337.439 141.369 337.47 141.499 337.47 141.664ZM337.755 141.358C337.727 141.263 337.683 141.18 337.625 141.111C337.567 141.041 337.494 140.985 337.407 140.945C337.32 140.904 337.217 140.883 337.102 140.883C336.986 140.883 336.884 140.904 336.797 140.945C336.71 140.985 336.636 141.041 336.578 141.111C336.52 141.18 336.477 141.263 336.449 141.358C336.421 141.452 336.407 141.555 336.407 141.664C336.407 141.773 336.421 141.875 336.449 141.969C336.477 142.064 336.52 142.147 336.578 142.216C336.636 142.286 336.71 142.342 336.797 142.381C336.884 142.421 336.986 142.441 337.102 142.441C337.217 142.441 337.319 142.421 337.406 142.381C337.493 142.342 337.567 142.286 337.625 142.216C337.683 142.147 337.727 142.064 337.755 141.969C337.782 141.875 337.796 141.772 337.796 141.664C337.796 141.555 337.782 141.452 337.755 141.358ZM340.091 142.141C340.081 142.114 340.054 142.124 340.054 142.124C340.013 142.14 339.969 142.155 339.922 142.162C339.875 142.169 339.822 142.173 339.766 142.173C339.629 142.173 339.519 142.132 339.441 142.051C339.362 141.97 339.318 141.839 339.319 141.662C339.319 141.501 339.358 141.38 339.428 141.288C339.497 141.196 339.603 141.149 339.744 141.149C339.861 141.149 339.95 141.162 340.044 141.192C340.044 141.192 340.067 141.201 340.077 141.172C340.102 141.103 340.121 141.054 340.147 140.978C340.155 140.956 340.136 140.947 340.13 140.944C340.093 140.93 340.006 140.906 339.94 140.896C339.878 140.887 339.806 140.882 339.726 140.882C339.607 140.882 339.5 140.902 339.409 140.943C339.318 140.983 339.241 141.039 339.18 141.109C339.119 141.179 339.072 141.262 339.042 141.356C339.011 141.45 338.995 141.553 338.995 141.662C338.995 141.898 339.059 142.089 339.185 142.229C339.311 142.369 339.5 142.44 339.746 142.44C339.892 142.44 340.041 142.411 340.149 142.368C340.149 142.368 340.17 142.358 340.161 142.334L340.091 142.141ZM340.589 141.505C340.602 141.414 340.627 141.338 340.666 141.278C340.725 141.188 340.815 141.139 340.942 141.139C341.068 141.139 341.152 141.188 341.212 141.278C341.251 141.338 341.269 141.417 341.275 141.506L340.589 141.505ZM341.546 141.304C341.522 141.213 341.462 141.121 341.423 141.079C341.361 141.012 341.301 140.965 341.24 140.939C341.153 140.902 341.059 140.883 340.965 140.883C340.844 140.883 340.735 140.904 340.647 140.945C340.558 140.987 340.483 141.044 340.425 141.114C340.366 141.185 340.322 141.269 340.294 141.364C340.266 141.459 340.252 141.563 340.252 141.672C340.252 141.783 340.267 141.886 340.296 141.979C340.325 142.073 340.372 142.156 340.435 142.224C340.499 142.293 340.58 142.347 340.678 142.384C340.774 142.422 340.892 142.441 341.027 142.441C341.305 142.44 341.452 142.378 341.512 142.345C341.523 142.339 341.533 142.328 341.52 142.299L341.457 142.122C341.448 142.096 341.421 142.106 341.421 142.106C341.352 142.131 341.254 142.177 341.026 142.177C340.876 142.177 340.766 142.132 340.696 142.064C340.625 141.993 340.59 141.889 340.584 141.743L341.547 141.744C341.547 141.744 341.573 141.744 341.575 141.719C341.576 141.709 341.608 141.521 341.546 141.304ZM332.876 141.505C332.889 141.414 332.914 141.338 332.953 141.278C333.013 141.188 333.102 141.139 333.229 141.139C333.355 141.139 333.439 141.188 333.499 141.278C333.538 141.338 333.556 141.417 333.562 141.506L332.876 141.505ZM333.833 141.304C333.809 141.213 333.749 141.121 333.71 141.079C333.648 141.012 333.588 140.965 333.527 140.939C333.44 140.902 333.346 140.883 333.252 140.883C333.131 140.883 333.022 140.904 332.934 140.945C332.845 140.987 332.77 141.044 332.712 141.114C332.653 141.185 332.609 141.269 332.581 141.364C332.553 141.459 332.539 141.563 332.539 141.672C332.539 141.783 332.554 141.886 332.583 141.979C332.612 142.073 332.659 142.156 332.722 142.224C332.786 142.293 332.867 142.347 332.965 142.384C333.062 142.422 333.179 142.441 333.314 142.441C333.592 142.44 333.739 142.378 333.799 142.345C333.81 142.339 333.82 142.328 333.807 142.299L333.744 142.122C333.735 142.096 333.708 142.106 333.708 142.106C333.639 142.131 333.541 142.177 333.313 142.177C333.163 142.177 333.053 142.132 332.983 142.064C332.912 141.993 332.877 141.889 332.871 141.743L333.834 141.744C333.834 141.744 333.86 141.744 333.862 141.719C333.863 141.709 333.895 141.521 333.833 141.304ZM330.794 142.136C330.756 142.106 330.751 142.099 330.738 142.079C330.719 142.049 330.71 142.007 330.71 141.954C330.71 141.869 330.738 141.808 330.796 141.767C330.795 141.767 330.879 141.695 331.075 141.698C331.162 141.699 331.25 141.707 331.336 141.72V142.158H331.336C331.336 142.158 331.214 142.184 331.076 142.192C330.88 142.204 330.793 142.136 330.794 142.136ZM331.177 141.459C331.138 141.456 331.088 141.455 331.027 141.455C330.944 141.455 330.865 141.465 330.79 141.485C330.714 141.506 330.647 141.537 330.589 141.579C330.53 141.62 330.483 141.675 330.449 141.738C330.415 141.801 330.397 141.876 330.397 141.959C330.397 142.045 330.412 142.119 330.441 142.179C330.47 142.239 330.513 142.291 330.567 142.33C330.621 142.369 330.687 142.398 330.763 142.415C330.839 142.432 330.925 142.441 331.018 142.441C331.117 142.441 331.216 142.433 331.311 142.417C331.392 142.403 331.473 142.387 331.553 142.37C331.586 142.362 331.621 142.352 331.621 142.352C331.645 142.346 331.643 142.321 331.643 142.321L331.642 141.44C331.642 141.247 331.591 141.104 331.489 141.015C331.388 140.927 331.239 140.882 331.047 140.882C330.975 140.882 330.859 140.892 330.789 140.906C330.789 140.906 330.579 140.946 330.492 141.014C330.492 141.014 330.473 141.026 330.483 141.053L330.552 141.236C330.56 141.259 330.583 141.251 330.583 141.251C330.583 141.251 330.59 141.249 330.599 141.243C330.784 141.143 331.019 141.146 331.019 141.146C331.123 141.146 331.203 141.167 331.257 141.208C331.309 141.248 331.336 141.309 331.336 141.437V141.478C331.253 141.466 331.177 141.459 331.177 141.459ZM338.945 140.963C338.946 140.96 338.947 140.956 338.947 140.953C338.947 140.949 338.946 140.946 338.945 140.943C338.944 140.94 338.942 140.937 338.939 140.934C338.937 140.932 338.934 140.93 338.93 140.928C338.914 140.922 338.832 140.905 338.769 140.901C338.648 140.893 338.581 140.914 338.521 140.941C338.461 140.968 338.395 141.011 338.358 141.061L338.358 140.944C338.358 140.928 338.346 140.914 338.33 140.914H338.083C338.067 140.914 338.056 140.928 338.056 140.944V142.38C338.056 142.388 338.059 142.395 338.064 142.401C338.07 142.406 338.077 142.409 338.085 142.409H338.338C338.346 142.409 338.353 142.406 338.359 142.401C338.364 142.395 338.367 142.388 338.367 142.38V141.663C338.367 141.566 338.378 141.47 338.399 141.41C338.42 141.35 338.448 141.302 338.483 141.268C338.517 141.235 338.558 141.211 338.602 141.197C338.644 141.185 338.688 141.178 338.732 141.178C338.782 141.178 338.837 141.191 338.837 141.191C338.856 141.193 338.866 141.182 338.873 141.165C338.889 141.121 338.936 140.989 338.945 140.963Z" fill="#FFFFFE"/>
<path fill-rule="evenodd" clip-rule="evenodd" d="M336.574 140.294C336.543 140.285 336.511 140.278 336.479 140.272C336.436 140.265 336.392 140.261 336.348 140.262C336.174 140.262 336.036 140.311 335.94 140.408C335.844 140.505 335.779 140.652 335.747 140.845L335.735 140.91H335.516C335.516 140.91 335.489 140.909 335.484 140.938L335.448 141.138C335.445 141.158 335.454 141.17 335.479 141.169H335.692L335.476 142.375C335.459 142.472 335.44 142.552 335.419 142.612C335.397 142.672 335.377 142.717 335.351 142.749C335.327 142.781 335.303 142.804 335.263 142.817C335.23 142.828 335.192 142.833 335.15 142.833C335.127 142.833 335.096 142.83 335.073 142.825C335.05 142.82 335.038 142.815 335.021 142.808C335.021 142.808 334.996 142.799 334.986 142.824C334.978 142.844 334.921 143 334.914 143.019C334.908 143.038 334.917 143.053 334.929 143.058C334.958 143.068 334.979 143.074 335.017 143.083C335.071 143.096 335.116 143.097 335.158 143.097C335.247 143.097 335.328 143.084 335.395 143.06C335.462 143.036 335.521 142.994 335.573 142.936C335.629 142.874 335.664 142.809 335.698 142.721C335.731 142.633 335.76 142.524 335.782 142.397L335.999 141.169H336.317C336.317 141.169 336.343 141.17 336.349 141.141L336.385 140.941C336.387 140.922 336.379 140.91 336.353 140.91H336.046C336.047 140.903 336.061 140.795 336.096 140.693C336.111 140.649 336.14 140.614 336.164 140.59C336.186 140.567 336.214 140.55 336.245 140.54C336.278 140.53 336.313 140.525 336.348 140.525C336.377 140.525 336.405 140.529 336.427 140.533C336.457 140.539 336.469 140.543 336.476 140.545C336.508 140.555 336.512 140.545 336.518 140.53L336.592 140.328C336.599 140.306 336.581 140.297 336.574 140.294ZM332.272 142.377C332.272 142.393 332.26 142.407 332.244 142.407H331.989C331.972 142.407 331.961 142.393 331.961 142.377V140.322C331.961 140.306 331.972 140.293 331.989 140.293H332.244C332.26 140.293 332.272 140.306 332.272 140.322V142.377Z" fill="#FFFFFE"/>
</g>
<g opacity="0.6" filter="url(#filter7_f_223_9593)">
<circle cx="348.58" cy="125.334" r="5.39216" fill="#C4CBDA"/>
</g>
</g>
<rect x="319.435" y="126.439" width="31.125" height="31.125" rx="7.22917" stroke="url(#paint4_linear_223_9593)" stroke-width="0.541667"/>
</g>
<rect x="43.2708" y="154.271" width="39.4583" height="39.4583" rx="8.0625" stroke="#D0D5DD" stroke-width="0.541667"/>
<g filter="url(#filter8_di_223_9593)">
<g clip-path="url(#clip4_223_9593)">
<rect x="47.1641" y="158.168" width="31.6667" height="31.6667" rx="7.5" fill="white"/>
<path d="M67.8594 171.915L68.7274 170.005L70.6372 169.137L68.7274 168.269L67.8594 166.359L66.9913 168.269L65.0816 169.137L66.9913 170.005L67.8594 171.915Z" fill="#099250"/>
<path d="M67.8594 176.082L66.9913 177.991L65.0816 178.859L66.9913 179.727L67.8594 181.637L68.7274 179.727L70.6372 178.859L68.7274 177.991L67.8594 176.082Z" fill="#099250"/>
<path d="M62.651 172.262L60.9149 168.443L59.1788 172.262L55.3594 173.998L59.1788 175.734L60.9149 179.554L62.651 175.734L66.4705 173.998L62.651 172.262ZM61.6024 174.686L60.9149 176.2L60.2274 174.686L58.7135 173.998L60.2274 173.311L60.9149 171.797L61.6024 173.311L63.1163 173.998L61.6024 174.686Z" fill="#099250"/>
<g opacity="0.6" filter="url(#filter9_f_223_9593)">
<circle cx="76.5797" cy="157.334" r="5.39216" fill="#C4CBDA"/>
</g>
</g>
<rect x="47.4349" y="158.439" width="31.125" height="31.125" rx="7.22917" stroke="url(#paint5_linear_223_9593)" stroke-width="0.541667"/>
</g>
<rect x="315.271" y="186.271" width="39.4583" height="39.4583" rx="8.0625" stroke="#D0D5DD" stroke-width="0.541667"/>
<g filter="url(#filter10_di_223_9593)">
<g clip-path="url(#clip5_223_9593)">
<rect x="319.164" y="190.168" width="31.6667" height="31.6667" rx="7.5" fill="white"/>
<path d="M333.609 204.533C333.609 205.649 334.175 206.853 335.421 206.853C336.345 206.853 337.279 206.131 337.279 204.516C337.279 203.1 336.545 202.15 335.452 202.15C334.561 202.15 333.609 202.775 333.609 204.533ZM335.891 200.082C338.125 200.082 339.627 201.851 339.627 204.485C339.627 207.078 338.044 208.887 335.782 208.887C334.704 208.887 334.013 208.425 333.652 208.091C333.654 208.17 333.656 208.259 333.656 208.354V211.869H331.342V202.503C331.342 202.367 331.298 202.324 331.163 202.324H330.367V200.272H332.309C333.203 200.272 333.432 200.728 333.476 201.078C333.839 200.672 334.591 200.082 335.891 200.082Z" fill="#027737"/>
<g opacity="0.6" filter="url(#filter11_f_223_9593)">
<circle cx="348.58" cy="189.334" r="5.39216" fill="#C4CBDA"/>
</g>
</g>
<rect x="319.435" y="190.439" width="31.125" height="31.125" rx="7.22917" stroke="url(#paint6_linear_223_9593)" stroke-width="0.541667"/>
</g>
<rect x="111.271" y="186.271" width="39.4583" height="39.4583" rx="8.0625" stroke="#D0D5DD" stroke-width="0.541667"/>
<g filter="url(#filter12_di_223_9593)">
<g clip-path="url(#clip6_223_9593)">
<rect x="115.164" y="190.168" width="31.6667" height="31.6667" rx="7.5" fill="white"/>
<g clip-path="url(#clip7_223_9593)">
<path d="M136.814 211.757H134.367V207.963C134.367 207.058 134.35 205.893 133.094 205.893C131.82 205.893 131.625 206.879 131.625 207.897V211.757H129.178V203.954H131.527V205.02H131.56C131.795 204.622 132.134 204.295 132.543 204.073C132.951 203.851 133.412 203.743 133.877 203.76C136.358 203.76 136.815 205.375 136.815 207.477L136.814 211.757ZM126.417 202.887C126.136 202.888 125.861 202.805 125.628 202.651C125.394 202.496 125.212 202.277 125.104 202.02C124.997 201.763 124.969 201.48 125.023 201.207C125.078 200.935 125.213 200.684 125.412 200.487C125.611 200.291 125.864 200.157 126.139 200.102C126.414 200.048 126.7 200.076 126.959 200.182C127.219 200.289 127.441 200.469 127.597 200.7C127.753 200.931 127.836 201.203 127.836 201.481C127.836 201.666 127.8 201.849 127.728 202.019C127.657 202.19 127.552 202.345 127.421 202.475C127.289 202.606 127.132 202.71 126.96 202.78C126.788 202.851 126.603 202.887 126.417 202.887ZM127.64 211.757H125.19V203.954H127.64V211.757ZM138.034 197.825H123.961C123.641 197.822 123.334 197.944 123.105 198.165C122.877 198.386 122.746 198.688 122.742 199.004V212.996C122.746 213.312 122.876 213.614 123.105 213.836C123.333 214.057 123.641 214.179 123.961 214.176H138.034C138.354 214.18 138.663 214.058 138.892 213.837C139.121 213.615 139.253 213.313 139.257 212.996V199.003C139.253 198.686 139.121 198.384 138.892 198.163C138.662 197.942 138.354 197.82 138.034 197.824" fill="#0A66C2"/>
</g>
<g opacity="0.6" filter="url(#filter13_f_223_9593)">
<circle cx="144.58" cy="189.334" r="5.39216" fill="#C4CBDA"/>
</g>
</g>
<rect x="115.435" y="190.439" width="31.125" height="31.125" rx="7.22917" stroke="url(#paint7_linear_223_9593)" stroke-width="0.541667"/>
</g>
<rect x="383.271" y="218.271" width="39.4583" height="39.4583" rx="8.0625" stroke="#D0D5DD" stroke-width="0.541667"/>
<g filter="url(#filter14_di_223_9593)">
<g clip-path="url(#clip8_223_9593)">
<rect x="387.164" y="222.168" width="31.6667" height="31.6667" rx="7.5" fill="white"/>
<path d="M408.205 234.878L408.858 233.447L410.288 232.794L408.858 232.141L408.205 230.711L407.552 232.141L406.122 232.794L407.552 233.447L408.205 234.878Z" fill="#1570EF"/>
<path d="M400.219 234.878L400.872 233.447L402.302 232.794L400.872 232.141L400.219 230.711L399.566 232.141L398.135 232.794L399.566 233.447L400.219 234.878Z" fill="#1570EF"/>
<path d="M408.205 238.697L407.552 240.128L406.122 240.78L407.552 241.433L408.205 242.864L408.858 241.433L410.288 240.78L408.858 240.128L408.205 238.697Z" fill="#1570EF"/>
<path d="M406.615 236.35L404.649 234.385C404.51 234.253 404.337 234.183 404.156 234.183C403.976 234.183 403.802 234.253 403.663 234.385L395.906 242.141C395.635 242.412 395.635 242.85 395.906 243.121L397.872 245.086C398.01 245.225 398.184 245.294 398.365 245.294C398.545 245.294 398.719 245.225 398.858 245.093L406.615 237.336C406.885 237.065 406.885 236.621 406.615 236.35ZM404.156 235.864L405.135 236.843L404.323 237.655L403.344 236.676L404.156 235.864ZM398.365 243.621L397.385 242.641L402.365 237.655L403.344 238.635L398.365 243.621Z" fill="#1570EF"/>
<g opacity="0.6" filter="url(#filter15_f_223_9593)">
<circle cx="416.58" cy="221.334" r="5.39216" fill="#C4CBDA"/>
</g>
</g>
<rect x="387.435" y="222.439" width="31.125" height="31.125" rx="7.22917" stroke="url(#paint8_linear_223_9593)" stroke-width="0.541667"/>
</g>
<rect x="43.2708" y="218.271" width="39.4583" height="39.4583" rx="8.0625" stroke="#D0D5DD" stroke-width="0.541667"/>
<g filter="url(#filter16_di_223_9593)">
<g clip-path="url(#clip9_223_9593)">
<rect x="47.1641" y="222.168" width="31.6667" height="31.6667" rx="7.5" fill="white"/>
<path fill-rule="evenodd" clip-rule="evenodd" d="M55.5312 232.793C55.5312 231.738 56.3863 230.883 57.441 230.883H68.5521C69.6068 230.883 70.4618 231.738 70.4618 232.793V236.612C70.4618 236.9 70.2286 237.133 69.941 237.133C69.6533 237.133 69.4201 236.9 69.4201 236.612V234.328L63.8493 237.113C63.3117 237.382 62.6788 237.382 62.1412 237.113L56.5729 234.329V241.126C56.5729 241.605 56.9616 241.994 57.441 241.994H61.2604C61.5481 241.994 61.7813 242.227 61.7813 242.515C61.7813 242.802 61.5481 243.036 61.2604 243.036H57.441C56.3863 243.036 55.5312 242.181 55.5312 241.126V232.793ZM69.4201 232.793V233.163L63.3834 236.182C63.1391 236.304 62.8514 236.304 62.607 236.182L56.5729 233.165V232.793C56.5729 232.313 56.9616 231.924 57.441 231.924H68.5521C69.0315 231.924 69.4201 232.313 69.4201 232.793ZM66.4677 237.133C64.2624 237.133 62.4746 238.921 62.4746 241.126C62.4746 243.331 64.2624 245.119 66.4677 245.119C68.673 245.119 70.4607 243.331 70.4607 241.126C70.4607 238.921 68.673 237.133 66.4677 237.133ZM63.5163 241.126C63.5163 239.496 64.8377 238.174 66.4677 238.174C68.0977 238.174 69.4191 239.496 69.4191 241.126C69.4191 242.756 68.0977 244.077 66.4677 244.077C64.8377 244.077 63.5163 242.756 63.5163 241.126ZM68.2567 240.418C68.4408 240.197 68.411 239.868 68.19 239.684C67.969 239.5 67.6406 239.53 67.4564 239.751L66.0854 241.396L65.4471 240.758C65.2437 240.554 64.9139 240.554 64.7105 240.758C64.5071 240.961 64.5071 241.291 64.7105 241.494L65.7522 242.536C65.8556 242.639 65.9979 242.694 66.144 242.688C66.2902 242.681 66.4269 242.613 66.5206 242.501L68.2567 240.418Z" fill="#475467"/>
<path opacity="0.4" d="M69.9192 240.283C69.9206 238.456 69.9211 236.362 69.9163 236.139L69.6489 233.141L65.1193 235.707C63.3495 236.71 62.6017 236.71 60.8318 235.707L56.3084 233.144C56.0911 233.843 56.0713 234.772 56.0422 236.139C56.0276 236.825 56.0276 237.507 56.0422 238.193C56.0876 240.327 56.4029 241.69 56.8962 242.184C57.2282 242.516 58.7759 242.307 60.9635 242.362H63.1068C63.0001 242.168 63.0001 242.168 62.9757 241.668C62.9757 239.75 64.5303 238.195 66.4479 238.195C68.1134 238.195 69.505 239.368 69.8422 240.933C69.8924 240.724 69.9192 240.283 69.9192 240.283Z" fill="#475467"/>
<g opacity="0.6" filter="url(#filter17_f_223_9593)">
<circle cx="76.5797" cy="221.334" r="5.39216" fill="#C4CBDA"/>
</g>
</g>
<rect x="47.4349" y="222.439" width="31.125" height="31.125" rx="7.22917" stroke="url(#paint9_linear_223_9593)" stroke-width="0.541667"/>
</g>
<rect x="315.271" y="250.271" width="39.4583" height="39.4583" rx="8.0625" stroke="#D0D5DD" stroke-width="0.541667"/>
<g filter="url(#filter18_di_223_9593)">
<g clip-path="url(#clip10_223_9593)">
<rect x="319.164" y="254.168" width="31.6667" height="31.6667" rx="7.5" fill="white"/>
<path d="M330.479 265.139C330.479 264.756 330.79 264.445 331.174 264.445H331.18C331.563 264.445 331.874 264.756 331.874 265.139C331.874 265.523 331.563 265.834 331.18 265.834H331.174C330.79 265.834 330.479 265.523 330.479 265.139Z" fill="#7839EE"/>
<path d="M333.251 265.139C333.251 264.756 333.562 264.445 333.945 264.445H333.951C334.335 264.445 334.646 264.756 334.646 265.139C334.646 265.523 334.335 265.834 333.951 265.834H333.945C333.562 265.834 333.251 265.523 333.251 265.139Z" fill="#7839EE"/>
<path fill-rule="evenodd" clip-rule="evenodd" d="M328.917 267.743V274.514C328.917 274.993 329.305 275.382 329.785 275.382H330.132C330.42 275.382 330.653 275.615 330.653 275.902C330.653 276.19 330.42 276.423 330.132 276.423H329.785C328.73 276.423 327.875 275.568 327.875 274.514V264.451C327.875 263.396 328.729 262.541 329.784 262.541L340.2 262.535C341.255 262.535 342.111 263.39 342.111 264.445V274.514C342.111 275.568 341.256 276.423 340.201 276.423H339.854C339.567 276.423 339.333 276.19 339.333 275.902C339.333 275.615 339.567 275.382 339.854 275.382H340.201C340.681 275.382 341.069 274.993 341.069 274.514V267.743H328.917ZM340.201 263.577C340.681 263.577 341.069 263.965 341.069 264.445V266.702H328.917V264.451C328.917 263.971 329.305 263.583 329.784 263.582L340.201 263.577Z" fill="#7839EE"/>
<path d="M334.998 273.39C335.688 273.39 336.305 273.719 336.786 274.093L336.963 274.236C337.363 274.578 337.677 274.952 337.87 275.204L337.941 275.314C338.063 275.544 338.063 275.817 337.941 276.046L337.87 276.156C337.677 276.408 337.363 276.781 336.963 277.123L336.786 277.268C336.305 277.642 335.688 277.971 334.998 277.971C334.395 277.971 333.848 277.718 333.397 277.404L333.211 277.268C332.847 276.985 332.543 276.663 332.32 276.398L332.126 276.156C331.909 275.873 331.909 275.487 332.126 275.204L332.32 274.962C332.543 274.697 332.847 274.375 333.211 274.093L333.397 273.955C333.847 273.641 334.395 273.39 334.998 273.39ZM334.998 273.983C334.559 273.983 334.13 274.169 333.74 274.44L333.575 274.562C333.253 274.812 332.979 275.101 332.776 275.343L332.598 275.564C332.544 275.634 332.544 275.725 332.598 275.795L332.776 276.018C332.979 276.259 333.253 276.548 333.575 276.798L333.74 276.92C334.13 277.191 334.559 277.377 334.998 277.377C335.5 277.377 335.989 277.134 336.422 276.798L336.578 276.67C336.934 276.366 337.22 276.029 337.399 275.795L337.429 275.739C337.442 275.7 337.442 275.659 337.429 275.62L337.399 275.564C337.22 275.331 336.934 274.994 336.578 274.689L336.422 274.562C335.989 274.225 335.5 273.983 334.998 273.983ZM334.999 274.876C335.444 274.876 335.805 275.237 335.805 275.682C335.805 276.126 335.444 276.487 334.999 276.487C334.554 276.487 334.193 276.126 334.193 275.682C334.193 275.237 334.554 274.876 334.999 274.876Z" fill="#7839EE" stroke="#7839EE" stroke-width="0.166667" stroke-linejoin="round"/>
<path opacity="0.4" d="M341.944 272.466C341.872 273.924 341.656 274.833 341.009 275.48C340.363 276.126 337.685 275.905 337.685 275.905C337.685 275.905 337.497 276.025 337.497 275.418C337.497 274.812 336.756 274.408 336.663 274.168C336.54 273.849 336.961 274.3 336.663 274.168C336.44 274.069 336.396 273.752 335.83 273.752H334.58C334.014 273.752 333.97 273.908 333.747 274.007C333.449 274.139 333.037 274.266 332.913 274.585L332.08 275.905C332.122 275.882 329.442 275.905 329.442 275.905C328.795 275.258 328.822 273.924 328.75 272.466V267.734H341.944V272.466Z" fill="#7839EE"/>
<g opacity="0.6" filter="url(#filter19_f_223_9593)">
<circle cx="348.58" cy="253.334" r="5.39216" fill="#C4CBDA"/>
</g>
</g>
<rect x="319.435" y="254.439" width="31.125" height="31.125" rx="7.22917" stroke="url(#paint10_linear_223_9593)" stroke-width="0.541667"/>
</g>
<rect x="111.271" y="250.271" width="39.4583" height="39.4583" rx="8.0625" stroke="#D0D5DD" stroke-width="0.541667"/>
<g filter="url(#filter20_di_223_9593)">
<g clip-path="url(#clip11_223_9593)">
<rect x="115.164" y="254.168" width="31.6667" height="31.6667" rx="7.5" fill="white"/>
<g clip-path="url(#clip12_223_9593)">
<path fill-rule="evenodd" clip-rule="evenodd" d="M134.772 273.814C133.481 273.814 132.434 272.779 132.434 271.501C132.434 270.224 133.481 269.188 134.772 269.188C136.063 269.188 137.109 270.224 137.109 271.501C137.109 272.779 136.063 273.814 134.772 273.814ZM135.471 267.048V264.99C136.014 264.736 136.394 264.193 136.394 263.563V263.515C136.394 262.645 135.675 261.933 134.795 261.933H134.748C133.868 261.933 133.149 262.645 133.149 263.515V263.563C133.149 264.193 133.529 264.737 134.072 264.99V267.048C133.263 267.172 132.525 267.501 131.916 267.987L126.207 263.592C126.245 263.449 126.271 263.301 126.271 263.146C126.272 262.161 125.466 261.361 124.47 261.359C123.474 261.358 122.665 262.156 122.664 263.142C122.663 264.128 123.469 264.928 124.465 264.929C124.79 264.929 125.09 264.838 125.354 264.69L130.97 269.013C130.492 269.727 130.212 270.581 130.212 271.501C130.212 272.464 130.52 273.355 131.039 274.088L129.331 275.778C129.196 275.738 129.057 275.71 128.908 275.71C128.09 275.71 127.426 276.367 127.426 277.177C127.426 277.987 128.09 278.643 128.908 278.643C129.727 278.643 130.39 277.987 130.39 277.177C130.39 277.03 130.362 276.891 130.321 276.758L132.011 275.086C132.777 275.665 133.732 276.013 134.772 276.013C137.29 276.013 139.331 273.993 139.331 271.501C139.331 269.246 137.656 267.382 135.471 267.048Z" fill="#FF7A59"/>
</g>
<g opacity="0.6" filter="url(#filter21_f_223_9593)">
<circle cx="144.58" cy="253.334" r="5.39216" fill="#C4CBDA"/>
</g>
</g>
<rect x="115.435" y="254.439" width="31.125" height="31.125" rx="7.22917" stroke="url(#paint11_linear_223_9593)" stroke-width="0.541667"/>
</g>
<rect x="179.271" y="250.271" width="39.4583" height="39.4583" rx="8.0625" stroke="#D0D5DD" stroke-width="0.541667"/>
<g filter="url(#filter22_di_223_9593)">
<g clip-path="url(#clip13_223_9593)">
<rect x="183.164" y="254.168" width="31.6667" height="31.6667" rx="7.5" fill="white"/>
<g clip-path="url(#clip14_223_9593)">
<path d="M204.777 265.527H202.414L203.643 267.575L204.777 265.527Z" fill="#FFC127"/>
<path d="M206.102 273.688L204.527 271.01L199.486 262.691L190.664 277.311H195.39C196.02 277.311 196.65 277.154 197.186 276.839C197.721 276.524 198.194 276.114 198.509 275.578L200.935 271.545L199.58 269.308L196.65 274.192C196.493 274.476 196.241 274.696 195.957 274.854C195.674 275.011 195.358 275.106 195.043 275.106H194.697L199.486 267.134L205.598 277.28H207.331V275.673L206.102 273.688Z" fill="black"/>
</g>
<g opacity="0.6" filter="url(#filter23_f_223_9593)">
<circle cx="212.58" cy="253.334" r="5.39216" fill="#C4CBDA"/>
</g>
</g>
<rect x="183.435" y="254.439" width="31.125" height="31.125" rx="7.22917" stroke="url(#paint12_linear_223_9593)" stroke-width="0.541667"/>
</g>
<rect x="247.271" y="250.271" width="39.4583" height="39.4583" rx="8.0625" stroke="#D0D5DD" stroke-width="0.541667"/>
<g filter="url(#filter24_di_223_9593)">
<g clip-path="url(#clip15_223_9593)">
<rect x="251.164" y="254.168" width="31.6667" height="31.6667" rx="7.5" fill="white"/>
<path d="M258.664 263.765C258.664 262.607 259.603 261.668 260.761 261.668H273.233C274.392 261.668 275.331 262.607 275.331 263.765V276.237C275.331 277.396 274.392 278.335 273.233 278.335H260.761C259.603 278.335 258.664 277.396 258.664 276.237V263.765Z" fill="#6E58F1"/>
<path d="M261.07 268.716C261.07 267.279 262.231 266.113 263.663 266.113H263.813C264.418 266.113 264.91 266.606 264.91 267.214V270.218C264.91 270.826 264.418 271.319 263.813 271.319H263.663C262.231 271.319 261.07 270.154 261.07 268.716Z" fill="white"/>
<path d="M265.5 266.575C265.5 266.296 265.663 266.043 265.917 265.929L269.692 264.231C270.159 264.021 270.686 264.364 270.686 264.877V272.616C270.686 273.133 270.153 273.476 269.685 273.259L265.91 271.512C265.66 271.396 265.5 271.145 265.5 270.869V270.511C265.5 270.216 265.682 269.952 265.956 269.848L268.06 269.051C268.365 268.935 268.365 268.503 268.06 268.388L265.956 267.591C265.682 267.487 265.5 267.223 265.5 266.928V266.575Z" fill="white"/>
<path d="M272.924 269.341V269.183C272.924 268.312 272.22 267.605 271.352 267.605C271.309 267.605 271.273 267.641 271.273 267.684V270.84C271.273 270.883 271.309 270.918 271.352 270.918C272.22 270.918 272.924 270.212 272.924 269.341Z" fill="white"/>
<path d="M263.664 272.327C263.664 272.172 263.789 272.047 263.943 272.047H265.405C265.56 272.047 265.685 272.172 265.685 272.327V274.819C265.685 275.379 265.232 275.833 264.674 275.833C264.116 275.833 263.664 275.379 263.664 274.819V272.327Z" fill="white"/>
<g opacity="0.6" filter="url(#filter25_f_223_9593)">
<circle cx="280.58" cy="253.334" r="5.39216" fill="#C4CBDA"/>
</g>
</g>
<rect x="251.435" y="254.439" width="31.125" height="31.125" rx="7.22917" stroke="url(#paint13_linear_223_9593)" stroke-width="0.541667"/>
</g>
<rect x="315.271" y="58.2708" width="39.4583" height="39.4583" rx="8.0625" stroke="#D0D5DD" stroke-width="0.541667"/>
<g filter="url(#filter26_di_223_9593)">
<g clip-path="url(#clip16_223_9593)">
<rect x="319.164" y="62.168" width="31.6667" height="31.6667" rx="7.5" fill="white"/>
<g clip-path="url(#clip17_223_9593)">
<path d="M327.803 84.2506H330.462V77.822L326.664 74.9648V83.1122C326.664 83.7372 327.178 84.2506 327.803 84.2506Z" fill="#4285F4"/>
<path d="M339.555 84.2506H342.213C342.839 84.2506 343.353 83.7372 343.353 83.1122V74.9648L339.555 77.7997" fill="#34A853"/>
<path d="M339.555 72.8889V77.8219L343.353 74.9871V73.4469C343.353 72.0407 341.744 71.2371 340.627 72.0853" fill="#FBBC04"/>
<path d="M330.461 77.8237V72.8906L335.019 76.3058L339.554 72.8906V77.8237L334.996 81.2165" fill="#EA4335"/>
<path d="M326.664 73.4451V74.963L330.462 77.7978V72.8871L329.39 72.0835C328.273 71.2576 326.664 72.0612 326.664 73.4451Z" fill="#C5221F"/>
</g>
<g opacity="0.6" filter="url(#filter27_f_223_9593)">
<circle cx="348.58" cy="61.3336" r="5.39216" fill="#C4CBDA"/>
</g>
</g>
<rect x="319.435" y="62.4388" width="31.125" height="31.125" rx="7.22917" stroke="url(#paint14_linear_223_9593)" stroke-width="0.541667"/>
</g>
<rect x="111.271" y="58.2708" width="39.4583" height="39.4583" rx="8.0625" stroke="#D0D5DD" stroke-width="0.541667"/>
<g filter="url(#filter28_di_223_9593)">
<g clip-path="url(#clip18_223_9593)">
<rect x="115.164" y="62.168" width="31.6667" height="31.6667" rx="7.5" fill="white"/>
<g clip-path="url(#clip19_223_9593)">
<g filter="url(#filter29_d_223_9593)">
<path d="M138.333 78.1758C138.333 77.6341 138.285 77.1133 138.194 76.6133H131V79.5681H135.111C134.934 80.523 134.396 81.332 133.587 81.8737V83.7904H136.056C137.5 82.4605 138.333 80.5022 138.333 78.1758Z" fill="#4285F4"/>
<path d="M130.998 85.6406C133.061 85.6406 134.79 84.9566 136.054 83.7899L133.585 81.8733C132.901 82.3316 132.026 82.6024 130.998 82.6024C129.009 82.6024 127.325 81.2587 126.724 79.4531H124.172V81.4323C125.429 83.9288 128.012 85.6406 130.998 85.6406Z" fill="#34A853"/>
<path d="M126.724 79.4523C126.571 78.9939 126.484 78.5043 126.484 78.0009C126.484 77.4974 126.571 77.0078 126.724 76.5495V74.5703H124.172C123.637 75.6348 123.359 76.8096 123.359 78.0009C123.359 79.2335 123.655 80.4002 124.172 81.4314L126.724 79.4523Z" fill="#FBBC05"/>
<path d="M130.998 73.4015C132.12 73.4015 133.127 73.7869 133.918 74.5438L136.109 72.3529C134.786 71.1202 133.057 70.3633 130.998 70.3633C128.012 70.3633 125.429 72.0751 124.172 74.5716L126.724 76.5508C127.325 74.7452 129.009 73.4015 130.998 73.4015Z" fill="#EA4335"/>
</g>
</g>
<g opacity="0.6" filter="url(#filter30_f_223_9593)">
<circle cx="144.58" cy="61.3336" r="5.39216" fill="#C4CBDA"/>
</g>
</g>
<rect x="115.435" y="62.4388" width="31.125" height="31.125" rx="7.22917" stroke="url(#paint15_linear_223_9593)" stroke-width="0.541667"/>
</g>
<rect x="179.271" y="58.2708" width="39.4583" height="39.4583" rx="8.0625" stroke="#D0D5DD" stroke-width="0.541667"/>
<g filter="url(#filter31_di_223_9593)">
<g clip-path="url(#clip20_223_9593)">
<rect x="183.164" y="62.168" width="31.6667" height="31.6667" rx="7.5" fill="white"/>
<rect width="16.6667" height="16.6667" transform="translate(190.664 69.668)" fill="white"/>
<path d="M196.138 74.492C196.138 73.7124 196.888 73.0827 197.847 73.0827C199.077 73.0827 199.826 73.6524 200.246 76.6211H200.516L200.906 72.5729C198.117 71.6133 194.699 72.6329 194.639 75.5416C194.639 78.6902 199.646 78.6902 199.646 81.5689C199.646 82.4085 198.897 82.9782 198.057 82.9782C195.838 82.9782 195.328 81.1191 195.208 79.1699H194.938L194.219 82.8283C194.219 82.8283 195.868 83.7879 197.637 83.7879C199.766 83.7579 201.176 82.1986 201.236 80.5493C201.236 77.4007 196.138 76.741 196.138 74.492Z" fill="#06492E"/>
<path d="M201.5 82.7033C201.5 82.1035 201.98 81.5938 202.609 81.5938C203.269 81.5938 203.749 82.1035 203.749 82.7033C203.749 83.303 203.269 83.8127 202.64 83.8127C201.95 83.8427 201.5 83.303 201.5 82.7033Z" fill="#B4D625"/>
<g opacity="0.6" filter="url(#filter32_f_223_9593)">
<circle cx="212.58" cy="61.3336" r="5.39216" fill="#C4CBDA"/>
</g>
</g>
<rect x="183.435" y="62.4388" width="31.125" height="31.125" rx="7.22917" stroke="url(#paint16_linear_223_9593)" stroke-width="0.541667"/>
</g>
<rect x="247.271" y="58.2708" width="39.4583" height="39.4583" rx="8.0625" stroke="#D0D5DD" stroke-width="0.541667"/>
<g filter="url(#filter33_di_223_9593)">
<g clip-path="url(#clip21_223_9593)">
<rect x="251.164" y="62.168" width="31.6667" height="31.6667" rx="7.5" fill="white"/>
<path opacity="0.2" d="M273.25 73.3125L267 79.0417L260.75 73.3125H273.25Z" fill="#475467"/>
<path d="M273.247 72.793H260.747C260.609 72.793 260.477 72.8478 260.379 72.9455C260.281 73.0432 260.227 73.1757 260.227 73.3138V82.168C260.227 82.4442 260.336 82.7092 260.532 82.9045C260.727 83.0999 260.992 83.2096 261.268 83.2096H272.727C273.003 83.2096 273.268 83.0999 273.463 82.9045C273.658 82.7092 273.768 82.4442 273.768 82.168V73.3138C273.768 73.1757 273.713 73.0432 273.616 72.9455C273.518 72.8478 273.386 72.793 273.247 72.793ZM271.908 73.8346L266.997 78.3366L262.087 73.8346H271.908ZM272.727 82.168H261.268V74.498L266.645 79.4271C266.741 79.5153 266.867 79.5642 266.997 79.5642C267.128 79.5642 267.254 79.5153 267.35 79.4271L272.727 74.498V82.168Z" fill="#475467"/>
<g opacity="0.6" filter="url(#filter34_f_223_9593)">
<circle cx="280.58" cy="61.3336" r="5.39216" fill="#C4CBDA"/>
</g>
</g>
<rect x="251.435" y="62.4388" width="31.125" height="31.125" rx="7.22917" stroke="url(#paint17_linear_223_9593)" stroke-width="0.541667"/>
</g>
<rect x="383.271" y="90.2708" width="39.4583" height="39.4583" rx="8.0625" stroke="#D0D5DD" stroke-width="0.541667"/>
<g filter="url(#filter35_di_223_9593)">
<g clip-path="url(#clip22_223_9593)">
<rect x="387.164" y="94.168" width="31.6667" height="31.6667" rx="7.5" fill="white"/>
<path opacity="0.2" d="M408.729 114.69H398.312V104.273C399.68 104.273 401.035 104.543 402.299 105.066C403.563 105.59 404.711 106.357 405.678 107.324C406.645 108.292 407.413 109.44 407.936 110.704C408.46 111.968 408.729 113.322 408.729 114.69Z" fill="#475467"/>
<path d="M401.624 111.373C402.061 111.807 402.407 112.324 402.643 112.893C402.879 113.462 402.999 114.072 402.997 114.688C402.997 114.826 402.943 114.958 402.845 115.056C402.747 115.153 402.615 115.208 402.477 115.208C402.338 115.208 402.206 115.153 402.108 115.056C402.011 114.958 401.956 114.826 401.956 114.688C401.956 113.721 401.572 112.793 400.888 112.11C400.204 111.426 399.277 111.042 398.31 111.042C398.172 111.042 398.039 110.987 397.942 110.889C397.844 110.791 397.789 110.659 397.789 110.521C397.789 110.383 397.844 110.25 397.942 110.153C398.039 110.055 398.172 110 398.31 110C398.926 109.998 399.536 110.119 400.105 110.355C400.674 110.59 401.19 110.936 401.624 111.373ZM398.31 106.875C398.172 106.875 398.039 106.93 397.942 107.028C397.844 107.125 397.789 107.258 397.789 107.396C397.789 107.534 397.844 107.666 397.942 107.764C398.039 107.862 398.172 107.917 398.31 107.917C400.106 107.917 401.828 108.63 403.098 109.9C404.367 111.17 405.081 112.892 405.081 114.688C405.081 114.826 405.136 114.958 405.233 115.056C405.331 115.153 405.463 115.208 405.602 115.208C405.74 115.208 405.872 115.153 405.97 115.056C406.068 114.958 406.122 114.826 406.122 114.688C406.122 112.616 405.299 110.628 403.834 109.163C402.369 107.698 400.382 106.875 398.31 106.875ZM406.044 106.954C405.03 105.935 403.825 105.127 402.498 104.577C401.17 104.027 399.747 103.746 398.31 103.75C398.172 103.75 398.039 103.805 397.942 103.903C397.844 104 397.789 104.133 397.789 104.271C397.789 104.409 397.844 104.541 397.942 104.639C398.039 104.737 398.172 104.792 398.31 104.792C399.61 104.788 400.898 105.042 402.099 105.54C403.3 106.038 404.391 106.768 405.307 107.69C406.229 108.607 406.96 109.697 407.457 110.899C407.955 112.1 408.209 113.387 408.206 114.688C408.206 114.826 408.261 114.958 408.358 115.056C408.456 115.153 408.588 115.208 408.727 115.208C408.865 115.208 408.997 115.153 409.095 115.056C409.193 114.958 409.247 114.826 409.247 114.688C409.251 113.251 408.97 111.827 408.42 110.5C407.87 109.172 407.062 107.967 406.044 106.954ZM398.57 113.646C398.416 113.646 398.265 113.692 398.136 113.778C398.008 113.863 397.908 113.985 397.849 114.128C397.789 114.271 397.774 114.428 397.804 114.58C397.834 114.731 397.909 114.87 398.018 114.98C398.127 115.089 398.266 115.163 398.418 115.193C398.569 115.224 398.727 115.208 398.869 115.149C399.012 115.09 399.134 114.99 399.22 114.861C399.306 114.733 399.352 114.582 399.352 114.427C399.352 114.22 399.269 114.021 399.123 113.875C398.976 113.728 398.778 113.646 398.57 113.646Z" fill="#475467"/>
<g opacity="0.6" filter="url(#filter36_f_223_9593)">
<circle cx="416.58" cy="93.3336" r="5.39216" fill="#C4CBDA"/>
</g>
</g>
<rect x="387.435" y="94.4388" width="31.125" height="31.125" rx="7.22917" stroke="url(#paint18_linear_223_9593)" stroke-width="0.541667"/>
</g>
<rect x="111.271" y="122.271" width="39.4583" height="39.4583" rx="8.0625" stroke="#D0D5DD" stroke-width="0.541667"/>
<g filter="url(#filter37_di_223_9593)">
<g clip-path="url(#clip23_223_9593)">
<rect x="115.164" y="126.168" width="31.6667" height="31.6667" rx="7.5" fill="white"/>
<path fill-rule="evenodd" clip-rule="evenodd" d="M130.451 134.184C133.003 134.184 136.86 134.967 138.656 136.762C139.111 137.217 139.706 138.108 139.706 139.414C139.706 141.735 137.835 145.297 135.77 147.364C134.702 148.43 133.003 149.827 130.718 149.827C128.485 149.827 126.779 148.309 126.285 147.815C124.394 145.924 123.039 143.052 123.039 140.375C123.039 138.687 123.521 137.209 124.749 135.981C125.887 134.842 127.847 134.184 130.451 134.184ZM133.387 143.459C134.249 142.596 134.482 141.534 134.482 140.95C134.482 140.526 134.37 139.905 133.84 139.375C133.027 138.563 132.127 138.334 131.148 138.334C129.907 138.334 129.074 138.725 128.519 139.28C128.083 139.715 127.707 140.385 127.707 141.335C127.707 142.285 128.214 143.204 128.766 143.756C129.277 144.265 130.077 144.644 130.885 144.644C131.693 144.644 132.526 144.32 133.387 143.459Z" fill="#5951FF"/>
<g opacity="0.6" filter="url(#filter38_f_223_9593)">
<circle cx="144.58" cy="125.334" r="5.39216" fill="#C4CBDA"/>
</g>
</g>
<rect x="115.435" y="126.439" width="31.125" height="31.125" rx="7.22917" stroke="url(#paint19_linear_223_9593)" stroke-width="0.541667"/>
</g>
<rect x="383.271" y="154.271" width="39.4583" height="39.4583" rx="8.0625" stroke="#D0D5DD" stroke-width="0.541667"/>
<g filter="url(#filter39_di_223_9593)">
<g clip-path="url(#clip24_223_9593)">
<rect x="387.164" y="158.168" width="31.6667" height="31.6667" rx="7.5" fill="white"/>
<path fill-rule="evenodd" clip-rule="evenodd" d="M411.331 174.001C411.331 178.604 407.6 182.335 402.997 182.335C398.395 182.335 394.664 178.604 394.664 174.001C394.664 169.399 398.395 165.668 402.997 165.668C407.6 165.668 411.331 169.399 411.331 174.001ZM398.453 175.206H400.666C400.732 175.206 400.78 175.267 400.764 175.331L399.621 179.97C399.596 180.069 399.716 180.138 399.789 180.068L407.499 172.648C407.565 172.584 407.52 172.473 407.429 172.473H404.722C404.638 172.473 404.591 172.377 404.642 172.31L407.176 169.023C407.228 168.957 407.18 168.86 407.096 168.86H401.909L398.365 175.054C398.326 175.122 398.375 175.206 398.453 175.206Z" fill="#4580F6"/>
<g opacity="0.6" filter="url(#filter40_f_223_9593)">
<circle cx="416.58" cy="157.334" r="5.39216" fill="#C4CBDA"/>
</g>
</g>
<rect x="387.435" y="158.439" width="31.125" height="31.125" rx="7.22917" stroke="url(#paint20_linear_223_9593)" stroke-width="0.541667"/>
</g>
</g>
<defs>
<filter id="filter0_dd_223_9593" x="0" y="0" width="466" height="350" filterUnits="userSpaceOnUse" color-interpolation-filters="sRGB">
<feFlood flood-opacity="0" result="BackgroundImageFix"/>
<feColorMatrix in="SourceAlpha" type="matrix" values="0 0 0 0 0 0 0 0 0 0 0 0 0 0 0 0 0 0 127 0" result="hardAlpha"/>
<feOffset dy="1"/>
<feGaussianBlur stdDeviation="1"/>
<feColorMatrix type="matrix" values="0 0 0 0 0.0627451 0 0 0 0 0.0941176 0 0 0 0 0.156863 0 0 0 0.06 0"/>
<feBlend mode="normal" in2="BackgroundImageFix" result="effect1_dropShadow_223_9593"/>
<feColorMatrix in="SourceAlpha" type="matrix" values="0 0 0 0 0 0 0 0 0 0 0 0 0 0 0 0 0 0 127 0" result="hardAlpha"/>
<feOffset dy="1"/>
<feGaussianBlur stdDeviation="1.5"/>
<feColorMatrix type="matrix" values="0 0 0 0 0.0627451 0 0 0 0 0.0941176 0 0 0 0 0.156863 0 0 0 0.1 0"/>
<feBlend mode="normal" in2="effect1_dropShadow_223_9593" result="effect2_dropShadow_223_9593"/>
<feBlend mode="normal" in="SourceGraphic" in2="effect2_dropShadow_223_9593" result="shape"/>
</filter>
<filter id="filter1_di_223_9593" x="187.125" y="132.502" width="91.7419" height="91.7459" filterUnits="userSpaceOnUse" color-interpolation-filters="sRGB">
<feFlood flood-opacity="0" result="BackgroundImageFix"/>
<feColorMatrix in="SourceAlpha" type="matrix" values="0 0 0 0 0 0 0 0 0 0 0 0 0 0 0 0 0 0 127 0" result="hardAlpha"/>
<feOffset dy="4.3734"/>
<feGaussianBlur stdDeviation="7.289"/>
<feComposite in2="hardAlpha" operator="out"/>
<feColorMatrix type="matrix" values="0 0 0 0 1 0 0 0 0 0 0 0 0 0 0.364706 0 0 0 0.32 0"/>
<feBlend mode="normal" in2="BackgroundImageFix" result="effect1_dropShadow_223_9593"/>
<feBlend mode="normal" in="SourceGraphic" in2="effect1_dropShadow_223_9593" result="shape"/>
<feColorMatrix in="SourceAlpha" type="matrix" values="0 0 0 0 0 0 0 0 0 0 0 0 0 0 0 0 0 0 127 0" result="hardAlpha"/>
<feMorphology radius="0.986159" operator="erode" in="SourceAlpha" result="effect2_innerShadow_223_9593"/>
<feOffset dx="-1.97232" dy="-1.97232"/>
<feGaussianBlur stdDeviation="1.67478"/>
<feComposite in2="hardAlpha" operator="arithmetic" k2="-1" k3="1"/>
<feColorMatrix type="matrix" values="0 0 0 0 1 0 0 0 0 1 0 0 0 0 1 0 0 0 0.24 0"/>
<feBlend mode="normal" in2="shape" result="effect2_innerShadow_223_9593"/>
</filter>
<filter id="filter2_d_223_9593" x="213.145" y="155.135" width="39.7103" height="39.7103" filterUnits="userSpaceOnUse" color-interpolation-filters="sRGB">
<feFlood flood-opacity="0" result="BackgroundImageFix"/>
<feColorMatrix in="SourceAlpha" type="matrix" values="0 0 0 0 0 0 0 0 0 0 0 0 0 0 0 0 0 0 127 0" result="hardAlpha"/>
<feOffset dy="0.986159"/>
<feGaussianBlur stdDeviation="0.986159"/>
<feComposite in2="hardAlpha" operator="out"/>
<feColorMatrix type="matrix" values="0 0 0 0 0.68291 0 0 0 0 0 0 0 0 0 0.249061 0 0 0 0.44 0"/>
<feBlend mode="normal" in2="BackgroundImageFix" result="effect1_dropShadow_223_9593"/>
<feBlend mode="normal" in="SourceGraphic" in2="effect1_dropShadow_223_9593" result="shape"/>
</filter>
<filter id="filter3_f_223_9593" x="244.081" y="126.108" width="37.6747" height="37.6708" filterUnits="userSpaceOnUse" color-interpolation-filters="sRGB">
<feFlood flood-opacity="0" result="BackgroundImageFix"/>
<feBlend mode="normal" in="SourceGraphic" in2="BackgroundImageFix" result="shape"/>
<feGaussianBlur stdDeviation="4.48702" result="effect1_foregroundBlur_223_9593"/>
</filter>
<filter id="filter4_di_223_9593" x="41.9141" y="91.3093" width="42.1641" height="42.168" filterUnits="userSpaceOnUse" color-interpolation-filters="sRGB">
<feFlood flood-opacity="0" result="BackgroundImageFix"/>
<feColorMatrix in="SourceAlpha" type="matrix" values="0 0 0 0 0 0 0 0 0 0 0 0 0 0 0 0 0 0 127 0" result="hardAlpha"/>
<feOffset dy="2.3913"/>
<feGaussianBlur stdDeviation="2.625"/>
<feComposite in2="hardAlpha" operator="out"/>
<feColorMatrix type="matrix" values="0 0 0 0 0.0705882 0 0 0 0 0.0901961 0 0 0 0 0.137255 0 0 0 0.24 0"/>
<feBlend mode="normal" in2="BackgroundImageFix" result="effect1_dropShadow_223_9593"/>
<feBlend mode="normal" in="SourceGraphic" in2="effect1_dropShadow_223_9593" result="shape"/>
<feColorMatrix in="SourceAlpha" type="matrix" values="0 0 0 0 0 0 0 0 0 0 0 0 0 0 0 0 0 0 127 0" result="hardAlpha"/>
<feMorphology radius="0.539216" operator="erode" in="SourceAlpha" result="effect2_innerShadow_223_9593"/>
<feOffset dx="-1.07843" dy="-1.07843"/>
<feGaussianBlur stdDeviation="0.915743"/>
<feComposite in2="hardAlpha" operator="arithmetic" k2="-1" k3="1"/>
<feColorMatrix type="matrix" values="0 0 0 0 1 0 0 0 0 1 0 0 0 0 1 0 0 0 0.24 0"/>
<feBlend mode="normal" in2="shape" result="effect2_innerShadow_223_9593"/>
</filter>
<filter id="filter5_f_223_9593" x="66.2806" y="83.0345" width="20.595" height="20.5989" filterUnits="userSpaceOnUse" color-interpolation-filters="sRGB">
<feFlood flood-opacity="0" result="BackgroundImageFix"/>
<feBlend mode="normal" in="SourceGraphic" in2="BackgroundImageFix" result="shape"/>
<feGaussianBlur stdDeviation="2.45343" result="effect1_foregroundBlur_223_9593"/>
</filter>
<filter id="filter6_di_223_9593" x="313.914" y="123.309" width="42.1641" height="42.168" filterUnits="userSpaceOnUse" color-interpolation-filters="sRGB">
<feFlood flood-opacity="0" result="BackgroundImageFix"/>
<feColorMatrix in="SourceAlpha" type="matrix" values="0 0 0 0 0 0 0 0 0 0 0 0 0 0 0 0 0 0 127 0" result="hardAlpha"/>
<feOffset dy="2.3913"/>
<feGaussianBlur stdDeviation="2.625"/>
<feComposite in2="hardAlpha" operator="out"/>
<feColorMatrix type="matrix" values="0 0 0 0 0.0705882 0 0 0 0 0.0901961 0 0 0 0 0.137255 0 0 0 0.24 0"/>
<feBlend mode="normal" in2="BackgroundImageFix" result="effect1_dropShadow_223_9593"/>
<feBlend mode="normal" in="SourceGraphic" in2="effect1_dropShadow_223_9593" result="shape"/>
<feColorMatrix in="SourceAlpha" type="matrix" values="0 0 0 0 0 0 0 0 0 0 0 0 0 0 0 0 0 0 127 0" result="hardAlpha"/>
<feMorphology radius="0.539216" operator="erode" in="SourceAlpha" result="effect2_innerShadow_223_9593"/>
<feOffset dx="-1.07843" dy="-1.07843"/>
<feGaussianBlur stdDeviation="0.915743"/>
<feComposite in2="hardAlpha" operator="arithmetic" k2="-1" k3="1"/>
<feColorMatrix type="matrix" values="0 0 0 0 1 0 0 0 0 1 0 0 0 0 1 0 0 0 0.24 0"/>
<feBlend mode="normal" in2="shape" result="effect2_innerShadow_223_9593"/>
</filter>
<filter id="filter7_f_223_9593" x="338.281" y="115.035" width="20.595" height="20.5989" filterUnits="userSpaceOnUse" color-interpolation-filters="sRGB">
<feFlood flood-opacity="0" result="BackgroundImageFix"/>
<feBlend mode="normal" in="SourceGraphic" in2="BackgroundImageFix" result="shape"/>
<feGaussianBlur stdDeviation="2.45343" result="effect1_foregroundBlur_223_9593"/>
</filter>
<filter id="filter8_di_223_9593" x="41.9141" y="155.309" width="42.1641" height="42.168" filterUnits="userSpaceOnUse" color-interpolation-filters="sRGB">
<feFlood flood-opacity="0" result="BackgroundImageFix"/>
<feColorMatrix in="SourceAlpha" type="matrix" values="0 0 0 0 0 0 0 0 0 0 0 0 0 0 0 0 0 0 127 0" result="hardAlpha"/>
<feOffset dy="2.3913"/>
<feGaussianBlur stdDeviation="2.625"/>
<feComposite in2="hardAlpha" operator="out"/>
<feColorMatrix type="matrix" values="0 0 0 0 0.0705882 0 0 0 0 0.0901961 0 0 0 0 0.137255 0 0 0 0.24 0"/>
<feBlend mode="normal" in2="BackgroundImageFix" result="effect1_dropShadow_223_9593"/>
<feBlend mode="normal" in="SourceGraphic" in2="effect1_dropShadow_223_9593" result="shape"/>
<feColorMatrix in="SourceAlpha" type="matrix" values="0 0 0 0 0 0 0 0 0 0 0 0 0 0 0 0 0 0 127 0" result="hardAlpha"/>
<feMorphology radius="0.539216" operator="erode" in="SourceAlpha" result="effect2_innerShadow_223_9593"/>
<feOffset dx="-1.07843" dy="-1.07843"/>
<feGaussianBlur stdDeviation="0.915743"/>
<feComposite in2="hardAlpha" operator="arithmetic" k2="-1" k3="1"/>
<feColorMatrix type="matrix" values="0 0 0 0 1 0 0 0 0 1 0 0 0 0 1 0 0 0 0.24 0"/>
<feBlend mode="normal" in2="shape" result="effect2_innerShadow_223_9593"/>
</filter>
<filter id="filter9_f_223_9593" x="66.2806" y="147.035" width="20.595" height="20.5989" filterUnits="userSpaceOnUse" color-interpolation-filters="sRGB">
<feFlood flood-opacity="0" result="BackgroundImageFix"/>
<feBlend mode="normal" in="SourceGraphic" in2="BackgroundImageFix" result="shape"/>
<feGaussianBlur stdDeviation="2.45343" result="effect1_foregroundBlur_223_9593"/>
</filter>
<filter id="filter10_di_223_9593" x="313.914" y="187.309" width="42.1641" height="42.168" filterUnits="userSpaceOnUse" color-interpolation-filters="sRGB">
<feFlood flood-opacity="0" result="BackgroundImageFix"/>
<feColorMatrix in="SourceAlpha" type="matrix" values="0 0 0 0 0 0 0 0 0 0 0 0 0 0 0 0 0 0 127 0" result="hardAlpha"/>
<feOffset dy="2.3913"/>
<feGaussianBlur stdDeviation="2.625"/>
<feComposite in2="hardAlpha" operator="out"/>
<feColorMatrix type="matrix" values="0 0 0 0 0.0705882 0 0 0 0 0.0901961 0 0 0 0 0.137255 0 0 0 0.24 0"/>
<feBlend mode="normal" in2="BackgroundImageFix" result="effect1_dropShadow_223_9593"/>
<feBlend mode="normal" in="SourceGraphic" in2="effect1_dropShadow_223_9593" result="shape"/>
<feColorMatrix in="SourceAlpha" type="matrix" values="0 0 0 0 0 0 0 0 0 0 0 0 0 0 0 0 0 0 127 0" result="hardAlpha"/>
<feMorphology radius="0.539216" operator="erode" in="SourceAlpha" result="effect2_innerShadow_223_9593"/>
<feOffset dx="-1.07843" dy="-1.07843"/>
<feGaussianBlur stdDeviation="0.915743"/>
<feComposite in2="hardAlpha" operator="arithmetic" k2="-1" k3="1"/>
<feColorMatrix type="matrix" values="0 0 0 0 1 0 0 0 0 1 0 0 0 0 1 0 0 0 0.24 0"/>
<feBlend mode="normal" in2="shape" result="effect2_innerShadow_223_9593"/>
</filter>
<filter id="filter11_f_223_9593" x="338.281" y="179.035" width="20.595" height="20.5989" filterUnits="userSpaceOnUse" color-interpolation-filters="sRGB">
<feFlood flood-opacity="0" result="BackgroundImageFix"/>
<feBlend mode="normal" in="SourceGraphic" in2="BackgroundImageFix" result="shape"/>
<feGaussianBlur stdDeviation="2.45343" result="effect1_foregroundBlur_223_9593"/>
</filter>
<filter id="filter12_di_223_9593" x="109.914" y="187.309" width="42.1641" height="42.168" filterUnits="userSpaceOnUse" color-interpolation-filters="sRGB">
<feFlood flood-opacity="0" result="BackgroundImageFix"/>
<feColorMatrix in="SourceAlpha" type="matrix" values="0 0 0 0 0 0 0 0 0 0 0 0 0 0 0 0 0 0 127 0" result="hardAlpha"/>
<feOffset dy="2.3913"/>
<feGaussianBlur stdDeviation="2.625"/>
<feComposite in2="hardAlpha" operator="out"/>
<feColorMatrix type="matrix" values="0 0 0 0 0.0705882 0 0 0 0 0.0901961 0 0 0 0 0.137255 0 0 0 0.24 0"/>
<feBlend mode="normal" in2="BackgroundImageFix" result="effect1_dropShadow_223_9593"/>
<feBlend mode="normal" in="SourceGraphic" in2="effect1_dropShadow_223_9593" result="shape"/>
<feColorMatrix in="SourceAlpha" type="matrix" values="0 0 0 0 0 0 0 0 0 0 0 0 0 0 0 0 0 0 127 0" result="hardAlpha"/>
<feMorphology radius="0.539216" operator="erode" in="SourceAlpha" result="effect2_innerShadow_223_9593"/>
<feOffset dx="-1.07843" dy="-1.07843"/>
<feGaussianBlur stdDeviation="0.915743"/>
<feComposite in2="hardAlpha" operator="arithmetic" k2="-1" k3="1"/>
<feColorMatrix type="matrix" values="0 0 0 0 1 0 0 0 0 1 0 0 0 0 1 0 0 0 0.24 0"/>
<feBlend mode="normal" in2="shape" result="effect2_innerShadow_223_9593"/>
</filter>
<filter id="filter13_f_223_9593" x="134.281" y="179.035" width="20.595" height="20.5989" filterUnits="userSpaceOnUse" color-interpolation-filters="sRGB">
<feFlood flood-opacity="0" result="BackgroundImageFix"/>
<feBlend mode="normal" in="SourceGraphic" in2="BackgroundImageFix" result="shape"/>
<feGaussianBlur stdDeviation="2.45343" result="effect1_foregroundBlur_223_9593"/>
</filter>
<filter id="filter14_di_223_9593" x="381.914" y="219.309" width="42.1641" height="42.168" filterUnits="userSpaceOnUse" color-interpolation-filters="sRGB">
<feFlood flood-opacity="0" result="BackgroundImageFix"/>
<feColorMatrix in="SourceAlpha" type="matrix" values="0 0 0 0 0 0 0 0 0 0 0 0 0 0 0 0 0 0 127 0" result="hardAlpha"/>
<feOffset dy="2.3913"/>
<feGaussianBlur stdDeviation="2.625"/>
<feComposite in2="hardAlpha" operator="out"/>
<feColorMatrix type="matrix" values="0 0 0 0 0.0705882 0 0 0 0 0.0901961 0 0 0 0 0.137255 0 0 0 0.24 0"/>
<feBlend mode="normal" in2="BackgroundImageFix" result="effect1_dropShadow_223_9593"/>
<feBlend mode="normal" in="SourceGraphic" in2="effect1_dropShadow_223_9593" result="shape"/>
<feColorMatrix in="SourceAlpha" type="matrix" values="0 0 0 0 0 0 0 0 0 0 0 0 0 0 0 0 0 0 127 0" result="hardAlpha"/>
<feMorphology radius="0.539216" operator="erode" in="SourceAlpha" result="effect2_innerShadow_223_9593"/>
<feOffset dx="-1.07843" dy="-1.07843"/>
<feGaussianBlur stdDeviation="0.915743"/>
<feComposite in2="hardAlpha" operator="arithmetic" k2="-1" k3="1"/>
<feColorMatrix type="matrix" values="0 0 0 0 1 0 0 0 0 1 0 0 0 0 1 0 0 0 0.24 0"/>
<feBlend mode="normal" in2="shape" result="effect2_innerShadow_223_9593"/>
</filter>
<filter id="filter15_f_223_9593" x="406.281" y="211.035" width="20.595" height="20.5989" filterUnits="userSpaceOnUse" color-interpolation-filters="sRGB">
<feFlood flood-opacity="0" result="BackgroundImageFix"/>
<feBlend mode="normal" in="SourceGraphic" in2="BackgroundImageFix" result="shape"/>
<feGaussianBlur stdDeviation="2.45343" result="effect1_foregroundBlur_223_9593"/>
</filter>
<filter id="filter16_di_223_9593" x="41.9141" y="219.309" width="42.1641" height="42.168" filterUnits="userSpaceOnUse" color-interpolation-filters="sRGB">
<feFlood flood-opacity="0" result="BackgroundImageFix"/>
<feColorMatrix in="SourceAlpha" type="matrix" values="0 0 0 0 0 0 0 0 0 0 0 0 0 0 0 0 0 0 127 0" result="hardAlpha"/>
<feOffset dy="2.3913"/>
<feGaussianBlur stdDeviation="2.625"/>
<feComposite in2="hardAlpha" operator="out"/>
<feColorMatrix type="matrix" values="0 0 0 0 0.0705882 0 0 0 0 0.0901961 0 0 0 0 0.137255 0 0 0 0.24 0"/>
<feBlend mode="normal" in2="BackgroundImageFix" result="effect1_dropShadow_223_9593"/>
<feBlend mode="normal" in="SourceGraphic" in2="effect1_dropShadow_223_9593" result="shape"/>
<feColorMatrix in="SourceAlpha" type="matrix" values="0 0 0 0 0 0 0 0 0 0 0 0 0 0 0 0 0 0 127 0" result="hardAlpha"/>
<feMorphology radius="0.539216" operator="erode" in="SourceAlpha" result="effect2_innerShadow_223_9593"/>
<feOffset dx="-1.07843" dy="-1.07843"/>
<feGaussianBlur stdDeviation="0.915743"/>
<feComposite in2="hardAlpha" operator="arithmetic" k2="-1" k3="1"/>
<feColorMatrix type="matrix" values="0 0 0 0 1 0 0 0 0 1 0 0 0 0 1 0 0 0 0.24 0"/>
<feBlend mode="normal" in2="shape" result="effect2_innerShadow_223_9593"/>
</filter>
<filter id="filter17_f_223_9593" x="66.2806" y="211.035" width="20.595" height="20.5989" filterUnits="userSpaceOnUse" color-interpolation-filters="sRGB">
<feFlood flood-opacity="0" result="BackgroundImageFix"/>
<feBlend mode="normal" in="SourceGraphic" in2="BackgroundImageFix" result="shape"/>
<feGaussianBlur stdDeviation="2.45343" result="effect1_foregroundBlur_223_9593"/>
</filter>
<filter id="filter18_di_223_9593" x="313.914" y="251.309" width="42.1641" height="42.168" filterUnits="userSpaceOnUse" color-interpolation-filters="sRGB">
<feFlood flood-opacity="0" result="BackgroundImageFix"/>
<feColorMatrix in="SourceAlpha" type="matrix" values="0 0 0 0 0 0 0 0 0 0 0 0 0 0 0 0 0 0 127 0" result="hardAlpha"/>
<feOffset dy="2.3913"/>
<feGaussianBlur stdDeviation="2.625"/>
<feComposite in2="hardAlpha" operator="out"/>
<feColorMatrix type="matrix" values="0 0 0 0 0.0705882 0 0 0 0 0.0901961 0 0 0 0 0.137255 0 0 0 0.24 0"/>
<feBlend mode="normal" in2="BackgroundImageFix" result="effect1_dropShadow_223_9593"/>
<feBlend mode="normal" in="SourceGraphic" in2="effect1_dropShadow_223_9593" result="shape"/>
<feColorMatrix in="SourceAlpha" type="matrix" values="0 0 0 0 0 0 0 0 0 0 0 0 0 0 0 0 0 0 127 0" result="hardAlpha"/>
<feMorphology radius="0.539216" operator="erode" in="SourceAlpha" result="effect2_innerShadow_223_9593"/>
<feOffset dx="-1.07843" dy="-1.07843"/>
<feGaussianBlur stdDeviation="0.915743"/>
<feComposite in2="hardAlpha" operator="arithmetic" k2="-1" k3="1"/>
<feColorMatrix type="matrix" values="0 0 0 0 1 0 0 0 0 1 0 0 0 0 1 0 0 0 0.24 0"/>
<feBlend mode="normal" in2="shape" result="effect2_innerShadow_223_9593"/>
</filter>
<filter id="filter19_f_223_9593" x="338.281" y="243.035" width="20.595" height="20.5989" filterUnits="userSpaceOnUse" color-interpolation-filters="sRGB">
<feFlood flood-opacity="0" result="BackgroundImageFix"/>
<feBlend mode="normal" in="SourceGraphic" in2="BackgroundImageFix" result="shape"/>
<feGaussianBlur stdDeviation="2.45343" result="effect1_foregroundBlur_223_9593"/>
</filter>
<filter id="filter20_di_223_9593" x="109.914" y="251.309" width="42.1641" height="42.168" filterUnits="userSpaceOnUse" color-interpolation-filters="sRGB">
<feFlood flood-opacity="0" result="BackgroundImageFix"/>
<feColorMatrix in="SourceAlpha" type="matrix" values="0 0 0 0 0 0 0 0 0 0 0 0 0 0 0 0 0 0 127 0" result="hardAlpha"/>
<feOffset dy="2.3913"/>
<feGaussianBlur stdDeviation="2.625"/>
<feComposite in2="hardAlpha" operator="out"/>
<feColorMatrix type="matrix" values="0 0 0 0 0.0705882 0 0 0 0 0.0901961 0 0 0 0 0.137255 0 0 0 0.24 0"/>
<feBlend mode="normal" in2="BackgroundImageFix" result="effect1_dropShadow_223_9593"/>
<feBlend mode="normal" in="SourceGraphic" in2="effect1_dropShadow_223_9593" result="shape"/>
<feColorMatrix in="SourceAlpha" type="matrix" values="0 0 0 0 0 0 0 0 0 0 0 0 0 0 0 0 0 0 127 0" result="hardAlpha"/>
<feMorphology radius="0.539216" operator="erode" in="SourceAlpha" result="effect2_innerShadow_223_9593"/>
<feOffset dx="-1.07843" dy="-1.07843"/>
<feGaussianBlur stdDeviation="0.915743"/>
<feComposite in2="hardAlpha" operator="arithmetic" k2="-1" k3="1"/>
<feColorMatrix type="matrix" values="0 0 0 0 1 0 0 0 0 1 0 0 0 0 1 0 0 0 0.24 0"/>
<feBlend mode="normal" in2="shape" result="effect2_innerShadow_223_9593"/>
</filter>
<filter id="filter21_f_223_9593" x="134.281" y="243.035" width="20.595" height="20.5989" filterUnits="userSpaceOnUse" color-interpolation-filters="sRGB">
<feFlood flood-opacity="0" result="BackgroundImageFix"/>
<feBlend mode="normal" in="SourceGraphic" in2="BackgroundImageFix" result="shape"/>
<feGaussianBlur stdDeviation="2.45343" result="effect1_foregroundBlur_223_9593"/>
</filter>
<filter id="filter22_di_223_9593" x="177.914" y="251.309" width="42.1641" height="42.168" filterUnits="userSpaceOnUse" color-interpolation-filters="sRGB">
<feFlood flood-opacity="0" result="BackgroundImageFix"/>
<feColorMatrix in="SourceAlpha" type="matrix" values="0 0 0 0 0 0 0 0 0 0 0 0 0 0 0 0 0 0 127 0" result="hardAlpha"/>
<feOffset dy="2.3913"/>
<feGaussianBlur stdDeviation="2.625"/>
<feComposite in2="hardAlpha" operator="out"/>
<feColorMatrix type="matrix" values="0 0 0 0 0.0705882 0 0 0 0 0.0901961 0 0 0 0 0.137255 0 0 0 0.24 0"/>
<feBlend mode="normal" in2="BackgroundImageFix" result="effect1_dropShadow_223_9593"/>
<feBlend mode="normal" in="SourceGraphic" in2="effect1_dropShadow_223_9593" result="shape"/>
<feColorMatrix in="SourceAlpha" type="matrix" values="0 0 0 0 0 0 0 0 0 0 0 0 0 0 0 0 0 0 127 0" result="hardAlpha"/>
<feMorphology radius="0.539216" operator="erode" in="SourceAlpha" result="effect2_innerShadow_223_9593"/>
<feOffset dx="-1.07843" dy="-1.07843"/>
<feGaussianBlur stdDeviation="0.915743"/>
<feComposite in2="hardAlpha" operator="arithmetic" k2="-1" k3="1"/>
<feColorMatrix type="matrix" values="0 0 0 0 1 0 0 0 0 1 0 0 0 0 1 0 0 0 0.24 0"/>
<feBlend mode="normal" in2="shape" result="effect2_innerShadow_223_9593"/>
</filter>
<filter id="filter23_f_223_9593" x="202.281" y="243.035" width="20.595" height="20.5989" filterUnits="userSpaceOnUse" color-interpolation-filters="sRGB">
<feFlood flood-opacity="0" result="BackgroundImageFix"/>
<feBlend mode="normal" in="SourceGraphic" in2="BackgroundImageFix" result="shape"/>
<feGaussianBlur stdDeviation="2.45343" result="effect1_foregroundBlur_223_9593"/>
</filter>
<filter id="filter24_di_223_9593" x="245.914" y="251.309" width="42.1641" height="42.168" filterUnits="userSpaceOnUse" color-interpolation-filters="sRGB">
<feFlood flood-opacity="0" result="BackgroundImageFix"/>
<feColorMatrix in="SourceAlpha" type="matrix" values="0 0 0 0 0 0 0 0 0 0 0 0 0 0 0 0 0 0 127 0" result="hardAlpha"/>
<feOffset dy="2.3913"/>
<feGaussianBlur stdDeviation="2.625"/>
<feComposite in2="hardAlpha" operator="out"/>
<feColorMatrix type="matrix" values="0 0 0 0 0.0705882 0 0 0 0 0.0901961 0 0 0 0 0.137255 0 0 0 0.24 0"/>
<feBlend mode="normal" in2="BackgroundImageFix" result="effect1_dropShadow_223_9593"/>
<feBlend mode="normal" in="SourceGraphic" in2="effect1_dropShadow_223_9593" result="shape"/>
<feColorMatrix in="SourceAlpha" type="matrix" values="0 0 0 0 0 0 0 0 0 0 0 0 0 0 0 0 0 0 127 0" result="hardAlpha"/>
<feMorphology radius="0.539216" operator="erode" in="SourceAlpha" result="effect2_innerShadow_223_9593"/>
<feOffset dx="-1.07843" dy="-1.07843"/>
<feGaussianBlur stdDeviation="0.915743"/>
<feComposite in2="hardAlpha" operator="arithmetic" k2="-1" k3="1"/>
<feColorMatrix type="matrix" values="0 0 0 0 1 0 0 0 0 1 0 0 0 0 1 0 0 0 0.24 0"/>
<feBlend mode="normal" in2="shape" result="effect2_innerShadow_223_9593"/>
</filter>
<filter id="filter25_f_223_9593" x="270.281" y="243.035" width="20.595" height="20.5989" filterUnits="userSpaceOnUse" color-interpolation-filters="sRGB">
<feFlood flood-opacity="0" result="BackgroundImageFix"/>
<feBlend mode="normal" in="SourceGraphic" in2="BackgroundImageFix" result="shape"/>
<feGaussianBlur stdDeviation="2.45343" result="effect1_foregroundBlur_223_9593"/>
</filter>
<filter id="filter26_di_223_9593" x="313.914" y="59.3093" width="42.1641" height="42.168" filterUnits="userSpaceOnUse" color-interpolation-filters="sRGB">
<feFlood flood-opacity="0" result="BackgroundImageFix"/>
<feColorMatrix in="SourceAlpha" type="matrix" values="0 0 0 0 0 0 0 0 0 0 0 0 0 0 0 0 0 0 127 0" result="hardAlpha"/>
<feOffset dy="2.3913"/>
<feGaussianBlur stdDeviation="2.625"/>
<feComposite in2="hardAlpha" operator="out"/>
<feColorMatrix type="matrix" values="0 0 0 0 0.0705882 0 0 0 0 0.0901961 0 0 0 0 0.137255 0 0 0 0.24 0"/>
<feBlend mode="normal" in2="BackgroundImageFix" result="effect1_dropShadow_223_9593"/>
<feBlend mode="normal" in="SourceGraphic" in2="effect1_dropShadow_223_9593" result="shape"/>
<feColorMatrix in="SourceAlpha" type="matrix" values="0 0 0 0 0 0 0 0 0 0 0 0 0 0 0 0 0 0 127 0" result="hardAlpha"/>
<feMorphology radius="0.539216" operator="erode" in="SourceAlpha" result="effect2_innerShadow_223_9593"/>
<feOffset dx="-1.07843" dy="-1.07843"/>
<feGaussianBlur stdDeviation="0.915743"/>
<feComposite in2="hardAlpha" operator="arithmetic" k2="-1" k3="1"/>
<feColorMatrix type="matrix" values="0 0 0 0 1 0 0 0 0 1 0 0 0 0 1 0 0 0 0.24 0"/>
<feBlend mode="normal" in2="shape" result="effect2_innerShadow_223_9593"/>
</filter>
<filter id="filter27_f_223_9593" x="338.281" y="51.0345" width="20.595" height="20.5989" filterUnits="userSpaceOnUse" color-interpolation-filters="sRGB">
<feFlood flood-opacity="0" result="BackgroundImageFix"/>
<feBlend mode="normal" in="SourceGraphic" in2="BackgroundImageFix" result="shape"/>
<feGaussianBlur stdDeviation="2.45343" result="effect1_foregroundBlur_223_9593"/>
</filter>
<filter id="filter28_di_223_9593" x="109.914" y="59.3093" width="42.1641" height="42.168" filterUnits="userSpaceOnUse" color-interpolation-filters="sRGB">
<feFlood flood-opacity="0" result="BackgroundImageFix"/>
<feColorMatrix in="SourceAlpha" type="matrix" values="0 0 0 0 0 0 0 0 0 0 0 0 0 0 0 0 0 0 127 0" result="hardAlpha"/>
<feOffset dy="2.3913"/>
<feGaussianBlur stdDeviation="2.625"/>
<feComposite in2="hardAlpha" operator="out"/>
<feColorMatrix type="matrix" values="0 0 0 0 0.0705882 0 0 0 0 0.0901961 0 0 0 0 0.137255 0 0 0 0.24 0"/>
<feBlend mode="normal" in2="BackgroundImageFix" result="effect1_dropShadow_223_9593"/>
<feBlend mode="normal" in="SourceGraphic" in2="effect1_dropShadow_223_9593" result="shape"/>
<feColorMatrix in="SourceAlpha" type="matrix" values="0 0 0 0 0 0 0 0 0 0 0 0 0 0 0 0 0 0 127 0" result="hardAlpha"/>
<feMorphology radius="0.539216" operator="erode" in="SourceAlpha" result="effect2_innerShadow_223_9593"/>
<feOffset dx="-1.07843" dy="-1.07843"/>
<feGaussianBlur stdDeviation="0.915743"/>
<feComposite in2="hardAlpha" operator="arithmetic" k2="-1" k3="1"/>
<feColorMatrix type="matrix" values="0 0 0 0 1 0 0 0 0 1 0 0 0 0 1 0 0 0 0.24 0"/>
<feBlend mode="normal" in2="shape" result="effect2_innerShadow_223_9593"/>
</filter>
<filter id="filter29_d_223_9593" x="122.281" y="70.1182" width="17.1334" height="17.4342" filterUnits="userSpaceOnUse" color-interpolation-filters="sRGB">
<feFlood flood-opacity="0" result="BackgroundImageFix"/>
<feColorMatrix in="SourceAlpha" type="matrix" values="0 0 0 0 0 0 0 0 0 0 0 0 0 0 0 0 0 0 127 0" result="hardAlpha"/>
<feOffset dy="0.833333"/>
<feGaussianBlur stdDeviation="0.539216"/>
<feComposite in2="hardAlpha" operator="out"/>
<feColorMatrix type="matrix" values="0 0 0 0 1 0 0 0 0 1 0 0 0 0 1 0 0 0 0.12 0"/>
<feBlend mode="normal" in2="BackgroundImageFix" result="effect1_dropShadow_223_9593"/>
<feBlend mode="normal" in="SourceGraphic" in2="effect1_dropShadow_223_9593" result="shape"/>
</filter>
<filter id="filter30_f_223_9593" x="134.281" y="51.0345" width="20.595" height="20.5989" filterUnits="userSpaceOnUse" color-interpolation-filters="sRGB">
<feFlood flood-opacity="0" result="BackgroundImageFix"/>
<feBlend mode="normal" in="SourceGraphic" in2="BackgroundImageFix" result="shape"/>
<feGaussianBlur stdDeviation="2.45343" result="effect1_foregroundBlur_223_9593"/>
</filter>
<filter id="filter31_di_223_9593" x="177.914" y="59.3093" width="42.1641" height="42.168" filterUnits="userSpaceOnUse" color-interpolation-filters="sRGB">
<feFlood flood-opacity="0" result="BackgroundImageFix"/>
<feColorMatrix in="SourceAlpha" type="matrix" values="0 0 0 0 0 0 0 0 0 0 0 0 0 0 0 0 0 0 127 0" result="hardAlpha"/>
<feOffset dy="2.3913"/>
<feGaussianBlur stdDeviation="2.625"/>
<feComposite in2="hardAlpha" operator="out"/>
<feColorMatrix type="matrix" values="0 0 0 0 0.0705882 0 0 0 0 0.0901961 0 0 0 0 0.137255 0 0 0 0.24 0"/>
<feBlend mode="normal" in2="BackgroundImageFix" result="effect1_dropShadow_223_9593"/>
<feBlend mode="normal" in="SourceGraphic" in2="effect1_dropShadow_223_9593" result="shape"/>
<feColorMatrix in="SourceAlpha" type="matrix" values="0 0 0 0 0 0 0 0 0 0 0 0 0 0 0 0 0 0 127 0" result="hardAlpha"/>
<feMorphology radius="0.539216" operator="erode" in="SourceAlpha" result="effect2_innerShadow_223_9593"/>
<feOffset dx="-1.07843" dy="-1.07843"/>
<feGaussianBlur stdDeviation="0.915743"/>
<feComposite in2="hardAlpha" operator="arithmetic" k2="-1" k3="1"/>
<feColorMatrix type="matrix" values="0 0 0 0 1 0 0 0 0 1 0 0 0 0 1 0 0 0 0.24 0"/>
<feBlend mode="normal" in2="shape" result="effect2_innerShadow_223_9593"/>
</filter>
<filter id="filter32_f_223_9593" x="202.281" y="51.0345" width="20.595" height="20.5989" filterUnits="userSpaceOnUse" color-interpolation-filters="sRGB">
<feFlood flood-opacity="0" result="BackgroundImageFix"/>
<feBlend mode="normal" in="SourceGraphic" in2="BackgroundImageFix" result="shape"/>
<feGaussianBlur stdDeviation="2.45343" result="effect1_foregroundBlur_223_9593"/>
</filter>
<filter id="filter33_di_223_9593" x="245.914" y="59.3093" width="42.1641" height="42.168" filterUnits="userSpaceOnUse" color-interpolation-filters="sRGB">
<feFlood flood-opacity="0" result="BackgroundImageFix"/>
<feColorMatrix in="SourceAlpha" type="matrix" values="0 0 0 0 0 0 0 0 0 0 0 0 0 0 0 0 0 0 127 0" result="hardAlpha"/>
<feOffset dy="2.3913"/>
<feGaussianBlur stdDeviation="2.625"/>
<feComposite in2="hardAlpha" operator="out"/>
<feColorMatrix type="matrix" values="0 0 0 0 0.0705882 0 0 0 0 0.0901961 0 0 0 0 0.137255 0 0 0 0.24 0"/>
<feBlend mode="normal" in2="BackgroundImageFix" result="effect1_dropShadow_223_9593"/>
<feBlend mode="normal" in="SourceGraphic" in2="effect1_dropShadow_223_9593" result="shape"/>
<feColorMatrix in="SourceAlpha" type="matrix" values="0 0 0 0 0 0 0 0 0 0 0 0 0 0 0 0 0 0 127 0" result="hardAlpha"/>
<feMorphology radius="0.539216" operator="erode" in="SourceAlpha" result="effect2_innerShadow_223_9593"/>
<feOffset dx="-1.07843" dy="-1.07843"/>
<feGaussianBlur stdDeviation="0.915743"/>
<feComposite in2="hardAlpha" operator="arithmetic" k2="-1" k3="1"/>
<feColorMatrix type="matrix" values="0 0 0 0 1 0 0 0 0 1 0 0 0 0 1 0 0 0 0.24 0"/>
<feBlend mode="normal" in2="shape" result="effect2_innerShadow_223_9593"/>
</filter>
<filter id="filter34_f_223_9593" x="270.281" y="51.0345" width="20.595" height="20.5989" filterUnits="userSpaceOnUse" color-interpolation-filters="sRGB">
<feFlood flood-opacity="0" result="BackgroundImageFix"/>
<feBlend mode="normal" in="SourceGraphic" in2="BackgroundImageFix" result="shape"/>
<feGaussianBlur stdDeviation="2.45343" result="effect1_foregroundBlur_223_9593"/>
</filter>
<filter id="filter35_di_223_9593" x="381.914" y="91.3093" width="42.1641" height="42.168" filterUnits="userSpaceOnUse" color-interpolation-filters="sRGB">
<feFlood flood-opacity="0" result="BackgroundImageFix"/>
<feColorMatrix in="SourceAlpha" type="matrix" values="0 0 0 0 0 0 0 0 0 0 0 0 0 0 0 0 0 0 127 0" result="hardAlpha"/>
<feOffset dy="2.3913"/>
<feGaussianBlur stdDeviation="2.625"/>
<feComposite in2="hardAlpha" operator="out"/>
<feColorMatrix type="matrix" values="0 0 0 0 0.0705882 0 0 0 0 0.0901961 0 0 0 0 0.137255 0 0 0 0.24 0"/>
<feBlend mode="normal" in2="BackgroundImageFix" result="effect1_dropShadow_223_9593"/>
<feBlend mode="normal" in="SourceGraphic" in2="effect1_dropShadow_223_9593" result="shape"/>
<feColorMatrix in="SourceAlpha" type="matrix" values="0 0 0 0 0 0 0 0 0 0 0 0 0 0 0 0 0 0 127 0" result="hardAlpha"/>
<feMorphology radius="0.539216" operator="erode" in="SourceAlpha" result="effect2_innerShadow_223_9593"/>
<feOffset dx="-1.07843" dy="-1.07843"/>
<feGaussianBlur stdDeviation="0.915743"/>
<feComposite in2="hardAlpha" operator="arithmetic" k2="-1" k3="1"/>
<feColorMatrix type="matrix" values="0 0 0 0 1 0 0 0 0 1 0 0 0 0 1 0 0 0 0.24 0"/>
<feBlend mode="normal" in2="shape" result="effect2_innerShadow_223_9593"/>
</filter>
<filter id="filter36_f_223_9593" x="406.281" y="83.0345" width="20.595" height="20.5989" filterUnits="userSpaceOnUse" color-interpolation-filters="sRGB">
<feFlood flood-opacity="0" result="BackgroundImageFix"/>
<feBlend mode="normal" in="SourceGraphic" in2="BackgroundImageFix" result="shape"/>
<feGaussianBlur stdDeviation="2.45343" result="effect1_foregroundBlur_223_9593"/>
</filter>
<filter id="filter37_di_223_9593" x="109.914" y="123.309" width="42.1641" height="42.168" filterUnits="userSpaceOnUse" color-interpolation-filters="sRGB">
<feFlood flood-opacity="0" result="BackgroundImageFix"/>
<feColorMatrix in="SourceAlpha" type="matrix" values="0 0 0 0 0 0 0 0 0 0 0 0 0 0 0 0 0 0 127 0" result="hardAlpha"/>
<feOffset dy="2.3913"/>
<feGaussianBlur stdDeviation="2.625"/>
<feComposite in2="hardAlpha" operator="out"/>
<feColorMatrix type="matrix" values="0 0 0 0 0.0705882 0 0 0 0 0.0901961 0 0 0 0 0.137255 0 0 0 0.24 0"/>
<feBlend mode="normal" in2="BackgroundImageFix" result="effect1_dropShadow_223_9593"/>
<feBlend mode="normal" in="SourceGraphic" in2="effect1_dropShadow_223_9593" result="shape"/>
<feColorMatrix in="SourceAlpha" type="matrix" values="0 0 0 0 0 0 0 0 0 0 0 0 0 0 0 0 0 0 127 0" result="hardAlpha"/>
<feMorphology radius="0.539216" operator="erode" in="SourceAlpha" result="effect2_innerShadow_223_9593"/>
<feOffset dx="-1.07843" dy="-1.07843"/>
<feGaussianBlur stdDeviation="0.915743"/>
<feComposite in2="hardAlpha" operator="arithmetic" k2="-1" k3="1"/>
<feColorMatrix type="matrix" values="0 0 0 0 1 0 0 0 0 1 0 0 0 0 1 0 0 0 0.24 0"/>
<feBlend mode="normal" in2="shape" result="effect2_innerShadow_223_9593"/>
</filter>
<filter id="filter38_f_223_9593" x="134.281" y="115.035" width="20.595" height="20.5989" filterUnits="userSpaceOnUse" color-interpolation-filters="sRGB">
<feFlood flood-opacity="0" result="BackgroundImageFix"/>
<feBlend mode="normal" in="SourceGraphic" in2="BackgroundImageFix" result="shape"/>
<feGaussianBlur stdDeviation="2.45343" result="effect1_foregroundBlur_223_9593"/>
</filter>
<filter id="filter39_di_223_9593" x="381.914" y="155.309" width="42.1641" height="42.168" filterUnits="userSpaceOnUse" color-interpolation-filters="sRGB">
<feFlood flood-opacity="0" result="BackgroundImageFix"/>
<feColorMatrix in="SourceAlpha" type="matrix" values="0 0 0 0 0 0 0 0 0 0 0 0 0 0 0 0 0 0 127 0" result="hardAlpha"/>
<feOffset dy="2.3913"/>
<feGaussianBlur stdDeviation="2.625"/>
<feComposite in2="hardAlpha" operator="out"/>
<feColorMatrix type="matrix" values="0 0 0 0 0.0705882 0 0 0 0 0.0901961 0 0 0 0 0.137255 0 0 0 0.24 0"/>
<feBlend mode="normal" in2="BackgroundImageFix" result="effect1_dropShadow_223_9593"/>
<feBlend mode="normal" in="SourceGraphic" in2="effect1_dropShadow_223_9593" result="shape"/>
<feColorMatrix in="SourceAlpha" type="matrix" values="0 0 0 0 0 0 0 0 0 0 0 0 0 0 0 0 0 0 127 0" result="hardAlpha"/>
<feMorphology radius="0.539216" operator="erode" in="SourceAlpha" result="effect2_innerShadow_223_9593"/>
<feOffset dx="-1.07843" dy="-1.07843"/>
<feGaussianBlur stdDeviation="0.915743"/>
<feComposite in2="hardAlpha" operator="arithmetic" k2="-1" k3="1"/>
<feColorMatrix type="matrix" values="0 0 0 0 1 0 0 0 0 1 0 0 0 0 1 0 0 0 0.24 0"/>
<feBlend mode="normal" in2="shape" result="effect2_innerShadow_223_9593"/>
</filter>
<filter id="filter40_f_223_9593" x="406.281" y="147.035" width="20.595" height="20.5989" filterUnits="userSpaceOnUse" color-interpolation-filters="sRGB">
<feFlood flood-opacity="0" result="BackgroundImageFix"/>
<feBlend mode="normal" in="SourceGraphic" in2="BackgroundImageFix" result="shape"/>
<feGaussianBlur stdDeviation="2.45343" result="effect1_foregroundBlur_223_9593"/>
</filter>
<linearGradient id="paint0_linear_223_9593" x1="228.81" y1="13.5913" x2="233" y2="434.5" gradientUnits="userSpaceOnUse">
<stop stop-color="#FFF2F7"/>
<stop offset="1" stop-color="white"/>
</linearGradient>
<linearGradient id="paint1_linear_223_9593" x1="227.77" y1="163.306" x2="244.779" y2="200.363" gradientUnits="userSpaceOnUse">
<stop offset="0.12361" stop-color="white" stop-opacity="0.92"/>
<stop offset="1" stop-color="#FF005D"/>
</linearGradient>
<linearGradient id="paint2_linear_223_9593" x1="211.654" y1="142.707" x2="249.797" y2="199.093" gradientUnits="userSpaceOnUse">
<stop stop-color="white" stop-opacity="0.8"/>
<stop offset="1" stop-color="white" stop-opacity="0.25"/>
</linearGradient>
<linearGradient id="paint3_linear_223_9593" x1="52.1985" y1="94.168" x2="71.4974" y2="122.697" gradientUnits="userSpaceOnUse">
<stop stop-color="white" stop-opacity="0.8"/>
<stop offset="1" stop-color="white" stop-opacity="0.25"/>
</linearGradient>
<linearGradient id="paint4_linear_223_9593" x1="324.199" y1="126.168" x2="343.497" y2="154.697" gradientUnits="userSpaceOnUse">
<stop stop-color="white" stop-opacity="0.8"/>
<stop offset="1" stop-color="white" stop-opacity="0.25"/>
</linearGradient>
<linearGradient id="paint5_linear_223_9593" x1="52.1985" y1="158.168" x2="71.4974" y2="186.697" gradientUnits="userSpaceOnUse">
<stop stop-color="white" stop-opacity="0.8"/>
<stop offset="1" stop-color="white" stop-opacity="0.25"/>
</linearGradient>
<linearGradient id="paint6_linear_223_9593" x1="324.199" y1="190.168" x2="343.497" y2="218.697" gradientUnits="userSpaceOnUse">
<stop stop-color="white" stop-opacity="0.8"/>
<stop offset="1" stop-color="white" stop-opacity="0.25"/>
</linearGradient>
<linearGradient id="paint7_linear_223_9593" x1="120.199" y1="190.168" x2="139.497" y2="218.697" gradientUnits="userSpaceOnUse">
<stop stop-color="white" stop-opacity="0.8"/>
<stop offset="1" stop-color="white" stop-opacity="0.25"/>
</linearGradient>
<linearGradient id="paint8_linear_223_9593" x1="392.199" y1="222.168" x2="411.497" y2="250.697" gradientUnits="userSpaceOnUse">
<stop stop-color="white" stop-opacity="0.8"/>
<stop offset="1" stop-color="white" stop-opacity="0.25"/>
</linearGradient>
<linearGradient id="paint9_linear_223_9593" x1="52.1985" y1="222.168" x2="71.4974" y2="250.697" gradientUnits="userSpaceOnUse">
<stop stop-color="white" stop-opacity="0.8"/>
<stop offset="1" stop-color="white" stop-opacity="0.25"/>
</linearGradient>
<linearGradient id="paint10_linear_223_9593" x1="324.199" y1="254.168" x2="343.497" y2="282.697" gradientUnits="userSpaceOnUse">
<stop stop-color="white" stop-opacity="0.8"/>
<stop offset="1" stop-color="white" stop-opacity="0.25"/>
</linearGradient>
<linearGradient id="paint11_linear_223_9593" x1="120.199" y1="254.168" x2="139.497" y2="282.697" gradientUnits="userSpaceOnUse">
<stop stop-color="white" stop-opacity="0.8"/>
<stop offset="1" stop-color="white" stop-opacity="0.25"/>
</linearGradient>
<linearGradient id="paint12_linear_223_9593" x1="188.199" y1="254.168" x2="207.497" y2="282.697" gradientUnits="userSpaceOnUse">
<stop stop-color="white" stop-opacity="0.8"/>
<stop offset="1" stop-color="white" stop-opacity="0.25"/>
</linearGradient>
<linearGradient id="paint13_linear_223_9593" x1="256.199" y1="254.168" x2="275.497" y2="282.697" gradientUnits="userSpaceOnUse">
<stop stop-color="white" stop-opacity="0.8"/>
<stop offset="1" stop-color="white" stop-opacity="0.25"/>
</linearGradient>
<linearGradient id="paint14_linear_223_9593" x1="324.199" y1="62.168" x2="343.497" y2="90.6967" gradientUnits="userSpaceOnUse">
<stop stop-color="white" stop-opacity="0.8"/>
<stop offset="1" stop-color="white" stop-opacity="0.25"/>
</linearGradient>
<linearGradient id="paint15_linear_223_9593" x1="120.199" y1="62.168" x2="139.497" y2="90.6967" gradientUnits="userSpaceOnUse">
<stop stop-color="white" stop-opacity="0.8"/>
<stop offset="1" stop-color="white" stop-opacity="0.25"/>
</linearGradient>
<linearGradient id="paint16_linear_223_9593" x1="188.199" y1="62.168" x2="207.497" y2="90.6967" gradientUnits="userSpaceOnUse">
<stop stop-color="white" stop-opacity="0.8"/>
<stop offset="1" stop-color="white" stop-opacity="0.25"/>
</linearGradient>
<linearGradient id="paint17_linear_223_9593" x1="256.199" y1="62.168" x2="275.497" y2="90.6967" gradientUnits="userSpaceOnUse">
<stop stop-color="white" stop-opacity="0.8"/>
<stop offset="1" stop-color="white" stop-opacity="0.25"/>
</linearGradient>
<linearGradient id="paint18_linear_223_9593" x1="392.199" y1="94.168" x2="411.497" y2="122.697" gradientUnits="userSpaceOnUse">
<stop stop-color="white" stop-opacity="0.8"/>
<stop offset="1" stop-color="white" stop-opacity="0.25"/>
</linearGradient>
<linearGradient id="paint19_linear_223_9593" x1="120.199" y1="126.168" x2="139.497" y2="154.697" gradientUnits="userSpaceOnUse">
<stop stop-color="white" stop-opacity="0.8"/>
<stop offset="1" stop-color="white" stop-opacity="0.25"/>
</linearGradient>
<linearGradient id="paint20_linear_223_9593" x1="392.199" y1="158.168" x2="411.497" y2="186.697" gradientUnits="userSpaceOnUse">
<stop stop-color="white" stop-opacity="0.8"/>
<stop offset="1" stop-color="white" stop-opacity="0.25"/>
</linearGradient>
<clipPath id="clip0_223_9593">
<rect x="201.703" y="142.707" width="62.5882" height="62.5882" rx="12" fill="white"/>
</clipPath>
<clipPath id="clip1_223_9593">
<rect x="47.1641" y="94.168" width="31.6667" height="31.6667" rx="7.5" fill="white"/>
</clipPath>
<clipPath id="clip2_223_9593">
<rect x="319.164" y="126.168" width="31.6667" height="31.6667" rx="7.5" fill="white"/>
</clipPath>
<clipPath id="clip3_223_9593">
<rect width="16.6667" height="11.6606" fill="white" transform="translate(326.664 136.172)"/>
</clipPath>
<clipPath id="clip4_223_9593">
<rect x="47.1641" y="158.168" width="31.6667" height="31.6667" rx="7.5" fill="white"/>
</clipPath>
<clipPath id="clip5_223_9593">
<rect x="319.164" y="190.168" width="31.6667" height="31.6667" rx="7.5" fill="white"/>
</clipPath>
<clipPath id="clip6_223_9593">
<rect x="115.164" y="190.168" width="31.6667" height="31.6667" rx="7.5" fill="white"/>
</clipPath>
<clipPath id="clip7_223_9593">
<rect width="16.6667" height="16.6667" fill="white" transform="translate(122.664 197.668)"/>
</clipPath>
<clipPath id="clip8_223_9593">
<rect x="387.164" y="222.168" width="31.6667" height="31.6667" rx="7.5" fill="white"/>
</clipPath>
<clipPath id="clip9_223_9593">
<rect x="47.1641" y="222.168" width="31.6667" height="31.6667" rx="7.5" fill="white"/>
</clipPath>
<clipPath id="clip10_223_9593">
<rect x="319.164" y="254.168" width="31.6667" height="31.6667" rx="7.5" fill="white"/>
</clipPath>
<clipPath id="clip11_223_9593">
<rect x="115.164" y="254.168" width="31.6667" height="31.6667" rx="7.5" fill="white"/>
</clipPath>
<clipPath id="clip12_223_9593">
<rect width="16.6667" height="17.284" fill="white" transform="translate(122.664 261.359)"/>
</clipPath>
<clipPath id="clip13_223_9593">
<rect x="183.164" y="254.168" width="31.6667" height="31.6667" rx="7.5" fill="white"/>
</clipPath>
<clipPath id="clip14_223_9593">
<rect width="16.6667" height="14.6199" fill="white" transform="translate(190.664 262.691)"/>
</clipPath>
<clipPath id="clip15_223_9593">
<rect x="251.164" y="254.168" width="31.6667" height="31.6667" rx="7.5" fill="white"/>
</clipPath>
<clipPath id="clip16_223_9593">
<rect x="319.164" y="62.168" width="31.6667" height="31.6667" rx="7.5" fill="white"/>
</clipPath>
<clipPath id="clip17_223_9593">
<rect width="16.6667" height="12.5" fill="white" transform="translate(326.664 71.75)"/>
</clipPath>
<clipPath id="clip18_223_9593">
<rect x="115.164" y="62.168" width="31.6667" height="31.6667" rx="7.5" fill="white"/>
</clipPath>
<clipPath id="clip19_223_9593">
<rect width="16.6667" height="16.6667" fill="white" transform="translate(122.664 69.668)"/>
</clipPath>
<clipPath id="clip20_223_9593">
<rect x="183.164" y="62.168" width="31.6667" height="31.6667" rx="7.5" fill="white"/>
</clipPath>
<clipPath id="clip21_223_9593">
<rect x="251.164" y="62.168" width="31.6667" height="31.6667" rx="7.5" fill="white"/>
</clipPath>
<clipPath id="clip22_223_9593">
<rect x="387.164" y="94.168" width="31.6667" height="31.6667" rx="7.5" fill="white"/>
</clipPath>
<clipPath id="clip23_223_9593">
<rect x="115.164" y="126.168" width="31.6667" height="31.6667" rx="7.5" fill="white"/>
</clipPath>
<clipPath id="clip24_223_9593">
<rect x="387.164" y="158.168" width="31.6667" height="31.6667" rx="7.5" fill="white"/>
</clipPath>
</defs>
</svg>
