<svg width="121" height="22" viewBox="0 0 121 22" fill="none" xmlns="http://www.w3.org/2000/svg">
<g clip-path="url(#clip0_223_8706)">
<path d="M2.69102 17.3428C2.24891 17.3437 1.81447 17.2273 1.43207 17.0054C1.04968 16.7835 0.733037 16.4641 0.514503 16.0797C0.299314 15.6981 0.191994 15.2652 0.204038 14.8272C0.216082 14.3893 0.347037 13.9628 0.582876 13.5936L5.06506 6.55494C5.29447 6.17665 5.62017 5.86603 6.0089 5.65481C6.39763 5.44359 6.83546 5.33934 7.27767 5.3527C7.71953 5.36329 8.15066 5.49109 8.52691 5.72302C8.90317 5.95496 9.21105 6.28269 9.41905 6.67269C9.83688 7.46279 9.78465 8.41337 9.28421 9.15503L4.80487 16.1937C4.57772 16.5477 4.26488 16.8386 3.89536 17.0394C3.52585 17.2403 3.1116 17.3446 2.69102 17.3428Z" fill="#667085"/>
<path d="M10.3818 17.3425C9.47777 17.3425 8.64591 16.8591 8.20909 16.0823C7.99438 15.7017 7.88731 15.2699 7.89935 14.8331C7.9114 14.3963 8.0421 13.971 8.27746 13.6028L12.7511 6.58027C12.9771 6.19666 13.3017 5.88051 13.6911 5.66461C14.0805 5.4487 14.5205 5.3409 14.9656 5.35239C15.8772 5.37234 16.7034 5.88229 17.1212 6.67998C17.5362 7.47767 17.4754 8.43395 16.9598 9.17371L12.4871 16.1962C12.2607 16.5487 11.9491 16.8385 11.5811 17.0388C11.2132 17.2391 10.8007 17.3435 10.3818 17.3425Z" fill="#667085"/>
<path d="M17.8935 17.4012C19.1679 17.4012 20.2011 16.3897 20.2011 15.142C20.2011 13.8943 19.1679 12.8828 17.8935 12.8828C16.6191 12.8828 15.5859 13.8943 15.5859 15.142C15.5859 16.3897 16.6191 17.4012 17.8935 17.4012Z" fill="#667085"/>
<path d="M118.139 13.0138C118.836 13.0138 119.253 13.5095 119.253 14.3214V17.1038H120.2V14.2578C120.2 12.877 119.55 12.0765 118.327 12.0765C117.848 12.0765 117.088 12.2075 116.635 13.0878C116.53 12.8282 116.356 12.6019 116.133 12.433C115.909 12.2641 115.644 12.159 115.366 12.1287C115.19 12.0966 115.012 12.0861 114.834 12.0974C114.444 12.1287 113.751 12.3709 113.492 12.9198V12.1819H112.544V17.1038H113.492V14.4477C113.492 13.4145 114.168 13.0138 114.845 13.0138C115.48 13.0138 115.896 13.499 115.896 14.311V17.1038H116.838V14.4477C116.838 13.6253 117.332 13.0043 118.139 13.0138ZM109.066 16.2815C109.499 16.2909 109.917 16.1181 110.22 15.8047C110.524 15.4914 110.685 15.065 110.669 14.6272C110.669 13.6358 109.939 13.0138 109.066 13.0138C108.191 13.0138 107.463 13.6358 107.463 14.6272C107.446 15.064 107.607 15.4895 107.909 15.8019C108.211 16.1153 108.627 16.289 109.058 16.2815H109.066ZM109.066 17.2045C107.681 17.2045 106.526 16.1817 106.526 14.6215C106.526 13.0612 107.681 12.0708 109.066 12.0708C110.45 12.0708 111.616 13.0612 111.616 14.6215C111.616 16.1817 110.444 17.2092 109.059 17.2092L109.066 17.2045ZM101.649 14.6215L101.64 14.6272C101.64 13.0669 102.826 12.0765 104.22 12.0708C104.57 12.064 104.918 12.1308 105.241 12.2669C105.563 12.403 105.854 12.6054 106.094 12.8609L105.376 13.4724C105.223 13.3227 105.043 13.2047 104.844 13.1251C104.646 13.0456 104.434 13.0061 104.22 13.009C103.346 13.009 102.587 13.631 102.587 14.6215C102.587 15.291 102.985 15.894 103.595 16.1504C104.206 16.4068 104.908 16.2644 105.376 15.7914L106.104 16.403C105.864 16.6611 105.572 16.8659 105.247 17.0039C104.923 17.142 104.573 17.2103 104.22 17.2045C102.836 17.2045 101.649 16.1817 101.649 14.6215ZM98.6172 16.1589C98.6162 16.0729 98.6322 15.9875 98.6642 15.9076C98.6962 15.8277 98.7436 15.7549 98.8038 15.6934C98.8639 15.6318 98.9356 15.5827 99.0147 15.5489C99.0938 15.515 99.1788 15.4971 99.2649 15.4961C99.3509 15.4971 99.4359 15.515 99.515 15.5489C99.5942 15.5827 99.6658 15.6318 99.726 15.6934C99.7861 15.7549 99.8335 15.8277 99.8656 15.9076C99.8976 15.9875 99.9135 16.0729 99.9125 16.1589C99.9041 16.3256 99.8323 16.4827 99.712 16.5983C99.5916 16.7139 99.4317 16.7792 99.2649 16.781C99.098 16.7792 98.9381 16.7139 98.8178 16.5983C98.6974 16.4827 98.6257 16.3256 98.6172 16.1589Z" fill="#667085"/>
<path fill-rule="evenodd" clip-rule="evenodd" d="M101.208 5.92406H97.8358L95.4723 12.0179L93.121 5.92406H89.7489L93.8484 15.5533L91.2987 21.9197H94.6461L101.208 5.92406ZM80.7 11.28C80.7 12.8184 82.0447 13.8307 83.3656 13.8307C84.6637 13.8307 85.9391 12.8887 85.9391 11.279C85.9391 9.66941 84.6637 8.72643 83.3656 8.72643C82.0447 8.72643 80.7 9.74063 80.7 11.28ZM85.9391 16.6568V15.4384C85.2553 16.4735 83.66 16.8648 82.8414 16.8648C80.1312 16.8648 77.4201 14.7281 77.4201 11.279C77.4201 7.83092 80.1303 5.69425 82.8414 5.69425C83.5242 5.69425 85.1195 5.92216 85.9391 7.1187V5.92786H89.0823V16.6587L85.9391 16.6568ZM76.5255 16.6568H73.3823V15.3235C72.8571 16.3111 71.5837 16.8866 70.2618 16.8866C67.5279 16.8866 65.113 14.7034 65.113 11.3227C65.113 7.8784 67.5279 5.69235 70.2618 5.69235C71.5818 5.69235 72.859 6.24314 73.3823 7.23171V0.078125H76.5255V16.6568ZM73.3139 11.2553C73.3139 9.64662 72.1525 8.70364 70.8544 8.70364C69.5098 8.70364 68.393 9.71499 68.393 11.2553C68.393 12.845 69.5098 13.8516 70.8535 13.8516C72.1763 13.8535 73.3139 12.7956 73.3139 11.2553ZM57.3414 10.978C57.3414 9.34654 58.1846 8.7948 59.3004 8.7948C60.3706 8.7948 61.1455 9.50702 61.1455 10.9315V16.6549H64.3116V10.243C64.3116 7.18707 62.8074 5.69235 60.4153 5.69235C59.1627 5.69235 57.9102 6.40458 57.3404 7.48526V5.92406H54.1763V16.6549H57.3414V10.978ZM47.7474 16.8391C44.7409 16.8391 42.233 14.6331 42.233 11.2543C42.233 7.87366 44.7381 5.6895 47.7474 5.6895C50.7567 5.6895 53.2837 7.87366 53.2837 11.2543C53.2837 14.635 50.7539 16.8391 47.7474 16.8391ZM47.7474 13.7148C49.0674 13.7148 50.1623 12.7481 50.1623 11.2553C50.1623 9.80711 49.0683 8.81854 47.7474 8.81854C47.4293 8.81356 47.1136 8.87339 46.8194 8.99436C46.5252 9.11534 46.2587 9.29494 46.0362 9.52222C45.8124 9.75072 45.6367 10.0219 45.5198 10.3196C45.4028 10.6173 45.3469 10.9355 45.3553 11.2553C45.3563 12.75 46.4493 13.7148 47.7474 13.7148ZM36.5571 8.79575C37.4906 8.79575 38.3111 9.53171 38.3111 10.9324V16.6568H41.4543V10.5621C41.4543 7.32192 39.8789 5.69045 37.3539 5.69045C36.6037 5.69045 35.1906 5.91836 34.165 7.59731C33.5725 6.35614 32.4339 5.71229 30.7512 5.71229C30.167 5.70932 29.5942 5.87467 29.1015 6.18858C28.6087 6.50248 28.2168 6.95166 27.9726 7.48241V5.92501H24.8047V16.6559H27.9698V10.978C27.9698 9.34654 28.8586 8.7948 29.8149 8.7948C30.7265 8.7948 31.5451 9.50702 31.5688 10.8631V16.6559H34.7348V10.978C34.7348 9.41776 35.5553 8.79575 36.5571 8.79575Z" fill="#667085"/>
</g>
<defs>
<clipPath id="clip0_223_8706">
<rect width="120" height="21.8415" fill="white" transform="translate(0.203125 0.078125)"/>
</clipPath>
</defs>
</svg>
