<svg width="121" height="32" viewBox="0 0 121 32" fill="none" xmlns="http://www.w3.org/2000/svg">
<g clip-path="url(#clip0_223_8666)">
<path d="M9.04607 3.92982C7.87002 2.53011 6.85732 1.10853 6.66131 0.813278C6.63953 0.791407 6.60687 0.791407 6.58509 0.813278C6.37819 1.10853 5.36549 2.53011 4.18944 3.92982C-5.89404 16.8444 5.77928 25.5598 5.77928 25.5598L5.87728 25.6254C5.9644 26.9704 6.18218 28.9059 6.18218 28.9059H6.61775H7.05333C7.05333 28.9059 7.27111 26.9813 7.35823 25.6254L7.45623 25.5488C7.45623 25.5598 19.1296 16.8444 9.04607 3.92982ZM6.61775 25.3629C6.61775 25.3629 6.09507 24.9146 5.95351 24.6849V24.6631L6.58509 10.6003C6.58509 10.5566 6.65042 10.5566 6.65042 10.6003L7.27111 24.6631V24.6849C7.12955 24.9146 6.61775 25.3629 6.61775 25.3629Z" fill="#667085"/>
<path d="M28.4534 22.4983L23.5859 10.568L23.575 10.5352H19.7964V11.3334H20.4062C20.5913 11.3334 20.7655 11.41 20.8962 11.5412C21.0269 11.6724 21.0922 11.8474 21.0922 12.0333L20.9833 24.0402C20.9833 24.412 20.6784 24.7182 20.3082 24.7291L19.6875 24.751V25.5383H23.3681V24.751L22.987 24.74C22.6167 24.7291 22.3118 24.4229 22.3118 24.0511V12.7331L27.6149 25.5383C27.6911 25.7242 27.8654 25.8445 28.0614 25.8445C28.2574 25.8445 28.4316 25.7242 28.5078 25.5383L33.6911 13.0175L33.7674 24.0402C33.7674 24.4229 33.4625 24.7291 33.0813 24.74H32.6893V25.5274H37.0015V24.751H36.4135C36.0432 24.751 35.7383 24.4339 35.7274 24.0621L35.6948 12.0552C35.6948 11.6724 35.9997 11.3662 36.3699 11.3553L37.0015 11.3444V10.5352H33.3209L28.4534 22.4983Z" fill="#667085"/>
<path d="M62.3569 24.5331C62.2371 24.4128 62.1718 24.2488 62.1718 24.052V18.1579C62.1718 17.0315 61.8451 16.1567 61.1917 15.5334C60.5493 14.9101 59.6455 14.582 58.5348 14.582C56.9667 14.582 55.7362 15.2163 54.876 16.4738C54.8651 16.4957 54.8324 16.5066 54.7997 16.5066C54.7671 16.5066 54.7453 16.4848 54.7453 16.452L54.3424 14.8773H53.6563L51.9141 15.8833V16.4301H52.3605C52.5674 16.4301 52.7417 16.4848 52.8614 16.5941C52.9812 16.7035 53.0465 16.8675 53.0465 17.0971V24.041C53.0465 24.2379 52.9812 24.4019 52.8614 24.5222C52.7417 24.6425 52.5783 24.7081 52.3823 24.7081H51.9467V25.5063H55.9431V24.7081H55.5075C55.3115 24.7081 55.1482 24.6425 55.0284 24.5222C54.9086 24.4019 54.8433 24.2379 54.8433 24.041V19.4373C54.8433 18.8577 54.974 18.2672 55.2135 17.6986C55.464 17.1409 55.8342 16.6597 56.3242 16.2989C56.8142 15.938 57.4023 15.763 58.0883 15.763C58.8505 15.763 59.4277 16.0036 59.7979 16.4848C60.1573 16.9659 60.3424 17.6002 60.3424 18.3438V24.0192C60.3424 24.216 60.277 24.38 60.1573 24.5003C60.0375 24.6206 59.8741 24.6862 59.6781 24.6862H59.2426V25.4845H63.2389V24.6862H62.8034C62.64 24.7299 62.4876 24.6643 62.3569 24.5331Z" fill="#667085"/>
<path d="M98.906 11.4318C97.8062 10.8413 96.5648 10.5352 95.2363 10.5352H90.0312V11.3334H90.543C90.7391 11.3334 90.9133 11.41 91.0875 11.5849C91.2509 11.749 91.338 11.9349 91.338 12.1317V23.9199C91.338 24.1167 91.2509 24.3026 91.0875 24.4667C90.9242 24.6307 90.7391 24.7182 90.543 24.7182H90.0312V25.5164H95.2363C96.5648 25.5164 97.8062 25.2103 98.9169 24.6198C100.028 24.0293 100.921 23.1544 101.574 22.039C102.227 20.9236 102.565 19.5786 102.565 18.0367C102.565 16.5058 102.227 15.1717 101.574 14.0344C100.91 12.8972 100.017 12.0333 98.906 11.4318ZM100.463 18.0149C100.463 19.4146 100.213 20.5956 99.7227 21.547C99.2327 22.4983 98.5793 23.2091 97.7844 23.6684C96.9786 24.1277 96.0966 24.3573 95.1383 24.3573H94.0821C93.8861 24.3573 93.7118 24.2808 93.5376 24.1058C93.3743 23.9418 93.2872 23.7559 93.2872 23.559V12.4488C93.2872 12.252 93.3634 12.077 93.5376 11.9021C93.7009 11.738 93.8861 11.6506 94.0821 11.6506H95.1383C96.0966 11.6506 96.9786 11.8802 97.7844 12.3395C98.5902 12.7988 99.2327 13.5095 99.7227 14.4609C100.213 15.4341 100.463 16.6261 100.463 18.0149Z" fill="#667085"/>
<path d="M114.858 18.8139C114.379 18.2562 113.453 17.786 112.354 17.5345C113.856 16.78 114.64 15.7192 114.64 14.3523C114.64 13.6087 114.444 12.9417 114.052 12.3731C113.66 11.8044 113.105 11.3451 112.397 11.028C111.689 10.7109 110.851 10.5469 109.914 10.5469H104.023V11.3451H104.491C104.687 11.3451 104.862 11.4217 105.036 11.5967C105.199 11.7607 105.286 11.9466 105.286 12.1434V23.9316C105.286 24.1285 105.199 24.3144 105.036 24.4784C104.873 24.6424 104.687 24.7299 104.491 24.7299H103.969V25.5282H110.361C111.33 25.5282 112.245 25.3641 113.061 25.0361C113.878 24.708 114.542 24.2269 115.01 23.5926C115.49 22.9584 115.729 22.182 115.729 21.2853C115.718 20.3011 115.435 19.481 114.858 18.8139ZM107.519 24.1285C107.355 23.9644 107.268 23.7785 107.268 23.5817V18.289H110.306C111.373 18.289 112.201 18.5624 112.767 19.1092C113.334 19.6559 113.617 20.3667 113.617 21.2415C113.617 21.7664 113.486 22.2804 113.246 22.7506C112.996 23.2318 112.626 23.6145 112.125 23.9098C111.635 24.205 111.025 24.3581 110.306 24.3581H108.063C107.867 24.369 107.693 24.2925 107.519 24.1285ZM107.279 17.1627V12.4605C107.279 12.2637 107.355 12.0887 107.53 11.9138C107.693 11.7498 107.878 11.6623 108.074 11.6623H109.511C110.546 11.6623 111.319 11.9247 111.798 12.4277C112.277 12.9417 112.517 13.5978 112.517 14.407C112.517 15.2381 112.288 15.9051 111.842 16.4082C111.395 16.9003 110.72 17.1518 109.816 17.1518H107.279V17.1627Z" fill="#667085"/>
<path d="M47.1274 15.2819C46.2889 14.8226 45.3634 14.582 44.3507 14.582C43.338 14.582 42.4015 14.8117 41.5739 15.2819C40.7354 15.7412 40.0821 16.4082 39.592 17.2502C39.102 18.0813 38.8516 19.0655 38.8516 20.159C38.8516 21.2525 39.102 22.2367 39.592 23.0678C40.0821 23.9098 40.7463 24.5769 41.5739 25.0361C42.4124 25.4954 43.338 25.736 44.3507 25.736C45.3634 25.736 46.2998 25.5063 47.1274 25.0361C47.9659 24.5769 48.6193 23.9098 49.1093 23.0678C49.5993 22.2258 49.8497 21.2416 49.8497 20.159C49.8497 19.0764 49.5993 18.0813 49.1093 17.2502C48.6193 16.4082 47.9659 15.7412 47.1274 15.2819ZM47.9332 20.159C47.9332 21.504 47.6066 22.5976 46.9532 23.374C46.3107 24.1613 45.4396 24.5659 44.3507 24.5659C43.2617 24.5659 42.3906 24.1613 41.7481 23.374C41.0948 22.5866 40.7681 21.4931 40.7681 20.159C40.7681 18.8249 41.0948 17.7204 41.7481 16.944C42.3906 16.1567 43.2617 15.7521 44.3507 15.7521C45.4396 15.7521 46.3107 16.1567 46.9532 16.944C47.6066 17.7204 47.9332 18.814 47.9332 20.159Z" fill="#667085"/>
<path d="M85.5649 15.2819C84.7264 14.8226 83.8009 14.582 82.7882 14.582C81.7755 14.582 80.839 14.8117 80.0114 15.2819C79.1729 15.7412 78.5196 16.4082 78.0295 17.2502C77.5395 18.0922 77.2891 19.0655 77.2891 20.159C77.2891 21.2525 77.5395 22.2367 78.0295 23.0678C78.5196 23.8989 79.1838 24.5769 80.0114 25.0361C80.8499 25.4954 81.7755 25.736 82.7882 25.736C83.8009 25.736 84.7373 25.5063 85.5649 25.0361C86.4034 24.5769 87.0568 23.9098 87.5468 23.0678C88.0368 22.2258 88.2872 21.2525 88.2872 20.159C88.2872 19.0655 88.0368 18.0813 87.5468 17.2502C87.0568 16.4192 86.3925 15.7412 85.5649 15.2819ZM86.3707 20.159C86.3707 21.504 86.0441 22.5976 85.3907 23.374C84.7482 24.1613 83.8771 24.5659 82.7882 24.5659C81.6992 24.5659 80.8281 24.1613 80.1856 23.374C79.5323 22.5866 79.2056 21.4931 79.2056 20.159C79.2056 18.803 79.5323 17.7204 80.1856 16.944C80.8281 16.1567 81.6992 15.7521 82.7882 15.7521C83.8771 15.7521 84.7482 16.1567 85.3907 16.944C86.0332 17.7204 86.3707 18.814 86.3707 20.159Z" fill="#667085"/>
<path d="M70.0597 14.582C69.1886 14.582 68.3937 14.7679 67.6641 15.1397C66.9454 15.5115 66.3792 16.0145 65.9763 16.6597C65.5734 17.294 65.3665 18.0048 65.3665 18.7702C65.3665 19.4482 65.5189 20.0715 65.8347 20.6292C66.1396 21.1651 66.5534 21.6134 67.0761 21.9852L65.5189 24.1176C65.3229 24.38 65.3011 24.7299 65.4427 25.0143C65.5951 25.3095 65.8783 25.4845 66.2049 25.4845H66.6514C66.2158 25.7797 65.8674 26.1297 65.6278 26.5452C65.3447 27.0154 65.2031 27.5075 65.2031 28.0105C65.2031 28.951 65.6169 29.7274 66.4336 30.3179C67.2394 30.8974 68.3828 31.1927 69.8093 31.1927C70.8002 31.1927 71.7585 31.0287 72.6187 30.7115C73.4899 30.3944 74.1977 29.9242 74.7313 29.3118C75.2648 28.6994 75.5371 27.9558 75.5371 27.092C75.5371 26.1953 75.2104 25.561 74.4481 24.9377C73.7948 24.4238 72.7712 24.1504 71.4862 24.1504H67.1196C67.1087 24.1504 67.0979 24.1394 67.0979 24.1394C67.0979 24.1394 67.087 24.1176 67.0979 24.1066L68.2303 22.5757C68.5352 22.7179 68.8184 22.8053 69.0688 22.86C69.3302 22.9147 69.6242 22.9366 69.9509 22.9366C70.8656 22.9366 71.704 22.7507 72.4227 22.3789C73.1414 22.0071 73.7185 21.504 74.1432 20.8589C74.557 20.2246 74.7639 19.5138 74.7639 18.7593C74.7639 17.9501 74.3719 16.4629 73.3048 15.7084C73.3048 15.6974 73.3156 15.6974 73.3156 15.6974L75.6677 15.9599V14.8773H71.9109C71.312 14.6914 70.7022 14.582 70.0597 14.582ZM71.3774 21.4494C70.9636 21.6681 70.5171 21.7884 70.0706 21.7884C69.3411 21.7884 68.6986 21.5259 68.1432 21.012C67.5988 20.498 67.3265 19.7435 67.3265 18.7702C67.3265 17.797 67.5988 17.0534 68.1432 16.5285C68.6877 16.0145 69.3302 15.7521 70.0706 15.7521C70.528 15.7521 70.9636 15.8615 71.3774 16.0911C71.7911 16.3098 72.1287 16.6488 72.4009 17.0971C72.6623 17.5455 72.8038 18.1032 72.8038 18.7593C72.8038 19.4263 72.6732 19.984 72.4009 20.4215C72.1396 20.8917 71.7911 21.2307 71.3774 21.4494ZM68.4155 25.4845H71.3774C72.1941 25.4845 72.7167 25.6485 73.0652 25.9984C73.4137 26.3484 73.5879 26.8186 73.5879 27.3653C73.5879 28.1636 73.2721 28.8197 72.6405 29.3118C72.0089 29.8039 71.1596 30.0554 70.1033 30.0554C69.1886 30.0554 68.4264 29.8476 67.8601 29.454C67.3048 29.0603 67.0216 28.4589 67.0216 27.6934C67.0216 27.2122 67.1523 26.7639 67.4137 26.3702C67.6859 25.9766 68.0017 25.6922 68.4155 25.4845Z" fill="#667085"/>
<path d="M117.939 25.3292C117.721 25.2089 117.558 25.0339 117.427 24.8371C117.308 24.6184 117.242 24.3997 117.242 24.1482C117.242 23.8966 117.308 23.667 117.427 23.4592C117.547 23.2405 117.721 23.0874 117.939 22.9671C118.157 22.8469 118.396 22.7812 118.669 22.7812C118.941 22.7812 119.18 22.8469 119.398 22.9671C119.616 23.0874 119.779 23.2624 119.91 23.4592C120.03 23.6779 120.095 23.8966 120.095 24.1482C120.095 24.3997 120.03 24.6293 119.91 24.8371C119.79 25.0558 119.616 25.2089 119.398 25.3292C119.18 25.4495 118.941 25.5151 118.669 25.5151C118.407 25.5151 118.157 25.4604 117.939 25.3292ZM119.278 25.1761C119.464 25.0777 119.594 24.9246 119.703 24.7605C119.801 24.5746 119.856 24.3778 119.856 24.1482C119.856 23.9185 119.801 23.7217 119.703 23.5358C119.605 23.3499 119.464 23.2077 119.278 23.1202C119.093 23.0218 118.897 22.9671 118.669 22.9671C118.44 22.9671 118.244 23.0218 118.059 23.1202C117.874 23.2187 117.743 23.3718 117.634 23.5358C117.536 23.7217 117.482 23.9185 117.482 24.1482C117.482 24.3778 117.536 24.5746 117.634 24.7605C117.732 24.9464 117.874 25.0886 118.059 25.1761C118.244 25.2745 118.44 25.3292 118.669 25.3292C118.897 25.3292 119.104 25.2745 119.278 25.1761ZM118.081 24.8043V24.7059L118.102 24.6949H118.168C118.19 24.6949 118.211 24.684 118.222 24.673C118.244 24.6512 118.244 24.6402 118.244 24.6184V23.6123C118.244 23.5905 118.233 23.5686 118.222 23.5577C118.2 23.5358 118.19 23.5358 118.168 23.5358H118.102L118.081 23.5248V23.4374L118.102 23.4264H118.669C118.832 23.4264 118.952 23.4592 119.05 23.5358C119.148 23.6123 119.191 23.7107 119.191 23.842C119.191 23.9404 119.159 24.0388 119.082 24.1044C119.006 24.181 118.919 24.2247 118.81 24.2356L118.941 24.2794L119.191 24.673C119.213 24.7059 119.235 24.7168 119.268 24.7168H119.333L119.344 24.7277V24.8261L119.333 24.8371H118.995L118.974 24.8261L118.625 24.2466H118.538V24.6293C118.538 24.6512 118.549 24.673 118.56 24.684C118.582 24.7059 118.592 24.7059 118.614 24.7059H118.68L118.701 24.7168V24.8152L118.68 24.8261H118.102L118.081 24.8043ZM118.636 24.0935C118.723 24.0935 118.799 24.0716 118.843 24.0169C118.886 23.9732 118.919 23.8966 118.919 23.8092C118.919 23.7217 118.897 23.6561 118.854 23.6014C118.81 23.5467 118.745 23.5248 118.669 23.5248H118.625C118.603 23.5248 118.582 23.5358 118.571 23.5467C118.549 23.5686 118.549 23.5795 118.549 23.6014V24.0825H118.636V24.0935Z" fill="#667085"/>
</g>
<defs>
<clipPath id="clip0_223_8666">
<rect width="120" height="30.4" fill="white" transform="translate(0.0859375 0.800781)"/>
</clipPath>
</defs>
</svg>
