<svg width="54" height="54" viewBox="0 0 54 54" fill="none" xmlns="http://www.w3.org/2000/svg">
<g filter="url(#filter0_dd_2001_4683)">
<g clip-path="url(#clip0_2001_4683)">
<rect x="3" y="2" width="48" height="48" rx="8" fill="white"/>
<path d="M3 6C3 3.79086 4.79086 2 7 2H51L3 50V6Z" fill="white" stroke="#B30041" stroke-width="1.5"/>
<path d="M51 46C51 48.2091 49.2091 50 47 50L3 50L51 2L51 46Z" fill="#F9FAFB" stroke="#EAECF0" stroke-width="1.5"/>
<g clip-path="url(#clip1_2001_4683)">
<path d="M36 44.0368C40.9705 44.0368 45 39.9913 45 35.0009C45 30.0104 40.9705 25.9648 36 25.9648C31.0294 25.9648 27 30.0104 27 35.0009C27 39.9913 31.0294 44.0368 36 44.0368Z" fill="#3A589B"/>
<path fill-rule="evenodd" clip-rule="evenodd" d="M31.2794 42.6576L36.1898 36.012L35.4527 35.293L28.5078 40.0329C29.1956 41.1113 30.1488 42.0146 31.2794 42.6576Z" fill="#FFBA00"/>
<path d="M44.9617 26.0874C44.9547 26.0945 44.9338 26.116 44.885 26.1659C44.9338 26.1231 44.9617 26.0945 44.9617 26.0874C44.8153 26.0803 44.6829 26.1017 44.6829 26.1017C41.6793 26.5872 39.3447 27.551 37.5816 29.0646C37.1634 29.4216 36.5014 30.0927 36.1878 30.4925C36.0554 30.6638 35.8254 30.9994 35.6582 31.235C35.5118 31.4706 35.3236 31.7205 35.3236 31.7205C35.3236 31.7205 35.2122 31.6848 35.017 31.6634C34.5919 31.5777 33.8114 31.6562 33.4002 32.0417C32.9821 32.4201 31.2608 34.1479 31.1562 34.2764C31.2817 34.3122 33.7417 34.5049 34.0135 34.5906C34.1041 34.6334 34.132 34.6691 34.1808 34.7405C34.1877 34.7976 34.1598 35.0404 34.1598 35.0332C34.1389 35.176 34.0832 36.0256 33.9786 36.2469L35.1076 37.4035C35.3236 37.2893 36.0902 37.1751 36.2366 37.1537C36.2296 37.1537 36.4665 37.1251 36.5223 37.1322C36.592 37.1823 36.6268 37.2108 36.6686 37.3036C36.7523 37.582 36.9474 40.1023 36.9823 40.2308C37.1077 40.1308 38.8011 38.3602 39.1635 37.9318C39.5399 37.5106 39.6095 36.7181 39.5329 36.2755C39.505 36.0756 39.4771 35.9613 39.4771 35.9613C39.4771 35.9613 39.721 35.7757 39.951 35.6187C40.181 35.4473 40.5085 35.2117 40.6758 35.0761C41.073 34.7548 41.7281 34.0694 42.0695 33.6481C43.547 31.8418 44.4808 29.4501 44.9547 26.373C44.9477 26.3801 44.9686 26.2373 44.9617 26.0874ZM41.7838 31.1065C41.3099 31.592 40.5434 31.592 40.0695 31.1065C39.5956 30.621 39.5956 29.8357 40.0695 29.3502C40.5434 28.8647 41.3099 28.8647 41.7838 29.3502C42.2577 29.8428 42.2577 30.6281 41.7838 31.1065Z" fill="white"/>
</g>
<g filter="url(#filter1_d_2001_4683)">
<path fill-rule="evenodd" clip-rule="evenodd" d="M9 17C14.7206 17 18 13.7206 18 8C18 13.7206 21.2794 17 27 17C21.2794 17 18 20.2794 18 26C18 20.2794 14.7206 17 9 17Z" fill="#FF005D"/>
</g>
</g>
<rect x="3.5" y="2.5" width="47" height="47" rx="7.5" stroke="white"/>
</g>
<defs>
<filter id="filter0_dd_2001_4683" x="0" y="0" width="54" height="54" filterUnits="userSpaceOnUse" color-interpolation-filters="sRGB">
<feFlood flood-opacity="0" result="BackgroundImageFix"/>
<feColorMatrix in="SourceAlpha" type="matrix" values="0 0 0 0 0 0 0 0 0 0 0 0 0 0 0 0 0 0 127 0" result="hardAlpha"/>
<feOffset dy="1"/>
<feGaussianBlur stdDeviation="1"/>
<feColorMatrix type="matrix" values="0 0 0 0 0.0627451 0 0 0 0 0.0941176 0 0 0 0 0.156863 0 0 0 0.06 0"/>
<feBlend mode="normal" in2="BackgroundImageFix" result="effect1_dropShadow_2001_4683"/>
<feColorMatrix in="SourceAlpha" type="matrix" values="0 0 0 0 0 0 0 0 0 0 0 0 0 0 0 0 0 0 127 0" result="hardAlpha"/>
<feOffset dy="1"/>
<feGaussianBlur stdDeviation="1.5"/>
<feColorMatrix type="matrix" values="0 0 0 0 0.0627451 0 0 0 0 0.0941176 0 0 0 0 0.156863 0 0 0 0.1 0"/>
<feBlend mode="normal" in2="effect1_dropShadow_2001_4683" result="effect2_dropShadow_2001_4683"/>
<feBlend mode="normal" in="SourceGraphic" in2="effect2_dropShadow_2001_4683" result="shape"/>
</filter>
<filter id="filter1_d_2001_4683" x="6.97059" y="6.98529" width="22.0588" height="22.0588" filterUnits="userSpaceOnUse" color-interpolation-filters="sRGB">
<feFlood flood-opacity="0" result="BackgroundImageFix"/>
<feColorMatrix in="SourceAlpha" type="matrix" values="0 0 0 0 0 0 0 0 0 0 0 0 0 0 0 0 0 0 127 0" result="hardAlpha"/>
<feOffset dy="1.01471"/>
<feGaussianBlur stdDeviation="1.01471"/>
<feComposite in2="hardAlpha" operator="out"/>
<feColorMatrix type="matrix" values="0 0 0 0 0.68291 0 0 0 0 0 0 0 0 0 0.249061 0 0 0 0.44 0"/>
<feBlend mode="normal" in2="BackgroundImageFix" result="effect1_dropShadow_2001_4683"/>
<feBlend mode="normal" in="SourceGraphic" in2="effect1_dropShadow_2001_4683" result="shape"/>
</filter>
<clipPath id="clip0_2001_4683">
<rect x="3" y="2" width="48" height="48" rx="8" fill="white"/>
</clipPath>
<clipPath id="clip1_2001_4683">
<rect width="18" height="18" fill="white" transform="translate(27 26)"/>
</clipPath>
</defs>
</svg>
