<svg width="63" height="44" viewBox="0 0 63 44" fill="none" xmlns="http://www.w3.org/2000/svg">
<g clip-path="url(#clip0_223_8715)">
<mask id="mask0_223_8715" style="mask-type:luminance" maskUnits="userSpaceOnUse" x="0" y="0" width="63" height="44">
<path d="M0.882812 0.511719H62.2806V43.5851H0.882812V0.511719Z" fill="white"/>
</mask>
<g mask="url(#mask0_223_8715)">
<path fill-rule="evenodd" clip-rule="evenodd" d="M26.4228 5.21102C28.4033 3.14285 31.1609 1.85951 34.2104 1.85951C38.264 1.85951 41.8012 4.12536 43.6842 7.48954C45.369 6.73491 47.1939 6.34597 49.0393 6.34824C56.351 6.34824 62.2786 12.3417 62.2786 19.7355C62.2786 27.1293 56.351 33.123 49.0393 33.123C48.1464 33.123 47.2746 33.0329 46.4311 32.8624C44.7729 35.8274 41.6116 37.8311 37.9842 37.8311C36.517 37.8331 35.0688 37.499 33.7501 36.8542C32.0691 40.8189 28.151 43.5986 23.5861 43.5986C18.8311 43.5986 14.7786 40.5832 13.2242 36.3541C12.5314 36.5007 11.8252 36.5744 11.1172 36.574C5.45605 36.574 0.867188 31.926 0.867188 26.1926C0.867188 22.3499 2.92864 18.995 5.99262 17.2003C5.34346 15.7019 5.0094 14.0855 5.01131 12.4519C5.01131 5.85766 10.3516 0.511719 16.9389 0.511719C20.8064 0.511719 24.2436 2.35462 26.4228 5.21102Z" fill="#667085"/>
</g>
<path fill-rule="evenodd" clip-rule="evenodd" d="M9.76396 22.8568C9.72537 22.9577 9.77772 22.9787 9.79013 22.9966C9.90543 23.0803 10.0225 23.1409 10.1408 23.209C10.7669 23.5412 11.3588 23.6387 11.977 23.6387C13.2368 23.6387 14.0193 22.9674 14.0193 21.8863V21.865C14.0193 20.8653 13.1359 20.5021 12.3081 20.2399L12.2 20.2049C11.5756 20.0018 11.0368 19.826 11.0368 19.4137V19.3927C11.0368 19.0396 11.3518 18.7802 11.8399 18.7802C12.3825 18.7802 13.0256 18.9609 13.4403 19.1905C13.4403 19.1905 13.5626 19.2696 13.6071 19.1513C13.6312 19.0873 13.8408 18.5214 13.8632 18.4601C13.8871 18.3939 13.8451 18.3439 13.802 18.3181C13.3284 18.0288 12.6743 17.832 11.9971 17.832L11.8714 17.8325C10.7184 17.8325 9.91333 18.5314 9.91333 19.5315V19.553C9.91333 20.607 10.8015 20.9497 11.6334 21.1878L11.767 21.2295C12.3728 21.4158 12.8961 21.5769 12.8961 22.0041V22.0254C12.8961 22.4167 12.556 22.7073 12.0084 22.7073C11.7961 22.7073 11.1183 22.7037 10.3858 22.2393C10.2971 22.1875 10.2466 22.1502 10.1782 22.1084C10.1421 22.0864 10.0519 22.0469 10.0126 22.1654L9.76396 22.8568ZM28.2056 22.8568C28.167 22.9577 28.2194 22.9787 28.2322 22.9966C28.3471 23.0803 28.4644 23.1409 28.5824 23.209C29.2088 23.5412 29.8007 23.6387 30.4187 23.6387C31.6784 23.6387 32.4612 22.9674 32.4612 21.8863V21.865C32.4612 20.8653 31.578 20.5021 30.7499 20.2399L30.6418 20.2049C30.0175 20.0018 29.4784 19.826 29.4784 19.4137V19.3927C29.4784 19.0396 29.7937 18.7802 30.2819 18.7802C30.8244 18.7802 31.4672 18.9609 31.882 19.1905C31.882 19.1905 32.0043 19.2696 32.0489 19.1513C32.0729 19.0873 32.2827 18.5214 32.3048 18.4601C32.329 18.3939 32.2868 18.3439 32.2439 18.3181C31.77 18.0288 31.1161 17.832 30.439 17.832L30.3131 17.8325C29.1603 17.8325 28.3552 18.5314 28.3552 19.5315V19.553C28.3552 20.607 29.2431 20.9497 30.0753 21.1878L30.2086 21.2295C30.8147 21.4158 31.3379 21.5769 31.3379 22.0041V22.0254C31.3379 22.4167 30.9977 22.7073 30.4505 22.7073C30.2377 22.7073 29.5599 22.7037 28.8277 22.2393C28.739 22.1875 28.6871 22.1518 28.6199 22.1084C28.5971 22.0939 28.4908 22.0523 28.4545 22.1654L28.2056 22.8568ZM40.7952 20.7389C40.7952 21.3496 40.6815 21.8318 40.4581 22.1717C40.2361 22.5087 39.901 22.6727 39.4337 22.6727C38.9664 22.6727 38.6331 22.5089 38.4147 22.1722C38.1943 21.832 38.0824 21.3496 38.0824 20.7389C38.0824 20.1286 38.1943 19.648 38.4147 19.3115C38.6331 18.9778 38.9664 18.8159 39.4337 18.8159C39.901 18.8159 40.2361 18.9781 40.4581 19.3117C40.682 19.648 40.7952 20.1286 40.7952 20.7389ZM41.8472 19.6064C41.7436 19.256 41.5827 18.9478 41.3686 18.6906C41.154 18.4328 40.8826 18.2254 40.5608 18.0752C40.2395 17.9248 39.8604 17.8485 39.4337 17.8485C39.007 17.8485 38.6277 17.9248 38.3062 18.0752C37.9849 18.2254 37.7132 18.4328 37.4986 18.6911C37.2847 18.9487 37.1234 19.2565 37.0203 19.6064C36.9176 19.954 36.8655 20.3351 36.8655 20.7389C36.8655 21.1428 36.9176 21.5242 37.0203 21.8713C37.1234 22.221 37.2843 22.5291 37.4988 22.7871C37.7134 23.0454 37.9858 23.251 38.3066 23.3976C38.6284 23.5442 39.0075 23.6188 39.4337 23.6188C39.8602 23.6188 40.2388 23.5442 40.5603 23.3976C40.8817 23.251 41.1536 23.0454 41.3686 22.7871C41.5827 22.53 41.7436 22.2215 41.8472 21.8713C41.9496 21.5235 42.0017 21.1424 42.0017 20.7389C42.0017 20.3356 41.9496 19.9543 41.8472 19.6064ZM50.4818 22.5092C50.4473 22.4067 50.3475 22.4454 50.3475 22.4454C50.1948 22.504 50.0323 22.5582 49.8586 22.5854C49.6835 22.613 49.4896 22.6268 49.2823 22.6268C48.7739 22.6268 48.3689 22.475 48.0798 22.1751C47.7894 21.875 47.6263 21.39 47.6281 20.7341C47.6297 20.1379 47.7736 19.6887 48.0318 19.3463C48.2876 19.0061 48.6785 18.8315 49.1981 18.8315C49.632 18.8315 49.963 18.8819 50.3098 18.991C50.3098 18.991 50.3922 19.0269 50.4317 18.9181C50.524 18.6619 50.5921 18.4796 50.6905 18.198C50.7185 18.1177 50.6499 18.0838 50.6248 18.074C50.4885 18.0207 50.1666 17.9331 49.9235 17.8963C49.6963 17.8614 49.4307 17.8433 49.1345 17.8433C48.6929 17.8433 48.2992 17.9191 47.9625 18.0693C47.6265 18.2192 47.3415 18.4264 47.1157 18.684C46.8898 18.9421 46.7179 19.2504 46.6041 19.6001C46.4902 19.9479 46.4327 20.3297 46.4327 20.7346C46.4327 21.6088 46.668 22.3151 47.1321 22.8326C47.5979 23.3519 48.2964 23.6156 49.2083 23.6156C49.7469 23.6156 50.2995 23.5064 50.6975 23.3494C50.6975 23.3494 50.7733 23.3128 50.7404 23.2241L50.4818 22.5092ZM52.3217 20.1533C52.372 19.8138 52.4647 19.5318 52.6093 19.3115C52.8275 18.9778 53.1597 18.794 53.627 18.794C54.0945 18.794 54.4025 18.9781 54.6245 19.3117C54.7712 19.5322 54.8353 19.826 54.8603 20.1537L52.3217 20.1533ZM55.8617 19.4076C55.7722 19.0697 55.5515 18.7284 55.4064 18.5723C55.1774 18.3249 54.9531 18.1516 54.7304 18.0559C54.4081 17.9186 54.0614 17.8481 53.7112 17.8485C53.2669 17.8485 52.8632 17.9239 52.5358 18.0777C52.2079 18.2319 51.9324 18.4427 51.7165 18.7046C51.5001 18.9663 51.3379 19.2778 51.2343 19.6311C51.1305 19.9823 51.0781 20.3652 51.0781 20.7696C51.0781 21.1808 51.1325 21.5642 51.2395 21.9089C51.3476 22.2565 51.5211 22.5616 51.7553 22.8156C51.9893 23.0705 52.2905 23.2705 52.6504 23.4098C53.0085 23.5489 53.4435 23.6211 53.9424 23.6195C54.9709 23.6161 55.5118 23.3863 55.7352 23.2626C55.7746 23.2404 55.8119 23.2022 55.7654 23.092L55.5325 22.4388C55.4969 22.3413 55.3985 22.3766 55.3985 22.3766C55.1433 22.4721 54.782 22.6424 53.9372 22.6406C53.3853 22.6397 52.9765 22.4761 52.7195 22.2208C52.4566 21.9596 52.3275 21.576 52.3056 21.034L55.8644 21.0367C55.8644 21.0367 55.9583 21.0358 55.968 20.944C55.9719 20.906 56.0901 20.2112 55.8617 19.4076ZM23.8144 20.1533C23.8647 19.8138 23.9577 19.5318 24.1021 19.3115C24.3205 18.9778 24.6522 18.794 25.12 18.794C25.5875 18.794 25.8955 18.9781 26.1175 19.3117C26.264 19.5322 26.328 19.826 26.3531 20.1537L23.8144 20.1533ZM27.3545 19.4076C27.2651 19.0697 27.0442 18.7284 26.8994 18.5723C26.6703 18.3249 26.4463 18.1516 26.2233 18.0559C25.901 17.9187 25.5543 17.8482 25.2041 17.8485C24.7598 17.8485 24.3562 17.9239 24.0288 18.0777C23.7009 18.2319 23.4254 18.4427 23.209 18.7046C22.9931 18.9663 22.8308 19.2778 22.7268 19.6311C22.6232 19.9823 22.5711 20.3652 22.5711 20.7696C22.5711 21.1808 22.625 21.5642 22.7327 21.9089C22.8405 22.2565 23.0143 22.5616 23.248 22.8156C23.4823 23.0705 23.7833 23.2705 24.1432 23.4098C24.5015 23.5489 24.9361 23.6211 25.4354 23.6195C26.4636 23.6161 27.0047 23.3863 27.2281 23.2626C27.2674 23.2404 27.3048 23.2022 27.2581 23.092L27.0255 22.4388C26.9896 22.3413 26.8912 22.3766 26.8912 22.3766C26.6363 22.4721 26.275 22.6424 25.43 22.6406C24.8783 22.6397 24.4692 22.4761 24.2122 22.2208C23.9496 21.9596 23.8203 21.576 23.7984 21.034L27.3574 21.0367C27.3574 21.0367 27.4513 21.0358 27.461 20.944C27.4648 20.906 27.5831 20.2112 27.3545 19.4076ZM16.1207 22.4897C15.981 22.378 15.9616 22.3506 15.9154 22.278C15.8448 22.1688 15.8087 22.0132 15.8087 21.8139C15.8087 21.5006 15.9124 21.2749 16.1264 21.1234C16.1241 21.1238 16.4332 20.856 17.1587 20.8655C17.4823 20.8713 17.8052 20.8989 18.1251 20.9481V22.5698H18.1255C18.1255 22.5698 17.6731 22.6673 17.1639 22.698C16.44 22.7417 16.1185 22.489 16.1207 22.4897ZM17.5371 19.9823C17.3927 19.9717 17.2056 19.9665 16.9813 19.9665C16.6765 19.9665 16.3816 20.0045 16.1047 20.0791C15.8267 20.1542 15.5767 20.2705 15.3617 20.4245C15.1468 20.5784 14.97 20.7797 14.8452 21.013C14.719 21.2485 14.6547 21.5251 14.6547 21.8352C14.6547 22.1516 14.7096 22.4257 14.8179 22.6496C14.9238 22.8716 15.0834 23.0636 15.282 23.2083C15.4799 23.3526 15.724 23.4584 16.0072 23.5231C16.2868 23.5871 16.6036 23.6195 16.9497 23.6195C17.3153 23.6195 17.6788 23.5887 18.031 23.5292C18.331 23.4774 18.6299 23.4192 18.9275 23.3546C19.0462 23.3273 19.177 23.2913 19.177 23.2913C19.265 23.2689 19.2583 23.1746 19.2583 23.1746L19.2562 19.9117C19.2562 19.1961 19.0658 18.666 18.6905 18.3366C18.3171 18.0089 17.7672 17.8433 17.0558 17.8433C16.7886 17.8433 16.3594 17.8795 16.1018 17.9313C16.1018 17.9313 15.3247 18.0824 15.0047 18.3337C15.0047 18.3337 14.9343 18.3771 14.9727 18.4755L15.2247 19.154C15.2561 19.242 15.3416 19.2119 15.3416 19.2119C15.3416 19.2119 15.3684 19.2013 15.4 19.1825C16.0846 18.8093 16.9508 18.8204 16.9508 18.8204C17.3353 18.8204 17.6316 18.8985 17.8306 19.0511C18.0249 19.2006 18.1235 19.4257 18.1235 19.9013V20.0522C17.8182 20.0079 17.5371 19.9823 17.5371 19.9823ZM46.2465 18.1442C46.2516 18.1322 46.2543 18.1194 46.2544 18.1064C46.2545 18.0934 46.2519 18.0805 46.2469 18.0686C46.242 18.0566 46.2346 18.0457 46.2253 18.0366C46.2161 18.0275 46.2051 18.0204 46.193 18.0157C46.1323 17.9926 45.8297 17.9286 45.5964 17.9141C45.149 17.8861 44.901 17.9616 44.6785 18.0621C44.4578 18.1618 44.2135 18.3231 44.0772 18.5069L44.0767 18.0718C44.0767 18.0121 44.0345 17.9639 43.9745 17.9639H43.062C43.0029 17.9639 42.96 18.0121 42.96 18.0718V23.3942C42.9601 23.4229 42.9715 23.4504 42.9918 23.4707C43.012 23.491 43.0395 23.5025 43.0681 23.5025H44.0034C44.032 23.5025 44.0595 23.491 44.0797 23.4707C44.0999 23.4504 44.1113 23.4229 44.1113 23.3942V20.7355C44.1113 20.3783 44.1505 20.0226 44.2288 19.7989C44.306 19.5774 44.4109 19.401 44.5409 19.2741C44.664 19.1517 44.8148 19.0608 44.9804 19.0091C45.1357 18.9644 45.2964 18.9417 45.4579 18.9417C45.644 18.9417 45.8489 18.9896 45.8489 18.9896C45.9175 18.9973 45.9556 18.9552 45.9789 18.8933C46.04 18.7302 46.2133 18.2414 46.2465 18.1442Z" fill="white"/>
<path fill-rule="evenodd" clip-rule="evenodd" d="M37.4639 15.6761C37.3485 15.6411 37.231 15.6132 37.1122 15.5924C36.9523 15.5657 36.7904 15.5531 36.6284 15.5549C35.9846 15.5549 35.4772 15.7372 35.1209 16.0972C34.7671 16.4546 34.5263 16.999 34.4056 17.7153L34.3621 17.9571H33.554C33.554 17.9571 33.4554 17.953 33.4347 18.0609L33.302 18.8028C33.2927 18.8738 33.3232 18.9181 33.418 18.9177H34.2046L33.4065 23.3831C33.344 23.7427 33.2724 24.0386 33.1932 24.2627C33.1152 24.4839 33.0389 24.6497 32.945 24.77C32.8541 24.8865 32.7679 24.9722 32.6192 25.0222C32.4965 25.0636 32.3552 25.0826 32.2004 25.0826C32.1142 25.0826 31.9996 25.0681 31.915 25.0512C31.8304 25.0344 31.7864 25.0154 31.723 24.9887C31.723 24.9887 31.6307 24.9534 31.5943 25.0462C31.5648 25.122 31.3552 25.6998 31.3303 25.7713C31.3051 25.8419 31.3405 25.8975 31.3852 25.9136C31.4899 25.9511 31.5677 25.9751 31.7103 26.0088C31.9084 26.0556 32.0754 26.0586 32.2318 26.0586C32.5594 26.0586 32.8579 26.0124 33.1055 25.9228C33.3546 25.8326 33.5714 25.6754 33.7632 25.4626C33.9706 25.233 34.101 24.9926 34.2258 24.6646C34.3492 24.3396 34.4543 23.9361 34.5385 23.4659L35.3404 18.9177H36.5129C36.5129 18.9177 36.6117 18.9213 36.6322 18.8138L36.7649 18.072C36.7742 18.001 36.7439 17.9566 36.6487 17.9571H35.5108C35.5164 17.9313 35.5681 17.5301 35.6988 17.1523C35.7545 16.9911 35.8594 16.861 35.9483 16.7717C36.0313 16.6866 36.1336 16.6228 36.2464 16.5858C36.3701 16.5474 36.499 16.5288 36.6284 16.5306C36.7356 16.5306 36.8407 16.5435 36.9208 16.5602C37.0312 16.5837 37.074 16.5962 37.1029 16.6048C37.2189 16.6403 37.2345 16.6059 37.2573 16.5496L37.5294 15.8005C37.5574 15.72 37.4892 15.686 37.4639 15.6761ZM21.5621 23.3926C21.5621 23.4523 21.5197 23.5009 21.4601 23.5009H20.5163C20.4565 23.5009 20.4141 23.4523 20.4141 23.3926V15.7776C20.4141 15.7182 20.4565 15.67 20.5163 15.67H21.4601C21.5197 15.67 21.5621 15.7182 21.5621 15.7776V23.3926Z" fill="white"/>
</g>
<defs>
<clipPath id="clip0_223_8715">
<rect width="61.6" height="43.2" fill="white" transform="translate(0.867188 0.398438)"/>
</clipPath>
</defs>
</svg>
