<svg width="141" height="33" viewBox="0 0 141 33" fill="none" xmlns="http://www.w3.org/2000/svg">
<g clip-path="url(#clip0_223_8724)">
<path fill-rule="evenodd" clip-rule="evenodd" d="M138.968 9.64853H138.597V10.1087H138.968C139.138 10.1087 139.251 10.0328 139.251 9.87861C139.251 9.72446 139.147 9.64853 138.968 9.64853ZM138.142 9.22748H138.975C139.435 9.22748 139.734 9.47597 139.734 9.86251C139.735 9.97022 139.708 10.0764 139.655 10.1702C139.602 10.264 139.526 10.342 139.432 10.3963L139.759 10.8703V10.9646H139.285L138.968 10.5044H138.597V10.9646H138.137L138.142 9.22748ZM140.472 10.1294C140.472 9.20907 139.854 8.49581 138.906 8.49581C137.958 8.49581 137.357 9.16535 137.357 10.1294C137.357 11.0497 137.976 11.7653 138.906 11.7653C139.835 11.7653 140.472 11.0589 140.472 10.1294ZM140.861 10.1294C140.861 11.2246 140.13 12.1357 138.906 12.1357C137.682 12.1357 136.971 11.2154 136.971 10.1294C136.971 9.04341 137.693 8.12538 138.906 8.12538C140.118 8.12538 140.852 9.03651 140.852 10.1294H140.861ZM31.3577 14.0201L27.5866 16.2013L31.3577 18.3756C31.8154 18.6392 32.1495 19.0738 32.2868 19.5839C32.424 20.0939 32.353 20.6375 32.0893 21.0952C31.8257 21.5528 31.3911 21.887 30.8811 22.0243C30.3711 22.1615 29.8274 22.0905 29.3698 21.8268L22.6168 17.9154C22.1832 17.6653 21.8609 17.2599 21.7149 16.7811C21.6495 16.5721 21.6199 16.3535 21.6275 16.1346C21.6309 15.9789 21.6541 15.8243 21.6965 15.6744C21.8358 15.1722 22.1661 14.7444 22.6168 14.4826L29.3698 10.585C29.8274 10.3214 30.3711 10.2503 30.8811 10.3876C31.3911 10.5248 31.8257 10.859 32.0893 11.3166C32.353 11.7743 32.424 12.3179 32.2868 12.828C32.1495 13.338 31.8154 13.7726 31.3577 14.0362V14.0201ZM27.7868 24.5878L21.0361 20.6948C20.6886 20.4917 20.2868 20.4009 19.8857 20.4348C19.3854 20.4715 18.9175 20.6961 18.5761 21.0636C18.2346 21.4311 18.0449 21.9142 18.0451 22.4159V30.2111C18.0451 30.7383 18.2545 31.2439 18.6273 31.6168C19.0001 31.9896 19.5058 32.199 20.033 32.199C20.5602 32.199 21.0658 31.9896 21.4387 31.6168C21.8115 31.2439 22.0209 30.7383 22.0209 30.2111V25.8395L25.8104 28.0391C26.037 28.1695 26.2871 28.2539 26.5463 28.2877C26.8056 28.3214 27.0689 28.3037 27.3214 28.2357C27.5738 28.1676 27.8104 28.0505 28.0175 27.8911C28.2247 27.7316 28.3984 27.5329 28.5288 27.3063C28.6592 27.0797 28.7437 26.8296 28.7774 26.5703C28.8111 26.3111 28.7935 26.0477 28.7254 25.7953C28.6574 25.5429 28.5403 25.3063 28.3808 25.0991C28.2213 24.892 28.0226 24.7182 27.796 24.5878H27.7868ZM19.9962 16.9629L17.1891 19.7561C17.0935 19.8465 16.9686 19.8995 16.8371 19.9056H16.0134C15.8816 19.8983 15.7563 19.8454 15.6591 19.7561L12.8544 16.9629C12.7678 16.8661 12.7167 16.7428 12.7094 16.6132V15.7872C12.7159 15.656 12.767 15.5309 12.8544 15.4328L15.6591 12.6235C15.7566 12.5348 15.8818 12.4828 16.0134 12.4763H16.8371C16.9682 12.4819 17.093 12.5342 17.1891 12.6235L19.9962 15.4259C20.0835 15.524 20.1347 15.6491 20.1411 15.7803V16.6063C20.1354 16.7383 20.0842 16.8643 19.9962 16.9629ZM17.7575 16.1852C17.7484 16.0535 17.6967 15.9283 17.6102 15.8286L16.7911 15.021C16.6951 14.933 16.5715 14.8809 16.4414 14.8737H16.4092C16.2791 14.8809 16.1555 14.933 16.0594 15.021L15.2472 15.8286C15.1596 15.9274 15.1084 16.0532 15.1023 16.1852V16.2151C15.1081 16.3451 15.1594 16.4689 15.2472 16.5648L16.0594 17.377C16.1558 17.4646 16.2792 17.5165 16.4092 17.5243H16.4414C16.5715 17.5171 16.6951 17.4651 16.7911 17.377L17.6056 16.5648C17.694 16.4686 17.7475 16.3454 17.7575 16.2151V16.1852ZM5.06375 7.80556L11.8167 11.7032C12.1196 11.8778 12.4631 11.9697 12.8127 11.9698C13.1624 11.9698 13.5059 11.878 13.8088 11.7034C14.1118 11.5289 14.3635 11.2778 14.5389 10.9753C14.7142 10.6728 14.8069 10.3295 14.8078 9.97985V2.18462C14.8078 1.65739 14.5983 1.15176 14.2255 0.778952C13.8527 0.406144 13.3471 0.196703 12.8199 0.196703C12.2926 0.196703 11.787 0.406144 11.4142 0.778952C11.0414 1.15176 10.8319 1.65739 10.8319 2.18462V6.55621L7.04937 4.36351C6.82276 4.23314 6.57269 4.14867 6.31343 4.11494C6.05418 4.0812 5.79081 4.09887 5.53838 4.16691C5.02858 4.30434 4.59425 4.63866 4.33094 5.09633C4.06763 5.55399 3.99691 6.09751 4.13434 6.60732C4.27177 7.11712 4.60609 7.55145 5.06375 7.81476V7.80556ZM19.8857 11.9632C20.2867 11.9959 20.6882 11.9052 21.0361 11.7032L27.7868 7.80556C28.0134 7.67518 28.2121 7.50145 28.3716 7.29427C28.5311 7.0871 28.6482 6.85054 28.7162 6.59811C28.7843 6.34568 28.8019 6.08232 28.7682 5.82307C28.7345 5.56381 28.65 5.31374 28.5196 5.08713C28.3892 4.86051 28.2155 4.6618 28.0083 4.50233C27.8011 4.34286 27.5646 4.22576 27.3122 4.15771C27.0597 4.08966 26.7964 4.072 26.5371 4.10573C26.2779 4.13947 26.0278 4.22393 25.8012 4.35431L22.0209 6.547V2.17542C22.0209 1.64819 21.8115 1.14256 21.4387 0.769748C21.0658 0.396941 20.5602 0.1875 20.033 0.1875C19.5058 0.1875 19.0001 0.396941 18.6273 0.769748C18.2545 1.14256 18.0451 1.64819 18.0451 2.17542V9.97985C18.0448 10.4817 18.2345 10.9651 18.5759 11.333C18.9173 11.7009 19.3852 11.926 19.8857 11.9632ZM12.9694 20.4463C12.5683 20.4124 12.1665 20.5032 11.819 20.7063L5.06375 24.5878C4.83714 24.7182 4.63843 24.892 4.47896 25.0991C4.31949 25.3063 4.20239 25.5429 4.13434 25.7953C4.06629 26.0477 4.04863 26.3111 4.08236 26.5703C4.11609 26.8296 4.20056 27.0797 4.33094 27.3063C4.46132 27.5329 4.63505 27.7316 4.84223 27.8911C5.0494 28.0505 5.28595 28.1676 5.53838 28.2357C5.79081 28.3037 6.05418 28.3214 6.31343 28.2877C6.57269 28.2539 6.82276 28.1695 7.04937 28.0391L10.8319 25.8579V30.2295C10.8319 30.7567 11.0414 31.2624 11.4142 31.6352C11.787 32.008 12.2926 32.2174 12.8199 32.2174C13.3471 32.2174 13.8527 32.008 14.2255 31.6352C14.5983 31.2624 14.8078 30.7567 14.8078 30.2295V22.4159C14.8051 21.9166 14.6144 21.4366 14.2737 21.0716C13.933 20.7066 13.4673 20.4834 12.9694 20.4463ZM11.1288 16.7949C11.1949 16.586 11.2252 16.3674 11.2185 16.1484C11.2121 15.9928 11.1882 15.8384 11.1472 15.6882C11.0104 15.1847 10.6794 14.7561 10.2268 14.4964L3.49228 10.5781C3.03462 10.3145 2.49098 10.2434 1.98096 10.3807C1.47094 10.5179 1.03631 10.8521 0.772699 11.3097C0.509084 11.7674 0.438073 12.311 0.575287 12.8211C0.712501 13.3311 1.0467 13.7657 1.50436 14.0293L5.27543 16.2105L1.49516 18.3756C1.0375 18.6404 0.703782 19.0762 0.567431 19.5871C0.43108 20.098 0.503262 20.6421 0.768097 21.0998C1.03293 21.5574 1.46873 21.8912 1.97961 22.0275C2.4905 22.1639 3.03462 22.0917 3.49228 21.8268L10.2314 17.9154C10.6669 17.6675 10.9912 17.2625 11.138 16.7834L11.1288 16.7949ZM94.8791 5.1458H94.5501C94.0823 5.13706 93.6161 5.20387 93.1696 5.34367C92.7321 5.48119 92.3407 5.73581 92.0376 6.07994C91.7288 6.44065 91.5103 6.8697 91.4003 7.33159C91.2714 7.86795 91.2096 8.41821 91.2162 8.96978V10.1616H89.9024C89.6885 10.161 89.4829 10.2442 89.3298 10.3935C89.1766 10.5428 89.0881 10.7462 89.0833 10.96C89.0783 11.1867 89.1607 11.4067 89.3134 11.5743C89.4696 11.7339 89.6795 11.8298 89.9024 11.8435H91.207V21.5622C91.2075 21.6716 91.2297 21.7798 91.2724 21.8805C91.315 21.9812 91.3773 22.0725 91.4555 22.149C91.6189 22.2996 91.8338 22.3819 92.056 22.379C92.272 22.376 92.4781 22.2877 92.6294 22.1335C92.7806 21.9792 92.8648 21.7714 92.8636 21.5553V11.8435H94.2763C94.4977 11.8322 94.7069 11.7387 94.863 11.5812C95.0227 11.4204 95.1121 11.2028 95.1115 10.9761V10.9439C95.1055 10.7297 95.0155 10.5264 94.861 10.3779C94.7065 10.2294 94.4998 10.1476 94.2855 10.1501H92.8636V8.96288C92.8608 8.55739 92.9087 8.15314 93.0062 7.75954C93.0533 7.54833 93.1468 7.35026 93.28 7.17973C93.3915 7.06363 93.531 6.97808 93.685 6.93124C93.9556 6.85391 94.2366 6.81899 94.5179 6.82771H94.5616H94.626H94.702H94.8883C94.9995 6.82771 95.1096 6.80581 95.2123 6.76325C95.3151 6.7207 95.4084 6.65834 95.487 6.57971C95.5657 6.50109 95.628 6.40775 95.6706 6.30502C95.7131 6.20229 95.735 6.09219 95.735 5.981C95.735 5.86981 95.7131 5.75971 95.6706 5.65698C95.628 5.55425 95.5657 5.46091 95.487 5.38229C95.4084 5.30366 95.3151 5.2413 95.2123 5.19874C95.1096 5.15619 94.9995 5.13429 94.8883 5.13429L94.8791 5.1458ZM124.008 11.434C124.088 11.356 124.151 11.263 124.195 11.1604C124.239 11.0577 124.262 10.9474 124.263 10.8358C124.262 10.7269 124.239 10.6194 124.195 10.52C124.15 10.4206 124.086 10.3315 124.005 10.2583C123.93 10.1796 123.84 10.117 123.74 10.0742C123.64 10.0315 123.532 10.0094 123.423 10.0094C123.314 10.0094 123.207 10.0315 123.107 10.0742C123.007 10.117 122.916 10.1796 122.841 10.2583L116.346 16.5786V5.92808C116.344 5.81719 116.321 5.70768 116.277 5.6058C116.233 5.50393 116.17 5.41169 116.09 5.33434C116.011 5.257 115.917 5.19607 115.814 5.15503C115.711 5.114 115.601 5.09366 115.49 5.09518C115.381 5.09582 115.274 5.11789 115.173 5.16013C115.073 5.20237 114.982 5.26396 114.906 5.34137C114.75 5.49736 114.662 5.70789 114.659 5.92808V21.5185C114.662 21.7381 114.75 21.948 114.905 22.1032C115.061 22.2585 115.27 22.3467 115.49 22.3491C115.714 22.3522 115.929 22.2665 116.09 22.1108C116.25 21.9551 116.342 21.7421 116.346 21.5185V18.9462L118.465 16.8317L122.781 22.0385C122.855 22.1483 122.959 22.2339 123.08 22.2847C123.194 22.3267 123.314 22.3485 123.435 22.3491C123.631 22.3527 123.822 22.2903 123.978 22.172H123.989C124.074 22.0908 124.142 21.9934 124.189 21.8855C124.235 21.7776 124.26 21.6614 124.261 21.5438C124.259 21.3415 124.187 21.1461 124.056 20.9916L119.661 15.6514L124.01 11.4432L124.008 11.434ZM112.273 10.3618C112.353 10.4395 112.415 10.5323 112.458 10.6346C112.501 10.737 112.522 10.8468 112.522 10.9577V21.5185C112.52 21.7383 112.432 21.9485 112.277 22.1039C112.121 22.2592 111.911 22.3473 111.691 22.3491C111.471 22.3467 111.261 22.2584 111.105 22.1029C111.027 22.0266 110.965 21.9357 110.923 21.8354C110.881 21.7351 110.859 21.6274 110.858 21.5185V20.4878C110.34 21.069 109.706 21.535 108.996 21.8556C108.286 22.1762 107.517 22.3443 106.739 22.3491C105.96 22.3539 105.189 22.1952 104.475 21.8833C103.762 21.5714 103.121 21.1132 102.596 20.5384C101.511 19.3672 100.907 17.8293 100.907 16.2324C100.907 14.6355 101.511 13.0975 102.596 11.9264C103.123 11.3545 103.762 10.8986 104.475 10.5875C105.187 10.2765 105.956 10.1172 106.733 10.1198C107.511 10.1224 108.279 10.2869 108.989 10.6026C109.699 10.9184 110.336 11.3786 110.858 11.954V10.9462C110.858 10.8352 110.881 10.7253 110.924 10.6229C110.967 10.5206 111.03 10.4279 111.109 10.3503C111.267 10.2024 111.475 10.1202 111.691 10.1202C111.908 10.1202 112.116 10.2024 112.273 10.3503V10.3618ZM110.858 16.245C110.867 15.0681 110.429 13.9317 109.632 13.0653C109.265 12.6555 108.816 12.3278 108.314 12.1034C107.812 11.879 107.268 11.763 106.718 11.763C106.168 11.763 105.624 11.879 105.122 12.1034C104.62 12.3278 104.171 12.6555 103.804 13.0653C103.005 13.9309 102.565 15.0672 102.571 16.245C102.568 17.4149 103.01 18.542 103.809 19.3972C104.179 19.8019 104.63 20.1252 105.132 20.3463C105.634 20.5674 106.176 20.6817 106.725 20.6817C107.274 20.6817 107.816 20.5674 108.318 20.3463C108.82 20.1252 109.271 19.8019 109.641 19.3972C110.437 18.5364 110.875 17.4055 110.868 16.2335L110.858 16.245ZM43.9409 15.9367C43.2262 15.6267 42.4941 15.3586 41.7483 15.1337C41.0945 14.9474 40.4541 14.7167 39.8317 14.4435C39.6112 14.3359 39.4141 14.1857 39.2518 14.0017C39.1207 13.8489 39.0503 13.6532 39.054 13.4518C39.0484 13.1772 39.1288 12.9076 39.2841 12.681C39.5497 12.337 39.9093 12.0773 40.3194 11.9333C40.6943 11.7819 41.0933 11.6993 41.4975 11.6894C42.2158 11.6771 42.9179 11.9028 43.4946 12.3313C43.7247 12.4947 43.9133 12.6626 44.0928 12.7915C44.1789 12.8636 44.2731 12.9253 44.3735 12.9755C44.4747 13.0303 44.5875 13.0603 44.7025 13.063C44.7815 13.0632 44.8598 13.0476 44.9326 13.0169C45.0067 12.9864 45.0752 12.9437 45.1351 12.8904C45.1969 12.8327 45.2476 12.764 45.2846 12.6879C45.3159 12.6152 45.3323 12.537 45.333 12.4578C45.33 12.3116 45.2904 12.1684 45.2179 12.0414C45.0701 11.788 44.8794 11.5622 44.6542 11.3742C44.2388 11.0186 43.7738 10.7256 43.2737 10.5044C42.7696 10.264 42.2213 10.1301 41.6631 10.111C40.4276 10.111 39.3968 10.3917 38.6467 10.9071C38.2543 11.1553 37.9213 11.4868 37.6712 11.878C37.4018 12.356 37.263 12.8963 37.2685 13.4449V13.5323C37.2584 14.1004 37.4427 14.6548 37.7908 15.1038C38.2809 15.7204 39.0057 16.0909 39.7166 16.3532C40.4276 16.6155 41.1339 16.7719 41.5826 16.9215C42.204 17.1028 42.8042 17.3504 43.3726 17.66C43.5919 17.7861 43.7868 17.9505 43.9478 18.1455C44.0797 18.3269 44.1521 18.5448 44.1549 18.769V18.7874C44.1587 19.0998 44.0611 19.405 43.8765 19.6572C43.576 20.0213 43.1764 20.2907 42.7261 20.4325C42.3289 20.5738 41.912 20.6515 41.4906 20.6626C40.686 20.6802 39.8892 20.5017 39.169 20.1426C38.9067 20.0115 38.695 19.8826 38.5018 19.7722C38.4074 19.7216 38.3177 19.6733 38.2234 19.6341C38.1287 19.5942 38.0271 19.5731 37.9243 19.572C37.8526 19.5718 37.7816 19.5851 37.7149 19.6111C37.6469 19.6383 37.585 19.679 37.5331 19.7308C37.4596 19.7963 37.3981 19.8742 37.3514 19.9609C37.3084 20.049 37.2864 20.1458 37.2869 20.2439C37.2911 20.4039 37.3423 20.5591 37.4342 20.6902C37.5955 20.9042 37.7933 21.0881 38.0186 21.2332C38.3126 21.4249 38.6202 21.5949 38.9389 21.7417C39.743 22.1005 40.6103 22.296 41.4906 22.3169C42.6755 22.3169 43.7017 22.0431 44.5645 21.3966C44.9841 21.0932 45.3266 20.6955 45.5644 20.2355C45.8022 19.7755 45.9286 19.2661 45.9335 18.7483C45.9442 18.2264 45.8138 17.7113 45.5561 17.2574C45.1611 16.6663 44.5987 16.2064 43.9409 15.9367ZM98.3258 5.09518C98.1061 5.09697 97.8961 5.18545 97.7413 5.34137C97.6635 5.41795 97.6016 5.50927 97.5593 5.60999C97.5171 5.71072 97.4952 5.81885 97.4952 5.92808V21.5185C97.495 21.6275 97.5168 21.7353 97.559 21.8357C97.6013 21.9361 97.6633 22.0269 97.7413 22.1029C97.8587 22.2199 98.0079 22.2998 98.1704 22.3325C98.3328 22.3653 98.5013 22.3496 98.6549 22.2873C98.8084 22.2249 98.9402 22.1188 99.0339 21.9821C99.1276 21.8455 99.179 21.6842 99.1817 21.5185V5.92808C99.1802 5.81719 99.1568 5.70768 99.113 5.6058C99.0692 5.50393 99.0057 5.41169 98.9262 5.33434C98.8468 5.257 98.7528 5.19607 98.6498 5.15503C98.5468 5.114 98.4367 5.09366 98.3258 5.09518ZM136.609 15.8447V15.9275C136.609 16.036 136.586 16.1433 136.541 16.2421C136.496 16.3409 136.431 16.429 136.349 16.5004C136.19 16.6384 135.985 16.7137 135.774 16.7121H126.442C126.672 18.9899 128.497 20.6695 130.669 20.6879H131.218C131.949 20.6763 132.66 20.4463 133.259 20.0276C133.881 19.6101 134.402 19.0601 134.785 18.417C134.857 18.2906 134.964 18.1876 135.093 18.1202C135.212 18.0543 135.346 18.0202 135.482 18.0213C135.631 18.0212 135.777 18.0609 135.905 18.1363C136.021 18.2183 136.116 18.3265 136.182 18.452C136.248 18.5776 136.283 18.7169 136.285 18.8588C136.285 19.0101 136.245 19.1588 136.168 19.289C135.638 20.1399 134.932 20.8673 134.097 21.4219C133.245 21.9946 132.245 22.3072 131.218 22.3215H130.659C129.876 22.3148 129.102 22.1511 128.383 21.8401C127.664 21.5291 127.015 21.0771 126.474 20.5108C125.37 19.3692 124.751 17.8446 124.746 16.2565C124.74 14.6398 125.362 13.0839 126.481 11.9172C127.027 11.3487 127.681 10.8965 128.406 10.5877C129.131 10.2789 129.911 10.1199 130.698 10.1202C132.211 10.118 133.663 10.7115 134.741 11.7722C135.832 12.8538 136.492 14.2958 136.598 15.8286L136.609 15.8447ZM134.787 15.0578C134.572 14.1326 134.053 13.3062 133.313 12.7106C132.573 12.115 131.655 11.7846 130.705 11.7722C129.748 11.7795 128.821 12.1062 128.071 12.7007C127.32 13.2951 126.79 14.123 126.564 15.0532L134.787 15.0578ZM52.8084 10.1409C51.5574 10.1432 50.3525 10.6135 49.4307 11.4593V10.9738C49.4307 10.7576 49.3485 10.5495 49.2007 10.3917C49.1263 10.313 49.0368 10.2503 48.9376 10.2072C48.8383 10.1641 48.7314 10.1415 48.6231 10.1409C48.5133 10.1394 48.4043 10.1598 48.3026 10.2012C48.2008 10.2425 48.1084 10.3038 48.0307 10.3814C47.9531 10.4591 47.8918 10.5515 47.8505 10.6532C47.8092 10.755 47.7887 10.864 47.7902 10.9738V21.767L47.8248 21.8015C47.8375 21.8416 47.8561 21.8796 47.88 21.9143C47.995 22.1176 48.1849 22.2678 48.4092 22.333H48.4437H48.6231C48.7457 22.3321 48.8666 22.3047 48.9775 22.2525C49.0762 22.2073 49.1635 22.1405 49.2329 22.0569C49.2329 22.0569 49.2444 22.0362 49.2559 22.027C49.2978 21.9751 49.3326 21.9179 49.3594 21.8568C49.3805 21.8005 49.3974 21.7429 49.41 21.6842V21.6543V15.1544C49.4289 14.2611 49.7934 13.41 50.427 12.78C50.8945 12.304 51.4935 11.9786 52.1472 11.8454C52.8009 11.7123 53.4794 11.7774 54.0958 12.0326C54.7122 12.2878 55.2383 12.7213 55.6066 13.2775C55.975 13.8337 56.1687 14.4873 56.163 15.1544V21.5185C56.164 21.682 56.213 21.8416 56.3038 21.9774C56.3946 22.1133 56.5234 22.2196 56.674 22.283C56.8246 22.3465 56.9906 22.3643 57.1513 22.3344C57.312 22.3044 57.4603 22.2279 57.578 22.1144C57.6573 22.0369 57.7202 21.9442 57.7629 21.8418C57.8056 21.7394 57.8272 21.6295 57.8265 21.5185V15.1544C57.8216 13.8255 57.2912 12.5524 56.3511 11.6131C55.4109 10.6738 54.1373 10.1445 52.8084 10.1409ZM69.3468 11.9333C70.4334 13.1011 71.0375 14.6372 71.0375 16.2324C71.0375 17.8276 70.4334 19.3636 69.3468 20.5315C68.8254 21.1042 68.1901 21.5617 67.4817 21.8748C66.7733 22.1878 66.0074 22.3496 65.2329 22.3496C64.4584 22.3496 63.6924 22.1878 62.984 21.8748C62.2756 21.5617 61.6404 21.1042 61.119 20.5315C60.0278 19.3659 59.4206 17.829 59.4206 16.2324C59.4206 14.6357 60.0278 13.0988 61.119 11.9333C61.6413 11.3621 62.2769 10.906 62.9851 10.5939C63.6934 10.2819 64.4589 10.1207 65.2329 10.1207C66.0068 10.1207 66.7723 10.2819 67.4806 10.5939C68.1889 10.906 68.8244 11.3621 69.3468 11.9333ZM69.3698 16.2335C69.3773 15.0599 68.94 13.927 68.1457 13.063C67.7803 12.6521 67.332 12.3233 66.8303 12.0981C66.3287 11.8729 65.785 11.7565 65.2352 11.7565C64.6853 11.7565 64.1417 11.8729 63.64 12.0981C63.1384 12.3233 62.6901 12.6521 62.3246 13.063C61.527 13.9256 61.0863 15.0587 61.0914 16.2335C61.0865 17.4035 61.5275 18.5315 62.3246 19.388C62.6914 19.7966 63.1402 20.1233 63.6417 20.347C64.1431 20.5707 64.6861 20.6864 65.2352 20.6864C65.7843 20.6864 66.3272 20.5707 66.8287 20.347C67.3301 20.1233 67.7789 19.7966 68.1457 19.388C68.9395 18.5301 69.3772 17.4023 69.3698 16.2335ZM87.3163 10.2122C87.2218 10.1714 87.12 10.1503 87.0172 10.1501C86.8517 10.1507 86.6899 10.1993 86.5515 10.29C86.4131 10.3806 86.3039 10.5095 86.2372 10.6609L83.062 19.3534L80.6139 13.5254C80.5444 13.3695 80.4288 13.2386 80.2826 13.1504C80.1396 13.0617 79.9746 13.0147 79.8064 13.0146C79.6405 13.0164 79.4787 13.0654 79.3397 13.1558C79.2007 13.2463 79.0904 13.3745 79.0218 13.5254L76.5622 19.358L73.3686 10.6678C73.3148 10.5079 73.2076 10.3714 73.0649 10.2813C72.9276 10.1931 72.7679 10.146 72.6047 10.1455C72.4974 10.1456 72.3911 10.1667 72.2918 10.2076C72.0987 10.2976 71.9474 10.4582 71.8691 10.6564C71.7908 10.8546 71.7914 11.0752 71.8708 11.2729L75.7845 21.8268C75.8176 21.9106 75.8643 21.9883 75.9225 22.0569C75.975 22.1127 76.0365 22.1594 76.1043 22.195C76.1245 22.2128 76.146 22.2289 76.1687 22.2433C76.2051 22.2643 76.2448 22.2791 76.2861 22.287C76.3781 22.3215 76.4754 22.3402 76.5737 22.3422C76.7306 22.3388 76.8832 22.29 77.0131 22.2019C77.1471 22.1137 77.2501 21.9857 77.3076 21.836H77.3191L79.8018 15.8999L82.2889 21.813C82.3433 21.9599 82.4393 22.0878 82.5651 22.1812C82.684 22.2718 82.8242 22.3304 82.9723 22.3514H83.0758C83.171 22.3522 83.2654 22.335 83.3542 22.3008C83.4297 22.2712 83.5008 22.2317 83.5659 22.1835C83.6981 22.0787 83.8012 21.9416 83.865 21.7854L87.7764 11.2867C87.8574 11.0864 87.8561 10.8623 87.773 10.6629C87.6899 10.4636 87.5316 10.3049 87.3324 10.2214L87.3163 10.2122Z" fill="#667085"/>
</g>
<defs>
<clipPath id="clip0_223_8724">
<rect width="140.36" height="32" fill="white" transform="translate(0.5 0.199219)"/>
</clipPath>
</defs>
</svg>
