<svg width="121" height="25" viewBox="0 0 121 25" fill="none" xmlns="http://www.w3.org/2000/svg">
<g clip-path="url(#clip0_223_8687)">
<path fill-rule="evenodd" clip-rule="evenodd" d="M29.829 15.9619C29.5653 15.7968 29.3516 15.5004 29.3516 15.1045C29.3516 14.5448 29.779 14.117 30.339 14.117C30.5196 14.117 30.7015 14.1658 30.8327 14.2496C31.672 14.7762 32.5119 15.0388 33.22 15.0388C33.9443 15.0388 34.273 14.7762 34.273 14.3809V14.3471C34.273 13.8037 33.4168 13.6223 32.4457 13.3258C31.2114 12.9638 29.8121 12.3865 29.8121 10.6735V10.6404C29.8121 8.84485 31.2608 7.83984 33.0394 7.83984C33.9606 7.83984 34.9155 8.08748 35.7716 8.51525C36.1335 8.69724 36.3641 9.02622 36.3641 9.45523C36.3641 10.0156 35.9198 10.4434 35.3598 10.4434C35.1792 10.4434 35.0629 10.4102 34.8992 10.3277C34.1905 9.98182 33.5156 9.76794 32.99 9.76794C32.38 9.76794 32.067 10.0319 32.067 10.3771V10.4102C32.067 10.9049 32.9069 11.1357 33.8618 11.4647C35.0961 11.8755 36.5284 12.4691 36.5284 14.0832V14.117C36.5284 16.077 35.0629 16.9657 33.1544 16.9657C32.067 16.9657 30.8989 16.6536 29.829 15.9619Z" fill="#667085"/>
<path fill-rule="evenodd" clip-rule="evenodd" d="M37.6484 9.12631C37.6484 8.43401 38.2077 7.87428 38.8983 7.87428C39.5902 7.87428 40.1495 8.43401 40.1495 9.12631V9.24141C40.7594 8.41835 41.5987 7.80859 42.8992 7.80859C44.9566 7.80859 46.9157 9.42216 46.9157 12.3703V12.4041C46.9157 15.3529 44.9903 16.967 42.8992 16.967C41.5656 16.967 40.7425 16.3579 40.1495 15.6493V18.2853C40.1495 18.9771 39.5902 19.5368 38.8983 19.5368C38.2077 19.5368 37.6484 18.9771 37.6484 18.2853V9.12631ZM44.4135 12.4039V12.3701C44.4135 10.9054 43.4261 9.93293 42.2573 9.93293C41.0881 9.93293 40.1176 10.9054 40.1176 12.3701V12.4039C40.1176 13.8698 41.0881 14.8423 42.2573 14.8423C43.4261 14.8423 44.4135 13.8867 44.4135 12.4039Z" fill="#667085"/>
<path fill-rule="evenodd" clip-rule="evenodd" d="M54.0703 12.4372V12.4041C54.0703 9.8674 56.1107 7.80859 58.8608 7.80859C61.5921 7.80859 63.6172 9.83427 63.6172 12.3703V12.4041C63.6172 14.9413 61.5759 17.0001 58.8275 17.0001C56.0954 17.0001 54.0703 14.9738 54.0703 12.4372ZM61.1487 12.4371V12.404C61.1487 11.1026 60.2098 9.96619 58.8275 9.96619C57.3958 9.96619 56.5397 11.0694 56.5397 12.3703V12.404C56.5397 13.7055 57.4776 14.8425 58.8608 14.8425C60.2929 14.8425 61.1487 13.738 61.1487 12.4371Z" fill="#667085"/>
<path fill-rule="evenodd" clip-rule="evenodd" d="M72.8167 15.65C72.8167 16.3423 72.2566 16.9015 71.5661 16.9015C70.8743 16.9015 70.3146 16.3423 70.3146 15.65V15.5518C69.7383 16.2923 68.9975 16.9671 67.7302 16.9671C65.838 16.9671 64.7344 15.7151 64.7344 13.69V9.12707C64.7344 8.43472 65.2941 7.875 65.9846 7.875C66.6768 7.875 67.2361 8.43472 67.2361 9.12707V12.8995C67.2361 14.0846 67.7958 14.695 68.7508 14.695C69.705 14.695 70.3146 14.0846 70.3146 12.8995V9.12707C70.3146 8.43472 70.8743 7.875 71.5661 7.875C72.2566 7.875 72.8167 8.43472 72.8167 9.12707V15.65Z" fill="#667085"/>
<path fill-rule="evenodd" clip-rule="evenodd" d="M74.0938 14.2984V6.86988C74.0938 6.17695 74.6539 5.61719 75.3444 5.61719C76.0362 5.61719 76.5955 6.17695 76.5955 6.86988V7.97309H77.6983C78.2908 7.97309 78.7684 8.45089 78.7684 9.04379C78.7684 9.63665 78.2908 10.1145 77.6983 10.1145H76.5955V13.8869C76.5955 14.4629 76.8421 14.7437 77.4023 14.7437C77.4841 14.7437 77.6489 14.7268 77.6983 14.7268C78.2585 14.7268 78.736 15.1877 78.736 15.7644C78.736 16.2097 78.4391 16.5712 78.094 16.7044C77.6323 16.8857 77.2046 16.9501 76.6615 16.9501C75.1306 16.9501 74.0938 16.3422 74.0938 14.2984Z" fill="#667085"/>
<path fill-rule="evenodd" clip-rule="evenodd" d="M83.9603 16.9661C82.742 16.9661 81.3925 16.4883 80.4375 15.7141L81.079 14.8091C82.0012 15.5002 83.0223 15.8961 84.0255 15.8961C85.0465 15.8961 85.7864 15.3682 85.7864 14.5452V14.5121C85.7864 13.6559 84.7828 13.3263 83.6642 13.0136C82.3305 12.634 80.8494 12.1731 80.8494 10.6077V10.5752C80.8494 9.10922 82.0677 8.13672 83.7468 8.13672C84.7828 8.13672 85.9359 8.49884 86.8079 9.0767L86.2315 10.0317C85.4414 9.52137 84.5362 9.2068 83.7128 9.2068C82.7092 9.2068 82.0677 9.73463 82.0677 10.4432V10.4757C82.0677 11.2831 83.1207 11.5965 84.2567 11.9429C85.5734 12.3375 86.9889 12.8485 86.9889 14.3807V14.4133C86.9889 16.0274 85.6552 16.9661 83.9603 16.9661Z" fill="#667085"/>
<path fill-rule="evenodd" clip-rule="evenodd" d="M92.3966 17.0012C89.8454 17.0012 87.9844 14.9912 87.9844 12.5702C87.9844 10.148 89.8616 8.10547 92.4294 8.10547C94.9801 8.10547 96.8577 10.1155 96.8577 12.5365C96.8577 14.9586 94.9643 17.0012 92.3966 17.0012ZM92.3966 9.225C90.5521 9.225 89.2861 10.6922 89.2861 12.5365C89.2861 14.3827 90.636 15.8643 92.4294 15.8643C94.2725 15.8643 95.5572 14.3983 95.5572 12.5703C95.5572 10.7091 94.1907 9.225 92.3966 9.225Z" fill="#667085"/>
<path fill-rule="evenodd" clip-rule="evenodd" d="M102.158 17.0012C99.6729 17.0012 97.7969 14.9749 97.7969 12.5702C97.7969 10.148 99.6729 8.10547 102.158 8.10547C103.772 8.10547 104.776 8.78091 105.566 9.62145L104.726 10.5108C104.051 9.80282 103.294 9.22496 102.142 9.22496C100.414 9.22496 99.0974 10.6922 99.0974 12.5365C99.0974 14.3983 100.447 15.8642 102.224 15.8642C103.311 15.8642 104.15 15.3201 104.826 14.5953L105.632 15.3533C104.776 16.3095 103.756 17.0012 102.158 17.0012Z" fill="#667085"/>
<path fill-rule="evenodd" clip-rule="evenodd" d="M106.93 6.42698H108.379V5.02734H106.93V6.42698ZM107.011 16.8055H108.28V8.28815H107.011V16.8055Z" fill="#667085"/>
<path fill-rule="evenodd" clip-rule="evenodd" d="M110.893 9.91798L110.515 8.88046C111.454 8.45207 112.375 8.17188 113.611 8.17188C115.931 8.17188 117.231 9.35826 117.231 11.5984V16.8043H116.012V15.5191C115.42 16.2933 114.433 16.9844 112.935 16.9844C111.355 16.9844 109.758 16.0951 109.758 14.3165C109.758 12.5047 111.24 11.5491 113.395 11.5491C114.482 11.5491 115.256 11.6966 116.012 11.9118V11.6153C116.012 10.0825 115.074 9.29261 113.478 9.29261C112.474 9.29261 111.684 9.55528 110.893 9.91798ZM111.042 14.267C111.042 15.3539 112.03 15.9806 113.181 15.9806C114.746 15.9806 116.03 15.025 116.03 13.6735V12.8504C115.404 12.6697 114.564 12.489 113.526 12.489C111.931 12.489 111.042 13.18 111.042 14.267Z" fill="#667085"/>
<path fill-rule="evenodd" clip-rule="evenodd" d="M119.227 16.8032H120.495V4.77734H119.227V16.8032Z" fill="#667085"/>
<path fill-rule="evenodd" clip-rule="evenodd" d="M54.9654 7.13281C54.9654 7.13281 53.8754 7.61746 52.9204 7.59998C51.9982 7.58184 51.5431 8.04963 51.5431 8.04963L51.5443 8.05337C51.1507 8.33667 50.8268 8.82639 50.5877 9.35672V9.12593C50.5877 8.43363 50.0275 7.87391 49.3366 7.87391C48.6448 7.87391 48.0859 8.43363 48.0859 9.12593V15.6489C48.0859 16.3418 48.6448 16.9003 49.3366 16.9003C50.0275 16.9003 50.5877 16.3418 50.5877 15.6489V12.5525C50.7675 11.2267 51.443 10.4724 52.533 10.2173C52.5957 10.2035 52.6551 10.1841 52.7136 10.1635C52.7149 10.1629 52.7149 10.1629 52.7169 10.1623C52.7186 10.161 52.7223 10.161 52.7248 10.1598C55.2465 9.42676 54.9654 7.13281 54.9654 7.13281Z" fill="#667085"/>
<path fill-rule="evenodd" clip-rule="evenodd" d="M8.71522 0.199219C4.17374 0.199219 0.492188 3.88347 0.492188 8.42889V23.5711C0.492188 24.0558 1.07839 24.2985 1.42148 23.9551L5.88858 19.4866H11.5419C16.084 19.4866 19.7655 15.8024 19.7655 11.2576V0.199219H8.71522Z" fill="#667085"/>
<path fill-rule="evenodd" clip-rule="evenodd" d="M5.88559 19.4883H1.77344L4.34259 21.0318L5.88559 19.4883Z" fill="#475467"/>
<path fill-rule="evenodd" clip-rule="evenodd" d="M19.769 0.199219H8.71875V11.2576L19.769 0.199219Z" fill="#667085"/>
<path fill-rule="evenodd" clip-rule="evenodd" d="M8.71522 0.199219C4.17374 0.199219 0.492188 3.88409 0.492188 8.42889V19.4866L8.71522 11.2576V0.199219Z" fill="#344054"/>
<path fill-rule="evenodd" clip-rule="evenodd" d="M19.769 0.199219L8.71875 11.2576H19.769V0.199219Z" fill="#98A2B3"/>
</g>
<defs>
<clipPath id="clip0_223_8687">
<rect width="120" height="24.083" fill="white" transform="translate(0.492188 0.199219)"/>
</clipPath>
</defs>
</svg>
