<svg width="28" height="28" viewBox="0 0 28 28" fill="none" xmlns="http://www.w3.org/2000/svg">
<path d="M14 3.5H5.83333C5.21449 3.5 4.621 3.74583 4.18342 4.18342C3.74583 4.621 3.5 5.21449 3.5 5.83333V22.1667C3.5 22.7855 3.74583 23.379 4.18342 23.8166C4.621 24.2542 5.21449 24.5 5.83333 24.5H22.1667C22.7855 24.5 23.379 24.2542 23.8166 23.8166C24.2542 23.379 24.5 22.7855 24.5 22.1667V14" stroke="#101828" stroke-width="2" stroke-linecap="round" stroke-linejoin="round"/>
<path d="M21.437 3.06081C21.9011 2.59668 22.5306 2.33594 23.187 2.33594C23.8433 2.33594 24.4728 2.59668 24.937 3.06081C25.4011 3.52494 25.6618 4.15443 25.6618 4.81081C25.6618 5.46719 25.4011 6.09668 24.937 6.56081L14.4218 17.0771C14.1448 17.3539 13.8025 17.5565 13.4266 17.6663L10.0748 18.6463C9.9744 18.6756 9.86799 18.6773 9.76669 18.6514C9.66538 18.6254 9.57292 18.5727 9.49898 18.4988C9.42504 18.4248 9.37233 18.3324 9.34638 18.2311C9.32042 18.1298 9.32218 18.0234 9.35146 17.923L10.3315 14.5711C10.4417 14.1955 10.6447 13.8537 10.9218 13.5771L21.437 3.06081Z" stroke="#101828" stroke-width="2" stroke-linecap="round" stroke-linejoin="round"/>
</svg>
