<svg width="32" height="32" viewBox="0 0 32 32" fill="none" xmlns="http://www.w3.org/2000/svg">
<path fill-rule="evenodd" clip-rule="evenodd" d="M15.9974 3.66797C9.18588 3.66797 3.66406 9.18979 3.66406 16.0013C3.66406 22.8128 9.18588 28.3346 15.9974 28.3346C22.8089 28.3346 28.3307 22.8128 28.3307 16.0013C28.3307 15.1552 28.2457 14.3301 28.084 13.5336C27.9741 12.9923 28.3238 12.4645 28.8651 12.3546C29.4063 12.2448 29.9342 12.5945 30.044 13.1357C30.2321 14.0624 30.3307 15.0209 30.3307 16.0013C30.3307 23.9174 23.9135 30.3346 15.9974 30.3346C8.08131 30.3346 1.66406 23.9174 1.66406 16.0013C1.66406 8.08522 8.08131 1.66797 15.9974 1.66797C16.9778 1.66797 17.9363 1.76655 18.863 1.95467C19.4042 2.06454 19.7539 2.59237 19.6441 3.13362C19.5342 3.67486 19.0064 4.02456 18.4651 3.9147C17.6686 3.75301 16.8435 3.66797 15.9974 3.66797ZM15.9974 10.3346C12.8678 10.3346 10.3307 12.8717 10.3307 16.0013C10.3307 19.1309 12.8678 21.668 15.9974 21.668C19.127 21.668 21.6641 19.1309 21.6641 16.0013C21.6641 15.449 22.1118 15.0013 22.6641 15.0013C23.2163 15.0013 23.6641 15.449 23.6641 16.0013C23.6641 20.2355 20.2316 23.668 15.9974 23.668C11.7632 23.668 8.33073 20.2355 8.33073 16.0013C8.33073 11.7671 11.7632 8.33464 15.9974 8.33464C16.5497 8.33464 16.9974 8.78235 16.9974 9.33464C16.9974 9.88692 16.5497 10.3346 15.9974 10.3346ZM26.531 2.85572C26.3573 2.18987 25.8215 1.7818 25.2416 1.68915C24.6805 1.59953 24.1041 1.79795 23.6877 2.2144L22.1552 3.74691C20.9039 4.99813 20.3029 6.80344 20.734 8.45561L21.0226 9.56197L15.2903 15.2943C14.8998 15.6848 14.8998 16.318 15.2903 16.7085C15.6808 17.0991 16.314 17.0991 16.7045 16.7085L22.4369 10.9762L23.5432 11.2648C25.1954 11.6959 27.0007 11.0949 28.2519 9.84366L29.7844 8.31115C30.2009 7.8947 30.3993 7.31828 30.3097 6.75727C30.217 6.17727 29.809 5.64152 29.1431 5.46779L27.0715 4.92729L26.531 2.85572ZM24.0481 9.32963L22.9545 9.0443L22.6692 7.95069C22.4437 7.08664 22.7414 5.98911 23.5694 5.16112L24.756 3.97452L25.2843 5.99938C25.3757 6.34962 25.6492 6.62314 25.9994 6.71452L28.0243 7.24284L26.8377 8.42945C26.0097 9.25744 24.9122 9.55508 24.0481 9.32963Z" fill="#101828"/>
</svg>
