<svg width="32" height="32" viewBox="0 0 32 32" fill="none" xmlns="http://www.w3.org/2000/svg">
<path fill-rule="evenodd" clip-rule="evenodd" d="M13.6667 15.6667C10.1747 15.6667 7.33333 12.8253 7.33333 9.33333C7.33333 5.84133 10.1747 3 13.6667 3C17.1587 3 20 5.84133 20 9.33333C20 12.8253 17.1587 15.6667 13.6667 15.6667ZM13.6667 5C11.2773 5 9.33333 6.944 9.33333 9.33333C9.33333 11.7227 11.2773 13.6667 13.6667 13.6667C16.056 13.6667 18 11.7227 18 9.33333C18 6.944 16.056 5 13.6667 5ZM8.44023 29.0003C6.56156 29.0003 4.88158 28.2457 3.15624 26.6257C2.28558 25.8057 1.90431 24.9136 2.02031 23.9736C2.26164 22.027 4.62555 20.711 6.19088 19.8403L6.29464 19.7823C6.45504 19.6926 6.60404 19.6093 6.73489 19.5324C8.81756 18.3124 11.2149 17.667 13.6669 17.667C16.1189 17.667 18.5163 18.3124 20.599 19.5324C20.7298 19.6093 20.8788 19.6926 21.0393 19.7823L21.143 19.8403C22.707 20.711 25.0709 22.0283 25.3135 23.9736C25.4309 24.9136 25.0482 25.8057 24.1789 26.6243C22.4522 28.2457 20.7723 29.0003 18.8936 29.0003H8.44023ZM13.6669 19.6777C11.6056 19.6777 9.54423 20.2043 7.74557 21.2577C7.58241 21.3533 7.39619 21.4574 7.19256 21.5712L7.16432 21.587C6.17632 22.1363 4.12293 23.2803 4.00559 24.2203C3.97226 24.4923 4.14695 24.811 4.52695 25.1683C5.85761 26.4176 7.10153 27.0003 8.44153 27.0003H18.8949C20.2336 27.0003 21.4789 26.4177 22.8109 25.167C23.1896 24.811 23.3643 24.4923 23.331 24.2203C23.2137 23.2821 21.1624 22.1389 20.1738 21.5879L20.1723 21.587L20.082 21.5366C19.9022 21.4362 19.7362 21.3435 19.5909 21.2577C17.7922 20.2043 15.7309 19.6777 13.6695 19.6777H13.6669ZM24.1625 9.88162C24.3478 10.1643 24.6624 10.3336 24.9984 10.3336L24.9971 10.3323C25.0065 10.3323 25.0161 10.332 25.0258 10.3317C25.0354 10.3313 25.0451 10.331 25.0544 10.331C25.4117 10.3096 25.7318 10.1003 25.8918 9.78032C25.9104 9.74298 27.7797 6.06033 30.1117 4.89366C30.605 4.647 30.8051 4.04566 30.5584 3.55232C30.3118 3.05899 29.7117 2.85898 29.217 3.10564C27.2557 4.08698 25.6677 6.26566 24.8064 7.65232C24.173 7.11366 23.5624 6.78567 23.4611 6.73234C22.9731 6.47767 22.3704 6.66699 22.1144 7.15499C21.8584 7.64299 22.0464 8.24694 22.5344 8.50428C22.8437 8.66828 23.7385 9.23362 24.1625 9.88162Z" fill="#101828"/>
</svg>
