<svg width="32" height="32" viewBox="0 0 32 32" fill="none" xmlns="http://www.w3.org/2000/svg">
<path d="M12 4H6.66667C5.19391 4 4 5.19391 4 6.66667V12C4 13.4728 5.19391 14.6667 6.66667 14.6667H12C13.4728 14.6667 14.6667 13.4728 14.6667 12V6.66667C14.6667 5.19391 13.4728 4 12 4Z" stroke="#101828" stroke-width="2" stroke-linecap="round" stroke-linejoin="round"/>
<path d="M9.33594 14.668V20.0013C9.33594 20.7085 9.61689 21.3868 10.117 21.8869C10.6171 22.387 11.2954 22.668 12.0026 22.668H17.3359" stroke="#101828" stroke-width="2" stroke-linecap="round" stroke-linejoin="round"/>
<path d="M25.3359 17.3359H20.0026C18.5298 17.3359 17.3359 18.5298 17.3359 20.0026V25.3359C17.3359 26.8087 18.5298 28.0026 20.0026 28.0026H25.3359C26.8087 28.0026 28.0026 26.8087 28.0026 25.3359V20.0026C28.0026 18.5298 26.8087 17.3359 25.3359 17.3359Z" stroke="#101828" stroke-width="2" stroke-linecap="round" stroke-linejoin="round"/>
</svg>
