<svg width="121" height="37" viewBox="0 0 121 37" fill="none" xmlns="http://www.w3.org/2000/svg">
<g clip-path="url(#clip0_223_8727)">
<path d="M17.8894 14.1616C17.8894 16.2016 16.2094 17.8816 14.1694 17.8816C12.1294 17.8816 10.4494 16.2016 10.4494 14.1616C10.4494 12.1216 12.1294 10.4416 14.1694 10.4416C16.2094 10.4416 17.8894 12.1216 17.8894 14.1616ZM14.1694 19.3216C12.1294 19.3216 10.4494 21.0016 10.4494 23.0416C10.4494 25.0816 12.1294 26.7616 14.1694 26.7616C16.2094 26.7616 17.8894 25.0816 17.8894 23.0416C17.8894 21.0016 16.2094 19.3216 14.1694 19.3216ZM36.6094 18.6016C36.6094 28.5616 28.5694 36.6016 18.6094 36.6016C8.64937 36.6016 0.609375 28.5616 0.609375 18.6016C0.609375 8.64156 8.64937 0.601562 18.6094 0.601562C28.5694 0.601562 36.6094 8.64156 36.6094 18.6016ZM31.8094 18.6016C31.8094 11.2816 25.9294 5.40156 18.6094 5.40156C11.2894 5.40156 5.40937 11.2816 5.40937 18.6016C5.40937 25.9216 11.2894 31.8016 18.6094 31.8016C25.9294 31.8016 31.8094 25.9216 31.8094 18.6016ZM23.0494 19.3216C21.0094 19.3216 19.3294 21.0016 19.3294 23.0416C19.3294 25.0816 21.0094 26.7616 23.0494 26.7616C25.0894 26.7616 26.7694 25.0816 26.7694 23.0416C26.7694 21.0016 25.0894 19.3216 23.0494 19.3216ZM23.0494 10.4416C21.0094 10.4416 19.3294 12.1216 19.3294 14.1616C19.3294 16.2016 21.0094 17.8816 23.0494 17.8816C25.0894 17.8816 26.7694 16.2016 26.7694 14.1616C26.7694 12.1216 25.0894 10.4416 23.0494 10.4416ZM84.9694 7.68156C85.0894 7.68156 85.2094 7.80156 85.3294 7.92156V11.7616C85.3294 12.0016 85.0894 12.1216 84.9694 12.1216H78.6094C78.3694 12.1216 78.2494 11.8816 78.2494 11.7616V8.04156C78.2494 7.80156 78.4894 7.68156 78.6094 7.68156H84.9694ZM84.8494 13.0816H72.6094C72.4894 13.0816 72.2494 13.2016 72.2494 13.4416L70.6894 19.4416L70.5694 19.8016L68.6494 13.4416C68.6494 13.3216 68.4094 13.0816 68.2894 13.0816H63.4894C63.3694 13.0816 63.1294 13.2016 63.1294 13.4416L61.3294 19.4416L61.2094 19.8016L61.0894 19.4416L60.3694 16.4416L59.6494 13.4416C59.6494 13.3216 59.4094 13.0816 59.2894 13.0816H49.6894V7.92156C49.6894 7.80156 49.4494 7.56156 49.2094 7.68156L43.2094 9.60156C42.9694 9.60156 42.8494 9.72156 42.8494 9.96156V13.2016H41.2894C41.1694 13.2016 40.9294 13.3216 40.9294 13.5616V18.1216C40.9294 18.2416 41.0494 18.4816 41.2894 18.4816H42.8494V24.1216C42.8494 28.0816 45.0094 29.8816 48.9694 29.8816C50.6494 29.8816 52.2094 29.5216 53.2894 28.9216V24.1216C53.2894 23.8816 53.0494 23.7616 52.9294 23.8816C52.3294 24.1216 51.7294 24.2416 51.2494 24.2416C50.1694 24.2416 49.5694 23.7616 49.5694 22.5616V18.4816H53.0494C53.1694 18.4816 53.4094 18.3616 53.4094 18.1216V14.2816L57.9694 29.4016C57.9694 29.5216 58.2094 29.7616 58.3294 29.7616H63.3694C63.4894 29.7616 63.7294 29.6416 63.7294 29.4016L65.8894 22.6816L66.9694 26.1616L67.9294 29.4016C67.9294 29.5216 68.1694 29.7616 68.2894 29.7616H73.3294C73.4494 29.7616 73.6894 29.6416 73.6894 29.4016L78.2494 14.2816V29.4016C78.2494 29.5216 78.3694 29.7616 78.6094 29.7616H84.7294C84.8494 29.7616 85.0894 29.6416 85.0894 29.4016V13.4416C85.0894 13.3216 84.9694 13.0816 84.8494 13.0816ZM92.8894 7.68156H86.7694C86.6494 7.68156 86.4094 7.80156 86.4094 8.04156V29.2816C86.4094 29.4016 86.5294 29.6416 86.7694 29.6416H92.8894C93.0094 29.6416 93.2494 29.5216 93.2494 29.2816V7.92156C93.2494 7.80156 93.1294 7.68156 92.8894 7.68156ZM101.049 7.68156H94.6894C94.5694 7.68156 94.3294 7.80156 94.3294 8.04156V11.7616C94.3294 11.8816 94.4494 12.1216 94.6894 12.1216H101.049C101.169 12.1216 101.409 12.0016 101.409 11.7616V7.92156C101.409 7.80156 101.289 7.68156 101.049 7.68156ZM100.929 13.0816H94.8094C94.6894 13.0816 94.4494 13.2016 94.4494 13.4416V29.1616C94.4494 29.2816 94.5694 29.5216 94.8094 29.5216H100.929C101.049 29.5216 101.289 29.4016 101.289 29.1616V13.4416C101.289 13.3216 101.169 13.0816 100.929 13.0816ZM120.249 21.2416C120.249 25.8016 116.409 29.7616 111.009 29.7616C105.729 29.7616 101.889 25.8016 101.889 21.2416C101.889 16.6816 105.729 12.7216 111.129 12.7216C116.409 12.7216 120.249 16.6816 120.249 21.2416ZM113.769 21.3616C113.769 19.6816 112.569 18.3616 111.129 18.4816C109.569 18.4816 108.489 19.8016 108.489 21.3616C108.489 22.9216 109.689 24.2416 111.129 24.2416C112.689 24.2416 113.769 22.9216 113.769 21.3616Z" fill="#667085"/>
</g>
<defs>
<clipPath id="clip0_223_8727">
<rect width="120" height="36" fill="white" transform="translate(0.609375 0.601562)"/>
</clipPath>
</defs>
</svg>
