<svg width="92" height="36" viewBox="0 0 92 36" fill="none" xmlns="http://www.w3.org/2000/svg">
<g clip-path="url(#clip0_223_8678)">
<path d="M74.1259 21.1678L75.6133 20.8241C75.6446 20.8169 75.6963 20.805 75.7594 20.7846C76.1698 20.6743 76.5215 20.4088 76.7404 20.0442C76.9593 19.6796 77.0284 19.2443 76.933 18.8301C76.9309 18.8209 76.9289 18.8123 76.9268 18.8033C76.878 18.6047 76.7924 18.4171 76.6745 18.2501C76.5078 18.0387 76.3015 17.8618 76.0672 17.7293C75.7914 17.5718 75.5026 17.4382 75.2042 17.3296L73.5734 16.7343C72.6581 16.394 71.743 16.0623 70.8192 15.7388C70.2202 15.5256 69.7126 15.3385 69.2715 15.2021C69.1883 15.1764 69.0964 15.1508 69.0218 15.125C68.4886 14.9616 68.1139 14.8939 67.7969 14.8916C67.5852 14.8838 67.3743 14.9223 67.1788 15.0043C66.9751 15.0922 66.7921 15.222 66.6419 15.3854C66.5672 15.4703 66.497 15.5591 66.4314 15.6514C66.37 15.7454 66.3137 15.8426 66.2627 15.9427C66.2064 16.0499 66.1582 16.1612 66.1182 16.2756C65.8155 17.1703 65.6647 18.1094 65.6721 19.0538C65.6775 19.9077 65.7005 21.0035 66.1698 21.7464C66.2829 21.937 66.4347 22.1018 66.6153 22.23C66.9496 22.4609 67.2875 22.4913 67.6389 22.5167C68.1642 22.5543 68.6731 22.4253 69.1803 22.3081L74.1218 21.1663L74.1259 21.1678Z" fill="#667085"/>
<path d="M90.7178 13.2703C90.3117 12.418 89.7656 11.64 89.1025 10.9684C89.0168 10.8831 88.9249 10.8042 88.8276 10.7324C88.7378 10.665 88.6445 10.6024 88.5481 10.5447C88.449 10.4904 88.347 10.4414 88.2427 10.3979C88.0365 10.3169 87.8154 10.2804 87.594 10.2908C87.3823 10.3028 87.1757 10.3608 86.9886 10.4607C86.705 10.6017 86.3981 10.8284 85.9898 11.2079C85.9334 11.2639 85.8626 11.3271 85.7989 11.3867C85.4621 11.7034 85.0874 12.0938 84.6415 12.5484C83.9527 13.2446 83.2744 13.9444 82.6003 14.6519L81.3941 15.9028C81.1732 16.1313 80.972 16.3782 80.7928 16.6408C80.6402 16.8627 80.5322 17.1122 80.4749 17.3754C80.4417 17.5773 80.4465 17.7835 80.4892 17.9835C80.4913 17.9926 80.4932 18.0012 80.4953 18.0103C80.5906 18.4246 80.8429 18.7857 81.199 19.0174C81.5551 19.2491 81.9873 19.3334 82.4045 19.2527C82.4706 19.2431 82.5219 19.2318 82.553 19.2241L88.9841 17.7382C89.4909 17.6211 90.0053 17.5137 90.4606 17.2494C90.766 17.0723 91.0564 16.8968 91.2557 16.5426C91.3622 16.348 91.4266 16.1332 91.4449 15.9123C91.5436 15.0358 91.0859 14.0404 90.7178 13.2703Z" fill="#667085"/>
<path d="M79.2103 15.9734C79.6764 15.388 79.6752 14.5153 79.7169 13.8019C79.8571 11.4183 80.0049 9.03436 80.1219 6.64942C80.1667 5.74607 80.264 4.85497 80.2102 3.94476C80.166 3.19388 80.1605 2.33175 79.6864 1.71553C78.8496 0.628874 77.0651 0.718185 75.8475 0.886743C75.4745 0.938516 75.1009 1.00812 74.7303 1.0971C74.3596 1.18607 73.9928 1.28325 73.6339 1.39818C72.4656 1.78089 70.8231 2.48336 70.545 3.82953C70.3882 4.59058 70.7598 5.36906 71.048 6.06359C71.3973 6.90549 71.8746 7.66387 72.3095 8.45637C73.4593 10.5486 74.6305 12.6278 75.7984 14.7092C76.1472 15.3305 76.5274 16.1174 77.2021 16.4394C77.2467 16.4588 77.2923 16.4761 77.3386 16.4909C77.6412 16.6056 77.971 16.6276 78.2863 16.5544C78.3053 16.55 78.3239 16.5457 78.3425 16.5414C78.6336 16.4622 78.8972 16.3039 79.104 16.0841C79.1413 16.049 79.1769 16.0122 79.2103 15.9734Z" fill="#667085"/>
<path d="M78.6521 22.3563C78.4702 22.1003 78.212 21.9086 77.9146 21.8084C77.6171 21.7081 77.2955 21.7046 76.9957 21.7982C76.9253 21.8216 76.8568 21.85 76.7905 21.8834C76.688 21.9356 76.5902 21.9966 76.4982 22.0656C76.2301 22.2642 76.0045 22.5222 75.7989 22.781C75.7468 22.847 75.6992 22.9348 75.6372 22.9913L74.6028 24.4142C74.0164 25.2113 73.4383 26.0105 72.8649 26.8224C72.4908 27.3465 72.1671 27.7891 71.9116 28.1807C71.8631 28.2544 71.8128 28.3368 71.7668 28.4024C71.4604 28.8764 71.2869 29.2223 71.1979 29.5304C71.131 29.7352 71.1097 29.9521 71.1358 30.1658C71.1643 30.3886 71.2393 30.6027 71.3559 30.7944C71.4179 30.8906 71.4847 30.9836 71.5561 31.0731C71.6303 31.1591 71.7091 31.241 71.7921 31.3186C71.8808 31.4031 71.9756 31.481 72.0759 31.5516C72.7898 32.0484 73.5715 32.4053 74.3937 32.6811C75.0778 32.9082 75.789 33.0441 76.5088 33.0853C76.6312 33.0916 76.754 33.0889 76.8761 33.0774C76.9892 33.0675 77.1017 33.0517 77.2132 33.0301C77.3247 33.0041 77.4346 32.9721 77.5427 32.9344C77.7529 32.8558 77.9442 32.7339 78.1045 32.5766C78.2562 32.4248 78.3729 32.2416 78.4465 32.0399C78.5661 31.7419 78.6447 31.3635 78.6965 30.8016C78.701 30.7217 78.7124 30.6259 78.7204 30.5381C78.7611 30.0719 78.7799 29.5244 78.8099 28.8805C78.8604 27.8905 78.9001 26.9047 78.9315 25.9161C78.9315 25.9161 78.9981 24.1593 78.9979 24.1583C79.0131 23.7535 79.0007 23.3049 78.8884 22.9017C78.839 22.7086 78.7593 22.5244 78.6521 22.3563Z" fill="#667085"/>
<path d="M90.3292 25.1052C90.1134 24.8685 89.8074 24.6324 89.3249 24.3406C89.2553 24.3018 89.1737 24.2499 89.0983 24.2048C88.6966 23.9631 88.2127 23.709 87.6474 23.4019C86.779 22.9251 85.91 22.4603 85.0329 21.9994L83.4829 21.1774C83.4025 21.154 83.3209 21.0959 83.2452 21.0594C82.9474 20.917 82.6318 20.7841 82.3041 20.7231C82.1912 20.7014 82.0766 20.6895 81.9616 20.6876C81.8874 20.6867 81.8134 20.6912 81.7399 20.7011C81.4299 20.7491 81.1431 20.8938 80.9201 21.1144C80.6971 21.3351 80.5494 21.6206 80.498 21.9301C80.4743 22.1271 80.4815 22.3264 80.5193 22.521C80.5951 22.9335 80.7792 23.3415 80.9698 23.6988L81.7975 25.25C82.258 26.125 82.7241 26.9947 83.2019 27.8618C83.5101 28.4275 83.7667 28.9114 84.0069 29.3127C84.0525 29.3881 84.1041 29.4694 84.1431 29.5393C84.4356 30.0216 84.6705 30.3251 84.9088 30.5429C85.0631 30.6919 85.2481 30.8054 85.4508 30.8753C85.6639 30.946 85.8894 30.971 86.1128 30.9488C86.2264 30.9354 86.3392 30.9159 86.4507 30.8904C86.5606 30.8609 86.6689 30.8257 86.775 30.7849C86.8897 30.7417 87.001 30.6903 87.1083 30.6309C87.7375 30.2782 88.3174 29.8439 88.8333 29.3394C89.452 28.7307 89.9988 28.0668 90.4241 27.3069C90.4833 27.1993 90.5345 27.0877 90.5775 26.9728C90.6175 26.8664 90.6522 26.7581 90.6813 26.6483C90.7066 26.5366 90.7258 26.4238 90.7392 26.31C90.7603 26.0868 90.7343 25.8616 90.663 25.6492C90.5929 25.4456 90.479 25.2599 90.3292 25.1052Z" fill="#667085"/>
<path fill-rule="evenodd" clip-rule="evenodd" d="M36.9648 10.0139C36.9648 8.73563 38.0062 7.69141 39.263 7.69141C40.5019 7.69141 41.5073 8.73563 41.5612 10.0319V28.1617C41.5612 29.44 40.5198 30.4842 39.263 30.4842C37.9702 30.4842 36.9648 29.44 36.9648 28.1617V10.0139ZM34.8278 21.2123C34.8099 21.5723 34.7201 22.2385 34.2533 22.7246C33.7505 23.2466 33.0683 23.3727 32.6733 23.3727C31.0304 23.3817 29.3877 23.3862 27.7449 23.3907C26.102 23.3952 24.459 23.3997 22.8161 23.4087C22.9598 23.8588 23.247 24.5429 23.8934 25.1731C24.2884 25.5512 24.6655 25.7672 24.827 25.8572C25.0246 25.9833 25.7068 26.3433 26.5507 26.3433C27.4485 26.3433 28.2385 26.0552 29.0105 25.6592L29.0751 25.6258C29.6116 25.3478 30.1653 25.0609 30.7521 24.9571C31.3267 24.867 31.9371 24.975 32.386 25.3712C32.9247 25.8392 33.1401 26.5233 32.9426 27.2255C32.7092 28.0177 32.0448 28.7018 31.3446 29.1159C30.9496 29.3499 30.5187 29.548 30.0878 29.7101C29.5312 29.9081 28.9567 30.0521 28.3821 30.1422C27.8075 30.2321 27.215 30.2682 26.6225 30.2502C26.3352 30.2502 26.03 30.2502 25.7247 30.2141C25.4016 30.1781 25.0784 30.1062 24.7732 30.0341C24.2705 29.9261 23.8037 29.764 23.3368 29.548C22.8879 29.3499 22.4391 29.0979 22.0261 28.8099C21.6131 28.5218 21.2361 28.1798 20.877 27.8196C20.5358 27.4596 20.2127 27.0635 19.9254 26.6314C18.9558 25.1551 18.5069 23.3367 18.5967 21.5723C18.6686 19.8439 19.2431 18.1156 20.2845 16.7113C20.3973 16.5354 20.5275 16.3858 20.6508 16.2441C20.7042 16.1829 20.7563 16.123 20.8052 16.0632C22.0912 14.491 23.8093 13.9934 24.5181 13.7882L24.5578 13.7766C26.5866 13.2006 28.2743 13.5786 28.9567 13.7766C29.2978 13.8667 31.219 14.4608 32.7092 16.0632C32.781 16.1351 32.9785 16.3692 33.2298 16.7113C34.1739 17.9973 34.4995 19.1947 34.6098 19.6004L34.6124 19.6099C34.7201 20.0059 34.8278 20.5461 34.8278 21.2123ZM24.2884 18.2417C23.247 19.0878 22.9598 20.1681 22.8879 20.5101H30.7162C30.6444 20.1861 30.3391 19.0878 29.2978 18.2417C28.2385 17.3954 27.1252 17.3414 26.7841 17.3414C26.443 17.3414 25.3298 17.3954 24.2884 18.2417ZM54.0574 13.4706C52.0106 13.4706 50.1432 14.3889 48.8146 15.8832V15.8291C48.7607 14.6228 47.7552 13.6507 46.5343 13.6507C45.2595 13.6507 44.2361 14.6769 44.2361 15.9551V33.2568C44.2361 34.5351 45.2595 35.5613 46.5343 35.5613C47.8091 35.5613 48.8325 34.5351 48.8325 33.2568V32.5906V27.8556C50.1611 29.332 52.0106 30.2682 54.0753 30.2682C58.1869 30.2682 61.5265 26.5414 61.5265 21.8964C61.5086 17.2514 58.169 13.4706 54.0574 13.4706ZM53.0519 26.5054C50.7178 26.5054 48.8146 24.471 48.8146 21.9324C48.8146 19.3758 50.6998 17.3414 53.0519 17.3414C55.386 17.3414 57.2892 19.3758 57.2892 21.9324C57.2713 24.471 55.386 26.5054 53.0519 26.5054ZM15.1495 23.1026L14.3954 24.759C14.0543 25.4791 13.7131 26.2173 13.3899 26.9554C13.2868 27.182 13.1829 27.4131 13.0776 27.6475C11.6426 30.8405 9.93942 34.6301 6.22598 35.4353C4.4305 35.8313 1.71933 35.2913 0.713861 33.5988C-0.291606 31.8885 1.19864 29.926 3.1198 30.3761C3.42282 30.4437 3.72077 30.5923 4.02126 30.742C4.52201 30.9917 5.02977 31.2449 5.57961 31.1323C6.10029 31.0423 6.42348 30.6642 6.83644 30.1781C7.41099 29.512 7.66236 28.8099 7.77009 28.3958C7.76111 28.3778 7.75213 28.3552 7.74315 28.3327C7.73418 28.3102 7.7252 28.2877 7.71622 28.2697C7.24884 27.3978 6.84066 26.6182 6.49968 25.967C6.27742 25.5425 6.08371 25.1725 5.92075 24.867C5.58639 24.2332 5.33382 23.7541 5.13741 23.3815C4.56387 22.2934 4.46916 22.1137 4.21504 21.6443C3.65845 20.5821 3.06593 19.5558 2.45547 18.5297C1.79115 17.4134 1.10887 16.1712 1.66547 14.8569C2.11434 13.7947 3.26344 13.2545 4.35868 13.5966C5.51431 13.9473 6.02607 15.047 6.50467 16.0753C6.5912 16.2612 6.67665 16.4448 6.76462 16.6213C7.53668 18.1516 8.29077 19.6819 9.04488 21.2123C9.11126 21.3644 9.21272 21.5718 9.33601 21.8239C9.44614 22.049 9.57371 22.3098 9.70921 22.5985C9.78006 22.7485 9.84745 22.8881 9.90843 23.0143C9.98642 23.1759 10.0538 23.3155 10.1042 23.4267C10.4543 22.5535 10.8089 21.6849 11.1636 20.8162C11.5181 19.9475 11.8728 19.0788 12.2229 18.2056C12.2326 18.1568 12.3162 17.9706 12.4421 17.6898C12.5485 17.4524 12.6853 17.1476 12.8333 16.8013C12.8834 16.683 12.9338 16.5602 12.9854 16.4347C13.4517 15.2989 14.0124 13.9334 15.2573 13.5606C16.155 13.2905 17.1605 13.6507 17.6811 14.4068C17.9505 14.7848 18.0582 15.2169 18.0761 15.649C18.0906 16.6045 17.629 17.63 17.2329 18.5099C17.1364 18.7242 17.0438 18.9298 16.963 19.1238C16.9592 19.1312 16.9436 19.1665 16.9153 19.2297C16.8058 19.4758 16.5075 20.1456 15.9934 21.2483C15.8079 21.6435 15.6298 22.0389 15.4495 22.439C15.3507 22.6586 15.2512 22.8795 15.1495 23.1026Z" fill="#667085"/>
<path d="M63.2725 28.7555H63.439C63.5211 28.7555 63.5869 28.7345 63.6362 28.6923C63.6865 28.6491 63.7117 28.5947 63.7117 28.529C63.7117 28.4519 63.6896 28.397 63.6454 28.3641C63.6013 28.3302 63.5314 28.3132 63.4359 28.3132H63.2725V28.7555ZM63.9413 28.5228C63.9413 28.605 63.9192 28.6779 63.875 28.7417C63.8319 28.8043 63.7708 28.851 63.6917 28.8818L64.0584 29.4906H63.7995L63.4806 28.945H63.2725V29.4906H63.0445V28.1176H63.4467C63.6172 28.1176 63.742 28.151 63.8211 28.2177C63.9013 28.2845 63.9413 28.3862 63.9413 28.5228ZM62.3125 28.8033C62.3125 28.5979 62.3639 28.4052 62.4666 28.2255C62.5693 28.0456 62.7106 27.9039 62.8904 27.8001C63.0702 27.6964 63.2638 27.6445 63.4713 27.6445C63.6768 27.6445 63.8693 27.6959 64.0492 27.7986C64.2289 27.9014 64.3707 28.0426 64.4744 28.2224C64.5782 28.4021 64.6301 28.5958 64.6301 28.8033C64.6301 29.0056 64.5803 29.1957 64.4806 29.3734C64.381 29.5512 64.2413 29.6934 64.0615 29.8002C63.8817 29.9071 63.685 29.9605 63.4713 29.9605C63.2587 29.9605 63.0625 29.9076 62.8826 29.8018C62.7029 29.695 62.5626 29.5526 62.462 29.375C62.3623 29.1973 62.3125 29.0067 62.3125 28.8033ZM62.4743 28.8033C62.4743 28.981 62.519 29.1474 62.6084 29.3025C62.6978 29.4566 62.8195 29.5783 62.9736 29.6678C63.1287 29.7561 63.2946 29.8002 63.4713 29.8002C63.6501 29.8002 63.8159 29.7556 63.969 29.6662C64.1221 29.5768 64.2433 29.4561 64.3327 29.3041C64.4231 29.151 64.4683 28.984 64.4683 28.8033C64.4683 28.6246 64.4236 28.4586 64.3343 28.3056C64.2448 28.1525 64.1236 28.0313 63.9706 27.9419C63.8185 27.8515 63.6521 27.8063 63.4713 27.8063C63.2925 27.8063 63.1267 27.851 62.9736 27.9404C62.8206 28.0297 62.6988 28.151 62.6084 28.304C62.519 28.456 62.4743 28.6224 62.4743 28.8033Z" fill="#667085"/>
</g>
<defs>
<clipPath id="clip0_223_8678">
<rect width="91.4286" height="35.2" fill="white" transform="translate(0.390625 0.398438)"/>
</clipPath>
</defs>
</svg>
